<?xml version="1.0" encoding="utf-8"?>
<!-- Generator: Adobe Illustrator 14.0.0, SVG Export Plug-In  -->
<!DOCTYPE svg PUBLIC "-//W3C//DTD SVG 1.1//EN" "http://www.w3.org/Graphics/SVG/1.1/DTD/svg11.dtd" [
	<!ENTITY ns_flows "http://ns.adobe.com/Flows/1.0/">
]>
<svg version="1.1"
	 xmlns="http://www.w3.org/2000/svg" xmlns:xlink="http://www.w3.org/1999/xlink" xmlns:a="http://ns.adobe.com/AdobeSVGViewerExtensions/3.0/"
	 x="0px" y="0px" width="551px" height="551px" viewBox="0 0 551 551" enable-background="new 0 0 551 551" xml:space="preserve">
<defs>
</defs>
<path fill="#9E9E9E" d="M276.336,0C123.972,0,0,123.955,0,276.355c0,152.324,123.972,276.314,276.336,276.314
	c152.362,0,276.353-123.99,276.353-276.314C552.688,123.955,428.698,0,276.336,0"/>
<path fill="#FFDB00" d="M395.699,119.537h-49.962H206.895h-49.962c-14.853,0-26.886,11.691-26.886,26.085v231.037
	c0,14.319,12.034,26.009,26.886,26.009h10.51c-0.801,1.601-1.256,3.392-1.256,5.219v12.527c0,7.008,6.168,12.682,13.785,12.682
	h6.645c7.617,0,13.767-5.674,13.767-12.682v-12.527c0-1.827-0.438-3.618-1.237-5.219h154.379c-0.818,1.601-1.256,3.392-1.256,5.219
	v12.527c0,7.008,6.131,12.682,13.748,12.682h6.683c7.578,0,13.766-5.674,13.766-12.682v-12.527c0-1.827-0.476-3.618-1.276-5.219
	h10.51c14.891,0,26.943-11.69,26.943-26.009V145.622C422.643,131.228,410.59,119.537,395.699,119.537 M156.304,151.373
	c0-4.723,3.865-8.568,8.568-8.568h67.879h17.136h50.458h17.137h69.936c4.704,0,8.549,3.846,8.549,8.568v9.443
	c0,4.722-3.846,8.568-8.549,8.568h-69.936h-17.137h-50.458h-17.136h-67.879c-4.704,0-8.568-3.846-8.568-8.568V151.373z
	 M227.002,384.276h-61.921c-4.703,0-8.567-3.884-8.567-8.569v-15.614c0-4.721,3.845-8.567,8.548-8.567h47.03
	c4.722,0,10.149,3.542,12.109,7.807l7.807,17.136C233.97,380.734,231.722,384.276,227.002,384.276z M320.871,376.469l7.806-17.136
	c1.943-4.265,7.37-7.807,12.091-7.807h47.03c4.704,0,8.57,3.847,8.57,8.567v15.614c0,4.685-3.866,8.569-8.589,8.569H325.86
	C321.156,384.276,318.89,380.734,320.871,376.469z M396.023,320.034c0,9.368-7.882,16.832-17.555,16.832h-86.634H174.202
	c-9.654,0-17.537-7.464-17.537-16.832V204.991c0-9.329,7.883-16.871,17.537-16.871h117.633h86.634
	c9.673,0,17.555,7.542,17.555,16.871V320.034z"/>
</svg>
