<?xml version="1.0" encoding="utf-8"?>
<!-- Generator: Adobe Illustrator 16.0.0, SVG Export Plug-In . SVG Version: 6.00 Build 0)  -->
<!DOCTYPE svg PUBLIC "-//W3C//DTD SVG 1.1//EN" "http://www.w3.org/Graphics/SVG/1.1/DTD/svg11.dtd">
<svg version="1.1" id="Calque_1" xmlns="http://www.w3.org/2000/svg" xmlns:xlink="http://www.w3.org/1999/xlink" x="0px" y="0px"
	 width="1920px" height="480px" viewBox="0 0 1920 480" enable-background="new 0 0 1920 480" xml:space="preserve">
<filter  id="a">
	<feGaussianBlur  stdDeviation="2.16"></feGaussianBlur>
</filter>
<g display="none" filter="url(#a)">
	<path display="inline" fill="#808080" d="M1123.299,389.126c0,7.798-3.899,11.696-11.696,11.696H778.705
		c-7.797,0-11.695-3.898-11.695-11.696V56.23c0-7.798,3.898-11.696,11.695-11.696h332.897c7.798,0,11.696,3.898,11.696,11.696
		V389.126"/>
</g>
<path display="none" fill="#FFFFFF" stroke="#000000" d="M1138.145,369.332c-0.001,7.798-3.899,11.696-11.696,11.696H793.551
	c-7.798,0-11.696-3.898-11.696-11.696V36.436c0-7.798,3.899-11.696,11.696-11.696h332.897c7.797,0,11.696,3.898,11.696,11.696
	V369.332"/>
<path d="M1092.356,294.646h17.814c7.125,0,10.688-3.563,10.688-10.688v-17.814h-10.688v-24.94
	c-0.001-7.126-3.267-11.579-9.798-13.36l-3.655-7.104l-23.158-75.846c-2.376-3.859-38.924-6.673-42.486-6.673l-4.87,128.808
	l-139.156-0.884c9.798,7.126,15.291,16.627,16.479,28.504h110.449c0.891-10.095,5.048-18.557,12.471-25.386
	c7.72-6.829,16.627-10.243,26.722-10.243c10.391,0,19.149,3.414,26.276,10.243c7.422,6.532,11.727,14.993,12.915,25.386"/>
<path d="M1037.043,137.879H832.271c-5.938,0-10.985,2.078-15.143,6.234c-4.156,4.156-6.234,9.204-6.234,15.143v99.761l225.006,0.424
	l7.026-85.935c3.563,0,5.345-1.781,5.345-5.345c0-1.187-0.445-2.227-1.336-3.117"/>
<path d="M1021.099,298.208c0,8.907,3.117,16.479,9.353,22.714c6.235,6.234,13.807,9.353,22.713,9.353
	c8.907,0,16.479-3.118,22.714-9.353c6.235-6.235,9.353-13.807,9.353-22.714c0-8.61-3.267-16.032-9.798-22.268
	c-6.235-6.532-13.658-9.798-22.269-9.798c-8.907,0-16.479,3.117-22.713,9.353C1024.216,281.73,1021.099,289.301,1021.099,298.208"/>
<path d="M832.266,298.208c0,8.907,3.117,16.479,9.353,22.714c6.235,6.234,13.806,9.353,22.714,9.353
	c8.906,0,16.478-3.118,22.713-9.353c6.235-6.235,9.353-13.807,9.353-22.714c0-8.61-3.266-16.032-9.798-22.268
	c-6.235-6.532-13.658-9.798-22.268-9.798c-8.908,0-16.479,3.117-22.714,9.353C835.383,281.73,832.266,289.301,832.266,298.208"/>
<path fill="#EEEEEE" d="M850.525,298.654c0-8.907,4.453-13.36,13.361-13.36c8.906,0,13.36,4.454,13.36,13.36
	c0,8.907-4.454,13.361-13.36,13.361C854.979,312.015,850.525,307.561,850.525,298.654"/>
<path fill="#EEEEEE" d="M1039.358,298.654c0-8.907,4.453-13.36,13.36-13.36c8.908,0,13.36,4.454,13.361,13.36
	c0,8.907-4.454,13.361-13.361,13.361C1043.813,312.015,1039.358,307.561,1039.358,298.654"/>
<path d="M841.618,266.143h-32.957v16.033c0,8.313,4.157,12.47,12.471,12.47h4.008C826.327,282.473,831.82,272.972,841.618,266.143"
	/>
<path fill="#FFFFFF" d="M862.897,164.226v51.54c-0.001,1.598-1.188,2.397-3.563,2.397h-35.629c-2.375,0-3.563-0.8-3.563-2.397
	v-51.54c0-1.599,1.188-2.397,3.563-2.397h35.629C861.709,161.828,862.896,162.627,862.897,164.226"/>
<path fill="#FFFFFF" d="M1080.247,211.009c0.297,0.891,0.445,1.781,0.445,2.672c0,3.563-1.781,5.345-5.344,5.345h-30.405
	c-3.563,0-5.344-1.781-5.344-5.345v-48.297c0-3.563,1.781-5.344,5.344-5.344h9.473c3.86,0,6.829,1.633,8.908,4.898L1080.247,211.009
	"/>
<path fill="#FFFFFF" d="M915.457,165.187v51.541c0,1.598-1.188,2.396-3.563,2.396h-35.629c-2.375,0-3.563-0.799-3.563-2.396v-51.541
	c0-1.598,1.188-2.396,3.563-2.396h35.629C914.269,162.79,915.457,163.589,915.457,165.187"/>
<path fill="#FFFFFF" d="M966.886,164.392v51.54c-0.001,1.599-1.188,2.397-3.563,2.397h-35.629c-2.375,0-3.563-0.799-3.563-2.397
	v-51.54c0-1.598,1.188-2.397,3.563-2.397h35.629C965.697,161.994,966.885,162.794,966.886,164.392"/>
<path d="M854.494,187.512c0.003,8.296-6.72,15.024-15.016,15.028c-8.297,0.003-15.025-6.72-15.028-15.017c0-0.004,0-0.008,0-0.012
	c-0.004-8.297,6.72-15.025,15.016-15.028c8.297-0.004,15.024,6.72,15.028,15.016C854.494,187.503,854.494,187.508,854.494,187.512z"
	/>
<path d="M904.859,194.581c0.004,8.296-6.72,15.024-15.016,15.028c-8.297,0.003-15.025-6.72-15.028-15.017c0-0.004,0-0.008,0-0.012
	c-0.003-8.297,6.72-15.025,15.016-15.028c8.297-0.004,15.024,6.72,15.028,15.016C904.859,194.573,904.859,194.577,904.859,194.581z"
	/>
<path d="M961.415,190.162c0.004,8.297-6.72,15.025-15.016,15.028c-8.296,0.004-15.024-6.72-15.028-15.016c0-0.004,0-0.009,0-0.013
	c-0.003-8.296,6.72-15.024,15.016-15.028c8.297-0.003,15.025,6.72,15.028,15.017C961.415,190.155,961.415,190.158,961.415,190.162z"
	/>
<path d="M848.305,220.206c0.003,8.296-5.336,15.024-11.924,15.028c-6.589,0.003-11.932-6.72-11.935-15.017c0-0.004,0-0.008,0-0.012
	c-0.003-8.297,5.336-15.025,11.925-15.028c6.588-0.003,11.932,6.72,11.934,15.016C848.305,220.198,848.305,220.202,848.305,220.206z
	"/>
<path d="M896.025,225.511c0.002,8.296-4.744,15.024-10.6,15.028c-5.856,0.003-10.606-6.72-10.608-15.017c0-0.004,0-0.008,0-0.012
	c-0.003-8.297,4.743-15.024,10.6-15.028c5.856-0.003,10.605,6.72,10.608,15.016C896.025,225.503,896.025,225.507,896.025,225.511z"
	/>
<path d="M962.296,221.092c0.003,8.296-4.94,15.024-11.041,15.028c-6.101,0.003-11.048-6.72-11.05-15.017c0-0.004,0-0.008,0-0.012
	c-0.003-8.297,4.94-15.024,11.041-15.028c6.1-0.003,11.047,6.72,11.05,15.016C962.296,221.084,962.296,221.088,962.296,221.092z"/>
<path fill="#FFFFFF" d="M1019.904,164.696v51.54c0,1.599-1.188,2.397-3.563,2.397h-35.629c-2.376,0-3.563-0.799-3.563-2.397v-51.54
	c-0.001-1.598,1.187-2.397,3.563-2.396h35.629C1018.717,162.298,1019.904,163.098,1019.904,164.696"/>
<path d="M1011.498,187.982c0.004,8.297-6.719,15.025-15.016,15.028c-8.296,0.003-15.024-6.72-15.028-15.016c0-0.004,0-0.009,0-0.013
	c-0.003-8.296,6.72-15.024,15.017-15.028c8.296-0.003,15.024,6.72,15.027,15.017
	C1011.498,187.974,1011.498,187.978,1011.498,187.982z"/>
<path d="M1002.664,220.676c0.002,8.297-4.743,15.025-10.6,15.028c-5.856,0.004-10.605-6.72-10.607-15.016c0-0.004,0-0.009,0-0.013
	c-0.003-8.296,4.742-15.024,10.599-15.028c5.856-0.003,10.606,6.72,10.608,15.017
	C1002.664,220.668,1002.664,220.672,1002.664,220.676z"/>
</svg>
