<?xml version="1.0" encoding="utf-8"?>
<!-- Generator: Adobe Illustrator 16.0.0, SVG Export Plug-In . SVG Version: 6.00 Build 0)  -->
<!DOCTYPE svg PUBLIC "-//W3C//DTD SVG 1.1//EN" "http://www.w3.org/Graphics/SVG/1.1/DTD/svg11.dtd">
<svg version="1.1" id="Layer_1" xmlns="http://www.w3.org/2000/svg" xmlns:xlink="http://www.w3.org/1999/xlink" x="0px" y="0px"
	 width="594px" height="291px" viewBox="0 0 594 291" enable-background="new 0 0 594 291" xml:space="preserve">
<g>
	<g>
		<polygon fill="#FFCE00" points="2.351,10.159 2.351,18.274 19.851,18.594 19.91,2.711 4.058,2.479 4.058,9.709 		"/>
	</g>
	<g>
		<ellipse fill="#2D2609" cx="4.281" cy="18.275" rx="0.742" ry="1.887"/>
	</g>
	<g>
		<ellipse fill="#FFFFFF" cx="4.281" cy="18.275" rx="0.178" ry="0.508"/>
	</g>
	<g>
		<ellipse fill="#2D2609" cx="18.032" cy="18.275" rx="0.742" ry="1.887"/>
	</g>
	<g>
		<ellipse fill="#FFFFFF" cx="18.032" cy="18.275" rx="0.178" ry="0.508"/>
	</g>
	<g>
		<polygon fill="#00C3F7" points="4.058,3.698 19.91,4.105 19.91,9.84 4.058,9.738 		"/>
	</g>
	<g>
		<polygon fill="#FFCE00" points="5.529,11.382 5.306,11.376 5.363,2.811 5.586,2.817 		"/>
	</g>
	<g>
		<rect x="13.461" y="2.813" fill="#FFCE00" width="0.223" height="8.566"/>
	</g>
	<g>
		<polygon fill="#FFCE00" points="18.086,11.382 17.863,11.376 17.92,2.812 18.143,2.817 		"/>
	</g>
	<g>
		<path fill="#D1A002" d="M19.361,18.739l-0.148-0.058c0-0.015,0.141-1.539-0.26-2.526c-0.223-0.537-0.571-0.828-1.031-0.856
			c-0.341-0.029-0.609,0.174-0.802,0.581c-0.453,0.929-0.371,2.686-0.371,2.714l-0.148,0.029c-0.007-0.072-0.089-1.902,0.408-2.933
			c0.223-0.465,0.535-0.697,0.92-0.668c0.512,0.029,0.898,0.363,1.143,0.973C19.517,17.084,19.361,18.667,19.361,18.739z"/>
	</g>
	<g>
		<path fill="#D1A002" d="M5.721,18.405l-0.149-0.058c0-0.014,0.134-1.292-0.222-2.178c-0.223-0.552-0.579-0.842-1.076-0.871
			c-0.356-0.029-0.631,0.174-0.831,0.581c-0.424,0.885-0.349,2.468-0.342,2.482l-0.148,0.029c0-0.072-0.082-1.728,0.386-2.7
			c0.23-0.479,0.542-0.711,0.942-0.683c0.542,0.029,0.935,0.363,1.188,0.988C5.869,16.997,5.728,18.347,5.721,18.405z"/>
	</g>
	<g>
		<polygon fill="#FFCE00" points="9.773,11.382 9.551,11.376 9.608,2.812 9.831,2.817 		"/>
	</g>
	<g>
		<polygon fill="#2D2609" points="2.351,12.642 19.851,12.685 19.851,13.934 2.351,13.789 		"/>
	</g>
	<g>
		<polygon fill="#2D2609" points="2.351,11.044 19.851,11.088 19.851,12.337 2.351,12.191 		"/>
	</g>
</g>
<g display="none">
	<path display="inline" fill="#FFFFFF" d="M428.6,118.2c0,0,10.5,9.6,1.4,12.8c-9.101,3.2-9.101-8.2-9.101-8.2s-17.8,11.8-18.7,0.5
		c-0.899-11.4,11.8-10.5,11.8-10.5s-17.8-13.7-4.601-18.7s12.301,13.2,12.301,13.2s10.101-17.2,18.101-5.2S436,119.7,428.6,118.2z"
		/>
</g>
<g display="none">
	<path display="inline" fill="#FFFFFF" d="M52-22.9c0,3-0.7,5.5-2,7.5c-1.4,2-3.101,3.6-5.2,4.8c-2.1,1.2-4.5,2.1-7,2.6
		s-5,0.8-7.4,0.8c-1.399,0-3,0-4.699-0.1c-1.7-0.1-3.4-0.2-5.2-0.4C18.7-7.8,17-8,15.2-8.4c-1.801-0.3-3.4-0.8-5-1.4l1.899-17
		c1.3,0.4,2.601,0.8,3.8,1.2c1.301,0.4,2.601,0.8,3.801,1.2c1.3,0.4,2.5,0.7,3.6,0.9c1.1,0.2,2,0.4,2.6,0.4c0.301,0,0.7,0,1.2,0
		s0.9-0.1,1.4-0.2c0.5-0.1,0.8-0.3,1.2-0.5c0.3-0.2,0.5-0.5,0.5-1c0-1-0.9-2-2.601-3C26.7-28.4,25.7-29,24.5-29.6s-2.4-1.3-3.601-2
		C19.7-32.3,18.4-33.1,17.2-34c-1.2-0.9-2.3-2-3.3-3.2c-1-1.2-1.699-2.6-2.399-4.1c-0.601-1.5-0.9-3.3-0.9-5.4
		c0-3.3,0.601-6,1.9-8.2c1.3-2.2,3-4,5-5.4c2.1-1.4,4.5-2.3,7.1-2.9c2.7-0.6,5.4-0.9,8.2-0.9c3,0,6.2,0.3,9.4,0.9
		c3.199,0.6,6.399,1.6,9.5,3l-2.7,16c-2.7-1.2-5.101-2.1-7.4-2.8c-2.299-0.7-4.5-1.1-6.7-1.1c-0.399,0-0.899,0-1.399,0
		S32.4-48,31.9-47.9s-0.9,0.3-1.3,0.6c-0.3,0.3-0.5,0.7-0.5,1.2c0,0.4,0.3,0.8,0.8,1.1c0.6,0.3,1.3,0.7,2.1,1.2
		c1.1,0.6,2.3,1.2,3.6,1.8c1.3,0.6,2.7,1.4,4,2.2c1.4,0.9,2.8,1.8,4.101,2.9c1.399,1.1,2.6,2.3,3.6,3.6c1.1,1.4,1.9,2.9,2.6,4.6
		C51.7-26.8,52-25,52-22.9z"/>
	<path display="inline" fill="#FFFFFF" d="M102.2-13c-1,0.7-2.2,1.4-3.4,2c-1.3,0.7-2.6,1.3-4,1.8c-1.4,0.5-2.8,1-4.2,1.3
		c-1.4,0.3-2.7,0.5-3.9,0.5C82-7.4,77.9-8,74.2-9.3c-3.7-1.3-6.7-3.2-9.301-5.7c-2.5-2.5-4.5-5.6-5.8-9.3c-1.3-3.7-2-7.9-2-12.7
		c0-3.8,0.7-7.4,2.2-10.7c1.4-3.3,3.4-6.1,5.9-8.5c2.5-2.4,5.399-4.3,8.8-5.6c3.399-1.4,7-2,10.8-2c2.7,0,5.4,0.3,8.2,0.8
		c2.7,0.5,5.399,1.1,8.2,1.9c-0.101,1.1-0.301,2.4-0.5,4c-0.2,1.6-0.5,3.2-0.9,4.8c-0.3,1.7-0.7,3.2-1.2,4.7s-1,2.7-1.6,3.7
		c-0.601-0.2-1.2-0.5-2-0.9c-0.7-0.4-1.5-0.7-2.3-1.1C91.9-46.2,91-46.5,90.1-46.8c-0.899-0.2-1.8-0.4-2.7-0.4
		c-1.399,0-2.8,0.3-4.1,0.8c-1.3,0.6-2.4,1.3-3.4,2.2c-1,0.9-1.699,2-2.3,3.2c-0.6,1.3-0.9,2.5-0.9,3.9c0,3.5,0.8,6.3,2.5,8.4
		c1.699,2.1,4,3.2,6.899,3.2c1.7,0,3.3-0.3,5-1c1.7-0.6,3.2-1.4,4.601-2.2L102.2-13z"/>
	<path display="inline" fill="#FFFFFF" d="M155-63.8v4.4c0,1.3,0,2.7,0,4.2s-0.101,3-0.2,4.4c-0.2,3.2-0.3,6.6-0.4,10.2
		s-0.1,7.2-0.199,11c0,3.7-0.101,7.5-0.2,11.2c-0.101,3.7-0.2,7.3-0.4,10.8c-2.7-0.1-5.1-0.1-7.399-0.2c-2-0.1-3.9-0.1-5.801-0.1
		c-1.899,0-3.199-0.1-4-0.1c0-1.6,0-3.1,0.101-4.5c0.1-1.2,0.1-2.4,0.1-3.6c0-1.2,0-2.1,0-2.8c0-0.5,0-1.2,0-2
		c0-0.8-0.1-1.6-0.1-2.4c0-0.8-0.101-1.6-0.101-2.3c0-0.7,0-1.3,0-1.6h-10.6c0,0.5,0,1.3,0,2.4c0,1.1,0,2.2,0,3.4c0,1.1,0,2.2,0,3.3
		c0,1,0,1.8,0,2.3v4.6v2.9c-2.7,0.1-5.2,0.1-7.5,0.2c-2,0.1-3.9,0.1-5.8,0.1s-3.2,0-3.9,0c0-3,0-5.9-0.1-8.6
		c-0.101-2.4-0.101-4.8-0.101-7.2c0-2.4-0.1-4.4-0.1-6c-0.1-2.7-0.2-5.5-0.2-8.4c-0.1-2.9-0.1-5.9-0.1-8.8s-0.101-5.8-0.101-8.5
		c-0.1-2.7-0.1-5.2-0.1-7.4c1.4-0.1,2.9-0.2,4.2-0.2c1.2-0.1,2.399-0.1,3.6-0.1c1.201,0,2.3-0.1,3.2-0.1c0.7,0,1.5,0,2.3,0
		c0.8,0,1.5,0,2.2,0c0.8,0.1,1.6,0.1,2.4,0.1c-0.101,2.3-0.101,4.4-0.101,6.3v7.5c0,0.3,0,0.7,0,1.2s0,1.1,0,1.6c0,0.6,0,1.1,0,1.7
		c0,0.5,0,1,0,1.4l11.2,0.2c0-0.6,0-1.4-0.1-2.5c-0.101-1.1-0.101-2.2-0.2-3.3c-0.101-1.1-0.101-2.2-0.101-3.2s0-1.8,0-2.4
		c0-0.6,0-1.4,0-2.4s0-1.9,0-2.8v-3.3L155-63.8z"/>
	<path display="inline" fill="#FFFFFF" d="M212.7-34.2c0,4.2-0.601,8-1.801,11.3c-1.199,3.3-2.899,6.2-5.199,8.5
		c-2.301,2.3-5.101,4.1-8.5,5.4c-3.4,1.3-7.301,1.9-11.7,1.9c-4.2,0-7.7-0.8-10.7-2.4s-5.4-3.6-7.3-6.2c-1.9-2.6-3.3-5.5-4.2-8.7
		c-0.9-3.2-1.3-6.5-1.3-9.7c0-4.5,0.7-8.6,2-12.3c1.3-3.7,3.1-6.9,5.399-9.5c2.301-2.6,5.101-4.7,8.4-6.1
		c3.299-1.4,6.9-2.2,10.8-2.2c4.5,0,8.3,0.8,11.4,2.4c3.1,1.6,5.6,3.8,7.5,6.5c1.899,2.7,3.3,5.9,4.1,9.6
		C212.2-42.1,212.7-38.3,212.7-34.2z M195.2-37c0-1.4-0.2-2.8-0.601-4c-0.399-1.2-1-2.3-1.7-3.2c-0.699-0.9-1.5-1.6-2.399-2.1
		c-0.9-0.5-1.8-0.8-2.8-0.8c-0.801,0-1.7,0.2-2.7,0.6s-1.9,0.9-2.8,1.7c-0.9,0.8-1.601,1.8-2.2,3c-0.601,1.2-0.9,2.6-0.9,4.3
		c0,2.1,0.2,3.8,0.7,5.3c0.5,1.4,1.1,2.6,1.8,3.5c0.7,0.9,1.601,1.6,2.601,2c1,0.4,2,0.6,3.1,0.6c1.2,0,2.3-0.3,3.2-0.9
		c1-0.6,1.8-1.4,2.6-2.4c0.7-1,1.3-2.1,1.601-3.4C195-34.1,195.2-35.5,195.2-37z"/>
	<path display="inline" fill="#FFFFFF" d="M267.2-34.2c0,4.2-0.601,8-1.801,11.3c-1.199,3.3-2.899,6.2-5.199,8.5
		c-2.301,2.3-5.101,4.1-8.5,5.4c-3.4,1.3-7.301,1.9-11.7,1.9c-4.2,0-7.7-0.8-10.7-2.4s-5.4-3.6-7.3-6.2c-1.9-2.6-3.3-5.5-4.2-8.7
		c-0.9-3.2-1.3-6.5-1.3-9.7c0-4.5,0.7-8.6,2-12.3c1.3-3.7,3.1-6.9,5.399-9.5c2.301-2.6,5.101-4.7,8.4-6.1
		c3.299-1.4,6.9-2.2,10.8-2.2c4.5,0,8.3,0.8,11.4,2.4c3.1,1.6,5.6,3.8,7.5,6.5c1.899,2.7,3.3,5.9,4.1,9.6
		C266.8-42.1,267.2-38.3,267.2-34.2z M249.8-37c0-1.4-0.2-2.8-0.6-4c-0.4-1.2-1-2.3-1.7-3.2c-0.7-0.9-1.5-1.6-2.4-2.1
		c-0.899-0.5-1.8-0.8-2.8-0.8c-0.8,0-1.7,0.2-2.7,0.6s-1.899,0.9-2.8,1.7c-0.9,0.8-1.6,1.8-2.2,3c-0.6,1.2-0.899,2.6-0.899,4.3
		c0,2.1,0.199,3.8,0.699,5.3c0.5,1.4,1.101,2.6,1.801,3.5c0.699,0.9,1.6,1.6,2.6,2c1,0.4,2,0.6,3.1,0.6c1.2,0,2.301-0.3,3.2-0.9
		c1-0.6,1.8-1.4,2.601-2.4c0.699-1,1.3-2.1,1.6-3.4C249.6-34.1,249.8-35.5,249.8-37z"/>
	<path display="inline" fill="#FFFFFF" d="M313.6-26.9c0,3.4-0.1,6.6-0.199,9.6c-0.101,3-0.301,6.2-0.398,9.7
		c-2.102-0.2-4.302-0.4-6.4-0.5c-2.1-0.1-4.101-0.2-6.101-0.2c-1,0-2.5,0-4.7,0c-2.2,0-4.5,0.1-7.1,0.2C286.1-8,283.5-7.9,280.9-7.9
		c-2.6,0.1-4.8,0.1-6.6,0.2c0-9.3-0.1-18.5-0.4-27.8c-0.3-9.2-0.399-18.5-0.399-27.8l18.8-0.3c-0.3,4.9-0.5,9.6-0.7,14
		c-0.2,4.5-0.399,9.1-0.6,14c0,0.5,0,1.2,0,2c0,0.8,0,1.7,0,2.6s0,1.7,0,2.6s0,1.6,0,2.2c1.1-0.1,2.6-0.1,4.5-0.2
		c1.899-0.1,3.999-0.2,6.199-0.2c2.2-0.1,4.399-0.2,6.5-0.2C310.199-26.8,312.1-26.8,313.6-26.9z"/>
	<path display="inline" fill="#FFFFFF" d="M357.3-8c0-4.1,0-7.8-0.101-11.3c0-1.5,0-3,0-4.5s-0.1-2.9-0.1-4.2s0-2.5,0-3.5
		s0-1.8,0-2.4l-0.201-12.8c-1.899,0-3.601,0-5.299,0c-1.701,0-3.201,0.1-4.5,0.1c-1.302,0-2.4,0.1-3.201,0.1
		c-0.899,0-1.399,0-1.601,0v-16.9l46.601,0.1v16.6H384.6c-1.301,0-2.899,0-4.602,0c-1.699,0-3.5,0-5.398-0.1
		c-0.102,1.4-0.102,2.7-0.102,3.9c0,1.2,0,2.3,0,3.3c0,5.2,0,10.3,0,15.4c0,5.1,0,10.5,0.2,16.1H357.3V-8z"/>
	<path display="inline" fill="#FFFFFF" d="M411.199-51.7c-0.1,5.9-0.199,11.7-0.301,17.5c-0.101,5.8-0.199,11.7-0.199,17.5
		c0,0.5,0,1.3,0,2.2s0,1.9,0.101,2.8c0.101,1.1,0.101,2.3,0.2,3.6h-17c-0.102-4.1-0.102-7.8-0.2-11.3c0-1.5,0-3,0-4.5
		s-0.101-2.9-0.101-4.2c-0.1-1.3-0.1-2.5-0.1-3.5s0-1.8,0-2.4c-0.102-0.7-0.102-1.7-0.102-2.9c0-1.2-0.102-2.6-0.102-4
		c-0.101-1.5-0.101-3-0.199-4.5c-0.102-1.5-0.102-3-0.102-4.4c0-1.4-0.101-2.6-0.101-3.6c-0.101-1.1-0.101-1.8-0.101-2.3
		c-0.101-0.7-0.101-1.5-0.101-2.4s0-1.7,0-2.5v-2.7l18.199-0.1c0.101,1.2,0.198,2.9,0.301,5C411.3-56.2,411.3-54,411.199-51.7z"/>
	<path display="inline" fill="#FFFFFF" d="M484.1-7.6C481.4-7.7,479-7.7,476.7-7.8c-2-0.1-3.899-0.1-5.8-0.1c-1.899,0-3.2-0.1-4-0.1
		c-0.102-3.5-0.102-6.7-0.102-9.6c-0.101-2.5-0.101-4.9-0.101-7.2c0-2.3,0-3.8,0-4.5c-0.102,0.2-0.399,0.7-1,1.8
		c-0.602,1-1.3,2.3-2.102,3.7c-0.8,1.5-1.698,3.1-2.6,4.8s-1.801,3.4-2.7,4.9c-0.898,1.5-1.601,2.8-2.2,4C455.5-9,455-8.3,454.8-8
		l-8.101,0.2C446.6-8,446.3-8.7,445.8-9.7c-0.5-1.1-1.101-2.4-1.8-3.9c-0.7-1.5-1.4-3.1-2.2-4.8c-0.8-1.7-1.5-3.3-2.2-4.8
		c-0.698-1.5-1.3-2.8-1.898-4c-0.602-1.2-0.899-1.8-1.2-2.2c0,0.3,0,0.8,0,1.6c0,0.8,0,1.7,0,2.7s-0.1,2.2-0.1,3.4
		c0,1.2,0,2.5,0,3.7c-0.102,2.9-0.102,6.2-0.2,9.7c-2.7,0.1-5.2,0.1-7.5,0.2c-2,0.1-3.899,0.1-5.8,0.1c-1.901,0-3.2,0-3.9,0
		c0.301-8.8,0.5-16.9,0.7-24.4c0.101-3.2,0.199-6.4,0.3-9.6c0.103-3.2,0.2-6.2,0.301-8.9c0.101-2.7,0.199-5.2,0.302-7.3
		c0.1-2.1,0.198-3.7,0.3-4.7c0.698-0.1,1.398-0.1,2.198-0.2c0.602-0.1,1.399-0.1,2.2-0.1c0.8,0,1.699-0.1,2.602-0.1
		c0.698,0,1.5,0,2.3,0s1.5,0,2.2,0c0.8,0.1,1.6,0.1,2.398,0.1c2.899,4.9,5.602,9.4,8,13.4c1,1.7,2,3.4,3,5.1
		c1,1.7,1.8,3.2,2.602,4.6c0.8,1.4,1.5,2.5,2,3.4c0.5,0.9,0.8,1.5,0.898,1.7l17.5-28.2l14.102,0.4c0.3,7.9,0.6,15.4,0.8,22.5
		c0.101,3,0.101,6.1,0.2,9.3c0.1,3.1,0.1,6.2,0.198,9.1c0.102,2.9,0.102,5.6,0,8.1C484.199-11.4,484.199-9.3,484.1-7.6z"/>
	<path display="inline" fill="#FFFFFF" d="M530.9-8.1h-8.7c-1.199,0-2.399,0-3.602,0c-1.2,0-2.398,0-3.5,0C514-8,513-8,512.1-8
		C511.2-8,510.4-8,509.7-8c-1.2,0.1-2.8,0.1-4.7,0c-1.898,0-3.699,0-5.6,0C497.3-8,495.1-8,492.8-8.1v-5c0-1.5,0-3.4,0-5.4
		s0-4.4-0.101-6.9c-0.102-2.5-0.102-5.3-0.2-8.2c-0.101-3-0.199-6.1-0.199-9.3c-0.101-3.2-0.101-6.5-0.2-10
		c-0.101-3.4-0.101-6.8-0.199-10.2c2.801,0,5.5,0,8.101-0.1c2.2-0.1,4.5-0.1,6.7-0.1s4-0.1,5.2-0.1c1.1-0.1,2.698-0.1,4.8,0
		c2.101,0,4.2,0,6.3,0c2.5,0.1,5,0.1,7.801,0.1v14.4c-4.101-0.5-8-0.7-11.7-0.5c-3.699,0.1-7.5,0.3-11.398,0.5l0.101,5.1
		c0.3-0.1,0.899-0.1,1.602-0.1s1.5,0,2.3,0s1.601,0,2.3,0c0.7,0,1.2,0,1.603,0c0.5,0,1.198,0,2.198,0s2,0,3,0
		c1.199,0,2.399,0,3.802-0.1c0.1,0.3,0.198,1.1,0.397,2.3c0.103,1.2,0.2,2.7,0.2,4.4c0,1.9,0,3.5-0.102,4.9
		c-0.1,1.4-0.1,2.1-0.198,2.1c-0.602,0-1.602,0-3.102,0s-3.101,0.1-4.8,0.1c-1.7,0-3.301,0.1-4.9,0.1c-1.599,0-2.698,0.1-3.398,0.1
		v4.9c1.2,0.1,2.601,0.2,4.301,0.2c1.699,0.1,3.602,0.1,5.602,0.1s4.1,0,6.198,0c2.102,0,4.2-0.1,6.102-0.3v17H530.9z"/>
</g>
<g display="none">
	<polygon display="inline" fill="#FFFFFF" points="569.5,214.5 569,214.5 498,212.5 498,211.5 568.5,213.5 570.5,106.5 502.5,107.5 
		502.5,150.5 7.5,149.5 7.5,68 8.5,68 8.5,148.5 501.5,149.5 501.5,106.5 571.5,105.5 	"/>
</g>
<g display="none">
	<polygon display="inline" fill="#E54B1C" points="1,81.3 -10.3,70 -10.3,54 1,42.7 17,42.7 28.3,54 28.3,70 17,81.3 	"/>
</g>
<g display="none">
	<g display="inline">
		<polygon fill="#FFFFFF" points="0.3,68.6 -5.9,68.6 -5.9,67.6 -0.7,67.6 -0.7,62.4 -6.1,62 -6.5,55.2 -0.2,55.2 -0.2,56.2 
			-5.4,56.2 -5.2,61.1 0.3,61.4 		"/>
	</g>
	<g display="inline">
		<rect x="1.5" y="55.2" fill="#FFFFFF" width="6.8" height="1"/>
	</g>
	<g display="inline">
		<rect x="4.2" y="55.7" fill="#FFFFFF" width="1" height="13.4"/>
	</g>
	<g display="inline">
		<path fill="#FFFFFF" d="M15.1,68.9H10V55.2h4.8L15.1,68.9z M11,67.9h3.1l-0.3-11.7H11V67.9z"/>
	</g>
	<g display="inline">
		<path fill="#FFFFFF" d="M18.1,69.2h-1V55.6h6.4v9h-5.4V69.2z M18.1,63.6h4.4v-7h-4.4V63.6z"/>
	</g>
</g>
<g display="none">
	<g display="inline">
		<path fill="#231F20" d="M229.6,58.4c0,0,1.8,2.3,2.3-0.2c0,0,1.7,2.7-0.899,3.6c-2.601,0.9-5.3-2.4-5.3-2.4L229.6,58.4z"/>
	</g>
	<g display="inline">
		<circle fill="#A6EF18" cx="218.7" cy="50.9" r="13.9"/>
	</g>
	<g display="inline">
		
			<ellipse transform="matrix(-0.1989 -0.98 0.98 -0.1989 208.0242 275.8775)" fill="#FFFFFF" cx="216.768" cy="52.916" rx="6" ry="5"/>
	</g>
	<g display="inline">
		
			<ellipse transform="matrix(-0.1952 -0.9808 0.9808 -0.1952 207.3419 275.8804)" fill="#F953D2" cx="216.858" cy="52.873" rx="3.6" ry="2.8"/>
	</g>
	<g display="inline">
		<path fill="#FFFFFF" d="M230,45.2c0.6-0.1,1.1,0.1,1.6,0.3c0.5,1.2,0.8,2.4,0.9,3.8c0.2,2.4-0.2,4.6-1,6.7c-0.2,0-0.3,0.1-0.5,0.1
			c-2.101,0.2-4-2.1-4.3-5.1C226.4,48,227.9,45.4,230,45.2z"/>
	</g>
	<g display="inline">
		<circle fill="#497F0A" cx="225.8" cy="57.8" r="0.4"/>
	</g>
	<g display="inline">
		<path fill="#497F0A" d="M224.4,61.5c-0.699,0-1.6-0.2-2.6-1c-0.3-0.3-0.4-0.7-0.1-1.1c0.3-0.3,0.699-0.4,1.1-0.1
			c1.2,1,2.2,0.6,2.2,0.6c0.399-0.2,0.8-0.1,1,0.3c0.2,0.4,0.1,0.8-0.3,1C225.7,61.2,225.1,61.5,224.4,61.5z"/>
	</g>
	<g display="inline">
		
			<ellipse transform="matrix(-0.0841 -0.9965 0.9965 -0.0841 198.304 283.7259)" fill="#F953D2" cx="229.541" cy="50.731" rx="3" ry="2"/>
	</g>
	<g display="inline">
		<path fill="#231F20" d="M214,37.6c12.399-3.6,17.5,5.7,17.5,5.7S216,43.1,207.6,48c1.101,10.3,1.7,12.5,2.8,12.6
			c1.9,0.2,1.801-1.4,1.801-1.4s1.8,2.1-0.101,3.9c-2.7,2.5-7.399-3.2-7.7-10.9C204.1,45,206,39.9,214,37.6z"/>
	</g>
</g>
<g display="none">
	<g display="inline">
		<ellipse fill="#A6EF18" cx="275.6" cy="52.8" rx="12.601" ry="11.7"/>
	</g>
	<g display="inline">
		<ellipse fill="#497F0A" cx="273.2" cy="57.8" rx="0.4" ry="0.4"/>
	</g>
	<g display="inline">
		<path d="M283.9,44c0,0-13.699,4-18.5-3.3c0,0,3.2,1.1,4.5,1.2c0,0-1.5-1.7-2.3-2.8c0,0,3.8,1.9,5.601,2
			C273.3,41.1,279.9,40,283.9,44z"/>
	</g>
	<g display="inline">
		<ellipse fill="#FFFFFF" cx="281" cy="52.9" rx="5.1" ry="5.5"/>
	</g>
	<g display="inline">
		<path fill="#FFFFFF" d="M264.5,47.2c0.8-0.5,1.7-0.8,2.6-0.8c2.7,0,4.9,2.4,4.9,5.3c0,2.9-2.2,5.3-4.9,5.3c-1.6,0-3.1-0.9-4-2.2
			c-0.1-0.6-0.1-1.2-0.1-1.8C263,50.9,263.5,49,264.5,47.2z"/>
	</g>
	<g display="inline">
		<path fill="#497F0A" d="M273.8,61.8c-0.9,0-1.9-0.3-2.8-1.3c-0.3-0.3-0.2-0.8,0.1-1.1c0.3-0.3,0.8-0.2,1.101,0.1
			c1.1,1.3,2.5,0.7,2.5,0.6c0.399-0.2,0.8,0,1,0.3c0.199,0.4,0.1,0.8-0.301,1C275,61.7,274.4,61.8,273.8,61.8z"/>
	</g>
	<g display="inline">
		<ellipse fill="#00C3F7" cx="280.8" cy="52.8" rx="2.4" ry="2.8"/>
	</g>
	<g display="inline">
		<ellipse fill="#00C3F7" cx="267.1" cy="51.8" rx="2.4" ry="2.8"/>
	</g>
	<g display="inline">
		<path fill="#A6EF18" d="M287.9,53.3c0,0,2.7-1.3,2.9,1.4c0.2,2.7-1.5,4.3-4.2,2.5C283.8,55.5,287.9,53.3,287.9,53.3z"/>
	</g>
</g>
<g display="none">
	<g display="inline">
		<path d="M318.5,60.1c0,0,0,3-2.7,1.5c0,0,0.5,2.8,3.3,2.6c2.801-0.3,3.399-3.2,3.399-3.2L318.5,60.1z"/>
	</g>
	<g display="inline">
		<path d="M337.6,59.4c0,0,0,3,2.7,1.5c0,0-0.5,2.8-3.3,2.6c-2.801-0.3-3.4-3.2-3.4-3.2L337.6,59.4z"/>
	</g>
	<g display="inline">
		<path fill="#FFFFFF" d="M340.8,46.9c-1.899-4.8-6.899-8.3-12.7-8.3c-7.5,0-13.5,5.6-13.5,12.6c0,3.5,1.5,6.6,4,8.9L317.9,49.7
			L340.8,46.9z"/>
	</g>
	<g display="inline">
		<path fill="#A6EF18" d="M317.8,49.7l0.7,10.4c2.398,2.3,5.8,3.7,9.6,3.7c7.5,0,13.5-5.6,13.5-12.6c0-1.5-0.3-3-0.8-4.3L317.8,49.7
			z"/>
	</g>
	<g display="inline">
		<path fill="#FFFFFF" d="M343.699,57.3c-0.399-4.5-2.899-10.4-2.899-10.4L317.9,49.7l0.699,10.4L343.699,57.3z"/>
	</g>
	<g display="inline">
		<path d="M343.699,57.3c-0.399-4.5-2.899-10.4-2.899-10.4L317.9,49.7l0.699,10.4L343.699,57.3z"/>
	</g>
	<g display="inline">
		<path fill="#00C3F7" d="M323,39.6c1.1,1.4,3.398,4.4,5.3,8.9l8.7-1.1c-1.301-3-2.9-6-5.2-8.2c-1.2-0.3-2.5-0.5-3.8-0.5
			C326.3,38.6,324.6,39,323,39.6z"/>
	</g>
	<g display="inline">
		<path fill="#ABA8A3" d="M340.199,57.9L344,57.5c-0.4-4.6-3-10.7-3-10.7l-3.9,0.5C338.699,51,339.6,54.8,340.199,57.9z"/>
	</g>
	<g display="inline">
		<ellipse fill="#FFFFFF" cx="336.3" cy="52.7" rx="0.8" ry="1"/>
	</g>
	<g display="inline">
		<ellipse fill="#FFFFFF" cx="324.4" cy="54" rx="0.8" ry="1"/>
	</g>
	<g display="inline">
		<path fill="#497F0A" d="M326.4,62.6c-1.301,0-2.301-0.8-2.801-1.3c-0.199-0.3-0.199-0.8,0.101-1c0.301-0.2,0.801-0.2,1,0.1
			c0.101,0.1,1,1.2,2.5,0.5c0.399-0.2,0.801,0,1,0.4c0.2,0.4,0,0.8-0.399,1C327.4,62.5,326.9,62.6,326.4,62.6z"/>
	</g>
</g>
</svg>
