<?xml version="1.0" standalone="no"?>
<!DOCTYPE svg PUBLIC "-//W3C//DTD SVG 20010904//EN"
 "http://www.w3.org/TR/2001/REC-SVG-20010904/DTD/svg10.dtd">
<svg version="1.0" xmlns="http://www.w3.org/2000/svg"
 width="206.000000pt" height="206.000000pt" viewBox="0 0 206.000000 206.000000"
 preserveAspectRatio="xMidYMid meet">
<metadata>
Created by potrace 1.15, written by Peter Selinger 2001-2017
</metadata>
<g transform="translate(0.000000,206.000000) scale(0.100000,-0.100000)"
fill="#000000" stroke="none">
<path d="M230 1030 l0 -800 800 0 800 0 0 800 0 800 -800 0 -800 0 0 -800z
m942 675 c9 -19 7 -29 -6 -50 l-18 -27 45 26 c53 31 71 32 90 5 20 -28 10 -58
-26 -78 -66 -36 -74 -48 -81 -111 -6 -51 -10 -60 -27 -60 -10 0 -28 5 -38 12
-15 9 -25 9 -46 0 -14 -7 -35 -12 -46 -12 -17 0 -20 5 -15 28 20 103 21 98
-23 126 -33 21 -41 32 -41 56 0 28 29 60 56 60 7 0 35 -16 63 -35 40 -28 55
-33 69 -26 15 9 13 10 -8 11 -31 0 -50 17 -50 44 0 53 80 78 102 31z m-419
-227 l50 -32 58 32 c67 37 104 41 119 11 15 -28 -7 -60 -62 -91 -41 -22 -43
-26 -51 -83 -11 -75 -19 -84 -57 -62 -27 17 -32 17 -61 2 -36 -19 -63 -13 -56
12 3 10 8 39 12 64 6 45 5 46 -35 73 -31 20 -40 33 -40 54 0 60 48 68 123 20z
m567 2 c25 -16 51 -30 57 -30 7 0 35 14 61 30 54 33 93 38 112 15 22 -27 3
-62 -50 -91 -50 -27 -50 -27 -65 -117 -7 -45 -24 -54 -58 -32 -23 15 -28 15
-56 1 -51 -27 -54 -23 -47 52 l7 69 -41 27 c-32 21 -40 32 -40 56 0 56 53 65
120 20z m-310 -166 l57 -35 66 36 c73 40 103 40 113 -1 8 -30 -5 -45 -61 -79
-39 -23 -45 -30 -51 -73 -4 -26 -10 -57 -15 -69 -8 -22 -9 -23 -43 -6 -29 13
-40 14 -61 5 -53 -24 -58 -19 -51 56 l6 67 -41 28 c-33 22 -40 33 -37 55 2 16
12 31 28 39 32 16 23 18 90 -23z m-280 -182 c24 -14 30 -13 94 21 54 29 72 34
88 26 47 -25 31 -74 -36 -109 -41 -22 -46 -29 -53 -70 -4 -25 -8 -48 -9 -52
-1 -5 -2 -15 -3 -23 -1 -20 -25 -19 -56 1 -23 15 -27 15 -50 0 -50 -33 -58
-24 -51 52 l7 69 -41 27 c-53 35 -55 76 -5 104 16 9 27 7 55 -10 19 -12 46
-28 60 -36z m540 18 c25 -16 50 -30 56 -30 6 0 35 13 65 30 60 33 91 37 109
16 23 -29 7 -60 -47 -91 -45 -26 -52 -35 -58 -70 -16 -105 -22 -111 -70 -79
-22 14 -26 14 -47 0 -12 -9 -31 -16 -41 -16 -17 0 -18 6 -12 68 l7 68 -41 27
c-45 30 -52 58 -24 89 23 26 51 22 103 -12z m458 -61 l-3 -50 -143 -2 c-78 -1
-142 0 -142 3 0 3 18 15 39 27 22 13 43 33 47 45 4 13 10 25 14 28 5 3 49 4
99 2 l92 -3 -3 -50z m-1168 26 c0 -17 11 -32 37 -50 l38 -25 -35 -1 c-19 0
-87 0 -150 0 l-115 -1 -3 51 -3 51 115 0 116 0 0 -25z m506 -53 c19 -12 22
-36 7 -65 l-14 -29 46 27 c39 23 50 26 71 17 16 -8 24 -20 24 -36 0 -29 -19
-50 -70 -76 -36 -18 -38 -23 -45 -80 -4 -33 -12 -63 -17 -66 -6 -4 -28 -1 -49
6 -30 10 -42 11 -51 2 -7 -7 -22 -12 -35 -12 -25 0 -26 7 -14 82 l8 47 -44 30
c-48 34 -54 60 -23 91 27 27 35 26 102 -16 47 -28 61 -33 75 -24 17 11 17 11
0 6 -11 -4 -27 3 -43 19 -21 21 -23 28 -13 47 15 28 28 38 54 38 11 0 25 -4
31 -8z m-248 -418 c12 -8 22 -25 22 -37 0 -21 1 -21 13 3 22 43 103 67 115 33
2 -9 -5 -11 -26 -7 -25 5 -33 2 -47 -19 -9 -14 -15 -36 -13 -49 2 -19 9 -23
36 -23 41 0 36 -19 -7 -23 -36 -4 -71 19 -72 47 0 12 -3 10 -11 -5 -11 -24
-48 -44 -79 -44 -38 0 -59 19 -59 53 1 68 74 109 128 71z m573 6 c13 -8 19
-21 19 -46 0 -45 -39 -84 -86 -84 -66 0 -85 60 -35 111 31 30 67 37 102 19z
m-718 -194 c3 -7 9 -34 12 -60 4 -25 10 -46 14 -46 4 0 15 25 25 55 17 56 33
76 41 53 2 -7 9 -26 16 -43 l11 -30 16 24 c31 46 50 66 57 60 12 -12 -7 -139
-21 -139 -8 0 -14 15 -16 38 l-3 37 -20 -32 c-25 -43 -41 -42 -50 5 l-8 37
-12 -40 c-10 -34 -16 -40 -42 -42 -23 -2 -32 2 -36 17 -7 27 -34 25 -58 -2
-32 -39 -22 0 17 63 36 60 48 69 57 45z"/>
</g>
</svg>
