<?xml version="1.0" encoding="UTF-8"?>
<svg viewBox="0 0 1413.5876 320.48706" xmlns="http://www.w3.org/2000/svg" xmlns:xlink="http://www.w3.org/1999/xlink">
 <defs>
  <filter id="ad" x="-.04044" y="-.31148" width="1.0809" height="1.623">
   <feGaussianBlur stdDeviation="4.5224"/>
  </filter>
  <filter id="ae" x="-.03281" y="-.26755" width="1.0656" height="1.5351">
   <feGaussianBlur stdDeviation="4.5224"/>
  </filter>
  <linearGradient id="a">
   <stop stop-color="#71c837" offset="0"/>
   <stop stop-color="#71c837" stop-opacity="0" offset="1"/>
  </linearGradient>
  <linearGradient id="z" x1="735.7" x2="860.33" y1="721.82" y2="624.65" gradientUnits="userSpaceOnUse">
   <stop stop-color="#e2c792" offset="0"/>
   <stop stop-color="#e2c692" stop-opacity="0" offset="1"/>
  </linearGradient>
  <linearGradient id="c">
   <stop stop-color="#00d300" offset="0"/>
   <stop stop-color="#00d300" stop-opacity="0" offset="1"/>
  </linearGradient>
  <linearGradient id="ab" x1="547.85" x2="784.83" y1="697.19" y2="666.74" gradientUnits="userSpaceOnUse" spreadMethod="reflect">
   <stop stop-color="#f1ee6a" offset="0"/>
   <stop stop-color="#f1ee6a" stop-opacity="0" offset="1"/>
  </linearGradient>
  <linearGradient id="b">
   <stop stop-color="#520" offset="0"/>
   <stop stop-color="#520" stop-opacity="0" offset="1"/>
  </linearGradient>
  <linearGradient id="r" x1="1112.9" x2="1126.9" gradientUnits="userSpaceOnUse">
   <stop stop-color="#542608" offset="0"/>
   <stop stop-color="#542608" stop-opacity="0" offset="1"/>
  </linearGradient>
  <linearGradient id="q" x1="1123.5" x2="1144.2" gradientUnits="userSpaceOnUse">
   <stop stop-color="#c87137" offset="0"/>
   <stop stop-color="#c87137" stop-opacity="0" offset="1"/>
  </linearGradient>
  <linearGradient id="d">
   <stop stop-color="#d1ff00" offset="0"/>
   <stop stop-color="#d1ff00" stop-opacity="0" offset="1"/>
  </linearGradient>
  <linearGradient id="w" x1="1040.7" x2="1110.5" gradientUnits="userSpaceOnUse" xlink:href="#a"/>
  <linearGradient id="x" x1="1009.8" x2="1115.3" gradientUnits="userSpaceOnUse" xlink:href="#a"/>
  <linearGradient id="aa" x1="599.87" x2="613.04" y1="607.2" y2="702.54" gradientUnits="userSpaceOnUse" xlink:href="#c"/>
  <linearGradient id="u" x1="1144.6" x2="1167.3" gradientUnits="userSpaceOnUse" xlink:href="#b"/>
  <linearGradient id="t" x1="1095.5" x2="1105.8" gradientUnits="userSpaceOnUse" xlink:href="#b"/>
  <linearGradient id="s" x1="1117.4" x2="1117.2" y1="730.9" y2="713.22" gradientUnits="userSpaceOnUse" xlink:href="#b"/>
  <linearGradient id="ac" x1="460.35" x2="456.23" y1="585.82" y2="655.76" gradientUnits="userSpaceOnUse" xlink:href="#a"/>
  <linearGradient id="y" x1="1145.6" x2="1149.8" y1="558.5" y2="632.74" gradientUnits="userSpaceOnUse" xlink:href="#a"/>
  <linearGradient id="v" x1="1172.7" x2="1173.1" y1="603.81" y2="613.55" gradientUnits="userSpaceOnUse" xlink:href="#a"/>
  <mask id="p" maskUnits="userSpaceOnUse">
   <path transform="matrix(.98632 0 0 1.095 7.9051 -118.34)" d="m1204.3 877.57a574.29 127.86 0 1 1 -1148.6 0 574.29 127.86 0 1 1 1148.6 0z" fill="url(#o)"/>
  </mask>
  <radialGradient id="e" cx="955.32" cy="1214.4" r="180.81" gradientTransform="matrix(1 0 0 .4291 12.966 174.61)" gradientUnits="userSpaceOnUse">
   <stop stop-color="#d3b749" offset="0"/>
   <stop stop-color="#d3b749" stop-opacity="0" offset="1"/>
  </radialGradient>
  <radialGradient id="f" cx="923.27" cy="1223.2" r="203.23" gradientTransform="matrix(1.4972 0 0 .98775 -470.74 -550.16)" gradientUnits="userSpaceOnUse">
   <stop stop-color="#ebe7ac" offset="0"/>
   <stop stop-color="#ebe7ac" stop-opacity="0" offset="1"/>
  </radialGradient>
  <radialGradient id="g" cx="545.98" cy="1215.4" r="159.39" gradientTransform="matrix(.87894 -.03216 .00466 .12726 73.356 538.62)" gradientUnits="userSpaceOnUse">
   <stop stop-color="#ce6e39" offset="0"/>
   <stop stop-color="#ce6e39" stop-opacity="0" offset="1"/>
  </radialGradient>
  <radialGradient id="o" cx="630" cy="877.57" r="574.29" gradientTransform="matrix(1 0 0 .22264 0 682.19)" gradientUnits="userSpaceOnUse">
   <stop stop-color="#fff" offset="0"/>
   <stop offset="1"/>
  </radialGradient>
  <radialGradient id="n" cx="415.71" cy="718.72" r="488.57" gradientTransform="matrix(.89344 .08134 -.0206 .22628 59.104 699.6)" gradientUnits="userSpaceOnUse">
   <stop stop-color="#0f0" offset="0"/>
   <stop stop-color="#0f0" stop-opacity="0" offset="1"/>
  </radialGradient>
  <radialGradient id="m" cx="975.71" cy="768.37" r="307.14" fx="857.94" fy="738.64" gradientTransform="matrix(1.4558 -.35349 .09502 .39133 -517.75 893.1)" gradientUnits="userSpaceOnUse">
   <stop stop-color="#6f0" offset="0"/>
   <stop stop-color="#6f0" stop-opacity="0" offset="1"/>
  </radialGradient>
  <radialGradient id="i" cx="509.64" cy="772.83" r="301.79" gradientTransform="matrix(.9858 .08994 -.01345 .14746 17.635 695.23)" gradientUnits="userSpaceOnUse">
   <stop stop-color="#09f668" offset="0"/>
   <stop stop-color="#09f668" stop-opacity="0" offset="1"/>
  </radialGradient>
  <radialGradient id="h" cx="749.29" cy="844.63" r="131.43" gradientTransform="matrix(1 0 0 .25606 0 628.36)" gradientUnits="userSpaceOnUse">
   <stop stop-color="#a4fdc8" offset="0"/>
   <stop stop-color="#a4fdc8" stop-opacity="0" offset="1"/>
  </radialGradient>
  <radialGradient id="l" cx="344.29" cy="770.1" r="488.57" gradientTransform="matrix(.99874 .05015 -.01462 .29114 11.692 664.57)" gradientUnits="userSpaceOnUse" xlink:href="#d"/>
  <radialGradient id="k" cx="665.2" cy="916.79" r="209.64" fx="604" fy="889.6" gradientTransform="matrix(1.3473 .16 -.02341 .19716 -209.6 637.38)" gradientUnits="userSpaceOnUse" xlink:href="#c"/>
  <radialGradient id="j" cx="928.5" cy="896.79" r="307.14" fx="998.46" fy="828.56" gradientTransform="matrix(1.0538 -.10139 .01323 .13746 -7.4153 801.19)" gradientUnits="userSpaceOnUse" xlink:href="#d"/>
 </defs>
 <g transform="translate(66.794 -557.83)">
  <path d="m977.59267,631.86643c-.4563-.058-.912-.091-1.3721-.082-2.9327.063-3.6011.3594-4.8516-2.5933-.081-.1905-.9833-2.2806-.7596-2.4298 .3482-.2322 1.7881.022 2.2053-.02 .9215-.093 2.0148-.539 2.9403-.4288 1.2066.1436 2.1501,1.2495 3.4304,1.368 1.6093.149 3.5333-.09 5.1456-.2246 .9702-.081 1.9761-.3603 2.7443-1.0005 .1819-.1516.1553-.5922.3921-.5922 2.9773,0 3.8684.3941 7.2038-.3471 .1342-.03.8966.4609 1.4702.3063 1.0835-.2921 1.4222-1.1359 2.3032-1.6131 1.501-.813 4.17023-1.0831 5.75823-1.3885 .7333-.141 2.915-.5414 3.5774-.2654 .315.1312.3099.4967.7596.5717 .9878.1646 1.9546-.2338 2.8913-.2859 1.6486-.092 2.9335-1.7952 4.484-2.1644 1.2897-.3071 2.6516.3694 3.945.245 1.5491-.1489 3.2452-.6184 4.8025-.878 5.2539-.8756 10.2826-3.4275 15.5103-4.3288 1.5964-.2752 7.0426.3434 8.0369-.3471 1.8113-1.2579 7.0271-1.1427 9.6051-1.8377 7.4844-2.0179 15.2734-3.0415 22.9346-4.043 4.4801-.5856 8.8998-1.7276 13.3541-2.4299 5.8035-.9149 11.6669.034 17.4705-.4492 8.9166-.743 17.837-.8845 26.7816-.8167 3.4335.026 6.8625.4516 10.2911.4083 3.7617-.047 7.6804.1796 11.4183-.2654 3.3475-.3985 5.1231-.8663 9.0171-.9801 3.8728-.1133 8.0919.2585 11.9328-.3063 2.0963-.3083 4.3279-1.0583 6.4443-1.1843 2.2268-.1326 4.4714.2955 6.6893.388 1.851.077 3.6005-.2749 5.3906-.041 .8608.1125 1.8638.762 2.6463.7964 1.1967.052 2.3312-.725 3.5529-.5922 2.4063.2616 4.715.1879 7.1303.3267 2.0685.1189 4.1103.6874 6.2237.7964 3.5013.1804 7.0305,1.2659 10.5117,1.2659 .5862,0 4.414.8445 4.2145,1.5927-.2042.7658-4.2381.3529-4.8271.3267-2.653-.1179-4.7546-1.2878-7.3018-1.756-3.3057-.6077-6.7744-.554-10.1197-.7964-4.5555-.3301-9.0786-1.2611-13.648-1.3476-1.9931-.038-3.9681.2906-5.9542.3879-4.3342.2125-8.7126-.1589-13.0355.1226-5.0169.3266-9.9503,1.0926-14.9467,1.6131-5.7487.5988-11.2812,2.0442-16.9805,2.9403-7.0285,1.1051-14.1699,1.8663-21.2439,2.6953-16.8693,1.9769-33.9129,1.4326-50.7698,3.5938-4.2767.5482-8.3158,1.8995-12.57,2.5932-8.5939,1.4011-17.263,1.953-25.8504,3.4508-6.5479,1.1421-13.0084,2.559-19.4798,4.0021-2.5761.5745-5.2399.6228-7.8163,1.1843-2.4698.5383-4.8312,1.4609-7.2774,2.0215-6.81783,1.5624-13.89473,2.094-24.40483,2.8382z" fill="url(#v)" opacity=".96624"/>
  <path d="m1131.1 591.4c-10.079 0.8684-19.87 4.7588-30.094 3.8125-4.8927-0.4195-9.6612-1.6589-14.5-2.4375-2.9024 0.6484-5.3133 3.2908-8.4688 2.6875-4.1145-0.021-8.0078-2.7308-12.156-1.5313-1.7517 0.8765-1.8274 3.0535-2.0625 4.75-1.8123 2.1111-4.9368 1.6126-7.1586 2.988-3.6853 1.3126-8.1924 1.0281-11.142-1.7633-1.3489-1.1517-3.0959-2.8657-5.0121-1.9434-1.5439 0.6248-2.0872 2.3331-2.6738 3.7175-1.495 1.7179-4.1219 1.0196-5.7639-0.087-3.7085-1.4248-8.2402-1.5131-11.011-4.7285-1.0038-1.3095-2.5596-3.043-4.3951-2.2771-2.9623 1.4871-4.061 5.1479-3.5937 8.25-0.278 2.1844-2.6808 2.9046-4.423 3.5872-2.2078 1.3487-3.3299 4.4815-6.2119 4.6223-3.223-0.08-6.2617-1.4449-9.4961-1.4649-3.1969-0.2241-6.3105-1.0712-9.4417-1.6509-1.465-0.1642-2.921 1.1283-2.5943 2.6453 0.051 1.2265-0.2545 2.8676-1.7456 3.0129-1.6601 0.435-3.5337 0.7148-4.6649 2.137-4.0398 3.2569-6.9154 8.1913-12.019 9.9722-3.0804 0.9609-6.7702 1.563-8.5925 4.5565-2.1538 3.1985-1.5772 8.27 1.8767 10.332 2.8189 1.1039 5.4031-1.0913 8.0404-1.7386 16.491-5.1053 33.485-8.2799 50.355-11.83 21.697-4.5064 43.564-8.18 65.52-11.171 14.097-1.894 28.266-3.1759 42.452-4.1766 14.286-1.0948 28.577-2.1876 42.805-3.9007 13.658-1.567 27.426-3.1517 41.188-2.0631 10.931 0.6259 21.75 2.9201 32.734 2.5989 1.0345-0.4438 0.2219-2.2514-0.8126-1.875-9.5725-2.1916-19.152-4.4556-28.444-7.6589-7.8779-1.6116-16.123 1.0462-23.873-1.4989-5.7769-1.7251-11.715-3.7108-17.827-3.1425-7.3545-0.4538-14.747-0.3007-22.085-0.9755-4.8832-0.7147-9.7386-1.9372-14.708-1.7554z" fill="url(#y)" opacity=".96624"/>
  <path d="m440.53 598.78c-0.7579 0.3471-1.1462 1.3712-2.0261 1.6634-1.6973 0.9746-3.7006 0.7067-5.5494 0.75-2.4709 0.5067-3.3851 3.4089-5.6484 4.2207-2.0704 0.5287-3.7436-1.161-5.5782-1.7008-4.0379-0.7313-7.9446 1.8134-10.123 5.064-1.9725 2.1283-3.1923 4.7839-4.6058 7.2839-2.3053 1.9741-5.6776 1.9323-8.467 1.2555-2.0621-0.7638-3.2652-2.9832-3.3044-5.1009-0.5608-2.1394-3.0101-2.9633-5.0092-2.7171-3.4243-0.018-6.6966 2.4101-10.126 1.25-3.1505-1.5035-4.0272-5.2854-6.5645-7.4708-1.1022-0.9909-2.4787-2.0185-3.965-2.1236-1.6458 0.6889-2.782 2.4991-4.7257 2.4473-4.1082 1.0794-7.0616 4.3646-10.612 6.4715-2.2015 1.0058-4.6679 0.1607-6.6324-0.9807-1.9036-0.8991-4.2176-1.9216-6.2812-1.0312-0.93932 0.9724 0.0408 3.0834-1.625 3.4375-4.6037 1.0429-9.3289 0.063-13.953-0.307-3.8371-0.7426-7.3313-3.3364-11.362-2.9253-2.0382 0.6984-3.43 2.7471-3.6222 4.8573-1.9965 2.9596-5.7633 3.7621-9.1027 3.9894-5.3088 0.5407-8.3499 5.976-13.537 6.8532-5.986 1.8112-12.23 2.4303-18.36 3.5637 2.9704 3.7022 7.8401 4.8244 12.207 5.9814 9.0797 2.0011 18.423 2.2475 27.581 3.7379 10.459 1.1146 21.034 0.9631 31.436 2.6354 8.0804 0.9121 16.299 1.0056 24.204 3.1009 9.2545 2.17 18.447 4.7384 27.905 5.8856 26.322 4.0512 53.041 4.05 79.604 3.6434 19.693-0.2102 39.389-0.5216 59.083-0.1732 28.219-0.044 56.437-0.7842 84.62-2.1859 1.9707-0.1759 4.0057-0.1871 5.9218-0.6255 0.8816-0.559 0.5886-2.1193-0.4899-2.2048-1.9712-0.9715-4.0921-1.7482-5.6993-3.302-2.9709-2.0589-6.6527-2.3706-10.061-3.212-2.4228-0.7512-4.5534-2.1619-6.5355-3.7025-5.1479-3.0074-11.199-3.7145-16.692-5.8732-3.1507-1.1195-6.4739-1.7422-9.5543-3.0493-2.606-1.505-4.66-3.9574-7.6562-4.75-4.5404-1.6313-9.4335-0.9303-14.145-1.3556-1.6453-0.1758-3.2505 0.1933-4.8003 0.6955-1.9815 0.4816-4.0649-0.052-5.6482-1.3117-2.3387-1.6146-4.7343-3.232-7.4921-4.0283-3.0763-1.3099-6.1181-3.1383-9.5784-3.015-3.5642-0.2548-7.2049-0.6618-10.461-2.2349-2.7942-0.7609-4.9689 1.6596-7.3783 2.574-1.694 0.7429-3.7348 0.2894-4.9391-1.1179-1.643-1.676-3.3337-3.4263-5.635-4.1589-4.4949-1.7889-9.4552-2.4809-13.582-5.1254-3.0311-1.012-5.5216 1.8197-8.4653 1.922-1.7379 0.095-3.4659-0.2105-5.1875-0.4063-0.8217 1.7988-3.3421 1.8564-4.7149 0.683-4.1894-1.7373-7.4591-5.4004-12.035-6.2455-2.9074 0.4484-6.2277 1.0428-8.7813-0.8438-0.6911-0.3546-1.4395-0.8205-2.25-0.6874z" fill="url(#ac)"/>
  <path d="m350.63 644.1c-2.878 3.9189-5.2252 8.3162-6.4034 13.139-0.87832 3.6239-1.2152 7.323-1.4692 11.005 0.71155 0.1857 1.4229 0.3668 2.1344 0.5544-0.0702-3.82-0.0564-7.5829 0.52668-11.31 0.72509-4.7039 2.6744-9.2411 5.2114-13.389zm-18.794 4.8233c-1.7528 5.0166-2.9929 10.313-2.9938 15.8l2.4117 0.6098c-0.93566-5.2957-0.47666-10.921 0.5821-16.41zm11.476 1.8019c-0.20908 3.2989-0.80436 6.5891-2.079 9.5357-1.0056 2.3451-2.4134 4.4885-3.9363 6.5698l2.2454 0.5822c1.1609-2.1507 2.1993-4.3723 2.8829-6.7362 0.93595-3.2699 1.0962-6.6526 0.88705-9.9515zm-3.964 3.1323c-1.7033 4.2645-2.9758 8.9596-5.849 12.031 0.82193 0.2049 1.645 0.4025 2.4671 0.6099 2.1476-4.0324 2.5338-8.4393 3.3819-12.64zm12.613 2.5226c-2.0007 4.1835-4.1226 8.3342-5.7104 12.779 0.68525 0.1818 1.3661 0.3708 2.0513 0.5544 0.8602-4.4562 2.3152-8.8928 3.6591-13.333z"/>
  <path d="m768.42634,623.66023c.062-.1463.2384-.4227.0444-.5611-.0315-.023-.0936-.01-.13389-.026-.15747-.06-.25419-.1511-.44635-.1785-.14941-.021-.5032.056-.6249,0-.0322-.014-.35708-.4606-.35708-.5101 0-.034.0991-.1115.0444-.1531-.11752-.09-.71326-.026-.89269-.026-.0902,0-.35066.049-.2678.026 .0459-.013.37677-.07.40172-.1275 .002-.01-.20316-.04-.35708-.051-.25684-.019-.59037-.021-.84808,0-.10643.01-.20518.051-.31243.051-.10414,0-.17854-.026-.17854-.102 0-.1366.25722-.4021.40173-.4846 .18136-.1037.21183-.064.3124-.1786 .11071-.1265.0549-.2961.0895-.4336 .0623-.2499.11873-.8073.26781-1.0203 .22892-.3269.8034-.6047.8034-.9946 0-.028-.0386-.05-.0444-.077-.0219-.1-.0159-.2572 0-.3571 .0267-.1661.15596-.5912.0444-.7397-.0897-.1195-.32755-.2045-.4017-.3315-.0278-.048 0-.1021 0-.153 0-.2716-.008-.6887.35709-.8673 .13192-.065.31128.01.44633-.05 .1917-.088.20654-.2346.26782-.3571 .0722-.1441.26696-.2283.35708-.3571 .033-.047.0253-.1027.0444-.153 .0485-.1252.16369-.2381.22316-.3571 .05-.1-.0676-.057.0444-.153 .13664-.1172.29023-.1022.35705-.2551 .0417-.096.0214-.1617.0443-.255 .0313-.1248.13391-.1515.13391-.2806 0-.051-.0581-.1863 0-.153 .23838.1362.15205.4814.17855.6631 .0165.1122.13445.1798.17856.2806 .0583.1334-.0444.2721.0443.4081 .1007.1534.37034.3742.4017.5356 .0411.2106.21523.9601.35711,1.1223 .4461.5097-.21296-.2854.3124.255 .058.059.047.1391.089.204 .082.1249.2277.2451.2678.3826 .031.104.087.2883.1786.3826 .1512.1556.1585.079.2678.2041 .094.1071.1011.2593.2231.357s.3338.1266.4464.2296c.2039.036.035.1428.089.204 .04.046.3337.1607.3571.1786 .011.01.3095.4712.3124.4845 .06.2731-.2188.3527-.4017.5357-.1925.1924-.3288.4446-.5803.6121-.117.078-.2546.1139-.3124.2296-.016.032.01.068 0,.102-.053.2142-.2313.1832-.1339.4336 .016.043.01.091.044.1275 .079.079.3666.1403.4017.2806 .024.095-.2037.1746-.2678.2295-.089.077-.1282.2082-.2232.2806-.085.065-.2224.091-.3124.1531-.1797.1231.1524.2009-.089.408-.077.067-.187.1139-.2678.1786-.069.055-.1037.1272-.1786.1785s-.2016.042-.22312.1275c-.0176.07.072.1342.0894.204 .035.1401-.0853.2689-.0444.4081 .0212.073.13572.1499.0893.2296-.018.03-.0522.055-.0893.076-.3848.2199-.99902-.1347-1.0266-1.0202z" fill="#c7f0d8"/>
  <path d="m760.36494,624.15213c.0201-.038.0355-.077.0602-.1139 .21812-.3208-.012-.547.1205-.7974 .0238-.045.0967-.069.1205-.1139 .0272-.051.0852-.6743.0601-.7214-.0238-.044-.0877-.073-.12049-.1139-.17207-.2169-.18002-.6073-.54217-.7214-.0554-.018-.12184.01-.18076,0-.38802-.061-.19034-.086-.54217-.1139-.15969-.013-.33118.041-.48192,0-.0745-.021-.10773-.091-.18073-.114-.15024-.047-.24825.086-.30119-.1138-.0199-.076.14861-.1806.1807-.2278 .14086-.2072.0127-.086.0602-.2659 .0611-.2316.36115-.4183.24098-.6834-.0788-.1737-.19121-.3434-.24098-.5316-.0565-.2143-.0453-1.1755 0-1.4049 .0651-.3291.46284-.5653.60242-.8733 .0839-.1848.25171-.3821.30126-.5695 .0573-.2172.12104-.406.24096-.6075 .16415-.276-.0624-.6024.0602-.8733 .0837-.1845.13665-.099.18071-.2658 .0198-.075-.0634-.1678 0-.2278 .18066-.1708.59179-.2108.78318-.3797 .0329-.029-.0188-.079 0-.1139 .0238-.045.10218-.067.12049-.1139 .036-.092.10296-.4972.1205-.6076 .0152-.096-.0694-.368 0-.4555 .0928-.117.24093-.1506.24093-.3418 0-.093-.10214-.1734-.12046-.2658-.0353-.1769.12046-.3278.12046-.4936 0-.057-.0866-.2871 0-.3417 .0455-.028.12049,0 .18075,0 .39191,0 .65677.153.84339.4176 .0813.1155.0711.255.12049.3798 .0155.039.0399.077.0602.1139 .0399.038.0998.068.1205.1139 .0919.2025-.0602.4474-.0602.6455 0,.2622.2479.33.30123.5315 .0465.1759.13413.3553.1807.5316 .0281.1065-.0819.3695 0,.4557 .0397.042.12808.043.18075.076 .17629.1111.0784.099.18072.2278 .18352.2313.60871.1495.90362.2658 .50123.1974-.18441.037.42173.2278 .0756.024.17326,0 .24097.038 .0456.023.0495.074.0602.1139 .0199.074-.0374.1571 0,.2278 .0473.09.20438.1356.24098.2279 .10443.2632-.0142.7346-.24098.9492-.21681.205-.73477.2957-.8434.5696-.10281.2592.0254.1235.12049.3037 .11332.2142-.0559.6642 0,.9112 .0625.2758.3138.6739.241.9493-.065.2459-.60244.3804-.60244.6075 0,.094.12526.1579.18074.2278 .0789.099.0849.2511.1807.3418 .0909.086.27664.1007.36147.1898 .07.074-.009.191.0602.2658 .09.099.54217.311.54217.4556 0,.058-.0805.1013-.12049.1519-.42167.5315-1.15851.3125-1.50607.5315-.0169.01-.34059.8324-.36143.9113-.01.037.0232.08 0,.114-.19782.2908-.64589.3965-.84338.6454-.0805.1015.0311.3381 0,.4557-.034.128-.14691.2516-.18074.3796-.0294.1108.0387.1936.0602.3038 .0275.1385-.0869.2144-.12047.3417-.0199.074.0519.1622 0,.2278-.0399.05-.11184.085-.18076.1139-.27306.1148-.31467-.1491-.54217-.2278-.53079-.1834-1.08439-.3291-1.08439-1.7466z" fill="#c7f0d8"/>
  <path d="m744.73372,625.15673c.10275-.3635.39392-1.0505.0737-1.3944-.0521-.056-.15468-.025-.22121-.064-.26019-.1491-.41998-.3755-.73752-.4437-.2469-.053-.83143.1382-1.03247,0-.0529-.036-.58997-1.1445-.58997-1.2677 0-.083.16384-.277.0736-.3803-.19418-.2225-1.17852-.064-1.47498-.064-.14899,0-.57938.1223-.4425.064 .0761-.033.62252-.1752.66375-.3169 .004-.013-.33566-.099-.59001-.1267-.42433-.045-.97548-.052-1.40125,0-.17587.021-.33903.1267-.51624.1267-.17205,0-.29497-.065-.29497-.2535 0-.3394.42498-.9991.66373-1.2043 .29967-.2576.35003-.158.51624-.4437 .18286-.3143.0908-.7357.1475-1.0775 .10322-.6209.19622-2.0061.44251-2.5352 .37825-.8128 1.32747-1.5029 1.32747-2.472 0-.068-.064-.1229-.0736-.1902-.0358-.2471-.0264-.6388 0-.8874 .0437-.4126.2578-1.469.0736-1.838-.14806-.297-.54129-.5082-.66372-.824-.0457-.1183 0-.2535 0-.3803 0-.6747-.0125-1.7112.58998-2.1551 .21796-.1605.51436.027.73749-.1267 .31676-.2178.34129-.5829.44248-.8873 .11905-.3581.44113-.5675.59001-.8874 .0544-.1171.0413-.2553.0736-.3803 .0805-.3112.27048-.5917.36875-.8874 .0826-.2484-.11147-.1415.0736-.3803 .22578-.291.47955-.2541.58997-.6338 .0689-.2374.0353-.402.0737-.6339 .0515-.31.22128-.3765.22128-.6972 0-.1267-.0962-.4628 0-.3803 .39387.3387.25117,1.1964.29497,1.648 .0272.2787.22211.4467.295.6972 .0965.3315-.0735.6763.0736,1.0142 .16634.3812.61188.93.66373,1.331 .0678.5236.35561,2.386.58997,2.7889 .73712,1.2669-.35184-.7091.51625.6338 .0956.1479.077.3458.14749.507 .1354.3104.37626.6092.44253.9507 .05.2587.14347.7164.29498.9509 .24991.3865.26198.1967.44249.507 .15504.2664.167.6446.36875.8873 .20579.2477.55142.3147.7375.5705 .33696.09.059.3549.1475.5071 .0669.115.55137.3993.59002.4436 .0178.021.51139,1.1713.51623,1.2044 .0987.6785-.36149.8764-.66375,1.331-.31799.4782-.54335,1.1046-.95875,1.5211-.19334.1939-.42069.2831-.51626.5705-.0267.08.014.1702 0,.2535-.0886.5323-.38213.4553-.22124,1.0775 .0272.1051.0138.2266.0737.317 .13056.1963.6058.3486.66374.6971 .0394.236-.33657.4339-.44249.5705-.14711.1897-.21176.5173-.36874.6972-.14052.1611-.36747.2269-.51625.3803-.29681.3061.25185.4993-.14749,1.0141-.12802.1651-.30899.2831-.44253.4437-.11349.1366-.17133.3162-.29498.4438-.11703.1206-.33318.1028-.36875.3168-.0289.1737.11867.3335.1475.5071 .0578.3478-.14088.668-.0736,1.0141 .0351.1802.22435.3723.1475.5704-.0291.075-.0867.1379-.1475.1902-.63575.5464-1.65063-.3348-1.69622-2.5353z" fill="#c7f0d8"/>
  <path d="m753.83491,622.44543c.0228-.049.04-.099.068-.1461 .24603-.4113-.0136-.7015.13588-1.0226 .0268-.058.10922-.089.13593-.1461 .031-.066.0961-.8649.0681-.9253s-.0987-.093-.13592-.146c-.19417-.2783-.20312-.7789-.61166-.9253-.0624-.022-.13741.013-.20388,0-.43775-.078-.21472-.1105-.61163-.1461-.18021-.016-.37362.052-.54367,0-.0842-.026-.12157-.1165-.20391-.1461-.16949-.06-.28003.1109-.33979-.146-.0225-.096.16766-.2317.20389-.2921 .15891-.2658.0144-.1099.068-.341 .0689-.2971.40739-.5365.27186-.8765-.089-.2227-.21573-.4404-.27186-.6817-.064-.2748-.0513-1.5076 0-1.8018 .0735-.4221.52211-.725.67961-1.12 .0947-.2372.28392-.4902.33981-.7305 .0647-.2785.13652-.5206.27181-.779 .18522-.3539-.0705-.7727.0681-1.12 .0944-.2367.15413-.1271.20387-.3409 .0225-.096-.0717-.2152 0-.2922 .20378-.219.66754-.2704.88349-.4869 .0376-.037-.0212-.1008 0-.1461 .0268-.058.11529-.087.13593-.1461 .0408-.1175.11615-.6376.13588-.7792 .0173-.1228-.0784-.472 0-.5843 .10474-.1501.27188-.1931.27188-.4383 0-.1197-.11527-.2224-.13593-.3409-.0395-.2269.13593-.4204.13593-.633 0-.073-.0978-.3683 0-.4383 .0515-.037.13593,0 .20386,0 .44218,0 .74092.1963.95148.5357 .0919.148.0801.3269.13589.4869 .0176.05.0451.098.068.1461 .0452.049.11261.088.13589.1461 .10361.2598-.0681.5738-.0681.8278 0,.3364.27966.4233.33982.6818 .0523.2256.15132.4558.20385.6818 .0318.1364-.0925.4738 0,.5843 .0447.053.14451.055.20389.097 .1989.1425.0885.1266.20389.2922 .20704.2967.6867.1918 1.0194.3409 .56543.2531-.20802.047.47572.2921 .0852.03.19547.01.27185.049 .0516.029.0561.095.0681.1461 .0225.096-.0422.2013 0,.2921 .0534.115.23054.1739.27181.2922 .11782.3376-.0158.9422-.27181,1.2174-.24464.2629-.82895.3793-.95149.7305-.11599.3325.0285.1585.13595.3895 .12782.2748-.0631.8519 0,1.1688 .0705.3535.35397.8642.27186,1.2174-.0734.3154-.67962.4879-.67962.7791 0,.1208.14129.2025.20387.2921 .0891.1276.0958.3221.20389.4383 .10248.1101.31206.1292.40779.2435 .0792.094-.01.2449.0681.3408 .10147.1273.61161.3988.61161.5844 0,.076-.0907.1299-.1359.1948-.47571.6817-1.30695.4008-1.69901.6817-.019.013-.38424,1.0675-.40775,1.1687-.011.048.0263.1025 0,.1461-.22317.3731-.72865.5085-.95147.8279-.0909.13.0352.4336 0,.5843-.038.1642-.16567.3228-.20389.487-.0328.142.0433.2482.0681.3895 .0312.1776-.0979.275-.13591.4382-.0225.096.0588.2081 0,.2923-.0448.065-.12613.1089-.20388.146-.30807.1472-.355-.1913-.61167-.2922-.59876-.2352-1.22329-.4219-1.22329-2.2399z" fill="#c7f0d8"/>
  <g transform="matrix(1.2376 0 0 1.2376 -146.65 -399.22)" mask="url(#p)">
   <g transform="matrix(.88053 .03048 -.03048 .88053 103.42 88.993)">
    <path d="m-14.286 855.43s255.71-44.286 474.29 40 298.57 71.429 390 74.286 112.86 5.7143 112.86 5.7143l-70 58.571-901.43-5.7143-5.7143-172.86z" fill="url(#n)"/>
    <path d="m668.57 914s137.14-70 297.14-107.14 314.29-25.714 314.29-25.714l1.4286 245.71 1.4285-1.4285-318.57-50s-39.286 1.4286-105-5.7143c-44.286-22.857-190.71-55.714-190.71-55.714z" fill="url(#m)"/>
    <path d="m860.36 969.89c-106.64 9.6758-217.14-12.321-281.43-32.321s-137.86-48.571-137.86-48.571 231.48 1.1091 419.29 80.893z" fill="#008000"/>
    <path d="m146.43 844s416.23-60.1 599.29 31.429l4.2857 2.1428-81.429 36.429s-91.429-18.571-224.29-24.286c-156.07-50.714-297.86-45.714-297.86-45.714z" fill="#71c837"/>
    <path d="m617.86 837.93s121.43-55 262.86-7.8572c-65.714 20-130 48.214-130 48.214s-68.214-30-132.86-40.357z" fill="#87deaa"/>
    <path d="m-14.286 855.43s255.71-44.286 474.29 40 298.57 71.429 390 74.286 112.86 5.7143 112.86 5.7143l-70 58.571-901.43-5.7143-5.7143-172.86z" fill="url(#l)"/>
    <path d="m860.36 969.89c-106.64 9.6758-217.14-12.321-281.43-32.321s-137.86-48.571-137.86-48.571 231.48 1.1091 419.29 80.893z" fill="url(#k)"/>
    <path d="m668.57 914s137.14-70 297.14-107.14 314.29-25.714 314.29-25.714l1.4286 245.71 1.4285-1.4285-318.57-50s-39.286 1.4286-105-5.7143c-44.286-22.857-190.71-55.714-190.71-55.714z" fill="url(#j)"/>
    <path d="m146.43 844s416.23-60.1 599.29 31.429l4.2857 2.1428-81.429 36.429s-91.429-18.571-224.29-24.286c-156.07-50.714-297.86-45.714-297.86-45.714z" fill="url(#i)"/>
    <path d="m617.86 837.93s121.43-55 262.86-7.8572c-65.714 20-130 48.214-130 48.214s-68.214-30-132.86-40.357z" fill="url(#h)"/>
   </g>
  </g>
  <path d="m327.92 664.86 4.3254 3.1491c3.0214-5.9024 2.7166-12.003 1.995-17.648-1.0611 5.5908-2.7254 11.314-6.3203 14.498z" fill="#cfff7c"/>
  <path d="m324.56 665.49 5.1075 1.5936c0.7857-5.3417 1.0202-11.08-0.58869-16.079-0.15695 5.2498-2.2208 9.9456-4.5188 14.486z" fill="#cfff7c"/>
  <path d="m320.19 664.95 4.9131 2.1188c1.6151-4.9865 1.7078-9.9357 1.56-14.676-0.0624-2.1854-0.0849-4.3398 0.16226-6.4728 0.28981-2.5335 0.96364-5.0603 1.9566-7.4867-1.4276 2.1989-2.5943 4.6073-3.3957 7.179-0.67195 2.1654-1.0813 4.4041-1.4283 6.6052-0.7536 4.6041-1.6752 9.1202-3.768 12.732z" fill="#cfff7c"/>
  <path d="m315.35 665.23 5.3216-0.555c-0.68062-2.3978-1.4035-4.6022-1.523-6.8777-0.14928-2.1765 0.42507-4.5389 1.6636-6.6507-1.9074 1.5347-3.4703 3.69-4.2882 6.2828-0.80069 2.5834-1.0024 5.3184-1.174 7.8006z" fill="#cfff7c"/>
  <path d="m331.11 663.18 2.5207 4.7195c4.1307-3.2983 6.1688-7.9175 6.6486-12.344-2.1785 3.8836-5.6036 6.8128-9.1693 7.625z" fill="#cfff7c"/>
  <path d="m710.56543,626.56753c1.09811-1.449.65756-2.9988.94977-4.7474-.12376-1.9418.6132,3.1841.80968,1.2353-.0558-1.689-.80605-3.2247-.90512-4.9024 .24806-2.1361-1.59701-1.5071-3.0481-1.7656-.70402-.04-3.33428-.2958-4.40102.9762-1.65393.5998-1.15353-2.2329-2.51073-2.3531-.48543-1.1723.13179-2.6284-.95434-3.6028 .69788-1.3583 1.86311-5.7157 1.25929-6.9466 .57382-5.6279 1.16021-1.0641 1.16442-6.1548 1.06251-.937 2.16184-3.8799.44874-5.0474-.64109-1.0964.68671-1.843.67103-3.271 .48215-1.3192.64541-3.4836 1.67261-4.1619 1.33842-.6553-.19177-.7199 1.11043-1.3202 .60446-.3756 1.37561-1.4598 1.81732-.3009 1.14045.8557 2.39957,1.4424 3.22872,2.4903 1.0411.6886.98711,3.0574 2.23948,2.3136 1.95255-.772 3.22683,1.5906 3.05042,3.3068 .1547,1.6346.9249,1.7117 1.91051,3.2068 .44581,1.5777 1.16487,3.5673 1.28115,5.2278 .5818,1.4002-1.12546,4.7944.56042,6.6083 .66113,6.0813 1.94921,7.9066-.11518,6.8644-1.61557-.9089-4.35089,1.2965-5.61515,1.5132-1.19146.2849.95173.4244 1.23058.5802 .80682.4263 5.19345.2105 3.97563.1794-.79571,1.5289-3.43695.2989-5.06537.4698-1.313,1.0021-1.46946-2.0334-1.93001-.479-.0822,1.566.75551,2.7852 1.15447,4.2989 .24171,1.2533-.9758,2.7303-.0475,4.0725 .2539.6269 2.36693,1.4015.66943,2.042-1.67017.569-1.25209-.4635-2.97858-.4371-.63553-.1599-1.6909,1.6197-1.63264.1047h-1e-005z" fill="#97e6b7"/>
  <path d="m684.12468,610.61113c-.19233.2186-.1582.5744-.17879.8393-.0121.1559-.12039.2542-.159.3918-.0648.2317-.0344.5135-.12177.7429-.0243.063-.093.1153-.1231.176-.10592.2127-.42177,1.0844-.35332,1.2832 .0315.091.10153.1675.1541.2441 .22608.3293.33747.7438.57608,1.0637 .34412.4615.88147,1.2207.53102,1.7871-.034.055-.30856.4034-.36444.4157-.0846.019-.15759-.076-.24343-.087-.0412-.01-.0901.02-.12874,0-.10847-.043-.18816-.2146-.31657-.2216-.2917-.016-.58508.1631-.8724.123-.0973-.013-.42268-.1771-.50091-.078-.0207.026.015.07.012.1028-.014.152-.0413.34-.11331.4762-.0997.1891-.22933.3414-.40598.4601-.1185.08-.34365.099-.38697.2532-.0116.042.0198.077.0212.1197 .006.1648.0326.375.01.5409-.0545.3843-.35975.7143-.42926,1.0623-.0315.159.20404.4472.21736.603 .005.055-.0422.1014-.0463.1561-.0129.1649-.0381.362-.0429.5256-.004.1234.056.2811.0219.4031-.0979.3491-.91125,1.2218-.85348,1.4886 .0815.3767.85319,1.0265 1.13466,1.3291 .15122.1625.28959.3427.446.5009 .0848.086.0786.065.0703.049-.0133,0 .003.01.01.017 .0157.01.0411.014.0963.057 .28628.2236.41025.6014.61346.8908 .074.1055.2386.1625.31797.2645 .0258.033.0293.068.0549.1013 .0895.1148.26799.4489.38619.5115 .15404.082.30807.072.4608.1654 .11746.072.19016.2179.35032.2033 .14856-.013.61746-.3551.79362-.4297 .15087-.064.84768-.02 1.02363.035 .0319.01.0489.053.0796.067 .0434.02.0999,0 .13018.039 .0254.03-.0232.081-.0219.121s.0241.07.0379.1104c.0854.2484.19807.365.47557.3539 .11851,0 .12038.025.23147-.016 .16587-.061.44579-.2054.55582-.3447 .10021-.1269.0486-.2521.11609-.3905s.28516-.2841.43621-.3235c.44055-.1151.79505.5193 1.01305.4995 .13703-.013.53572-.3025.80554-.327 .22766-.02.35302.082.56213.1105 .0519.01.10286,0 .15479,0 .16067.022.39253.1083.54661.1625s.24332.1269.40877.1499c.18277.026.78885.099.94196.1668 .0307.013.0478.056.0797.066 .0355.012.33258.077.37216.082 .16143.02.34857-.025.50728.01 .19714.043.3906.118.58951.1612 .3946.086.79462.1409 1.18547.2534 .13023.038.35509.1968.46218.2083 .0373,0 .0658-.021.10274-.012 .0553.012.59953.6541.60779.719 .0189.1475-.0822.2983.0568.4277 .25861.9075.53028.7187.83502.5742 .14027-.067.17882.087.28214-.043 .0295-.037.018-.087.0386-.1301 .0907-.1863.25272-.3492.34335-.5354 .0774-.1591.0151-.1289.12806-.2878 .0751-.1055.20108-.1568.26599-.275 .0469-.086.0522-.2136.12805-.2877 .14713-.1442.37519-.2804.42145-.5122 .0616-.3086-.83397-.9362-.67178-1.3613 .0285-.074.11597-.3238.16817-.375 .0581-.057.24803-.055.31448-.1048s.24665-.3415.2695-.4299c.0113-.043-.027-.395-.0401-.4369-.0821-.2612-.30369-.487-.40237-.7429-.12102-.3142.0261-.033-.0853-.2378-.0554-.1022-.13894-.2102-.17372-.3208-.0701-.2231.0446-.4739.0375-.6972-.0134-.3946-.0244-.9394.14641-1.3022 .17802-.3785.36622-.6092.67545-.8899 .18442-.1674.46899-.2248.65712-.3996 .2056-.1911.36183-.4259.55516-.6282 .0943-.099.22426-.1615.31802-.2596 .17017-.1781.31243-.5022.50307-.6437 .12435-.092.29454-.1408.42212-.2286 .18069-.1246.34235-.2809.51924-.4122 .45158-.3352 1.60036-.6254 1.70335-1.25 .0291-.176-.0531-.7063-.20746-.8268s-.32569-.1786-.45732-.3201c-.30436-.3271-.58952-.7734-.73507-1.196-.10934-.3177-.0274-.6993-.0338-1.0301-.003-.1504-.0432-.2959-.0232-.446 .0145-.1089.0705-.2102.0669-.32-.00078-.031-.0355-.055-.0456-.084-.0706-.2051-.0619-.4429-.13294-.6487-.0325-.094-.12233-.1735-.14631-.2702-.007-.027-.0183-.2132-.0344-.2652-.0368-.1166-.26584-.7827-.37143-.847-.32138-.196-.69305.4005-.99128.4276-.0474,0-.0995-.032-.14705-.029-.1391.01-.29685.1003-.43407.1259-.16911.032-.2615-.051-.4228-.055-.15198,0-.5497.073-.64798-.1077-.0594-.1096-.023-.3789-.0339-.5058-.0136-.1587.0682-.2728.029-.4306-.0299-.1198-.18593-.3335-.16107-.4587 .0126-.062.0508-.103.0633-.1653 .0326-.1644.0793-.8455.0367-.9807-.11272-.3584-.28901-.4481-.49594-.7142-.0964-.1238-.11726-.3004-.32713-.2815-.0608.01-.11096.034-.17029.049-.0982.024-.19618.031-.28987.069-.23839.098-.48265.2615-.70914.3841-.55276.2994-1.08782.6026-1.67448.8195-.25721.095-.58498.3186-.87593.2778-.0543-.01-.111-.055-.16531-.063-.0935-.014-.24949.027-.34471-.032-.091-.056-.24993-.5102-.28627-.6092-.12314-.3353-.42084-.8247-.67108-1.0778-.0871-.088-.20929-.146-.29971-.2308-.0775-.073-.0995-.2001-.19695-.2428-.0598-.027-.22511.1748-.2596.2061-.13044.1184-.41667.2336-.51289.3432-.0315.036-.028.1005-.0556.1394l-.37219.4417c-.0496.052-.55726.2331-.61984.2265-.10546-.011-.2044-.2039-.28137-.197-.0374,0-.0332.062-.066.08-.13239.072-.29742.058-.41578.1597-.0797.068-.12355.1651-.19841.2385-.004,0-.20665.1483-.22587.1878-.071.1459-.0601.3696-.13793.5114-.0307.056-.0835.084-.12455.133-.14672.1734-.28577.3901-.44609.5473-.18638.1827-.64071.4341-.89353.5275-.4141.1531-.88932.4354-1.3466.3362-.0768-.017-.14206-.056-.21737-.079-.25985-.078-.5765-.1305-.80835-.2828-.49268-.324-.23772-.3897-.84842-.1957-.10372.033-.21654.031-.28843.1125zm8.21228,8.8735c.064-.044.12695-.073.18575-.1005 .0782-.037.13287-.049.1794-.032 .0288.01.026.06.0455.084 .0211.026.0543.02.0703.05 .0364.067.0175.1669.0421.2391 .0601.1755.24179.3063.24828.4989 .0195.5768-.00063-.1964-.0957.2265-.0137.06.0728.1096.0915.1689 .0168.053.0633.4898.0611.5565-.009.2524-.18918.555-.11123.8027 .0338.1071.077.2238.11395.3313 .0134.039.14144.2013.12799.2364-.013.034-.0756.029-.10126.055-.0595.058-.1009.1382-.12174.2188-.009.032.0175.07.012.1028-.0128.077-.0908.1754-.10341.2525-.0344.2087.14949.4373.24336.6106 .15204.2808.28727.5782.49102.8261 .12908.157.30513.2825.43544.4411 .0919.1117.18982.2386.27787.3518 .0991.1273.13095.3184.23777.439 .0439.05.10448.067.14981.1154 .19108.2053.24299.5589.42065.7767l.33344.7366c.0478-.01.0989.01.14707.029 .10343.05.24936.716.3172,1.0293l-.46427-1.0589c-.22316.028-.44882.3094-.68314.3919-.037.013-.0574-.052-.0964-.057-.0519-.01-.11454.043-.1625.022-.0379-.017-.021-.077-.0549-.1013-.078-.055-.18632-.04-.27719-.068-.15906-.049-.29392-.1567-.4453-.2174-.23061-.092-.0611.057-.30324-.077-.1382-.076-.18782-.2073-.31022-.2906-.0453-.031-.12035-.032-.16533-.063-.0517-.036-.0256-.1292-.11612-.1337-.13401-.082-.31389-.1607-.42984-.2695-.0535-.05-.0372-.15-.13438-.1674-.18311-.1431-.0541-.033-.22789-.1386-.11702-.071-.1241-.2853-.22585-.3363-.0744-.037-.15752.2445-.24061-.0007-.0793-.042-.11851-.13-.18643-.183-.0887-.069-.23291-.117-.33203-.1695-.21567-.1145-.50356-.107-.72746-.1739-.0603-.018-.0984-.067-.15759-.089-.0893-.034-.20807-.018-.29405-.06-.11107-.053-.36128-.2879-.45729-.3201-.14948-.05-.3523.029-.4995-.036-.0393-.018-.0638-.073-.0978-.1-.0381-.029-.0996-.023-.12242-.065-.12471-.2304.48911-.6484.61075-.7676 .0848-.083.12561-.204.2139-.2905 .15735-.1543.32761-.3509.4552-.5305 .0778-.1093.0686-.1555.14634-.2539 .0353-.044.15705-.1396.1921-.1695 .0711-.09.0955-.2127.16184-.3061 .0435-.061.13566-.096.17521-.1603 .0585-.094.0634-.2084.11893-.3047 .0736-.1274.18864-.1541.24768-.3087 .0709-.186.0371-.4167.10906-.6051 .041-.1071.12405-.1846.171-.2891 .14092-.3138.29837-.6022.47778-.8921 .0489-.08.24162-.2752.43339-.4094zm1.89954-.2425c.0205-.018.0538-.031.0846-.046 .061-.029.13596-.052.17024-.049 .10156.013.194.089.29551.102 .15758.02.34844.015.50724.01 .24375-.01 1.04924-.1409 1.22696-.3151 .23484-.2302.35334-.5927.75423-.5832 .22385.01.1513.137.24625.1724 .30187.1127-.0984-.1816.23145-.016 .0522.027.1131.2257.14629.2702 .0833.1116.70198.6695.8238.755 .20985.1472.70588-.3474.60714-.089-.058.1522-.76954.4287-.92731.5457-.0789.058-.18047.1629-.24135.2399-.14835.1879-.21882.4265-.36656.6135-.18901.2392-.45439.4534-.65646.6831-.0926.1051-.20193.1434-.26597.275s-.20913.3453-.19.496c.009.063.11412.1.0746.178 .003.096-.0244.1973-.0163.2927 .004.05.0385.1643.033.2223-.0248.2714-.18924.5029-.24135.764-.0314.1568.0446.2815.0399.4369-.0109.358.11747.706.29116,1.0216-.0436.9329-.54637.4341-.7774.137-.0506-.065-.0745-.2001-.13719-.2532-.10059-.085-.22685-.024-.31372-.1358-.12945-.1664-.21613-.3982-.2772-.5924-.0276-.087-.10971-.1661-.13718-.2532-.0456-.1453-.009-.2461-.0127-.3864-.004-.115-.14041-.3995-.16389-.5444-.0298-.1829.007-.3456 5e-005-.5242-.005-.1312-.0504-.2351-.0463-.3679 .006-.1742-.0969-.3412-.1027-.5122s.16706-.3055.11334-.4763c-.0462-.147-.1646-.3039-.23778-.439-.0557-.103-.0727-.18-.11257-.2884-.0953-.2597-.30708-.4834-.40234-.743-.0436-.1191-.0128-.213-.0281-.3342-.009-.065-.0369-.1401-.024-.2054 .004-.02.0118-.043.0322-.061z" fill="#95e5b6"/>
  <path d="m733.37376,596.77693c-.28502,0-.51508.2389-.79379.2789-.0801.011-.15605-.012-.23596,0-.15437.022-1.04119.17-1.13702.236-.0362.025-.0523.079-.0857.1072-.21129.1817-.46457.3201-.72943.4077-.5774.1908-1.16027.1845-1.75916.2359-.13287.011-.56844.036-.66507.086-.0781.04-.0837.1359-.15019.1931-.2512.2159-.59851.2593-.85811.4506-.13322.098-.23343.2826-.38619.3646-.0636.034-.50817.1142-.53634.1287-.17502.09-.35733.5424-.4505.6865s-.2589.267-.32182.4291c-.0457.1189-.0177.3415-.0429.472s-.0514.3783-.10727.4934c-.0808.1665-.2398.3172-.32183.4934-.0873.1874.017.1153-.17159.3004-.35171.3454-.92833.3631-1.33012.6221-.22799.147-.12858.3466-.32184.5363-.0455.045-.10415.042-.15017.086-.063.061-.10782.1543-.17161.2146-.45475.4299-1.06283.7132-1.41593,1.2443-.11682.1758-.0306.5255 0,.708 .0407.2457-.024.5857.0429.8152 .17279.5938-.013-.1773.21457.2789 .0503.1011-.0134.3197.0216.4291 .0752.2367.26896.3598.3647.5792 .0807.185.0821.4213.17165.6007 .0397.08.1452.3502.19305.4076 .14118.1699.24465.208.32183.4291 .11801.3382.17161.7383.17161,1.0942 0,.1963-.0322.4293 0,.6221 .0367.2218.0836.4407.10726.6651 .0273.2576-.0492.5395 0,.7937 .0373.1928.12682.3437.17164.5364 .0425.1826.14766.3507.17164.5363 .009.058-.0292.1431 0,.1931s1.10606-.1258 1.28721-.086c1.38262.1452 1.75165.3106 2.12386.4934 .24898.1223.0665.089.32182.1716 .40358.1301 1.83143.2699 2.05951.5149 .0256.028.0148.084.043.1073 .0319.028.0969.015.12874.043 .0282.024.0243.076.0429.1073 .0223.038.0699.045.0857.086 .0565.1458-.11548.4829.0216.6007 .0307.027.0889-.01.12871,0 .22344.032.4716.1452.68649.2144 .1828.058.29312.1888.45055.279 .0863.05.1914.021.27888.064 .26366.1294.10409.3545.17164.5578 .046.1388.16614.3536.2789.4505 .0351.03.0722.034.10723.064 .0666.058.0993.1647.17165.2145 .16221.1116.27608.065.32181.3003 .0643.3314 0,.7344 0,1.0727v2.4028c0,.3489.23135.5954.36471.901 .12295.2818.0378.5474.0857.8367 .0244.1466.12378.3618.0642.5149-.10987.2832-.45676.01-.6007.2145-.0642.092.0358.343 0,.4506-.014.042-.0699.067-.0857.1072-.033.085.0451.1174-.0428.1931-.0612.052-.42908.071-.42908.1717 0,.081.1553,0 .236,0 .12823,0 .24353.086.36471.086 .0969,0 .18263-.073.2789-.086 .13964-.017.31154,0 .45049,0s.23337.067.36473.086c.15155.021.32535-.042.47197,0s.20796.056.21455.064c.0238.01.01.014.0428.021 .0757.016.28211.06.36471.086 .15173.049.27983.1502.42906.1931 .12119.035.27877.054.40763.086 .20785.051.3757.1563.6007.1287 .0741-.01.25465-.1735.27887-.236 .0271-.069-.0374-.1452-.0644-.2145s.0106-.1685-.0429-.2146c-.0307-.027-.0949.022-.12867,0s-.0177-.08-.0429-.1072c-.11301-.1214-.12739,0-.1931-.1717-.0126-.032.008-.051 0-.086-.0233-.1198-.15321-.2541-.17163-.3646-.007-.036.0586-.052.0429-.086-.0285-.061-.18668-.086-.23597-.1074-.13889-.059-.22283-.2052-.36472-.2574-.22155-.082-.6709-.1032-.77235-.3647-.0298-.077 0-.2852 0-.3647v-1.2015c0-.1508.0289-.3447 0-.4933-.0275-.1409-.12879-.2394-.15014-.3861-.0489-.3374.0647-.6956 0-1.0298-.0143-.073-.0735-.1412-.0857-.2146-.0483-.2918.0429-.606.0429-.9011 0-.2482-.12536-.5887-.0429-.8366 .14048-.4226.76034-.4956 1.00831-.8152 .12526-.1616.2567-.6202.36473-.8368 .0981-.1967.16529-.5093.12868-.7294s-.17159-.1901-.17159-.5148c0-.046-.0352-.12 0-.1502 .0562-.049.0293.166.0857.2145 .0318.028.0924.0006.12873.021 .31975.1833-.0287.022.15017.2146 .0655.071.82341.2359.96539.2359 .23734,0 .43439-.3267.57925-.4719 .10244-.1027.91513-.6099 1.02979-.6222 .34755-.037.79082-.037 1.13702,0 .14952.016.29741.091.45052.1072 .14132.015.2917-.01.42906.021 .1786.038.38109.2285.57928.1717 .12338-.036.12978-.1064.23595-.1717 .11662-.072.27585-.1338.40762-.1716 .0402-.011.10472-.01.12872-.043 .0392-.055-.003-.2702.0216-.3432 .0137-.041.12874-.1726.12874-.236 0-.037-.0546-.072-.0429-.1073 .0194-.059.0911-.081.12871-.1287 .16633-.2145.46716-.3999.6007-.6007 .0814-.1226.0939-.3169.17164-.4505 .22291-.3832.47642-.7181.79375-1.0298 .0888-.087.20283-.1593.27892-.2574 .0654-.084.0299-.2365.17164-.2789 .2711-.2996.5533-.3745.77229-.7509 .12732-.2189.2496-.6279.27892-.8796 .0227-.1929-.0501-.3954-.0858-.5792-.0239-.1226.0207-.2629 0-.3862-.06-.3598-.18819-.7031-.236-1.0727-.0145-.1126.0218-.2319 0-.3432-.0362-.1865-.1355-.3717-.17163-.5578-.0609-.3141-.33528-.455-.51489-.6865-.17147-.2211-.35093-.4173-.53634-.6222-.1176-.13-.18601-.3123-.32179-.4291s-.39414-.155-.51487-.3003c-.11216-.135-.16777-.3501-.2789-.4934-.10133-.1307-.29238-.1983-.36471-.3433-.24094-.4832-.44699-.9733-.60069-1.5017-.0324-.1113-.10682-.2304-.12872-.3432-.0797-.4108-.11801-.8298-.17165-1.2443-.0135-.1039-.0744-.1372-.10728-.2361-.0634-.1907-.0527-.448-.12868-.6435-.0729-.188-.24023-.328-.32181-.5149-.0526-.1211-.0709-.364-.17164-.4506-.11122-.096-.34228-.076-.47197-.1072-.16072-.039-.33749-.1142-.49342-.1717-.11569-.043-.24959-.021-.36471-.064-.0496-.019-.0645-.076-.10727-.1072-.22848-.1684-.41551-.2768-.68652-.3433-.0406-.01-.0873-.049-.12871-.043-.0922.013-.14565.128-.23599.1502-.2338.058-.57033.041-.81523.021-.3618-.028-1.15435-.096-1.48031-.236l-.53631-.2361c-.10389-.044-.22986-.042-.3218-.1072-.0498-.035-.0788-.1144-.12873-.1502-.074-.053-.59969-.086-.68651-.086zm-.57925,2.4242c.0644-.01.10729.027.10729.1073 0,.042-.10116-.01-.12873.021-.0229.026.008.074 0,.1073-.0233.1199-.0893.2193-.10728.3432-.0257.175-.048.3588-.0857.5363-.12381.5841.0589-.4252-.12869.3004-.0317.1223-.002.3105-.0428.429-.0741.2125-.19933.3586-.23601.5793-.0155.093-.28762.4206-.40759.3862-.15514-.044-.14624-.3365-.23601-.4291-.0293-.03-.0969.01-.12874-.021-.1051-.091-.11998-.2957-.27886-.3432-.37669-1.0637.0174-1.0953.4076-1.1156 .11914-.01.31756.051.4076-.065 .0297-.038.007-.1188.0429-.1502 .0309-.027.0733.022.10728,0 .0717-.046.0476-.1597.0857-.236 .0351-.07.42878-.4201.62214-.4505zm-8.60283,5.4706c.0869-.025.34009.2292.38618.2575 .0716.044.20224.0007.25742.064 .0613.07.01.1917.0428.2789 .003.01-.003.016 0,.021 .0756.1769.23494.3208.38615.4291 .40105.2872.8325.023 1.17997.2359 .0373.023.0496.082.0857.1073 .0347.024.0755.016.10727.042 .035.03.07.6905.043.7294-.11459.1641-.38332.1443-.5149.2575-.0282.024-.0146.084-.0429.1073-.0658.057-.16327.033-.23599.043 .002.177-.33696.048 0,0-.002-.1539-.26416-.5364-1.50171-1.4589 .0807-.08.57707-.3136.4934-.4935-.0404-.087-.59218-.2025-.68651-.3646-.0233-.04 0-.104 0-.1502 0-.034-.0335-.098 0-.1073zm4.03327,6.2859c.29663-.01.70813.043.92247.043 .37787,0 1.04477-.058 1.33015.236 .10827.1116.21797.415.32176.5578 .0859.1182.20462.2156.27892.3432 .21065.3621-.0754.4929.45054.6866 .0788.029.15287.076.23597.064 .0922-.013.17194-.092.25742-.1287 .25661-.1103.31441-.3212.51488-.4934 .1637-.1408.32325-.255.51492-.3648 .0703-.04.33143-.2382.40761-.1073 .0187.032-.0357.071-.0429.1073-.008.034.0229.06 0,.086-.0276.032-.0709.022-.10727.043-.14203.082-.31438.2247-.2789.4077 .0264.1354.13549.2062.19305.3217 .16281.3264.24206.8597.17164,1.2229-.035.1799-.0542.05-.21455.1287-.39782.1954.0833.014-.15014.2146-.0319.028-.0969-.01-.12872.021-.072.062-.0537.9498-.0857,1.1155-.0213.1093-.1004.6417-.23599.665-.28361.049-.0187-.3865 0-.429 .0542-.1242.11767-.6069-.1287-.5363-.0894.026-.1525.088-.236.1287-.0523.026-.13172.021-.17164.064-.0238.026.0126.074 0,.1072-.0517.1334-.21675.2188-.27886.3433-.0336.067.0461.1572-.0429.2146-.12243.079-.24592-.1602-.32182-.2146-.21819-.1563-.61689-.2895-.79375-.472-.10529-.1086-.10023-.2633-.17163-.3861-.0781-.1342-.16935-.1848-.27892-.2789-.0464-.04-.0885-.1039-.12871-.1502-.68609-.6359-.32426-.5367.0429-.5149 .0436,0 .0589-.073.0857-.1073 .0645-.083.17587-.1321.19308-.2359 .008-.043-.0483-.066-.0642-.1073-.0354-.091.047-.1415 0-.236-.2664-.5343-.83801.7528-1.30866.5149-.31815-.1609.2864-.6605.36473-1.0083 .01-.038-.79422-.325-.87962-.3862-.15744-.1128-.29955-.2566-.45049-.3647-.0476-.034-.10257-.051-.1502-.086-.0356-.026-.05-.06-.0857-.086-.25197-.1805-.55909-.2149-.77228-.4505-.0204-.022-.18666-.2682-.30037-.3647 .12111.021.40882.036.47197.043 .14523.018.37541.035.51488,0 .0567-.014.11782-.041.17164-.064 .0401-.023.0624-.051.10728-.064 .0611-.018.15856-.04.25745-.043zm-1.58758.086c.0129.0008.0243.01.0429.021h-.0858c.005-.016.0304-.022.0429-.021z" fill="#a1e6bc"/>
  <path d="m786.60672,612.09803c-.1248-.5569-1.5595-1.1145-1.6963-1.5846-.059-.2028-.027-.4242 0-.6337 .01-.051.1412-.6865.1475-.6973 .1303-.2239.885-.6849.885-.6972 0-.077-.1998.01-.2212-.064-.032-.1097.6381-.5912.7375-.6339 .1444-.062 1.2309-.2972 1.2537-.3168 .1415-.1217.086-.4417 0-.5705-.6379-.9593.1953.4523-.4425-.5071-.2145-.3227-.3206-.7412-.5162-1.0775-.2091-.3593-.5271-.6448-.59-1.0775-.2372-1.6307 1.5702-.6346 1.9174-1.331 .1553-.3115-.2418-.6059-.3687-.824s-.1641-.5847-.3687-.7605c-.081-.07-.2007-.076-.295-.1269-.6925-.372.1134.01-.59-.4436-.4581-.2953-.7152-.4734-1.0325-.9507-.2436-.3664-.01-1.0745.3687-1.2677 .065-.034.1482.011.2213,0 .076-.011.1453-.052.2212-.063 .073-.011.2213.073.2213,0 0-.085-.1568-.072-.2213-.1268-.099-.085-.5375-.5436-.59-.6339-.1608-.2765-.4007-1.2127-.2212-1.5212 .1008-.1733.2473-.4865.4425-.5703 .1355-.058.2965.021.4425,0 .4689-.067 1.0292-.1254 1.475-.317 .4053-.1742.061-.052.3687-.3169 .2975-.2557.758-.2874 1.0325-.5705 .1183-.122.2814-.6033.3687-.6972 .052-.056.1708-.01.2213-.064 .1098-.1259-.052-.5044-.074-.6338-.038-.2264.033-.47 0-.6973-.046-.3164-.2442-.5818-.295-.8873-.077-.4636.318-.9111.1475-1.2043-.1913-.3287-.087-.075-.3688-.3169-.2499-.2148-.1785-.6568-.2212-.9507-.01-.067-.1024-.1285-.074-.1902 .1125-.2417.8344-.1561 1.0325-.1902 .6252-.1074.853-.1397 1.475-.064 .7477.092.998.598 1.8437.5072 2.05667-.221-.1084-2.1886.8112-2.9791 .1958-.1682.80387-.7387 1.03247-.7605 .3416-.033.5976.1933.885.3169 .4782.2055-.034-.054.4425.064 .2079.05.376.2536.59.2536 .2898,0 .6186-.2407.885-.317 .3416-.098.7582-.091 1.1063-.1902 .6445-.1846.6811-.9091.5899-1.4577-.023-.1342-.1252-.2462-.1475-.3803-.036-.2176 0-.4756 0-.6973 0-.1478-.066-.3113 0-.4437 .1487-.2981.5798-.4955.885-.5704 .524-.1286.9258.3662 1.4012.5704 .506.2174 1.043.1901 1.5488.4437 .4388.22 1.6422,1.0094 2.1387.8874 .7056-.1733 1.0782-1.1561 1.4012-1.7113 .1763-.303.123-.1208.4425-.317 .3749-.2301.6684-.9152.7375-1.331 .028-.1693-.047-1.2187 0-1.2677 .302-.3113.8153-.241 1.18-.3803 .1887-.072.3521-.1993.5163-.3169 .079-.057.2212-.093.2212-.1901 0-.085-.1431-.1603-.2212-.1267-.1919.082.2669.3305.4425.4436 .364.2347.5223.5809.7375.9507 .5204.8945-.094-.028.5162.5705 .5121.503-.061.1379.4425.5704 .065.055.1633.065.2213.1268 .3063.3291.1495.8257.5162,1.1409 .2682.2305.5306.087.8112.1901 .3616.1332.1816.3431.295.5704 .2002.4014.6937.5595.8113,1.0142 .073.2843-.016.9205-.2213,1.1409-.058.062-.1633.065-.2212.1268-.1631.1752-.3175.5457-.4425.7606-.1855.3188-.365,1.2235-.295,1.5846 .038.1938.2291.4232.1475.6338-.1165.3002-.372.598-.5163.8873-.2.4011-.3687,1.0144-.3687,1.4578 0,.3384.1727.6804.2212,1.0141 .031.2137.033.4232.074.6339 .045.2345.2559.3981.295.6338 .056.3389-.016.623.1475.9507 .036.072.1251.1132.1475.1902 .058.2.033.4859.074.6972s.1915.3436.1475.5705c-.042.2189-.1336.714-.295.8873-.2585.2777-.6555.4224-.8112.824-.036.094-.037,1.7416 0,1.8381 .1632.4209.5267.5884.7374.9508 .229.3935.4347.8106.6638,1.2042 .04.069.098.1268.1475.1902 .074.043.1726.057.2212.1268 .096.137-.064.5508 0,.6972 .039.089.1617.1133.2213.1901 .1765.2276-.016.1736.074.4437 .079.2361.3011.4354.3687.6972 .021.082-.012.1699 0,.2535 .041.2793.1803.5419.2213.824 .067.4603-.2723.5305-.5162.824s-.3493.719-.6638.9507c-.3516.259-.7955.3533-1.0325.7606-.1248.2146-.1475.4571-.1475.6973 0,1.1555.7042,1.1184 1.0325,1.9648 .023.059-.023.1311 0,.1902 .095.2461.4332.3838.5163.6338 .1421.4276-.1609.979-.2213,1.3944-.055.3796-.085.7622-.1475,1.1409-.096.5752-.3463,1.1325-.4425,1.7113-.028.1676.309.7772.1475.9508-.1849.1987-.3105.097-.5162.1267-.5196.074.085.039-.4425.1902-.3415.098-.7608-.085-1.1063,0-.7459.1832-.01.01-.3687.3169 0,0-.9744.2603-1.1062.3169-.3011.1294-.5029.463-.8113.5071-.1292.019-1.4524.077-1.5487.064-.4512-.065-.9001-.4382-1.4012-.2536-.388.143-.5734.5463-.885.7607-.318.2186-.824-.027-1.18.1267-.5485.2357-.9121.6972-1.5488.6972-.1341,0-.3208.02-.4425-.064-.1322-.091-.1833-.2651-.295-.3803-.1263-.1303-.3189-.1841-.4424-.3169-.2598-.2791.026-.2392-.5163-.3169-.1026-.015-.3268-.1297-.4425-.063-.179.1025-.456.5989-.3687.8239 .029.074.1185.1154.1475.1902 .07.1802-.037.4425 0,.6338 .026.1335.1252.2462.1474.3804 .038.2261-.038.471 0,.6971 .023.1342.1217.2468.1475.3803 .076.3916 0,.812.074,1.2043 .052.2688-.1101,1.0783 0,1.2677 .1255.2156.5792.1621.7375.5705 .046.1181-.046.262 0,.3802 .029.075.1072.1208.1475.1901 .1569.2698.1381.6178.295.8874 .04.069.1185.1153.1475.1902 .096.2479-.1605.1685.1475.3803 .063.043.1631.013.2213.063 .4477.3848-.4144.013.295.3168 .1949.083.4913.135.6637.2536 .3102.2133.1229.7395-.074.9508-.2391.2568-1.0405-.1127-1.3275-.2535-.1526-.076-.283-.1948-.4425-.2536-.3782-.1393-.7943-.095-1.18-.1902-.3706-.091-.6349-.2742-1.0325-.3169-.8219-.089-1.6154.1268-2.4337.1268-.3845,0-.7987.047-1.18,0-.2847-.035-.4622-.2198-.7374-.2536-.3163-.039-.64337-.018-.95877-.063-.3437-.049-.6005-.1267-.9587-.1267-.074,0-.2772.048-.2213,0 .1391-.1196.3686-.082.5163-.1902 .1681-.1238.2703-.3253.4425-.4436 .2531-.1741.76757-.043.95867-.3169 .072-.1031-.025-.4437 0-.5705 .1323-.6824-.02.3599.295-.317 .01-.014-.1108-.9497-.074-1.1408 .083-.4258.4946-1.4614.4425-1.7747-.065-.3907-.1963-2.2195-.074-2.5354 .1104-.2847.3796-.4994.4425-.8239 .08-.41-.364-.8629-.4425-1.2677-.025-.1269.072-.4674 0-.5705-.2498-.3578-.4262.077-.59.1902-.063.043-.1559.023-.2213.064-.27177.1669-.58727.4662-.81117.6972-.518.5343-.3552.9046-1.18,1.141-.529.1515-1.0416-1.3712-.885-1.7748 .06-.1535.6845-.7427.4425-.9507-.056-.048-.1475,0-.2212,0-.2486,0-.502-.038-.7375.063-.4672.2007-.7559.6443-1.18.8873-.4439.2543-1.1495.2928-1.475-.1267-.1354-.1746-.3028-.4628-.295-.6973 .022-.6564.098-1.3099-1.6962-2.9156z" fill="#a8e8c1"/>
  <path d="m850.61 635.44s9.0588-18.118 10.294-22.647 1.6471-6.5882 1.6471-6.5882l1.2353 3.2941h1.2353l2.0588-2.0588 2.4707 1.647s-5.353 27.588-3.2942 30.471-9.0588 1.6471-9.0588 1.6471l-6.5883-5.7647z" fill="#d8e697" opacity=".67511"/>
  <path d="m866.67 608.67s-4.1177 21.412-4.9412 24.706-1.6471 7.8236-1.6471 7.8236l7-2.0588s-2.4705-9.0589 0-19.353 0-10.706-0.4117-11.118z" fill="#d8e697" opacity=".67511"/>
  <path d="m845.67129,623.08573 17.706-9.4706 21.4119-2.0588-1.2353-9.8824-19.3531,7.8235 16.8825-5.7647 1.2353,5.353-3.2942.8235-.4117-4.1177-3.7059.8236 2.0588,3.7059-4.1177.8235v-3.7059l-2.4706.8235 .8235,2.8824-6.1765.4118-1.647-1.6471-21.0002,7.4118 1.2353,3.7059 3.7059-.4117-2.8823-2.4706 3.7058-1.2354 .8236,3.2942 3.2941-2.4706-2.0588-2.8824 3.7059-.8235 1.2353,2.4706 4.9412-2.4706-2.4706-2.4706h3.2941l.8236,2.4706-16.0589,9.0588z" fill="#d8e697" opacity=".67511"/>
  <path d="m875.29 626.76-11.665-14.666-4.7898-18.817-9.6421 2.2373 10.243 16.321-7.8838-14.36 5.1502-1.7158 1.2395 2.8366-4.0308 0.8406 1.2924 3.203 3.411-2.2589 1.3452 3.5694-3.6753 0.4268 1.1338 2.1036 2.7528-1.0647 1.2011 5.449-1.4221 1.6553 10.046 17.834 3.5167-1.5261-0.884-3.2504-2.0802 2.8494-1.7008-3.1554 3.1613-1.1122-2.873-2.647-2.5943 2.1641-1.2923-3.203 2.2916-1.3838-3.0843-4.1126-2.1331 2.4831-0.4228-2.9314 2.3445-1.0174 11.045 13.247z" fill="#d8e697" opacity=".67511"/>
  <g transform="matrix(.64613 -.03298 .03298 .64613 381.65 160.44)" opacity=".94093">
   <path d="m1092.1 757.1c-0.6078 0.32886-2.926 1.1024-0.5177 2.186 2.4221 1.0898 7.1407 2.667 9.8361 1.741 2.3328-0.80137 4.1416-3.6561 4.997-3.9076s23.836 0.0774 23.836 0.0774 7.4149 6.0088 10.646 5.9775c9.9712-0.0967 8.2381-2.5535 9.4536-3.5207s2.7235-1.625 4.2541-1.8958 9.9263-1.6636 9.9263-1.6636-0.7203-1.0833-1.3506-1.1607-31.917 0.11607-32.592-0.0967-14.991-0.81248-15.711-0.9092-22.666 3.1532-22.778 3.1725z" fill="#2b1100"/>
   <path d="m1092.4 758.21-5.3601-31.73-4.7035-5.8114s6.5024-4.4977 10.578-5.1792 12.486 1.1506 12.486 1.1506l0.1473 7.0769 19.801-3.4237 10.525 0.79627 0.5335-6.5596-3.7259-3.4925s4.8696-4.1455 8.4684-4.3424 11.65 2.0235 11.65 2.0235l3.4915 3.5855-2.5081 6.7028 10.478 10.657 0.9123-3.5603 2.5564-0.22642-4.6708 29.852-14.463 3.1764s-0.6468 2.3725-6.4432 2.4075-11.576-4.6114-11.576-4.6114l-25.262-0.21761s-6.0702 5.6058-12.915 1.7261z" fill="#e5d0d0"/>
   <path d="m1105.9458,723.68092c-.73-.96168-1.7301-1.27295-2.5934-1.31104-1.1829-.10049-2.3031.0605-3.3866.27011-1.126.21663-2.2232.50834-3.3158.82055-.7481.2154-1.4994.46843-2.3171.644 .8277-.0501 1.6159-.18066 2.3697-.27017 1.1131-.13115 2.2178-.24034 3.3116-.2724 1.0642-.0262 2.095-.0141 3.0262.22313 .6571.22645 1.2859.4405 1.3322.80553 .547-.27538 1.0712-.57923 1.5732-.90971z"/>
   <path d="m1105.9852,726.74957c-.804-.76879-1.788-1.05345-2.6908-1.05814-1.0912-.0154-2.0979.229-3.0551.52968-1.0091.31559-1.9747.71074-2.9397,1.11707-.76.3217-1.5227.67374-2.3698.93781 .8698-.12851 1.6887-.35186 2.474-.53883 1.0057-.23746 1.9986-.46073 2.9848-.59585 .9453-.12359 1.8618-.19722 2.6923-.0398 .6552.14348 1.2727.39958 1.5174.83188 .4796-.37753.9418-.77245 1.3869-1.18381z"/>
   <path d="m1105.6596,729.88173c-1.7279-.62559-3.4333-.42412-4.9416.0273-1.5675.46639-2.9936,1.1708-4.5624,1.73107 1.6248-.25538 3.1706-.66643 4.6776-.80827 1.4604-.11975 2.9345-.0205 3.9999.67764 .2845-.53902.56-1.08166.8265-1.62778z"/>
   <path d="m1106.0832,733.44089c-.6628-.64306-1.4434-.86493-2.1445-.86052-.8689-.008-1.6548.18812-2.398.42568-1.4847.47137-2.813,1.18099-4.308,1.72983 1.5514-.23286 3.0145-.64102 4.4308-.7748 .7259-.0642 1.4159-.0957 2.0207.0436 .4521.12845.8629.2969.963.55725 .4971-.35441.9756-.72848 1.436-1.12103z"/>
   <path d="m1106.3008,736.46254c-1.5596-.96349-3.1661-.69227-4.4955-.25501-1.4152.45317-2.6839,1.14972-4.2576,1.44034 1.5755.0226 3.0327-.3774 4.3766-.50811 1.2934-.0652 2.6202-.0479 3.1783.69508 .4132-.44948.8125-.907 1.1982-1.3723z"/>
   <path d="m1105.5795,738.63525c-2.3374-.30421-4.1696.80704-5.6277,1.99245 1.7194-.63531 3.6192-.99831 4.9893-.28294 .219-.56844.4318-1.13829.6384-1.70951z"/>
   <path d="m1106.0574,742.14053c-1.4486-.80159-2.6334-.22963-3.5633.25571-1.0047.49522-1.8437,1.16985-3.0246,1.55552 1.2079-.0742 2.2721-.47167 3.2246-.63918 1.0172-.0645 2.0066-.31173 2.1176.15011 .4345-.4309.8496-.87173 1.2457-1.32216z"/>
   <path d="m1105.6 744.11c-2.2806 0.24452-3.6459 1.5939-5.3949 2.5737 1.9197-0.39531 3.696-1.1634 5.1519-0.7655 0.087-0.60299 0.1681-1.2057 0.243-1.8082z"/>
   <path d="m1105.8 747.64c-1.9725 0.35816-3.1087 1.5677-4.5203 2.5471 1.6108-0.40398 3.1113-1.0248 4.3454-0.73088 0.064-0.60575 0.1222-1.2112 0.1749-1.8163z"/>
   <path d="m1105.7688,751.04509c-1.3858.43393-2.4361,1.34058-2.9712,2.3337 .881-.49236 1.9269-.66101 2.8743-.51039 .036-.60755.068-1.21533.097-1.82331z"/>
   <path d="m1105.1715,753.3849c-.6798.80101-.9838,1.62788-1.526,2.44669 .7981-.26661 1.503-.60596 2.1408-.72778-.2029-.57384-.4078-1.1468-.6148-1.71891z"/>
   <path d="m1104.7499,755.56285c-.14.49388-.399,1.00944-.6728,1.52668-.3597.67235-.7221,1.35042-1.3796,1.94464 .7856-.27465 1.4515-.71929 2.0314-1.14336 .4581-.32188.9368-.67745 1.3924-1.12275-.4593-.39944-.9164-.8012-1.3714-1.20521z"/>
   <path d="m1154.7 719.11c-1.2959-1.5002-2.7677-3.1662-4.6587-3.948-2.1684-0.87565-4.4454-0.53949-6.7032-0.27892 2.2585 0.0637 4.5341 0.0874 6.23 1.129 1.5314 0.8535 2.5469 2.5447 3.6856 4.2193l1.4463-1.1214z"/>
   <path d="m1153.6461,722.6138c-.5835-2.10403-2.0885-3.75874-3.8885-4.50255-1.8734-.76727-3.8794-.75382-5.7542-.4275 1.8862-.0159 3.7857.30117 5.2887,1.23476 1.422.8544 2.3931,2.42744 2.5605,4.04716 .5997-.10784 1.1976-.22516 1.7935-.35187z"/>
   <path d="m1152.7285,725.26968c-.5522-1.86223-2.0839-2.90857-3.6041-3.2571-1.6151-.36983-3.2094-.30239-4.9028-.6361 1.584.62913 3.1983.90056 4.5426,1.50982 1.1725.55126 2.1777,1.56795 2.1617,2.65754 .6053-.0771 1.2062-.16856 1.8026-.27416z"/>
   <path d="m1152.734,726.63316c-2.5133-1.37809-4.8784-.5597-7.335-.4045 2.3954.45097 4.9208.38419 6.1576,1.79692 .3997-.46046.7921-.92462 1.1774-1.39242z"/>
   <path d="m1150.9701,729.05282c-1.8182.27828-3.9048.1234-5.7455.42647 1.7797.30256 3.5451,1.0248 5.5401,1.38807 .067-.60518.135-1.21002.2054-1.81454z"/>
   <path d="m1150.0154,732.22255c-1.292.48458-3.0375.42083-4.4606.75716 1.3519.26813 2.7394.90067 4.4208,1.06797 .01-.60877.023-1.21714.04-1.82513z"/>
   <path d="m1149.7 734.89c-1.2554 0.69757-2.4822 1.4256-4.1237 1.493 1.4746 0.51771 3.034 0.45357 4.4266 0.30815l-0.3029-1.8012z"/>
   <path d="m1149.6351,737.91042c-.6849.2402-1.1989.57314-1.7494.83982-.7158.33229-1.426.69648-2.3864.70027 .8515.31725 1.715.33196 2.4486.31483 .6579-.002 1.2418-.0713 1.7258-.0296-.01-.60863-.022-1.21706-.039-1.82529z"/>
   <path d="m1149.9133,740.92985c-1.5052.57936-2.3179,1.66869-4.0289,1.77847 1.5514.47705 3.0503.0224 4.1416.0444-.034-.60754-.071-1.21516-.1127-1.82287z"/>
   <path d="m1149.4 744.33c-1.4407 0.88746-2.9364 1.707-4.6954 2.1778 1.7527 0.13787 3.4996-0.0843 5.1696-0.41423l-0.4742-1.7636z"/>
   <path d="m1149.8 747.67c-1.3214 0.93899-2.9246 1.6553-4.6668 2.0865 1.724 0.17721 3.5002 0.0798 5.2261-0.34821l-0.5593-1.7383z"/>
   <path d="m1149.7 750.83c-1.6494 1.0738-3.0105 2.3338-5.0887 2.7723 2.06 0.16975 3.9822-0.55285 5.7018-1.0515-0.2032-0.5736-0.4076-1.1472-0.6131-1.7208z"/>
   <path d="m1149.9 753.45c-1.6633 1.5719-3.4531 3.1364-6.0144 3.5043 2.5357 0.24007 4.9513-0.79026 7.0036-1.9678-0.3302-0.5112-0.66-1.0234-0.9892-1.5365z"/>
   <path d="m1149.7 756.7c-1.5383 1.5193-3.106 3.0154-5.2838 3.8872 2.2863-0.27286 4.3729-1.2871 6.2699-2.3494-0.329-0.51215-0.6577-1.0248-0.9861-1.5378z"/>
   <path d="m1129 755.33c0.3651-4.8171 1.7809-9.6143 3.072-14.405 1.3183-4.8845 2.5293-9.874 2.4196-14.816-0.197 4.932-1.6975 9.7527-3.2948 14.53-1.6038 4.7601-3.3495 9.5839-4.0388 14.705 0.6145-9e-3 1.2285-0.0137 1.842-0.0141z"/>
   <path d="m1087.8 726.06c2.3857-3.4336 6.2936-6.0835 10.871-6.7249-4.6293 0.0339-9.1375 2.1528-12.304 5.5886 0.4803 0.37566 0.958 0.75441 1.4331 1.1362z"/>
   <path d="m1151.1 757.85c-0.2781-5.5427-1.1122-10.955-1.2378-16.43-0.1292-5.658 0.7042-11.448 3.184-16.7-2.7527 5.1071-3.936 10.921-4.1108 16.677-0.1754 5.6408 0.3817 11.223 0.3395 16.732 0.6085-0.0912 1.2169-0.18459 1.8251-0.28004z"/>
   <path d="m1151.7 708.51c0.6527 0.15477 3.984 3.5014 3.984 3.5014l-1.9357 6.9641 10.466 10.62 1.1254-3.4434s2.3184-0.69641 2.0033-0.0387-4.074 29.81-4.074 29.81l-12.83 3.308s-3.1061 1.3928-4.9519 1.3928-0.2926-7.351 0.4952-12.129 1.8682-25.187 3.0612-30.352 2.656-9.711 2.656-9.6336v-2e-5z" fill="url(#u)"/>
   <path d="m1099.6 759.25c0.7877-0.13541 5.9647-1.238 6.1898-2.7276s-0.5402-39.618-0.5402-39.618-7.5403-1.5476-9.4536-1.3348 7.7204 35.459 3.804 43.68z" fill="url(#t)"/>
   <path d="m1108.8 723.66-1.2154-16.211 5.6721-13.889 5.4471 11.026 0.8553 17.217-10.759 1.8571z" fill="#e5d0d0"/>
   <path d="m1108.8 723.66-1.2154-16.211 5.6721-13.889 5.4471 11.026 0.8553 17.217-10.759 1.8571z" fill="url(#s)"/>
   <path d="m1112.9 693.45 11.749 5.0683 2.2508 6.4224-0.09 15.321-7.3828 1.3928-0.9904-16.946-5.537-11.259z" fill="url(#r)"/>
   <path d="m1107.3 707.72c0.4502-1.2381 5.5822-14.895 5.5822-14.895l11.884 5.9968 2.476 6.345-8.2832 0.0387-5.537-10.91-6.1224 13.425z" fill="#a02c2c"/>
   <path d="m1089.1 727.73c-0.2216-7.4759 8.1386 2.8752 0 0z" fill="#2b1100"/>
   <path d="m1142.6 721.3c2.2644-6.3269 7.3617 6.8003 0 0z" fill="#2b1100"/>
   <path d="m1113.3 702.46c-8.7301 1.4157 2.8811 11.138 2.8811 3.0951 0-1.4064-0.3219-1.6714-2.8811-3.0951z" fill="#c87137"/>
   <path d="m1113.8885,754.96296c.6487-2.30793-.5404-4.46764-.045-6.80931 2.1095-9.97111 10.6427-6.51851 8.2382,5.88077-.069.35488.089,2.47704-.1351,2.66956-.3621.3112-2.139.14697-2.701.3482-2.2881.81939-3.8309.746-5.357-2.08922z" fill="#884d25"/>
   <path d="m1125.4 720.02-1.0804-16.598-0.9004-7.7766s2.746-1.4702 5.7172-1.741 6.7075-0.3482 9.1384 0.19345 5.8973 2.9017 5.8973 2.9017l-1.2155 9.5176-9.9488 3.985 3.1062 3.8689-0.3151 6.7319-10.399-1.0833z" fill="url(#q)"/>
   <path d="m1124.4 695.22 7.2927-7.6992s1.3055-1.1607 3.2413-0.61902 4.5917 3.2499 5.492 4.5653 4.1415 5.9582 4.1415 5.9582-7.2476-4.1011-11.524-3.2499-7.4728 0.96724-7.4728 0.96724l-1.1704 0.0774z" fill="#a02c2c"/>
   <path d="m1131.8 687.83c0.4052-1.122 3.2412-14.857 3.2412-14.857l1.6656 14.702s-2.8811-0.92855-4.9068 0.15475z" fill="#2b1100"/>
   <path d="m1143.5 703.42 4.6367-3.0952 1.6206 5.1844 2.0258-1.1607 2.1157 3.985 1.5307-0.6964 2.4309 6.1903-1.3506 8.3956-3.4663-2.0505 2.476-7.8152-3.6464-3.8689-9.1384-2.0505 0.7653-3.0178z" fill="#8c4d26"/>
   <path d="m1106.1 724.12c1.4855-0.46427 12.965-2.7469 12.965-2.7469l5.8523-1.5863-0.8554-14.392-0.4952-10.021 2.9261 23.6 8.6433 1.2381 0.4502-5.8421-2.656-3.9076 3.7814 3.2499s2.656-1.0833 5.267-1.4315-4.3667-0.46428-5.357 2.1666-0.5853 7.8926-0.5853 7.8926l-10.489-1.6636-19.447 3.4433z" fill="#2b1100"/>
  </g>
  <path d="m316.47 665.23 4.9131 2.1188c1.6151-4.9865 1.7078-9.9357 1.56-14.676-0.0624-2.1854-0.0849-4.3398 0.16226-6.4728 0.28981-2.5335 0.96364-5.0603 1.9566-7.4867-1.4276 2.1989-2.5943 4.6073-3.3957 7.179-0.67195 2.1654-1.0813 4.4041-1.4283 6.6052-0.7536 4.6041-1.6752 9.1202-3.768 12.732z" fill="#cfff7c"/>
  <path d="m588.01 665.61c-77.802-32.929-160.07-19.14-241.35-23.881-19.813-1.1557-38.976-8.5209-58.476-9.7603-0.98136-0.062-7.8391 0.3926-7.97-1.0252-0.36054-3.9058 11.977-3.329 13.549-3.3641 20.294-0.453 40.548-1.1707 60.849-0.1877 68.807 3.3321 139.36 13.822 207.32 24.877 4.1857 0.6808 49.461 9.312 49.068 13.139-0.3212 3.1227-17.697 2.2818-22.992 0.2022z" fill="#9f5" filter="url(#ae)" opacity=".39662"/>
  <path d="m392.46 634.14c130.68 15.2 194.64 22.064 210.8 23.947s20.516 5.1608 28.715 4.2881 0.7004-11.03-19.866-15.063-135.62-17.933-155.48-18.21-57.904-1.6224-71.867-1.4047-23.68 4.668-13.958 5.7338 20.185 0.8919 21.655 0.7087z" fill="#e5ff80" filter="url(#ad)" opacity=".39662"/>
  <path d="m509.07 616.02c-3.2499-1.1645-6.4656-9.2067-6.29-13.196 0.088-1.999 4.8092-2.5252 4.091-4.3927-1.1242-2.9229-1.8941-5.2594-0.4711-8.3959 0.2191-0.4829 5.8075-4.5761 6.863-5.5746 3.66-3.462 5.013 1.2004 7.1034 1.3688 1.5634 0.1259 4.4056-3.01 6.9385-2.6279 2.1483 0.324 10.532 10.754 10.072 12.848-1.7421 7.9436 3.1363 18.812-9.0894 24.371-2.3647 1.0752-4.2791-1.2541-5.9547-0.5227-7.2676 3.1712 2.429 16.926-0.3198 16.704-0.5985-0.048-12.943 2.5747-13.123-0.8685-0.01-0.1183 14.463-8.2376 0.1797-19.714z" fill="#8fec7b"/>
  <path d="m518.3305,587.61643c5.3531-.1517 1.2569.1012-.068.1973" fill="#8fec7b"/>
  <path d="m515.7844,586.20903c-8.7599,3.1915-4.8053,7.3532-5.9795,13.5981-.8205,4.3641-8.3853,2.0133-3.8446,8.8885 .5553.8408 3.4951,5.7209 3.7343,5.863 2.8919,1.7184 4.8439-.7383 6.7725.082 1.0386.4417-.1149,2.8883 1.3695,3.2825 1.6284.4325 3.3303-1.4484 4.8702-1.766 2.0767-.4284 5.1935,1.8824 8.643-1.129 1.1323-.9886.1011-2.2408.6197-2.7313 .4949-.4681 1.8439.3258 2.2871-.7719 1.0529-2.6077-2.3148-4.3697-2.2739-4.5721 .5312-2.6232 3.8261-4.0843 3.1667-7.1614-.2104-.9818-1.766-1.1387-2.136-1.7509-.6455-1.0679 2.1493-3.433.8684-4.9564-1.1516-1.3698-3.1892.3694-4.0952-.5181-.9705-.9507 1.2057-4.0929-1.2535-4.939-3.0953-1.0649-2.6948,5.2525-12.7487-1.4179z" fill="#cf0"/>
  <path d="m517.1726,591.20243c-3.3937-1.0747-1.2207,3.0226-1.8235,3.8655-.5478.7661-1.8895.6156-2.4544,1.3378-2.2534,2.8812 1.0995,2.84.6518,4.2097-.5437,1.6633-3.7223,2.8921-3.5143,4.7868 .1228,1.1187 1.3471,1.4473 2.1659,2.0285 .8702.6178 1.229,1.8692 2.1529,2.4041 1.9012,1.1007 3.9049-.8008 5.6676-.6588 3.9819.3206 3.4575,1.9702 7.2333-.4605 1.0947-.7047-.3889-1.1432-.1856-1.7966 .4043-1.2994 1.8871-2.6405 1.6222-4.1714-.1525-.8818-1.2567-.8875-1.3612-1.6596-.1987-1.4685 1.7067-3.2136 1.2737-4.8079-.171-.6298-1.1962-.4843-1.2071-1.4154-.012-1.0445 1.1763-4.0142-.8478-3.5012-2.9606.7502-3.3235,1.438-9.3735-.161z" fill="#df5"/>
  <path d="m517.9786,627.54113c.084-1.053.8153-1.7141 1.2597-2.6269 .6542-1.3437-.023-2.8733 1.0886-4.1475 .441-.5052 2.1692-1.6567 1.709-2.5725s-4.0858-.5814-4.8733-.5807c-.7676.0004-4.1907-.7668-4.4387.08-.3594,1.2271 3.0729,2.4228 3.5903,3.4524 .4368.8693-.4794,1.6146-.4202,2.3151 .175,2.069 1.8748,5.3239 2.0846,4.0801z" fill="#8dd35f"/>
  <path d="m559.3867,580.45813c-1.824,1.0104-2.944,3.3103-5.2276,3.4039-3.6477.2849-7.236,2.9447-7.8353,6.6824-.5311,2.2669.3493,4.6572-.3392,6.8923-.8711,1.9525-2.352,3.8235-2.1019,6.08-.2891,2.895-2.1658,5.6727-1.2506,8.6363 1.0892,3.5419 4.4372,5.8774 7.895,6.7791 1.7401.4783 3.9618.7314 4.868,2.5254 .884,2.0258-.309,4.1197-.615,6.1348-.9239,4.0577-2.3508,8.2489-5.5211,11.1198-.6826.7815-1.9166,1.5121-1.7805,2.6757 .3108,1.1642 1.7269,1.1608 2.7028,1.1991 3.565.3764 7.1611.2202 10.7275-.056 1.0611-.4314.7386-1.8973.038-2.5122-2.1113-3.1284-1.7396-7.151-1.0622-10.6721 .4098-2.5075.8971-5.1721 2.5998-7.1609 1.8536-.8994 3.6762.4915 5.2923,1.2627 2.4623,1.0138 5.912-.3031 6.4192-3.0865 .4828-1.8659.1515-4.2105 1.8304-5.5505 1.4899-1.2389 3.2964-2.703 3.2834-4.8243 .71709-5.1085 1.91669-10.3952.51649-15.4987-.75629-2.8314-1.97619-5.6278-3.95939-7.8135-1.9894-1.784-5.2133-.9095-7.0317-2.9842-1.7335-1.8331-4.2821-2.5141-6.6608-3.0514-.8723-.1656-1.8784-.5455-2.7216-.2192l-.066.035z" fill="#8fec7b"/>
  <path d="m566 581.24c0.055 0.1351 0.1907-0.1325 0 0z" fill="#8fec7b"/>
  <path d="m566.0352,583.15723c-2.3063,1.2823-5.4212.901-7.3166,2.9186-1.7947,2.0518-5.3321,1.0758-6.9787,3.3005-1.2825,1.9652-1.1178,4.4155-1.3816,6.6445-.1197,2.1105-.6341,4.2161-1.817,6.0122-1.5372,2.836-3.9195,5.4399-4.2346,8.7428 .138,3.7184 4.2473,6.7589 8.0022,5.902 1.5307-.015 3.3779-.3769 4.61.7037 .6446.8291.7994,2.4174 2.125,2.4562 2.5124-.2562 5.0071-1.8309 7.556-.8703 1.6452.464 3.8487.7556 5.0422-.7116 .6631-1.3797-.3365-3.2396.9782-4.3616 1.2821-.6694 3.1611-.1397 4.0387-1.4871 .6081-1.7851-1.0537-3.7128.09-5.3998 .9569-1.9745 2.4731-4.1164 1.6435-6.3923-.7283-1.8418-.4629-3.8416-.2995-5.7383-.2914-1.355-1.7629-2.097-3.076-2.1719-1.2868-.5395-1.2627-2.0648-1.3547-3.1871-.6735-1.2694-2.3957-1.0202-3.5746-.7216-.831.1546-2.0483-.2061-1.966-1.1816-.319-1.5493-.3283-3.3904-1.7414-4.4597-.1136.016-.2349-.054-.3451,0z" fill="#55d400"/>
  <path d="m563.8163,585.75843c-2.0929,2.2698-5.6378,2.4129-7.5286,4.9393-1.149,1.3485-.7056,3.5253-2.2396,4.6205-.9383.9731-2.4491,1.5425-2.898,2.9013-.2064,1.0927.6086,1.9906.8906,2.956 .018,2.0593-2.3726,2.9414-2.8607,4.8253-.4931,1.1732-.1279,2.5001.758,3.3761 .9289,1.0399 1.8183,2.166 2.8565,3.0764 2.3995,1.129 4.9679-.2866 7.4575-.1267 2.9581-.093 5.6524-1.6286 7.7462-3.6365 1.1076-.8764 2.0565-2.3667 1.3884-3.7936-.4554-1.3359-.9191-2.9652.02-4.2052 .6425-1.3621.8248-3.1359-.1375-4.3985-.2982-1.3344.7334-2.8705-.3019-4.0373-1.615-.9199-3.2629.9924-4.9119.2628-.8255-1.0229.4335-2.0694.5337-3.1235 .3735-1.2136.4235-2.7247-.5501-3.681l-.1246-.01-.098.054z" fill="#5fec00"/>
  <path d="m554.9701,637.52103c1.7318-2.8389 3.5004-6.062 4.5743-10.0687 .7648-2.0489 1.8535-3.2622 2.7627-4.9518 .3873-2.1073-.6563-2.6355-1.3931-2.5915-1.4247-.5275-2.8894-.9168-4.2068-1.8577-.7999,1.0765-.6775,3.1053-.2352,3.7765 .4581,1.5861.756,4.0497-.1655,6.3825-.827,2.936-1.6147,6.1829-1.6009,9.0689 .07.1193.1236.3728.2645.2418z" fill="#8dd35f"/>
  <path d="m478.6252,564.08623c-8.0936,3.4796-15.5,8.5347-21.6991,14.7904-4.3186,4.8506-5.7543,11.8322-4.4545,18.1138 1.1234,6.4259 2.1429,13.0063 4.9961,18.937 1.904,3.9083 6.2344,6.2114 10.5038,6.208 1.963.1648 4.0623-.8123 5.8868.2942 1.6735.9632 1.8323,3.1162 1.9591,4.8445 0,1.6486-.1777,3.3121-.327,4.9401-.6413,1.7517-3.3111,1.4413-3.8292,3.2776 .8133-.4307 1.086-1.635 2.1713-1.6431 1.5506-.4076 3.2389.1753 4.3554,1.2944 .9904.3991 1.4476-.8972 1.6705-1.6284 .5801-1.0527 1.9212-1.7469 3.0855-1.2563 .9217.087 1.3287-1.5396.3152-1.6923-.6943-.2655-2.0337-.1744-1.9958-1.2287 .1545-2.1185.1716-4.4317 1.3623-6.2687 1.0867-1.4856 3.0249-1.7934 4.7389-1.8828 1.9387-.098 4.165-.6951 5.077-2.5952 2.7822-4.4053 3.317-9.7131 4.096-14.746 .6887-5.8648 1.5096-11.8458.5292-17.7244-1.2674-5.5154-4.8685-10.0536-8.1706-14.5035-2.4681-3.2117-5.4626-6.356-9.4339-7.5851-.2787-.046-.5653-.016-.837.055z" fill="#71c837"/>
  <path d="m472.5535,569.72823c-.1665.1719.157-.048 0,0z" fill="#8fec7b"/>
  <path d="m471.2776,569.84533c-1.1024,1.2913-1.0544,3.2608-2.3893,4.3934-2.0925.2063-3.5465,1.9939-4.359,3.7897-1.0177,1.4072-2.9354,1.7039-4.5452,1.4219-1.9827.4494-2.7524,2.778-2.5277,4.5944-.075,1.9442-1.9842,3.0187-2.8418,4.5916-.3676,1.3286.5283,2.6574 1.6527,3.3003 1.6655,2.3426.951,5.3498 1.1452,8.0225 .1263,5.0853-.4199,10.1955.2723,15.2579 1.691,3.9275 6.8381,5.8124 10.6928,4.0071 2.6966-.6923 5.7321-1.0759 8.3069.2409 3.0392.6029 5.7874-1.1801 8.6046-1.9832 2.0055-.769 4.0346-1.547 5.8369-2.733 1.1338-2.9313.6627-6.2965 2.2404-9.087 .8776-2.3384-1.3424-4.7199-.1426-7.0164 1.2425-2.5195 3.5377-4.7399 3.4593-7.7319 .3608-3.9183-.8596-8.1542-3.8763-10.8077-1.8055-.9584-3.9917-1.8966-4.6395-4.0271-1.0714-1.9534-3.5674-2.6249-5.636-2.1748-3.731-.1667-6.5933-2.9627-10.076-3.959-.3718-.1366-.7988-.324-1.1777-.1z" fill="#55d400"/>
  <path d="m471.4027,576.32983c-2.0867,3.3972-6.1112,5.3239-7.5027,9.1938-.445,2.7886-.2344,5.9816-2.2743,8.2113-.7574,1.0741-1.8495,2.2979-1.5854,3.6878 .725,1.3805 2.6575,2.1449 2.5821,3.9091-.6159,2.3777-2.2415,4.7169-1.498,7.2615 1.1645,2.4497 3.8346,3.5291 6.0846,4.7443 3.0129.768 5.8376-.9552 8.4651-2.1741 3.8778-1.497 7.5953-4.014 9.4865-7.828 1.1943-1.7701 1.2507-4.2886-.057-6.0146-1.0087-1.8895-1.3259-4.0851-1.0437-6.1911-.1566-2.3157-2.2757-3.9272-2.4696-6.245-.22-.8375-.3976-2.1166-1.3439-2.3565-2.047-.181-3.4942,1.7025-5.3899,2.0199-1.0662-.2168-1.387-1.5052-1.0877-2.4202-.01-1.9889-.022-4.3574-1.7014-5.7337-.1905-.1173-.4567-.1469-.6649-.064z" fill="#5fec00"/>
  <path d="m476.6226,619.81603c-.9627.8581-.3445,2.3053-.023,3.3472 .6947,2.9402.9839,5.9634 1.4354,8.9501 1.9227-.485 2.9073-2.7083 2.5684-4.5537-.044-2.1721.6666-4.3065.5613-6.4666-.5072-1.4125-2.312-1.3492-3.5542-1.3469-.3304.031-.6672-.045-.9879.07z" fill="#8dd35f"/>
  <path d="m527.46614,652.43093c-.26869,1.0224-1.48718.9361-2.30934.8254-1.30343.2981-2.66358.04-3.98846.247-4.45437.381-8.93726.7888-13.40716.4774-.90924-.1533-2.01234-.2213-2.74917.2169-.37708.3816-1.20908-.076-1.38962.7333-.90336-.158-1.56007-.2987-2.46813-.3969-.89081-.1944-1.52824.6473-2.31312.3032-.78924-.2589-.74559.3413-1.67641.1995l-4.85484.1755c-.76783.1679-1.77278.945-2.5271.5262-.92977-.08-1.75428-.5147-2.5979-.1199-.92818-.1806-1.7559.1709-2.59375.5-.67593.2139-1.44318.2548-2.09375-.063-.89929.042-1.76229.4595-2.6644.5885-1.13006.1046-2.2577.2072-3.36685.4741-6.161.8828-12.3136,1.825-18.45881,2.8138-8.94904,1.5147-17.83153,3.4539-26.55495,5.9678-6.08146,1.7165-12.1156,3.6108-18.0135,5.8856-7.44185,2.7807-14.60861,6.2263-21.81649,9.5515-.72782.6341-.0555,1.9544.84375,1.9687 9.32795,2.6961 18.49069,5.9328 27.53125,9.4688 2.46883.7554 4.85566-.5862 7.15777-1.303 7.57736-2.5555 15.15596-5.1078 22.78894-7.4933 6.1865-1.9826 12.43575-3.7697 18.70954-5.4537 5.14461-1.3557 10.34622-2.4962 15.59375-3.375 1.15355-.5857 2.12026-1.7255 3.50657-1.6908 2.83794-.5937 5.57592-1.6053 8.45127-2.0348 4.57332-.9253 9.14697-1.861 13.73989-2.6808 4.47898-.6455 8.93865-1.4772 13.45852-1.7811 1.1792-.07 2.23217-.6113 3.32164-.992 1.07894-.3491 2.21595-.049 3.30336-.039 .78604-.095 1.58711-.5295 2.375-.2187 1.15711.037 1.79094-1.4032 3-1.1875 2.03446.3696 4.11117.1411 6.1103-.3267 4.7232-1.0781 9.6039-.9003 14.40871-1.2347 2.14194-.2441 4.29174-.3955 6.44896-.355 2.44142-.02 4.86464-.6715 7.31174-.3355 3.29151.2485 6.58881-.1265 9.88469-.029 10.11848-.029 20.23328.284 30.3426.687 12.16254.4097 24.26932,1.6987 36.3867,2.7526 8.80365.8876 17.61354,1.7326 26.38217,2.9284 12.49505,1.5727 24.94606,3.4704 37.41163,5.257-15.97173-4.2127-31.89556-8.751-48.19975-11.524-11.99697-2.1167-24.11291-3.4684-36.22881-4.6905-11.29243-1.1062-22.60523-1.9994-33.92342-2.7955-5.82956-.368-11.66041-.7145-17.49177-1.0526-1.50783-.385-3.02784.5738-4.53125.094-.85174.1326-1.70543.01-2.31079-.6243-.92405-.366-1.81019.5278-2.76115.2648-.92027-.3322-1.79029.1519-2.67806.078-.87898-.3421-1.77599-.7723-2.72498-.3389-1.02168.598-1.06535-.8306-2.03521-.6611-.8694.2732-1.76933.1338-2.64771.3963-.74977.5768-1.58793.038-2.37335-.1463-.79969-.1189-1.50604.5604-2.33031.3024-.95173-.039-1.81891-.5042-2.73219-.6774-.73493.1753-1.21076,1.3739-2.05512.8005-.70277-.7259-1.46365.5696-2.22613.1369-.79601-.3462-1.69995-1.1826-2.59375-.625-.62386.8368-1.73448.036-2.53125.4376-.66261-.072-1.54782-1.1045-2.03125-.1876-.67647.6929-1.23598-1.3423-1.88736-.1872-.7021.4878-1.68893,1.0589-2.51889.531-1.13845-.3201-2.39439-.2462-3.40625-.9375-.13891.043-.27771-.1234-.40625-.031zm43.5,9.4376c.0795.1717-.17171-.08 0,0zm-7.25.4374c.38155.2612-.56369-.046 0,0zm9.90625.5c.00041.3199.13417-.2472 0,0zm-4.84375.031c.0835.2304.14667-.1536 0,0zm.21875.1563c-.19922.4554.35707-.1761 0,0zm-20.75.6562 .125-.094-.125.094zm-8.09375.5938c.0748.2276-.29327-.2014 0,0zm-.78125-.031c.22557.16-.23244-.013 0,0zm-3.46875.5313c-.11124.3045.23862-.1594 0,0zm-3.125.2812c.27001.3035-.2323-.035 0,0zm5.625.094c.16422.01-.012-.3066 0,0zm-5.03125,1.25c.10925.1267.10595-.2815 0,0z" fill="url(#ab)" opacity=".96624"/>
  <path d="m718.87685,645.89163c-.4073,1.0128.35504,2.1766-1.26846,2.5147-1.10017,1.8106 1.74965-.4003 1.82184.7204-.27881-1.0141 3.52204.1581 3.42758-.7219-1.48754-.5149-3.26001-.1941-3.57649-2.1692-.17714-.065-.2231-.291-.40447-.344zm.23242,3.0885c-.70621-.022-1.0893.1116 0,0zm-28.53195-.8548c-1.06942.5436-1.90055.9307-1.34722,2.2684l-1.18657,3.4733c.11262,1.0135-.47236.4104-.86539-.2511-2.04924,1.2053.36924,3.8999-.38348,4.2822-1.52511-.2396-3.01384.1524-2.82097,1.9973-.57856,2.062-1.58984,3.4824-2.98897,5.0799-.2452.6677.86976,1.7856.75206.4106 1.04995.015 2.88511-2.4846 2.17153-.049-.79935.5881-2.67781.3709-2.05036,2.1114 1.08494-.2346 1.78454-.7354 2.55025.1437 .84507-1.1734.29572-2.8536 1.01679-4.1389 1.13026-.4927 1.47056,1.7377 2.63035,1.546 1.23001-.3227 3.05068-.6822 1.67612,1.0857-.38951.8868-.97856,1.9898.086.6979 .60764-.5715 1.91452-3.1176 1.58699-.9219-.22945,1.3625-2.72516,3.234-.82174,4.2896 1.06487-.1027 1.19827-2.2598 2.24974-3.0345 .72313-1.1652 2.29512-2.4486 3.14907-.4596 .25784.3553 1.06608,1.129 1.43091-.1728 .51288-1.5514-.22558-3.1528-.0112-4.6731 .64975-1.9516-2.03082-.632-3.04287-1.3949-1.96938.172-.20699-1.7243-1.80352-2.3175-.0438-1.859 1.17195-3.8588.0572-5.7809-.83313-1.0694 1.52236-1.3991.36454-2.8403 .36668-1.5416-1.65429-.6941-2.39935-1.3516l5e-005,.0001zm28.74269,2.0401c-.9573,1.0252-4.02243-.055-3.75482,1.925-.6069,1.7775 1.55271,2.6707.87947,4.4194-1.43492,1.1265-3.66658.5909-5.36658,1.2824-1.06702.1459-4.38423.8197-3.97832.9671 2.90277.052 5.7677-.4972 8.6332-.9441-.84639,1.0386-.60643,2.8838-2.16342,1.4307-1.93649-1.1393-2.89899.6607-4.43266,1.0793 .63791,1.4493.38114,3.1584.011,4.6592-.002,1.6087-1.15625,3.118-2.41845,4.0637-1.28199.5624-.52421,2.5983.60254.9487 .17785-1.9197 2.37424-2.2914 3.44453-3.55 .22712-1.4797 1.26518-3.1912 2.854-1.7753 .5768,1.7476 3.23613,2.2943 1.41678,4.0756-.87784,1.0712 1.25605,2.2817 1.50666.7489 .60781-.4865 1.11564-3.0411 1.69289-2.0307-.72796,1.4617-.89143,3.1847-1.62432,4.7397-1.09865.6056-.91035,4.1395-.14024,1.7011 .3998-2.1296 2.25769-3.6169 2.32981-5.8365 .75165-.3932.80621,2.2745.72095,2.6061 .31521-1.9199 1.03467-4.0789 3.35859-4.0838 .28204-.3133 1.9687-.9893 1.16805.037 1.33266.9352 2.64119-2.5868 2.99148-.1856-.28096,1.285-.26362,1.3915.91574,1.4215 1.38861,1.8483.39832-1.2283.57576-2.0994 .18851-1.2551.89609-2.6544.0667-3.7768 .41035-1.453-1.39405-3.4585-1.73819-1.1241-1.50575-.4472-3.82502.4505-5.06076-.3825 .42896-1.8705-2.85663-1.9156-1.86837-3.3906 1.94063-.2027 3.38913-.7267 5.12125-.9062 1.91651-.5137 4.34562-.9006 5.68745-1.1167 .89112.2105 4.42611-1.0727 1.82495-.9276-2.31121.3196-4.57156.8512-6.86958,1.2198-2.00414,1.1635-3.33955-.054-4.84303-1.11-1.55262-.5732-.43-2.1041-1.04849-3.3776-.41294-.1691-.52621-.4272-.49437-.7068zm-28.68242,1.7422c-.57066.3799-1.00811-.028 0,0zm-.85651.2877c-.43047.8358-1.37547.8474 0,0zm29.96452,2.0184c.0942,1.1946 2.03519,1.8879 2.13392,2.0397-1.28769.1059-3.48439.8725-2.40889-1.2716 .0639-.2604.10578-.5479.27497-.7681zm-.806,4.8152c.53651.5134 3.66321,2.3764 1.30415,2.0478-1.09682-.043-3.27579.186-2.20024-1.4095-.24071-.5011.55108-.6632.89609-.6383zm-29.88117,8.5149-.14569.2658 .14569-.2658zm-.21854.3987-.14765.2786 .14765-.2786zm30.66159,2.938c-.47516,1.1268-.16645.7431 0,0zm-.26771.719c-.5571.5939-.27702.592 0,0zm-.42137.5246c-1.17942.7968-1.48022,2.3882-1.65965,3.6357 1.17267-.4727.34338-2.8617 1.65965-3.6357zm-3.02328,2.8759c-.0874.1478.0615.1783 0,0z" fill="#6fd06d"/>
  <path d="m527.46614,652.43093c-.26869,1.0224-1.48718.9361-2.30934.8254-1.30343.2981-2.66358.04-3.98846.247-4.45437.381-8.93726.7888-13.40716.4774-.90924-.1533-2.01234-.2213-2.74917.2169-.37708.3816-1.20908-.076-1.38962.7333-.90336-.158-1.56007-.2987-2.46813-.3969-.89081-.1944-1.52824.6473-2.31312.3032-.78924-.2589-.74559.3413-1.67641.1995l-4.85484.1755c-.76783.1679-1.77278.945-2.5271.5262-.92977-.08-1.75428-.5147-2.5979-.1199-.92818-.1806-1.7559.1709-2.59375.5-.67593.2139-1.44318.2548-2.09375-.063-.89929.042-1.76229.4595-2.6644.5885-1.13006.1046-2.2577.2072-3.36685.4741-6.161.8828-12.3136,1.825-18.45881,2.8138-8.94904,1.5147-17.83153,3.4539-26.55495,5.9678-6.08146,1.7165-12.1156,3.6108-18.0135,5.8856-7.44185,2.7807-14.60861,6.2263-21.81649,9.5515-.72782.6341-.0555,1.9544.84375,1.9687 9.32795,2.6961 18.49069,5.9328 27.53125,9.4688 2.46883.7554 4.85566-.5862 7.15777-1.303 7.57736-2.5555 15.15596-5.1078 22.78894-7.4933 6.1865-1.9826 12.43575-3.7697 18.70954-5.4537 5.14461-1.3557 10.34622-2.4962 15.59375-3.375 1.15355-.5857 2.12026-1.7255 3.50657-1.6908 2.83794-.5937 5.57592-1.6053 8.45127-2.0348 4.57332-.9253 9.14697-1.861 13.73989-2.6808 4.47898-.6455 8.93865-1.4772 13.45852-1.7811 1.1792-.07 2.23217-.6113 3.32164-.992 1.07894-.3491 2.21595-.049 3.30336-.039 .78604-.095 1.58711-.5295 2.375-.2187 1.15711.037 1.79094-1.4032 3-1.1875 2.03446.3696 4.11117.1411 6.1103-.3267 4.7232-1.0781 9.6039-.9003 14.40871-1.2347 2.14194-.2441 4.29174-.3955 6.44896-.355 2.44142-.02 4.86464-.6715 7.31174-.3355 3.29151.2485 6.58881-.1265 9.88469-.029 10.11848-.029 20.23328.284 30.3426.687 12.16254.4097 24.26932,1.6987 36.3867,2.7526 8.80365.8876 17.61354,1.7326 26.38217,2.9284 12.49505,1.5727 24.94606,3.4704 37.41163,5.257-15.97173-4.2127-31.89556-8.751-48.19975-11.524-11.99697-2.1167-24.11291-3.4684-36.22881-4.6905-11.29243-1.1062-22.60523-1.9994-33.92342-2.7955-5.82956-.368-11.66041-.7145-17.49177-1.0526-1.50783-.385-3.02784.5738-4.53125.094-.85174.1326-1.70543.01-2.31079-.6243-.92405-.366-1.81019.5278-2.76115.2648-.92027-.3322-1.79029.1519-2.67806.078-.87898-.3421-1.77599-.7723-2.72498-.3389-1.02168.598-1.06535-.8306-2.03521-.6611-.8694.2732-1.76933.1338-2.64771.3963-.74977.5768-1.58793.038-2.37335-.1463-.79969-.1189-1.50604.5604-2.33031.3024-.95173-.039-1.81891-.5042-2.73219-.6774-.73493.1753-1.21076,1.3739-2.05512.8005-.70277-.7259-1.46365.5696-2.22613.1369-.79601-.3462-1.69995-1.1826-2.59375-.625-.62386.8368-1.73448.036-2.53125.4376-.66261-.072-1.54782-1.1045-2.03125-.1876-.67647.6929-1.23598-1.3423-1.88736-.1872-.7021.4878-1.68893,1.0589-2.51889.531-1.13845-.3201-2.39439-.2462-3.40625-.9375-.13891.043-.27771-.1234-.40625-.031zm43.5,9.4376c.0795.1717-.17171-.08 0,0zm-7.25.4374c.38155.2612-.56369-.046 0,0zm9.90625.5c.00041.3199.13417-.2472 0,0zm-4.84375.031c.0835.2304.14667-.1536 0,0zm.21875.1563c-.19922.4554.35707-.1761 0,0zm-20.75.6562 .125-.094-.125.094zm-8.09375.5938c.0748.2276-.29327-.2014 0,0zm-.78125-.031c.22557.16-.23244-.013 0,0zm-3.46875.5313c-.11124.3045.23862-.1594 0,0zm-3.125.2812c.27001.3035-.2323-.035 0,0zm5.625.094c.16422.01-.012-.3066 0,0zm-5.03125,1.25c.10925.1267.10595-.2815 0,0z" fill="url(#g)" opacity=".96624"/>
  <path d="m423.45 693.71c24.41-13.09 56.459-19.556 81.668-25.514 6.6009-1.5599 11.949-4.0764 19.002-4.7679 6.7003-0.6569 13.817 0.8542 20.521 0.3369 24.226-1.8693 47.216-3.7835 71.487-1.511 12.071 1.1303 24.613-0.224 36.558 2.287 18.406 3.8691 37.251 6.0351 55.327 9.8011 2.4942 0.5196 5.4304 3.5912 7.3876 1.9602 1.4772-1.231-3.8552-0.1603-5.7459-0.5105-1.8156-0.3362-9.7148-2.1517-9.1396-1.5416 3.2348 3.4308 17.552 4.3545 22.077 5.5744 6.8633 1.8504 13.225 5.2194 19.786 7.9532 4.4672 1.8613 9.1531 3.3559 13.415 5.6969 0.90816 0.4988 8.2946 2.0482 8.1717 2.1848-3.147 3.4967-22.343 4.4245-28.521 7.8307-10.827 5.9686-22.316 10.49-33.508 15.968-8.3306 4.0772-16.928 11.235-26.12 13.221-10.246 2.2136-26.088-6.947-36.46-8.6168-29.522-4.7525-57.122-10.314-86.887-13.599-26.07-2.8768-48.818-7.1034-74.819-10.414-10.924-1.3908-47.046 2.3889-54.2-6.3401z" fill="url(#aa)" opacity=".96624"/>
  <path d="m749.89 689.49s38.793-32.212 65.025-43.099 38.637-10.814 38.637-10.814l1.1608 1.5594s-61.958 15.954-96.125 55.4c-5.0766-2.4257-8.6977-3.0465-8.6977-3.0465z" fill="url(#z)" opacity=".96624"/>
  <path d="m1125.4 612.94s-4.7473 19.781 12.648 29.714 1.4901 39.619-27.756 57.783c-36.126 22.392-97.719 55.097-139.86 47.012s-112.27-43.012-127.49-50.592c-24.464-12.186-56.691-10.222-56.691-10.222-24.916 5.6445-21.261 5.3686-35.068 14.352 0 0 32.712 1.2995 61.889 8.5764s96.714 60.796 127.8 72.481c70.517 26.509 132.89-3.8406 164.18-30.263 28.479-24.048 48.097-56.396 51.32-69.738s0.797-30.321-12.544-41.871-18.886-25.354-18.435-27.231z" fill="url(#f)" opacity=".96624"/>
  <path d="m1125.4661,618.21223c.074,8.025 4.1552,15.4428 9.366,21.321 4.5361,5.6476 9.5018,11.0688 12.7902,17.5853-2.0897-6.1294-7.2561-10.3981-10.6033-15.7809-3.4284-4.8948-7.4127-9.661-9.064-15.5102-.2223-2.4251-.053-5.0501-1.3639-7.2089-.3386-.1938-.7095-.5063-1.125-.4063zm22.625,40.7813c-.4785,9.3776-4.4552,18.0266-7,26.9374 1.3926-1.954 2.113-4.2863 3.1997-6.4128 2.5599-5.6708 4.8821-11.78 4.4956-18.103-.1562-1.1329-.4836-2.229-.7891-3.3279 .031.3021.063.6042.094.9063zm-9.125,31.1562c-1.7465,2.9386-3.5559,5.8463-5.5938,8.5938 4.0778-2.4823 6.1524-7.1046 7.2813-11.5626l-1.6875,2.9688zm-5.5938,8.5938c-5.8552,3.022-11.2855,7.0151-15.4622,12.1481-12.8863,12.8788-27.0911,24.5804-42.9221,33.6705-13.0613,7.4876-27.202,13.0176-41.772,16.7595-18.6446,4.7505-37.98943,6.6761-57.20743,5.9368-7.5433-.1933-15.0605-1.2635-22.3333-3.2865-2.283-.5677-4.512-1.324-6.7404-2.0722 16.0929,6.3189 33.0931,10.8984 50.4578,11.3494 19.13503.4277 38.15223-4.2798 55.47783-12.2429 18.0623-8.3698 35.2206-18.7773 50.6998-31.3152 8.2281-6.7131 15.9865-14.0259 22.8443-22.146 2.4166-2.8541 4.7326-5.7956 6.9577-8.8015zm-186.43743,63.1562c-6.3438-2.573-12.52-5.5349-18.68748-8.5 6.04358,3.2255 12.23408,6.1814 18.68748,8.5zm-159.93745-71c.1876-.019-.073.9925.7187,1.0625 .7535-.4641.4909-1.1907-.3125-1.0937 .1343-.2098-1.0766-.6754-.4062.031zm1.875-.2188c.6887.4232.4406-.2562 0,0zm-.031.4376c.1907.6579.4838-.4238 0,0zm.094.1874c-.8826.5451.4606.5726.021.026l-.021-.026zm-.031.3126c-1.3429.9615.7539-.065 0,0zm-.25.25c-.5916-.138-.7616.8029-.1563.7187-.1619-.6612.3485-.5145.1563-.7187zm-.4375-.625c-.3956.988.5008.409.062-.031l-.062.031zm-.5938.7812c-.075.452.5339-.04 0,0zm1.8125.2812c-.2167.541.7985.2935.1563-.094l-.1428.086-.013.01zm.25.3126c-.3154-.1625-1.5688-.1419-.3125.1562 .2352.2282.2675,1.1598.4063.3438 .091-.4512.7173-.1012-.094-.5zm-.125.6562v.031-.031zm-.3125-.6875 .1546-.062c.068-.025-.3505-.098-.1546.062zm-.6563.1875c.089.1333-.039-.1997 0,0zm30.28127,8.8125c-.6485.8213 1.3847.3958 1.5238,1.204 .8427.8158 2.0231.9334 2.9943,1.5628 3.3438,1.3237 6.6138,2.854 10.0856,3.8349 5.0818,1.6477 10.3357,2.6641 15.5838,3.617-6.359-2.6398-12.8762-4.9005-19.4649-6.8841-1.2548-.4003-2.5079-.8483-3.7752-1.1608-1.4629-.6984-3.0235-.9979-4.6033-1.326-.8059-.2772-1.5941-.5678-2.3754-.9103l.031.062z" fill="url(#e)" opacity=".96624"/>
  <path d="m992.50697,747.44903c.7115-.5068 1.2795-1.1591 1.8142-1.841 1.6222-2.0692 2.3001-4.2285 3.3049-6.6008 .037-.087.8838-2.5033.7723-2.4847-.036.01-.2469.6299-.2694.6885-.8616,2.2437-1.4597,4.8943-2.2093,7.2145-.1648.51-.4537,3.8527.1078,3.4726 1.8086-1.2246 3.3886-4.7101 3.7539-6.7805 .1619-.9175.67073-1.8578.98793-2.7391 .022-.062.1753-.279.1437-.2395-.5599.6999-.6451,5.0884-.7544,6.2416-.025.2647-2.35083,3.943-1.95783,3.9067 1.2807-.1186 4.06983-5.7368 4.41863-7.005 .281-1.0219.5596-2.1235.7723-3.0984 .03-.1372.2913-.4432.1617-.3892-.4931.2055.041,1.0676.054,1.6016 .026,1.0434-.7617,7.3715 1.0956,7.1995 .1874-.017.6521-.099.7723-.2394 .3551-.4143 1.3495-.5101 1.2574-1.0478-.086-.5006.5152-.9328.5927-1.4818 .2412-1.7086-.1103-3.0787-.5029-4.7149-.2557-1.0651-1.0049-1.9802-1.7064-2.784-.2926-.3354-1.2439-.9719-.8082-1.0628 .7381-.1537 4.5573,3.0746 5.119,3.9067 .3024.448.3588,1.0236.6645,1.4968 .1414.2188 1.3474,3.5621 1.5088,3.4276 .5923-.4936.4847-5.4633 2.2631-5.4633 .01,0-.5838.9794-.7364,1.9459-.1767,1.1191.4821,2.6936 1.383,3.3079 .9633.6567-1.6742,1.7915-2.1014,1.9458-2.6789.9674-8.0183,3.1073-10.8308,2.9337-2.04173-.1261-4.69093-.2068-6.64573.4041-.6709.2097-1.347.7568-2.0656.8232-.9822.091-2.7652-.8374-3.0355-.8531-.9192-.053-1.8065.3578-2.7122.5239-.9159.168-1.9317-.3121-2.802-.5538-2.1498-.5972-1.9359-2.805-2.784-4.4755-.3308-.6516-.3176-1.384-.7544-1.9907-.07-.097-.297-.3657-.1975-.2993 3.1886,2.1257 6.181,4.497 11.9264,5.104z" fill="#49d34e" opacity=".48101"/>
  <path d="m980.67037,746.98503c-.9869-.7338-2.2315-1.144-2.9456-2.2152-.5227-.784-.6583-1.615-.7005-2.5296-.016-.3477.034-1.2406-.2335-1.0178-.1287.1072 2.8209,2.4022 3.0175,2.5745 1.132.9917 2.6645,3.9818 3.5025,4.4454 .798.4416 1.8195-.1293 2.7301-.1796 .1767-.01 2.1531.1591 2.1554.1497 .1714-.7141-1.0492-2.1442-1.2753-2.814-.3226-.9558-.2192-2.6853-.7364-3.5474-.2879-.4798.6986.8757 1.0777,1.2873 .6325.6867 1.1894,1.5258 1.886,2.1404 .5294.4672 1.3047.5469 1.85.9729 .1002.078.9227,1.0672 1.0418.9879s-1.1779-5.7437-1.2394-6.8703c-.01-.1838.039-.7366.2335-.2245 .3255.859.1571,1.9121.3413,2.814 .3502,1.7147 2.12,3.7864 3.8797,4.2209 1.076.2657 2.0052.045 3.0893-.045 .1515-.012.5767-.046.5928-.06 .1051-.088-.02-.5058.072-.4041 .2056.2285.4015.6289.6645.8082 .83013.566 2.38413-.0007 3.37683.1647 .4579.076 1.7767-.081 1.383.1647-4.1943,2.6214-9.05623,1.9251-13.72253,2.0506-1.2375.033-3.506,1.1435-4.6161.3891-.946-.6428-1.8561-1.3371-5.4244-3.263z" fill="#1b6f1e" opacity=".48101"/>
  <path d="m964.20057,744.03883c.8411-.236 1.5964-.6576 2.3302-1.1182 2.227-1.3979 3.5957-3.2003 5.3442-5.0925 .064-.069 1.6791-2.0563 1.5678-2.0766-.037,0-.4456.5092-.4866.5567-1.5702,1.8196-3.0302,4.1113-4.5209,6.0408-.3277.4241-1.7311,3.4717-1.074,3.3041 2.1163-.5401 4.7828-3.2851 5.8275-5.1096 .4629-.8085 1.2599-1.5211 1.8567-2.243 .042-.051.2594-.2032.2163-.1767-.7638.4691-2.3295,4.5697-2.8226,5.6178-.1132.2406-3.5467,2.9145-3.1647,3.0134 1.2453.3219 5.7714-4.0206 6.5289-5.0959 .6104-.8664 1.2454-1.8087 1.7756-2.654 .075-.119.4241-.3184.2838-.3115-.5335.026-.3233,1.0183-.4914,1.5253-.3286.9906-3.2119,6.6785-1.406,7.1454 .182.047.647.1275.8077.036 .4744-.2696 1.4425-.023 1.5378-.5603 .089-.5001.8005-.7034 1.0593-1.1937 .8053-1.5261.9384-2.9343 1.1228-4.6068 .12-1.0888-.2753-2.2035-.6633-3.1973-.1618-.4146-.8415-1.3356-.4008-1.2736 .7466.1052 3.2476,4.4357 3.4945,5.4088 .1329.524-.01,1.0847.1186,1.6334 .059.2538.062,3.8079.2595,3.736 .7244-.264 2.3054-4.9767 3.9788-4.3747 .01,0-.8808.7239-1.3516,1.5817-.5451.9932-.4581,2.6978.1817,3.5808 .6841.944-2.1818,1.119-2.6361,1.1196-2.8481,0-8.5967.2097-11.1844-.9057-1.8785-.8097-4.3441-1.7824-6.3902-1.8693-.7023-.03-1.5237.2562-2.2223.075-.9551-.2468-2.3185-1.724-2.5675-1.8302-.8471-.361-1.821-.2748-2.7295-.4251-.9187-.152-1.712-.9476-2.4491-1.4696-1.8207-1.2896-.8722-3.2947-1.1047-5.1537-.091-.7251.1696-1.4098-.036-2.1285-.033-.115-.1557-.4447-.085-.3485 2.2808,3.0795 4.2939,6.3238 9.4947,8.8397z" fill="#49d34e" opacity=".48101"/>
  <path d="m953.21977,739.59563c-.6802-1.0246-1.7125-1.8319-2.0219-3.0816-.2264-.9146-.073-1.7425.1971-2.6174 .1026-.3326.4519-1.1559.1248-1.0367-.1573.057 1.8413,3.2152 1.9679,3.4439 .7296,1.3164 1.1595,4.6487 1.791,5.3686 .6014.6856 1.7559.4942 2.6298.7551 .1696.05 1.9722.8786 1.9775.8705 .4029-.614-.2615-2.3728-.2475-3.0796 .02-1.0086.7027-2.601.5078-3.5872-.1085-.549.361,1.0604.5784,1.5761 .3627.8602.6027,1.8383 1.0501,2.6524 .3401.6188 1.0426.9563 1.4115,1.5417 .068.1073.507,1.3165.6458,1.2822 .1436-.035.8359-5.8033 1.1594-6.8842 .053-.1764.2864-.6798.2957-.1322 .015.9184-.4994,1.8523-.6314,2.7634-.2508,1.732.7132,4.2805 2.2219,5.285 .9226.6142 1.8716.7211 2.9222,1.0034 .1467.04.5583.1519.5781.1441 .1287-.047.1527-.4826.2043-.3559 .1162.2846.165.7277.3518.9854 .5895.8136 2.2436.8064 3.1217,1.298 .4052.2266 1.6992.5252 1.2456.6232-4.834,1.0469-9.1732-1.2541-13.6066-2.7155-1.1756-.3879-3.6861-.1108-4.4753-1.1964-.6726-.9251-1.2939-1.8865-3.9996-4.9066z" fill="#1b6f1e" opacity=".48101"/>
  <path d="m1021.7958,623.73973c-.7296.1255-1.4698.1525-2.2053.2246-9.2337.9052-10.3189,2.9012-7.3508-.6534 6.1414-7.3549-3.3039-.8862-3.7489-.5922-11.70683,7.7278-10.68283,2.5203-11.32033,2.144-.8965-.5291 12.80813-8.8375 12.61893-10.4137-.3176-2.6468 3.2784-3.7283 3.9695-4.8801 .5151-.8586-.4734-2.2767-.5636-3.1037-.1141-1.046.7101-2.2015.8331-3.2262 .4648-3.8737-.127-7.0492 2.3523-10.1483 .1446-.1808-.2235-.5758-.024-.6942 2.2814-1.358.6333,6.5419 5.1456,7.6163 2.3785.5663 5.2048-.1903 7.6938.2246 1.0203.17 1.846,1.43 2.9404,1.6948 1.5201.3677 2.5381-.7729 4.1655-.8576 1.2239-.064 2.3842.9817 3.6264.6942 3.3002-.7639-1.4393-5.0547 2.6708-4.3697 1.8885.3148 2.536,2.4707 4.19,3.5734 1.3098.8732 9.7505,4.7728 10.7077,4.4309 1.5699-.5607 3.4022-.7644 5.0231-1.3272 .8011-.2782 1.8729-1.2115 2.5973-1.3069 .9699-.1276 2.2909.248 3.1608.041 1.6988-.4045 2.5079-2.8498 4.5575-2.9812 4.3367-.278 1.0579,2.7807 4.7781,2.4707 1.6673-.1389 2.8523-1.6557 4.435-2.2052 1.5075-.5235 5.1495-.8168 6.7873-.8168 3.3292,0 4.8053,1.8763 7.8164,2.5932 3.4015.8099 6.5545-.3445 9.8501.3676 2.3055.498 4.7833-.5216 6.7138,1.4089 .1792.1792.4321,1.071.7351,1.4497 .4935.6169 1.2986,1.2212 1.2986,2.0623 0,1.2844-.2764,1.4529-1.0536,2.4707-.152.199 1.7309,1.0035-.6126,1.1231-1.1764.06-2.351.2858-3.5284.3063-7.6315.1325-14.9969,1.5179-22.5426,2.4707-2.4518.3095-4.9591-.1573-7.3263.1429-3.0116.3819-6.0225,1.5568-9.0171,2.144-4.4364.8699-8.9645,1.5227-13.4275,2.2665-5.7213.9536-11.6443,1.2086-17.397,1.4906-1.3384.066-2.7054.759-4.0184,1.0414-3.4323.7381-7.3913.9399-14.5302,3.1241l-.0005-.0001z" fill="url(#x)" opacity=".96624"/>
  <path d="m1046.8132,619.45173c-3.0879-1.6349-4.6107-1.8614-5.5132-5.0844-.045-.1619-.6331-.8417-.6125-.9188 .3458-1.2968 4.0531-3.1819 4.68-4.2267 .01-.012-1.1488-2.0113-1.1761-2.3074-.1494-1.6181 1.3678-2.8942 1.8622-4.2676 .3264-.9068-.2825-2.3334-.3921-3.2466-.019-.1564-.2281-.5843-.147-.4492 .478.7966 4.1994,4.5778 5.0231,4.7576 1.1959.261 2.8205-.6114 3.9449-.1429 .7937.3307 3.6526,3.4687 4.7781,3.0424 .3306-.1252.4127-.6783.6861-.7759 .8269-.2953 1.3857.7028 2.3277.4084 1.5708-.4909 3.0747-2.1586 4.533-3.0425 .8848-.5362 2.1627-.3201 3.1364-.878 .4246-.2432.079-1.9602.6126-1.9602 2.8559,0 1.4757,1.3099 3.0873,2.2053 2.1124,1.1735 4.9064.6671 7.0323,1.6335 2.0276.9216 5.9269,2.2321 8.1105,2.3686 1.0961.069 1.6643-.6234 2.4012-.7351 1.592-.2412 2.8131.422 4.239.7759 .5672.1408 3.478-.043 3.6264.2246 .8565,1.5464 8.1523,0 10.4137,0 .2933,0 .01.6331.1961.8576 .058.069.9367.955.8821,1.0006-.9637.803-2.6952,1.1197-3.8715,1.5314-5.864,2.0524-12.1829,2.9935-18.4506,2.6136-1.8136-.1099-3.5333-.782-5.3661-.8372-3.1297-.094-7.7488.8024-10.4872,2.1236-3.2091,1.5482-7.0046.9706-10.3647,1.9398-2.1267.6135-3.9907,2.0273-6.0522,2.6953-1.413.4579-4.2994.8701-9.1395.6943z" fill="url(#w)" opacity=".96624"/>
 </g>
</svg>
