<?xml version="1.0" encoding="utf-8"?>
<!-- Generator: Adobe Illustrator 16.0.0, SVG Export Plug-In . SVG Version: 6.00 Build 0)  -->
<!DOCTYPE svg PUBLIC "-//W3C//DTD SVG 1.1//EN" "http://www.w3.org/Graphics/SVG/1.1/DTD/svg11.dtd">
<svg version="1.1" id="Calque_1" xmlns="http://www.w3.org/2000/svg" xmlns:xlink="http://www.w3.org/1999/xlink" x="0px" y="0px"
	 width="1920px" height="350px" viewBox="0 0 1920 350" enable-background="new 0 0 1920 350" xml:space="preserve">
<image overflow="visible" width="239" height="211" xlink:href="914D97CE.jpg"  transform="matrix(1 0 0 1 622 107)">
</image>
<image overflow="visible" width="318" height="159" xlink:href="914D97D2.jpg"  transform="matrix(1 0 0 1 992 67)">
</image>
<image overflow="visible" width="318" height="159" xlink:href="914D97D5.jpg"  transform="matrix(1 0 0 1 1368 71)">
</image>
<image overflow="visible" width="225" height="225" xlink:href="914D97D6.jpg"  transform="matrix(1 0 0 1 163 18)">
</image>
<image overflow="visible" width="164" height="306" xlink:href="914D97D4.jpg"  transform="matrix(1 0 0 1 1705 7)">
</image>
<image overflow="visible" width="174" height="290" xlink:href="914D97D3.jpg"  transform="matrix(1 0 0 1 448 30)">
</image>
<image overflow="visible" width="183" height="276" xlink:href="914D97DD.jpg"  transform="matrix(1 0 0 1 920 54)">
</image>
<image overflow="visible" width="255" height="198" xlink:href="914D97DE.jpg"  transform="matrix(0.9137 0 0 0.8535 30 158.5)">
</image>
<image overflow="visible" width="182" height="276" xlink:href="914D97DC.jpg"  transform="matrix(1 0 0 1 1151 212)">
</image>
</svg>
