<?xml version="1.0" encoding="utf-8"?>
<!-- Generator: Adobe Illustrator 16.0.0, SVG Export Plug-In . SVG Version: 6.00 Build 0)  -->
<!DOCTYPE svg PUBLIC "-//W3C//DTD SVG 1.1//EN" "http://www.w3.org/Graphics/SVG/1.1/DTD/svg11.dtd">
<svg version="1.1" id="Layer_1" xmlns="http://www.w3.org/2000/svg" xmlns:xlink="http://www.w3.org/1999/xlink" x="0px" y="0px"
	 width="600px" height="600px" viewBox="0 0 600 600" enable-background="new 0 0 600 600" xml:space="preserve">
<g>
	<path opacity="0.4" fill="#64450F" stroke="#64450F" stroke-width="0.5" enable-background="new    " d="M324.153,26.988h2.211
		c-0.205,0.085-0.396,0.211-0.617,0.23c-0.467-0.121-0.947-0.103-1.421-0.131L324.153,26.988z"/>
	<path fill="#FBBA90" stroke="#FBBA90" stroke-width="0.5" d="M227.07,122.18c1.875,6.587,4.066,13.101,6.959,19.317
		c1.046,2.258,2.179,4.476,3.417,6.634c4.034,7.049,9.258,13.589,16.021,18.191c4.032,2.769,8.585,4.795,13.36,5.862
		c-1.021-2.468-2.045-4.937-2.917-7.462c-1.135-3.276-2.104-6.616-2.757-10.023c-0.442-2.379-0.783-4.788-0.798-7.211
		c0.158,0.141,0.32,0.287,0.476,0.437c5.967,5.985,12.353,11.563,19.177,16.554c6.544,4.779,13.493,9.025,20.821,12.495
		c8.171,3.902,16.809,6.849,25.687,8.652c-3.96-3.277-7.724-6.839-10.849-10.936c-3.637-4.747-6.412-10.321-7.071-16.323
		c-0.201-1.833-0.221-3.688-0.035-5.522c1.601,1.607,3.156,3.258,4.79,4.832c7.487,7.354,15.573,14.181,24.569,19.627
		c7.111,4.291,14.871,7.696,23.095,9.118c4.113,0.709,8.323,0.907,12.479,0.484c-2.215-4.659-4.471-9.298-6.69-13.955
		c-0.665-1.394-1.362-2.774-1.992-4.185c2.403,1.163,4.731,2.478,7.083,3.742c6.692,3.739,13.275,7.733,19.319,12.467
		c3.23,2.552,6.324,5.316,8.922,8.521c2.187,2.706,4.028,5.814,4.637,9.281c3.295-1.758,6.423-3.847,9.241-6.303
		c-0.036,0.474-0.087,0.947-0.137,1.422c2.343,1.494,4.054,3.87,4.919,6.494c1.478,4.421,0.68,9.646-2.401,13.207
		c-1.532,1.788-3.666,3.079-6,3.465c-0.595,3.077-1.242,6.145-1.927,9.204c-0.118,0.548-0.442,1.02-0.683,1.52
		c-5.959,11.525-13.574,22.281-23.062,31.175c-7.003,6.592-15.011,12.117-23.678,16.291c-4.834,2.352-9.881,4.253-15.02,5.822
		c-0.301-0.886-0.334-1.833-0.498-2.748c-5.01,0.481-10.008,1.099-15.015,1.607c-4.664-0.606-9.323-1.279-14.002-1.765
		c-0.164,3.687-0.83,7.435-2.578,10.722c-1.099,2.064-2.676,3.884-4.62,5.191c-2.876,1.963-6.381,2.771-9.816,2.96
		c-0.045-0.061-0.137-0.184-0.183-0.245c-2.025,0.026-4.065-0.11-6.038-0.588c-2.414-0.568-4.725-1.667-6.586-3.319
		c-2.729-2.398-4.354-5.808-5.218-9.285c-0.394-1.54-0.635-3.112-0.813-4.688c-4.48,0.777-8.949,1.623-13.41,2.503
		c-0.148,0.021-0.295,0.041-0.439,0.058c-0.168-0.018-0.329-0.027-0.491-0.041c-13.684-2.67-27.09-7.188-39.221-14.123
		c-7.7-4.402-14.851-9.785-21.134-16.051c0.448-0.11,0.91-0.094,1.367-0.101c0.344,0.024,0.537-0.362,0.875-0.364
		c0.521-0.023,1.044-0.089,1.565-0.065c0.589,0.195,0.874,0.806,0.834,1.399c0.066,0.037,0.2,0.112,0.268,0.149
		c-0.361,0.298-0.802,0.464-1.211,0.681c0.746,0.312,1.611-0.122,2.325,0.299c0.04-0.172,0.079-0.345,0.122-0.51
		c0.381-0.042,0.763-0.073,1.146-0.092c0.117-0.149,0.233-0.295,0.35-0.44c1.296-0.088,2.594-0.007,3.891-0.035
		c4.676,0.01,9.352-0.009,14.025,0.004c0.353-0.036,0.559,0.284,0.784,0.498c0.324,0.007,0.649,0.01,0.977,0.014
		c0.095,0.121,0.19,0.243,0.288,0.371c0.723,0.015,1.45,0.036,2.174-0.04c-0.42-0.272-0.887-0.461-1.288-0.758
		c0.078-0.038,0.233-0.116,0.311-0.154c-0.03-0.263-0.077-0.528-0.056-0.791c0.296-0.211,0.581-0.437,0.879-0.642
		c0.552,0.033,1.102,0.081,1.655,0.098c0.273-0.014,0.467,0.197,0.666,0.355c0.319,0.018,0.645,0.009,0.963,0.071
		c0.154,0.131,0.278,0.295,0.433,0.433c0.315,0.076,0.646,0.019,0.969,0.012c-0.044-0.529-0.046-1.145,0.455-1.469
		c-0.137-0.294-0.243-0.599-0.322-0.909c0.421-0.035,0.846-0.042,1.27-0.012c0.172,0.163,0.314,0.383,0.545,0.474
		c0.361,0.065,0.733,0.019,1.101,0.007c0.013-0.25,0.026-0.497,0.042-0.741c0.105-0.07,0.212-0.136,0.32-0.2
		c-0.154-0.295-0.276-0.604-0.359-0.922c0.422-0.034,0.846-0.047,1.271-0.029c0.141,0.155,0.248,0.367,0.447,0.463
		c0.353,0.098,0.724,0.043,1.086,0.035c0.013-0.456,0.028-0.911,0.047-1.364c0.451-0.019,0.902-0.033,1.356-0.042
		c0.017-0.457,0.029-0.912,0.04-1.365c0.454-0.012,0.908-0.024,1.364-0.035c0.012-0.498,0.022-0.995,0.037-1.49
		c0.453-0.016,0.906-0.031,1.361-0.045c0.093-1.083-0.015-2.168,0.027-3.252c0.137,0.143,0.268,0.296,0.428,0.423
		c0.343,0.12,0.718,0.034,1.072,0.028c0.057-1.087-0.032-2.176,0.057-3.261c0.167,0.229,0.335,0.462,0.537,0.666
		c1.695,1.617,3.372,3.257,5.162,4.773c6.544,5.64,14.05,10.273,22.29,12.966c4.89,1.612,10.007,2.529,15.152,2.728
		c8.495,0.346,16.984-1.266,24.982-4.071c6.511-2.279,12.733-5.324,18.673-8.819c0.611-0.368,1.239-0.713,1.827-1.121
		c-8.045,2.286-16.28,3.937-24.611,4.701c-10.18,0.95-20.481,0.619-30.569-1.044c-11.323-1.848-22.348-5.365-32.765-10.152
		c0.223-0.07,0.444-0.146,0.67-0.218c0.054-0.95-0.008-1.901,0.021-2.851c-0.005-0.335,0.03-0.676-0.05-1.001
		c-0.185-0.383-0.423-0.74-0.569-1.139c0.387-0.396,0.892-0.643,1.29-1.025c0.235,0.056,0.473,0.117,0.709,0.18
		c0.05-0.907-0.084-1.824,0.125-2.715c-0.188-0.763-0.087-1.546-0.114-2.32c0.05-0.364-0.421-0.453-0.486-0.764
		c-0.251-1.263-0.103-2.554-0.152-3.831c0.036-1.605-0.095-3.219,0.161-4.811c0.17-0.204,0.454-0.364,0.468-0.654
		c0.049-0.638-0.001-1.277,0.006-1.914c-0.033-0.916,0.125-1.833-0.029-2.743c-0.761-0.196-1.498-0.583-1.955-1.238
		c-0.105-0.416-0.111-0.92,0.199-1.254c0.16-0.232,0.419-0.439,0.391-0.749c0.01-0.815-0.008-1.63-0.007-2.443
		c0.317-0.116,0.628-0.252,0.929-0.406c1.841-0.969,3.202-2.769,3.681-4.789c0.576-2.321-0.002-4.905-1.559-6.729
		c-1.301-1.561-3.295-2.539-5.335-2.527c-1.99-0.026-3.942,0.89-5.251,2.378c-0.548,0.618-0.989,1.328-1.305,2.091
		c-0.146,0.002-0.288,0.008-0.43,0.016c-0.073-0.127-0.147-0.253-0.218-0.376c-0.136-0.048-0.272-0.094-0.406-0.137
		c-0.073-0.48-0.071-0.966-0.042-1.449c-0.287-0.009-0.574-0.015-0.859-0.018c-0.193,0.208-0.386,0.414-0.579,0.619
		c-0.033-0.077-0.098-0.229-0.13-0.306c-0.214,0.086-0.426,0.174-0.638,0.263c-0.212-0.265-0.442-0.51-0.693-0.735
		c-0.021-0.411-0.031-0.822-0.042-1.231c-0.355-0.012-0.712-0.006-1.065,0.015c-0.117,0.152-0.233,0.306-0.349,0.461
		c-0.834,0.054-1.67,0.04-2.504,0.011c0.021-0.255,0.042-0.508,0.064-0.761c-0.114-0.09-0.228-0.179-0.338-0.263
		c0.008-0.158,0.016-0.315,0.025-0.469c0.196-0.111,0.394-0.219,0.595-0.322c-0.329-0.07-0.587-0.275-0.858-0.453
		c-0.5-0.102-1.059-0.047-1.412,0.357c-0.323,0.015-0.646,0.028-0.969,0.041c-0.146,0.159-0.288,0.32-0.429,0.481
		c-1.527,0.016-3.054-0.009-4.581,0.008c-0.506,0.074-0.788-0.48-1.267-0.5c-1.063-0.107-2.127,0.018-3.188-0.017
		c-1.684-0.026-3.369,0.059-5.052-0.046c-0.033,0.174-0.064,0.352-0.094,0.533c-1.322,0.101-2.659-0.085-3.969,0.082
		c-1.048,0.897-1.938,1.973-2.962,2.898c-0.69,0.289-1.519-0.093-2.205,0.205c-3.21,3.151-6.363,6.367-9.557,9.537
		c-2.021,2.012-4.031,4.034-6.047,6.048c-0.86,0.875-1.759,1.711-2.586,2.616c0.109,0.108,0.219,0.22,0.329,0.333
		c0.054,0.507,0.282,0.964,0.526,1.403c0.134,0.046,0.269,0.093,0.405,0.144c0.003,0.357,0.081,0.75-0.094,1.083
		c-0.462,0.674-1.126,1.18-1.607,1.836c-0.186,1.962-0.313,3.958-0.069,5.928c0.002,1.269,0.084,2.548-0.098,3.81
		c-0.063,0.596,0.016,1.196-0.021,1.794c-0.004,0.371-0.33,0.617-0.528,0.898c-6.648-11.038-11.31-23.188-14.468-35.654
		c-1.612,0.269-3.29,0.128-4.824-0.438c-2.029-0.736-3.771-2.154-5.027-3.896c-1.677-2.311-2.525-5.179-2.519-8.025
		c0.016-2.236,0.495-4.517,1.614-6.467c7.826-4.063,15.462-8.507,22.747-13.48c5.021-3.439,9.886-7.117,14.444-11.152
		c6.688-5.866,12.789-12.481,17.607-19.981c1.638-2.538,3.113-5.18,4.403-7.911C225.462,126.404,226.258,124.287,227.07,122.18
		 M253.842,187.617c-3.422,0.233-6.833,0.607-10.229,1.072c-0.518,0.074-1.072,0.101-1.516,0.41
		c-0.742,0.467-1.134,1.423-0.916,2.276c0.197,0.932,1.093,1.662,2.049,1.646c0.506-0.034,0.988-0.202,1.481-0.308
		c4.262-1.065,8.498-2.295,12.854-2.931c2.414-0.329,4.905-0.568,7.308-0.033c0.556,0.099,1.052,0.4,1.611,0.48
		c0.047-0.352,0.139-0.731-0.032-1.062c-0.28-0.545-0.865-0.83-1.413-1.035c-1.15-0.401-2.372-0.526-3.579-0.616
		C258.921,187.357,256.376,187.456,253.842,187.617 M324.882,194.837c-0.519,0.271-0.727,0.896-0.595,1.447
		c0.974-0.223,1.982-0.261,2.978-0.154c1.873,0.197,3.693,0.729,5.465,1.356c4.567,1.626,8.825,3.969,13.198,6.036
		c0.63,0.347,1.433,0.285,2.035-0.093c0.786-0.476,1.188-1.492,0.931-2.376c-0.183-0.694-0.739-1.264-1.422-1.477
		c-3.983-1.421-8.007-2.739-12.101-3.806c-2.457-0.619-4.942-1.199-7.476-1.361C326.885,194.376,325.794,194.335,324.882,194.837
		 M332.293,203.936c-1.941,0.367-3.673,1.62-4.691,3.304c-1.173,1.897-1.428,4.318-0.712,6.428c0.676,2.055,2.292,3.793,4.329,4.547
		c2.063,0.789,4.495,0.488,6.307-0.774c1.945-1.314,3.152-3.607,3.208-5.945c0.09-2.295-0.916-4.616-2.698-6.074
		C336.469,204.103,334.304,203.535,332.293,203.936 M367.924,204.026c0.002,0.098,0.011,0.199,0.021,0.302
		c-0.138,0.021-0.272,0.047-0.403,0.074c0.055,0.145,0.111,0.292,0.172,0.441c-0.77,0.011-1.533,0.28-2.299,0.09
		c-0.52-0.004-1.056-0.113-1.564-0.016c-1.235,1.178-2.42,2.418-3.637,3.617c-0.162,0.13-0.38,0.153-0.565,0.224
		c-0.032,0.134-0.062,0.27-0.087,0.409c-0.267,0.013-0.529,0.029-0.791,0.051c-0.027,0.085-0.084,0.253-0.111,0.339
		c-0.304,0.012-0.605,0.028-0.906,0.048c-0.038,0.141-0.074,0.284-0.106,0.43c-0.073,0.027-0.219,0.083-0.291,0.111
		c-0.032,0.138-0.06,0.278-0.086,0.419c-0.31,0.009-0.614,0.028-0.918,0.056c-0.048,0.172-0.09,0.348-0.131,0.524
		c-0.135,0.046-0.269,0.093-0.397,0.143c-0.029,0.229-0.056,0.459-0.078,0.692c-0.07,0-0.212-0.001-0.283-0.001
		c-0.034-0.158-0.066-0.315-0.094-0.469c-0.154-0.007-0.306-0.012-0.453-0.014c-0.02,0.318-0.036,0.639-0.051,0.96
		c-0.15,0.028-0.3,0.058-0.444,0.089c-0.026,0.276-0.048,0.554-0.065,0.833c-0.322,0.027-0.73,0.101-0.796-0.322
		c-0.048,0.097-0.092,0.196-0.132,0.298c-0.296,0.059-0.654,0.008-0.883,0.236c-0.373,0.47-0.466,1.085-0.489,1.669
		c-0.151,0.028-0.299,0.059-0.444,0.092c-0.022,0.307-0.04,0.615-0.051,0.924c-0.145,0.031-0.286,0.064-0.425,0.1
		c-0.032,0.072-0.093,0.219-0.124,0.292c-0.146,0.027-0.289,0.056-0.429,0.088c-0.054,0.779,0.011,1.561-0.039,2.342
		c-0.459,0.021-0.913,0.079-1.355,0.197c-0.071,0.85,0.013,1.705-0.048,2.557c-0.132,0.055-0.246,0.13-0.347,0.223
		c-0.058,0.405-0.014,0.817,0.012,1.227c0.084,0.018,0.252,0.052,0.336,0.07c-0.121,0.065-0.253,0.115-0.349,0.214
		c-0.029,0.404-0.013,0.811-0.034,1.217c-0.166,0.041-0.324,0.088-0.483,0.134c0.159,0.031,0.322,0.063,0.486,0.098
		c0.007,1.002,0.048,2.008-0.001,3.009c-0.206,0.467-0.768,0.688-0.974,1.16c-0.054,0.827-0.002,1.662-0.031,2.494
		c-0.144-0.113-0.29-0.234-0.481-0.208c-0.019,0.536-0.073,1.081,0.018,1.616c0.132,0.093,0.277,0.166,0.425,0.247
		c0.029,0.166,0.062,0.333,0.097,0.504c0.133,0.032,0.268,0.068,0.406,0.106c0.029,0.07,0.087,0.21,0.116,0.28
		c0.14,0.026,0.282,0.057,0.428,0.09c0,0.071-0.001,0.214-0.001,0.284c-0.159,0.031-0.314,0.066-0.468,0.102
		c-0.051,0.645-0.051,1.294,0.011,1.938c0.149,0.031,0.302,0.063,0.456,0.098c0.013,0.44,0.018,0.883,0.05,1.324
		c0.453,0.026,0.909,0.08,1.353,0.2c0.007,0.273,0.011,0.55,0.01,0.829c-0.159-0.154-0.315-0.31-0.469-0.463
		c-0.022,0.239-0.043,0.48-0.061,0.723c-0.077-0.004-0.229-0.012-0.305-0.015c-0.021-0.256-0.056-0.508-0.123-0.751
		c-0.061,0.286-0.063,0.578-0.031,0.87c0.153,0.024,0.31,0.05,0.467,0.079c0.008,0.312,0.023,0.624,0.048,0.937
		c0.141,0.025,0.286,0.052,0.434,0.082c0.032,0.131,0.066,0.265,0.104,0.402c0.071,0.031,0.215,0.093,0.286,0.124
		c0.026,0.275,0.057,0.551,0.089,0.83c0.09-0.32,0.195-0.635,0.333-0.937c0.063,0.127,0.132,0.26,0.201,0.394
		c0.067-0.178,0.147-0.478,0.395-0.31c0.099,0.446-0.013,0.916,0.1,1.367c0.043-0.161,0.087-0.32,0.134-0.476
		c0.075-0.003,0.227-0.008,0.303-0.012c0.133,0.672-0.218,1.472,0.254,2.046c0.007,0.199,0.015,0.401,0.026,0.606
		c0.096,0.067,0.193,0.137,0.296,0.21c0.286,0.406,0.367,0.894,0.362,1.384c0.135,0.037,0.271,0.077,0.411,0.119
		c0.033,0.072,0.101,0.218,0.134,0.29c0.261,0.023,0.524,0.045,0.792,0.066c0.015,0.315,0.036,0.634,0.065,0.954
		c0.77,0.02,1.544-0.064,2.313,0.072c0.064,0.109,0.132,0.221,0.202,0.337c0.238,0.006,0.479,0.016,0.722,0.031
		c0.028,0.15,0.06,0.304,0.095,0.461c0.272,0.013,0.546,0.029,0.823,0.046c-0.001,0.075-0.002,0.227-0.002,0.301
		c-0.083,0.026-0.247,0.075-0.329,0.101c0.133,0.075,0.272,0.156,0.38,0.278c-0.139,0.001-0.273,0.003-0.406,0.007
		c0.003,0.07,0.007,0.21,0.008,0.279c0.194,0.017,0.392,0.037,0.593,0.059c-0.088,0.088-0.172,0.178-0.252,0.272
		c0.193,0.045,0.389,0.085,0.591,0.126c0.004,0.118-0.033,0.252,0.033,0.368c0.391,0.252,0.889,0.219,1.325,0.12
		c0.255-0.042,0.354-0.312,0.531-0.466c0.267-0.046,0.525,0.098,0.789,0.141c0.265,0.235,0.478,0.524,0.724,0.786
		c0.27,0.043,0.547,0.04,0.825,0.051c0.027,0.149,0.06,0.301,0.094,0.455c0.431,0.032,0.862,0.042,1.296,0.057
		c0.03,0.082,0.088,0.245,0.117,0.326c0.358,0.028,0.723,0.073,1.083,0.021c0.094-0.117,0.173-0.245,0.258-0.364
		c0.079,0.071,0.162,0.145,0.247,0.223c0.09-0.079,0.183-0.155,0.277-0.228c2.243,0.017,4.486-0.032,6.729,0.014
		c-0.672,0.794-1.479,1.462-2.167,2.243c1.471,0.087,2.946-0.037,4.417,0.05c0.029,0.16,0.062,0.322,0.098,0.488
		c0.198-0.018,0.447,0.001,0.516-0.241c-0.137-0.078-0.266-0.146-0.394-0.216c0.063-0.032,0.188-0.094,0.252-0.126
		c0.097-0.311,0.355-0.462,0.67-0.491c-0.085-0.083-0.167-0.162-0.243-0.238c0.256-0.113,0.534-0.102,0.811-0.075
		c-0.076,0.122-0.148,0.249-0.219,0.376c0.282,0.054,0.48-0.099,0.538-0.375c0.123-0.002,0.249-0.001,0.379,0.003
		c0.026,0.085,0.081,0.253,0.109,0.338c0.737,0.007,1.48,0.131,2.215-0.006c0.086-0.276,0.116-0.564,0.099-0.851
		c0.47-0.014,0.942-0.007,1.414-0.032c0.024-0.158,0.054-0.312,0.086-0.463c0.196-0.01,0.396-0.019,0.6-0.023
		c0.061-0.115,0.125-0.227,0.191-0.336c0.171-0.032,0.346-0.062,0.524-0.085c0.024-0.15,0.053-0.298,0.083-0.442
		c0.266-0.059,0.535-0.101,0.809-0.12c0.028-0.137,0.059-0.271,0.093-0.402c0.262-0.011,0.526-0.01,0.792,0.002
		c0.027,0.154,0.058,0.311,0.091,0.472c0.12-0.32,0.269-0.625,0.439-0.918c0.152-0.05,0.308-0.099,0.47-0.143
		c0.033-0.067,0.098-0.205,0.131-0.272c0.411-0.186,0.854-0.106,1.285-0.054c0.025-0.088,0.076-0.264,0.102-0.352
		c0.27,0.197,0.558,0.436,0.922,0.346c0.026-0.155,0.059-0.308,0.093-0.458c0.145-0.032,0.294-0.061,0.447-0.087
		c0.013-0.312,0.026-0.623,0.043-0.932c0.264-0.027,0.529-0.054,0.8-0.081c0.034-0.065,0.103-0.197,0.139-0.262
		c0.125-0.08,0.335-0.073,0.411-0.216c0.037-0.287,0.031-0.573,0.041-0.857c0.281-0.017,0.566-0.032,0.854-0.046
		c0.021-0.322,0.021-0.644-0.006-0.963c-0.128-0.099-0.252-0.197-0.371-0.291c0.111-0.069,0.229-0.134,0.352-0.195
		c-0.102-0.075-0.197-0.147-0.291-0.216c-0.024-0.361-0.031-0.724-0.027-1.082c0.435-0.157,0.899-0.177,1.361-0.186
		c0.01-0.225,0.022-0.448,0.039-0.668c0.101,0.001,0.205,0.006,0.314,0.014c0.024-0.188,0.054-0.371,0.086-0.552
		c0.193-0.03,0.391-0.057,0.592-0.082c-0.049-0.442-0.156-0.879-0.1-1.324c0.151-0.031,0.306-0.059,0.464-0.085
		c0.015-0.268,0.034-0.532,0.055-0.796c0.141-0.035,0.286-0.066,0.436-0.097c0.027-0.168,0.06-0.334,0.098-0.497
		c0.102-0.077,0.205-0.154,0.307-0.234c0.024-0.412,0.005-0.823,0.038-1.231c0.329-0.018,0.658-0.038,0.991-0.059
		c0.017-0.706,0.019-1.412-0.012-2.115c-0.163-0.181-0.523-0.222-0.501-0.519c0.117-0.143,0.331-0.131,0.494-0.209
		c0.126-0.242-0.229-0.301-0.342-0.449c-0.244-0.192-0.078-0.488,0.015-0.708c0.101,0.001,0.205,0.005,0.313,0.011
		c0.023-0.066,0.07-0.197,0.093-0.262c0.145,0.054,0.292,0.111,0.443,0.169c0.024-0.522,0.014-1.045,0.034-1.566
		c0.078-0.025,0.234-0.075,0.313-0.101c-0.245-0.376-0.416-0.796-0.514-1.231c0.24-0.33,0.186-0.75,0.191-1.132
		c0-0.977-0.031-1.953-0.001-2.93c0.061-0.489-0.267-0.919-0.147-1.411c0.069-0.266-0.175-0.405-0.334-0.557
		c-0.029-0.221-0.051-0.439-0.066-0.656c-0.14,0.097-0.27,0.241-0.453,0.18c-0.052-0.28-0.051-0.568,0.01-0.843
		c0.191-0.099,0.326,0.085,0.477,0.183c-0.016-0.136-0.026-0.27-0.034-0.401c-0.169-0.067-0.375-0.06-0.495-0.195
		c-0.004-0.153,0.025-0.295,0.089-0.43c0.134-0.033,0.276-0.031,0.421-0.035c0.027-0.421,0.035-0.845-0.01-1.264
		c-0.155-0.036-0.309-0.069-0.457-0.101c-0.017-0.31-0.033-0.618-0.047-0.925c-0.166-0.033-0.327-0.064-0.485-0.094
		c0.005-0.452,0.256-0.855,0.248-1.306c-0.21-0.032-0.416-0.063-0.617-0.089c-0.065-0.907,0.023-1.816-0.044-2.721
		c-0.476,0.015-0.953-0.023-1.426-0.066c-0.196-0.48-0.491-0.924-0.503-1.459c-0.149-0.029-0.294-0.054-0.437-0.079
		c-0.063-0.446,0.052-0.881,0.09-1.32c-0.202-0.027-0.402-0.051-0.597-0.073c-0.024-0.268-0.045-0.533-0.063-0.798
		c-0.074-0.031-0.222-0.092-0.296-0.122c-0.037-0.141-0.07-0.28-0.1-0.417c-0.318-0.028-0.634-0.048-0.947-0.062
		c-0.019-0.272-0.034-0.542-0.048-0.812c-0.148-0.037-0.293-0.071-0.435-0.104c-0.037-0.143-0.071-0.284-0.102-0.423
		c-0.273-0.018-0.544-0.034-0.813-0.048c-0.017-0.321-0.033-0.641-0.051-0.958c-0.146-0.033-0.289-0.064-0.429-0.093
		c-0.028-0.074-0.086-0.224-0.113-0.299c-0.275-0.026-0.548-0.048-0.816-0.07c-0.016-0.321-0.029-0.64-0.044-0.958
		c-0.318-0.018-0.634-0.035-0.947-0.053c-0.033-0.144-0.063-0.286-0.088-0.424c-0.44,0.057-0.872,0.15-1.312,0.191
		c-0.035-0.192-0.067-0.381-0.098-0.566c-0.159-0.071-0.375-0.052-0.476-0.204c0.015-0.213,0.239-0.257,0.388-0.355
		c-0.429-0.015-0.855-0.021-1.278-0.059c0.399-0.09,0.831-0.112,1.15-0.406c-0.089-0.028-0.269-0.085-0.358-0.113
		c0.114-0.105,0.231-0.21,0.352-0.312c-0.282-0.01-0.563-0.013-0.838-0.007c0.057,0.12,0.118,0.241,0.182,0.366
		c-0.302,0.071-0.462-0.14-0.612-0.357c-0.239-0.059-0.243,0.386-0.484,0.366c-0.248,0.013-0.494-0.012-0.735-0.025
		c-0.063-0.307,0.057-0.889-0.418-0.858c-0.836,0.002-1.68,0.102-2.51-0.043c-0.034-0.153-0.066-0.304-0.094-0.453
		c-0.748-0.06-1.496-0.009-2.243-0.025c-0.623-0.03-1.248,0.121-1.863-0.026c-0.035-0.146-0.065-0.289-0.092-0.429
		c-0.136-0.03-0.266-0.06-0.393-0.086c0.003-0.103,0.008-0.204,0.017-0.302c-1.107-0.285-2.257-0.144-3.386-0.172
		C370.027,203.913,368.947,203.706,367.924,204.026 M302.939,223.298c-0.026,0.695,0.141,1.379,0.136,2.075
		c0.029,1.097-0.152,2.31-0.969,3.117c-0.981,1.059-2.441,1.395-3.777,1.766c0.927,0.394,1.948,0.592,2.956,0.614
		c0.865,0.023,1.803-0.303,2.241-1.098c0.619-1.15,0.427-2.527,0.213-3.76C303.514,225.099,303.343,224.151,302.939,223.298z"/>
	<path fill="#56384C" stroke="#F69030" stroke-width="0.5" d="M426.424,113.798c-1.67-9.656-4.727-19.124-9.525-27.69
		c-3.49-6.242-7.889-11.974-13.031-16.944c-7.277-7.068-15.972-12.573-25.218-16.687c-10.552-4.707-21.801-7.697-33.169-9.639
		c-3.451-0.576-6.913-1.084-10.391-1.463c-7.324-0.867-14.693-1.318-22.063-1.513c0.453-2.328,1.234-4.622,2.541-6.616
		c1.142-1.756,2.711-3.233,4.546-4.245c1.738-0.945,3.662-1.584,5.632-1.783c-0.466-0.121-0.947-0.103-1.421-0.131
		c-2.532,0.028-5.07,0.299-7.532,0.9c-2.487,0.62-4.92,1.631-6.934,3.243c-2.249,1.764-3.825,4.292-4.613,7.025
		c-12.353-2.552-24.949-4.138-37.578-3.987c-8.239,0.112-16.487,0.968-24.512,2.865c-9.624,2.255-18.916,6.059-27.197,11.478
		c-5.265,3.43-10.115,7.488-14.456,12.03c-6.421,6.691-11.723,14.407-16.04,22.599c-2.908,5.503-5.378,11.233-7.501,17.082
		c-2.681,7.394-4.807,14.981-6.515,22.655c-1.541,6.899-2.736,13.874-3.683,20.878c-0.782,5.854-1.393,11.73-1.844,17.618
		c-0.509,6.547-0.833,13.11-1.001,19.675c0.088-0.047,0.264-0.14,0.352-0.187c7.826-4.063,15.462-8.507,22.747-13.48
		c5.021-3.439,9.886-7.117,14.444-11.152c6.688-5.866,12.789-12.481,17.607-19.981c-0.584,0.046-1.165,0.125-1.745,0.212
		c0.58-0.087,1.161-0.166,1.745-0.212c1.638-2.538,3.113-5.18,4.403-7.912c0.987-2.033,1.783-4.151,2.596-6.258
		c1.875,6.587,4.066,13.101,6.959,19.318c1.045,2.257,2.179,4.476,3.417,6.634c4.034,7.049,9.258,13.589,16.021,18.191
		c4.032,2.769,8.585,4.795,13.36,5.862c-1.021-2.468-2.045-4.937-2.917-7.461c-1.135-3.276-2.104-6.616-2.757-10.024
		c-0.442-2.378-0.783-4.788-0.799-7.211c0.159,0.141,0.321,0.287,0.477,0.437c5.967,5.984,12.353,11.563,19.177,16.553
		c6.544,4.779,13.493,9.025,20.821,12.495c8.171,3.903,16.809,6.849,25.687,8.652c-3.96-3.277-7.724-6.839-10.849-10.936
		c-3.637-4.747-6.412-10.321-7.071-16.323c-0.201-1.833-0.221-3.688-0.035-5.522c1.601,1.607,3.156,3.258,4.79,4.832
		c7.487,7.354,15.573,14.181,24.569,19.627c7.111,4.291,14.871,7.696,23.095,9.118c4.113,0.709,8.323,0.907,12.479,0.484
		c-2.215-4.659-4.471-9.298-6.69-13.955c-0.665-1.394-1.362-2.774-1.992-4.185c2.403,1.163,4.731,2.478,7.083,3.742
		c6.692,3.739,13.275,7.733,19.319,12.467c3.23,2.552,6.324,5.316,8.922,8.521c2.187,2.706,4.028,5.814,4.637,9.281
		c3.295-1.758,6.423-3.847,9.241-6.303c2.986-2.707,5.603-5.926,7.108-9.698c0.833-2.064,1.336-4.261,1.474-6.482
		c0.026-0.653,0.211-1.283,0.348-1.919c1.001-4.542,1.887-9.109,2.634-13.701c1.268-7.775,2.143-15.62,2.454-23.494
		C428.388,132.033,427.989,122.829,426.424,113.798z M184.681,141.411c2.124-0.308,4.246-0.627,6.37-0.933
		C188.927,140.783,186.805,141.103,184.681,141.411z M280.455,164.007c0.456-0.463,0.931-0.909,1.377-1.382
		C281.386,163.098,280.911,163.544,280.455,164.007z"/>
	<path fill="#F58634" stroke="#F58634" stroke-width="0.5" d="M253.842,187.617c2.534-0.162,5.079-0.26,7.617-0.101
		c1.207,0.09,2.429,0.215,3.579,0.616c0.547,0.205,1.133,0.49,1.413,1.035c0.171,0.331,0.079,0.71,0.032,1.062
		c-0.56-0.08-1.056-0.381-1.611-0.48c-2.402-0.535-4.894-0.296-7.308,0.033c-4.355,0.636-8.592,1.866-12.854,2.931
		c-0.493,0.106-0.976,0.274-1.48,0.309c-0.957,0.015-1.852-0.714-2.05-1.646c-0.218-0.853,0.174-1.81,0.916-2.276
		c0.443-0.31,0.998-0.336,1.516-0.41C247.009,188.224,250.42,187.85,253.842,187.617z"/>
	<path fill="#F58634" stroke="#F58634" stroke-width="0.5" d="M324.882,194.837c0.912-0.501,2.003-0.461,3.014-0.429
		c2.534,0.162,5.02,0.742,7.476,1.361c4.094,1.067,8.117,2.385,12.101,3.806c0.683,0.212,1.239,0.783,1.423,1.477
		c0.257,0.883-0.146,1.899-0.931,2.375c-0.604,0.378-1.406,0.439-2.036,0.093c-4.373-2.066-8.631-4.409-13.198-6.036
		c-1.771-0.626-3.592-1.158-5.465-1.356c-0.994-0.107-2.003-0.069-2.978,0.154C324.156,195.732,324.364,195.108,324.882,194.837z"/>
	<path fill="#393435" stroke="#393435" stroke-width="0.5" d="M245.74,199.015c1.31-1.488,3.261-2.404,5.251-2.378
		c2.04-0.012,4.034,0.966,5.335,2.527c1.557,1.823,2.135,4.407,1.559,6.729c-0.479,2.02-1.84,3.82-3.681,4.789
		c-0.098-0.033-0.292-0.098-0.39-0.13c-0.013-0.405,0.001-0.811-0.044-1.212c-0.13-0.119-0.312-0.155-0.462-0.228
		c-0.027-0.637-0.021-1.275-0.061-1.909c0.763-0.33,1.368-1.011,1.563-1.823c0.299-1.118-0.191-2.402-1.192-2.995
		c-1.005-0.645-2.422-0.4-3.189,0.5c-0.04-0.267-0.076-0.529-0.112-0.792c-0.447-0.014-0.893-0.025-1.337-0.033
		c-0.014-0.458-0.03-0.915-0.046-1.371c-0.919-0.063-1.841,0.032-2.76-0.042c-0.007-0.481-0.023-0.961-0.049-1.44
		C245.994,199.141,245.866,199.076,245.74,199.015z"/>
	<path fill="#3F3837" stroke="#3F3837" stroke-width="0.5" d="M244.435,201.105c0.315-0.763,0.758-1.474,1.305-2.091
		c0.127,0.061,0.255,0.126,0.385,0.192c0.025,0.479,0.042,0.959,0.049,1.44c0.919,0.074,1.841-0.021,2.76,0.042
		c0.016,0.456,0.032,0.912,0.046,1.37c0.444,0.008,0.89,0.02,1.337,0.033c0.036,0.263,0.073,0.524,0.112,0.792
		c-0.547,0.645-0.787,1.538-0.604,2.367c0.189,0.976,0.966,1.826,1.944,2.045c0.489,0.122,1.003,0.056,1.479-0.094
		c0.041,0.634,0.033,1.272,0.062,1.909c0.149,0.073,0.332,0.109,0.462,0.228c0.045,0.401,0.03,0.808,0.043,1.212
		c0.098,0.031,0.292,0.097,0.39,0.13c-0.301,0.154-0.611,0.29-0.928,0.406c-1.366,0.479-2.885,0.516-4.27,0.093
		c-1.841-0.549-3.404-1.895-4.284-3.593C243.678,205.608,243.574,203.17,244.435,201.105z"/>
	<path fill="#FEFCFC" stroke="#FEFCFC" stroke-width="0.5" d="M250.428,202.884c0.768-0.9,2.185-1.145,3.189-0.5
		c1.001,0.593,1.491,1.877,1.192,2.995c-0.194,0.813-0.8,1.494-1.563,1.823c-0.477,0.15-0.991,0.217-1.48,0.095
		c-0.978-0.219-1.754-1.07-1.944-2.045C249.641,204.422,249.882,203.529,250.428,202.884z"/>
	<path fill="#373435" stroke="#373435" stroke-width="0.5" d="M332.293,203.936c2.011-0.401,4.176,0.167,5.742,1.486
		c1.782,1.458,2.788,3.779,2.697,6.074c-0.056,2.337-1.263,4.631-3.207,5.945c-1.813,1.262-4.244,1.563-6.307,0.774
		c-2.038-0.754-3.653-2.492-4.33-4.547c-0.715-2.11-0.461-4.531,0.712-6.428C328.62,205.556,330.352,204.303,332.293,203.936
		 M334.331,209.276c-0.976,0.249-1.731,1.123-1.889,2.11c-0.197,1.045,0.28,2.189,1.187,2.758c0.707,0.461,1.654,0.523,2.413,0.15
		c0.796-0.378,1.356-1.184,1.463-2.054c0.126-0.897-0.22-1.848-0.911-2.436C335.985,209.272,335.112,209.067,334.331,209.276z"/>
	
		<radialGradient id="SVGID_1_" cx="2.3499" cy="-647.2476" r="246.7447" gradientTransform="matrix(0.1273 0 0 -0.1273 222.3456 144.183)" gradientUnits="userSpaceOnUse">
		<stop  offset="0" style="stop-color:#F9A883"/>
		<stop  offset="1" style="stop-color:#FBB089"/>
	</radialGradient>
	<path fill="url(#SVGID_1_)" stroke="#FBAD86" stroke-width="0.5" d="M254.794,233.807c-0.188-0.763-0.087-1.546-0.114-2.32
		c0.05-0.364-0.42-0.453-0.486-0.764c-0.251-1.263-0.102-2.554-0.151-3.831c0.035-1.605-0.096-3.219,0.16-4.811
		c0.171-0.204,0.454-0.364,0.469-0.654c0.048-0.638-0.002-1.277,0.005-1.914c-0.033-0.916,0.125-1.833-0.029-2.743
		c-0.761-0.196-1.498-0.583-1.954-1.238c-0.106-0.416-0.112-0.92,0.198-1.254c0.16-0.232,0.419-0.439,0.391-0.749
		c0.011-0.814-0.008-1.63-0.007-2.443c-1.366,0.479-2.884,0.516-4.27,0.093c-1.84-0.549-3.403-1.895-4.283-3.593
		c-1.044-1.979-1.147-4.417-0.288-6.481c-0.145,0.002-0.287,0.007-0.429,0.015c-0.073-0.127-0.147-0.253-0.218-0.375
		c-0.136-0.049-0.272-0.094-0.406-0.138c-0.073-0.48-0.071-0.966-0.042-1.449c-0.287-0.009-0.574-0.015-0.859-0.018
		c-0.193,0.208-0.386,0.414-0.579,0.619c-0.033-0.076-0.099-0.229-0.13-0.306c-0.215,0.087-0.426,0.174-0.639,0.264
		c-0.211-0.265-0.441-0.511-0.692-0.735c-0.021-0.411-0.031-0.822-0.042-1.231c-0.355-0.012-0.712-0.006-1.065,0.016
		c-0.117,0.151-0.233,0.306-0.349,0.461c-0.835,0.054-1.67,0.04-2.504,0.01c0.021-0.254,0.042-0.508,0.064-0.76
		c-0.114-0.09-0.228-0.179-0.338-0.263c0.007-0.158,0.015-0.315,0.025-0.469c0.196-0.111,0.394-0.219,0.595-0.322
		c-0.329-0.07-0.587-0.275-0.858-0.452c-0.501-0.102-1.059-0.047-1.412,0.356c-0.324,0.015-0.646,0.028-0.969,0.041
		c-0.146,0.159-0.288,0.32-0.43,0.481c-1.526,0.016-3.053-0.009-4.58,0.008c-0.507,0.074-0.788-0.48-1.267-0.5
		c-1.063-0.107-2.127,0.018-3.188-0.017c-1.684-0.025-3.369,0.059-5.052-0.046c-0.033,0.174-0.064,0.352-0.094,0.533
		c-1.322,0.101-2.659-0.085-3.969,0.082c-1.049,0.897-1.938,1.973-2.962,2.898c-0.69,0.289-1.519-0.093-2.206,0.205
		c-3.209,3.151-6.362,6.367-9.556,9.537c-2.021,2.012-4.031,4.034-6.047,6.048c-0.861,0.875-1.759,1.711-2.586,2.616
		c0.109,0.108,0.219,0.22,0.329,0.333c0.054,0.507,0.281,0.964,0.526,1.403c0.134,0.046,0.269,0.093,0.404,0.144
		c0.004,0.357,0.082,0.75-0.093,1.083c-0.462,0.674-1.127,1.181-1.608,1.836c-0.185,1.962-0.312,3.958-0.068,5.928
		c0.002,1.27,0.084,2.548-0.098,3.81c-0.064,0.596,0.016,1.196-0.021,1.794c-0.004,0.37-0.33,0.616-0.528,0.897
		c4.331,7.197,9.505,13.896,15.467,19.818c0.448-0.11,0.911-0.094,1.368-0.101c0.343,0.024,0.537-0.362,0.874-0.364
		c0.521-0.023,1.045-0.089,1.566-0.065c0.588,0.195,0.873,0.806,0.834,1.399c0.066,0.037,0.2,0.112,0.268,0.149
		c-0.362,0.298-0.803,0.463-1.211,0.681c0.746,0.312,1.61-0.123,2.325,0.299c0.039-0.172,0.079-0.345,0.122-0.511
		c0.381-0.042,0.763-0.073,1.146-0.092c0.117-0.149,0.233-0.295,0.351-0.44c1.295-0.088,2.594-0.006,3.89-0.035
		c4.676,0.01,9.352-0.009,14.026,0.004c0.353-0.036,0.559,0.284,0.784,0.498c0.324,0.006,0.649,0.01,0.977,0.014
		c0.094,0.121,0.189,0.244,0.287,0.371c0.724,0.016,1.451,0.036,2.174-0.04c-0.419-0.272-0.886-0.461-1.287-0.757
		c0.078-0.039,0.233-0.116,0.311-0.154c-0.03-0.263-0.078-0.528-0.056-0.791c0.295-0.211,0.58-0.437,0.879-0.642
		c0.551,0.033,1.101,0.081,1.655,0.098c0.273-0.014,0.466,0.197,0.666,0.355c0.319,0.018,0.644,0.009,0.962,0.071
		c0.154,0.131,0.279,0.295,0.434,0.433c0.315,0.076,0.646,0.019,0.969,0.012c-0.045-0.529-0.046-1.145,0.454-1.469
		c-0.136-0.294-0.243-0.599-0.322-0.909c0.422-0.035,0.846-0.042,1.27-0.012c0.173,0.163,0.315,0.383,0.546,0.474
		c0.361,0.065,0.733,0.019,1.1,0.007c0.013-0.25,0.026-0.497,0.042-0.741c0.105-0.07,0.213-0.136,0.321-0.2
		c-0.154-0.295-0.276-0.604-0.359-0.922c0.422-0.034,0.846-0.047,1.271-0.029c0.142,0.155,0.249,0.367,0.447,0.463
		c0.354,0.098,0.725,0.043,1.086,0.035c0.013-0.456,0.028-0.911,0.048-1.364c0.45-0.019,0.902-0.033,1.355-0.042
		c0.017-0.457,0.03-0.912,0.041-1.365c0.453-0.012,0.908-0.024,1.363-0.036c0.012-0.498,0.023-0.995,0.037-1.49
		c0.453-0.015,0.907-0.031,1.361-0.044c0.093-1.083-0.014-2.168,0.028-3.252c0.136,0.143,0.268,0.296,0.428,0.423
		c0.343,0.12,0.717,0.035,1.072,0.028c0.056-1.087-0.033-2.176,0.056-3.261c0.167,0.229,0.335,0.462,0.538,0.666
		c0.035-0.01,0.105-0.028,0.141-0.038c0.224-0.07,0.444-0.146,0.67-0.218c0.054-0.95-0.007-1.901,0.021-2.851
		c-0.005-0.334,0.031-0.676-0.05-1.001c-0.185-0.383-0.423-0.74-0.568-1.139c0.387-0.396,0.891-0.643,1.289-1.025
		c0.236,0.056,0.473,0.117,0.71,0.18C254.719,235.615,254.585,234.698,254.794,233.807z"/>
	<path fill="#FEFEFE" stroke="#FEFEFE" stroke-width="0.5" d="M334.331,209.276c0.78-0.209,1.653-0.004,2.263,0.528
		c0.691,0.588,1.037,1.538,0.911,2.436c-0.106,0.87-0.667,1.676-1.463,2.054c-0.759,0.373-1.706,0.311-2.413-0.15
		c-0.906-0.569-1.384-1.712-1.187-2.758C332.6,210.399,333.356,209.525,334.331,209.276z"/>
	
		<radialGradient id="SVGID_2_" cx="1174.7756" cy="-666.6064" r="195.9802" gradientTransform="matrix(0.1273 0 0 -0.1273 222.3456 144.183)" gradientUnits="userSpaceOnUse">
		<stop  offset="0" style="stop-color:#F9A883"/>
		<stop  offset="1" style="stop-color:#FBB089"/>
	</radialGradient>
	<path fill="url(#SVGID_2_)" stroke="#F9A883" stroke-width="0.5" d="M396.097,231.095c0.24-0.33,0.186-0.75,0.191-1.132
		c0-0.977-0.031-1.954-0.001-2.93c0.061-0.489-0.267-0.919-0.147-1.411c0.069-0.267-0.175-0.405-0.334-0.557
		c-0.029-0.222-0.051-0.439-0.066-0.656c-0.14,0.097-0.27,0.241-0.453,0.18c-0.052-0.28-0.051-0.568,0.01-0.843
		c0.191-0.1,0.326,0.085,0.477,0.183c-0.016-0.136-0.026-0.27-0.034-0.401c-0.169-0.068-0.375-0.06-0.495-0.195
		c-0.004-0.153,0.025-0.296,0.089-0.431c0.134-0.033,0.276-0.03,0.421-0.034c0.027-0.421,0.035-0.845-0.01-1.265
		c-0.155-0.036-0.309-0.069-0.457-0.101c-0.017-0.31-0.033-0.618-0.047-0.924c-0.166-0.033-0.327-0.065-0.485-0.094
		c0.005-0.452,0.256-0.855,0.248-1.306c-0.21-0.032-0.416-0.063-0.617-0.089c-0.065-0.907,0.024-1.816-0.044-2.721
		c-0.476,0.015-0.953-0.023-1.426-0.066c-0.196-0.48-0.491-0.924-0.503-1.459c-0.149-0.029-0.294-0.055-0.437-0.079
		c-0.063-0.445,0.052-0.881,0.09-1.32c-0.202-0.026-0.402-0.051-0.597-0.073c-0.024-0.268-0.045-0.533-0.063-0.798
		c-0.074-0.031-0.222-0.092-0.296-0.123c-0.037-0.141-0.07-0.28-0.1-0.416c-0.318-0.028-0.634-0.049-0.947-0.063
		c-0.019-0.272-0.034-0.542-0.048-0.811c-0.148-0.037-0.293-0.072-0.435-0.104c-0.037-0.143-0.071-0.284-0.102-0.423
		c-0.273-0.018-0.544-0.035-0.813-0.048c-0.017-0.321-0.033-0.641-0.051-0.958c-0.146-0.033-0.289-0.063-0.429-0.093
		c-0.028-0.074-0.086-0.224-0.113-0.299c-0.275-0.025-0.548-0.048-0.816-0.07c-0.016-0.321-0.029-0.639-0.044-0.958
		c-0.318-0.018-0.634-0.036-0.947-0.054c-0.033-0.144-0.063-0.285-0.088-0.424c-0.44,0.058-0.872,0.15-1.312,0.191
		c-0.035-0.192-0.067-0.381-0.098-0.566c-0.159-0.071-0.375-0.052-0.476-0.204c0.015-0.212,0.239-0.257,0.388-0.355
		c-0.429-0.016-0.855-0.021-1.278-0.059c0.399-0.09,0.831-0.112,1.15-0.406c-0.089-0.028-0.269-0.085-0.358-0.113
		c0.114-0.106,0.231-0.21,0.352-0.312c-0.282-0.01-0.563-0.013-0.838-0.006c0.057,0.12,0.118,0.241,0.182,0.365
		c-0.302,0.071-0.462-0.14-0.612-0.356c-0.239-0.059-0.243,0.386-0.483,0.366c-0.249,0.012-0.494-0.012-0.736-0.026
		c-0.063-0.307,0.057-0.889-0.418-0.858c-0.835,0.002-1.68,0.102-2.51-0.043c-0.034-0.153-0.066-0.304-0.094-0.453
		c-0.748-0.06-1.496-0.009-2.243-0.025c-0.623-0.029-1.248,0.121-1.863-0.025c-0.035-0.146-0.065-0.289-0.092-0.429
		c-0.136-0.03-0.265-0.06-0.393-0.087c0.003-0.103,0.008-0.204,0.017-0.301c-1.107-0.286-2.257-0.144-3.386-0.172
		c-1.052,0.06-2.131-0.147-3.153,0.173c0.002,0.098,0.01,0.198,0.021,0.302c-0.138,0.021-0.273,0.047-0.404,0.073
		c0.055,0.146,0.112,0.292,0.172,0.441c-0.769,0.011-1.532,0.28-2.298,0.09c-0.52-0.004-1.056-0.113-1.565-0.016
		c-1.235,1.178-2.419,2.418-3.637,3.617c-0.161,0.13-0.379,0.153-0.565,0.224c-0.031,0.134-0.061,0.27-0.086,0.409
		c-0.267,0.013-0.53,0.03-0.791,0.051c-0.028,0.085-0.084,0.253-0.112,0.339c-0.303,0.012-0.604,0.028-0.905,0.048
		c-0.038,0.141-0.075,0.284-0.106,0.43c-0.074,0.027-0.22,0.083-0.292,0.111c-0.031,0.138-0.06,0.277-0.085,0.419
		c-0.31,0.009-0.615,0.028-0.918,0.056c-0.049,0.172-0.091,0.348-0.131,0.524c-0.136,0.046-0.269,0.093-0.397,0.143
		c-0.029,0.229-0.056,0.46-0.079,0.693c-0.069,0-0.211-0.001-0.282-0.001c-0.034-0.158-0.066-0.314-0.095-0.468
		c-0.153-0.007-0.305-0.012-0.453-0.014c-0.019,0.318-0.035,0.639-0.051,0.96c-0.149,0.028-0.299,0.058-0.444,0.089
		c-0.025,0.276-0.047,0.554-0.064,0.833c-0.322,0.026-0.731,0.101-0.796-0.322c-0.049,0.097-0.092,0.196-0.133,0.298
		c-0.295,0.059-0.654,0.008-0.882,0.236c-0.373,0.47-0.467,1.084-0.489,1.669c-0.151,0.028-0.3,0.059-0.444,0.092
		c-0.022,0.307-0.041,0.615-0.051,0.924c-0.146,0.031-0.287,0.064-0.426,0.099c-0.031,0.073-0.093,0.219-0.123,0.293
		c-0.146,0.027-0.289,0.056-0.429,0.088c-0.054,0.779,0.01,1.561-0.04,2.342c-0.458,0.021-0.913,0.079-1.354,0.197
		c-0.071,0.85,0.013,1.705-0.049,2.557c-0.131,0.055-0.245,0.13-0.346,0.223c-0.058,0.405-0.015,0.817,0.011,1.227
		c0.084,0.018,0.253,0.052,0.337,0.07c-0.121,0.065-0.254,0.115-0.35,0.214c-0.029,0.404-0.012,0.811-0.034,1.217
		c-0.165,0.041-0.323,0.088-0.482,0.134c0.159,0.031,0.322,0.063,0.486,0.098c0.007,1.002,0.047,2.008-0.001,3.009
		c-0.206,0.467-0.769,0.688-0.975,1.16c-0.054,0.828-0.001,1.662-0.03,2.495c-0.145-0.113-0.291-0.234-0.481-0.208
		c-0.019,0.536-0.073,1.081,0.017,1.616c0.133,0.093,0.277,0.166,0.426,0.247c0.029,0.166,0.061,0.333,0.097,0.504
		c0.132,0.032,0.268,0.068,0.406,0.106c0.029,0.07,0.086,0.21,0.116,0.28c0.14,0.026,0.282,0.057,0.428,0.09
		c0,0.071-0.002,0.214-0.002,0.284c-0.158,0.032-0.314,0.066-0.467,0.102c-0.051,0.644-0.051,1.293,0.01,1.938
		c0.149,0.03,0.302,0.063,0.456,0.098c0.013,0.441,0.018,0.883,0.05,1.324c0.453,0.027,0.909,0.08,1.353,0.2
		c0.008,0.273,0.012,0.55,0.011,0.829c-0.159-0.154-0.316-0.31-0.469-0.463c-0.023,0.239-0.043,0.48-0.062,0.723
		c-0.076-0.003-0.228-0.012-0.304-0.015c-0.021-0.256-0.057-0.508-0.124-0.751c-0.06,0.285-0.063,0.578-0.03,0.869
		c0.152,0.024,0.31,0.05,0.467,0.079c0.008,0.312,0.023,0.624,0.047,0.937c0.142,0.025,0.287,0.052,0.435,0.082
		c0.031,0.131,0.066,0.265,0.104,0.402c0.071,0.031,0.215,0.093,0.286,0.124c0.025,0.275,0.056,0.552,0.089,0.83
		c0.089-0.319,0.195-0.635,0.332-0.937c0.064,0.127,0.133,0.26,0.202,0.394c0.067-0.178,0.147-0.478,0.395-0.31
		c0.098,0.446-0.013,0.916,0.1,1.367c0.043-0.161,0.086-0.32,0.134-0.476c0.075-0.003,0.227-0.008,0.303-0.012
		c0.133,0.672-0.218,1.472,0.253,2.046c0.008,0.198,0.016,0.401,0.027,0.606c0.095,0.067,0.193,0.138,0.295,0.21
		c0.286,0.406,0.368,0.894,0.363,1.384c0.135,0.037,0.271,0.077,0.411,0.119c0.033,0.073,0.101,0.218,0.134,0.291
		c0.261,0.022,0.524,0.044,0.792,0.066c0.014,0.316,0.035,0.634,0.064,0.954c0.771,0.019,1.545-0.065,2.313,0.071
		c0.065,0.109,0.133,0.221,0.202,0.337c0.238,0.006,0.479,0.017,0.723,0.031c0.028,0.15,0.06,0.304,0.094,0.461
		c0.272,0.013,0.547,0.029,0.824,0.046c-0.002,0.075-0.003,0.227-0.003,0.301c-0.082,0.026-0.247,0.075-0.328,0.101
		c0.133,0.075,0.272,0.156,0.379,0.279c-0.139,0.001-0.273,0.002-0.405,0.006c0.002,0.07,0.006,0.21,0.007,0.279
		c0.195,0.017,0.393,0.037,0.594,0.059c-0.088,0.088-0.172,0.178-0.252,0.272c0.193,0.046,0.388,0.085,0.591,0.126
		c0.004,0.119-0.033,0.252,0.033,0.368c0.391,0.252,0.889,0.219,1.325,0.12c0.255-0.042,0.353-0.312,0.531-0.466
		c0.266-0.045,0.525,0.098,0.789,0.142c0.265,0.235,0.478,0.524,0.723,0.786c0.271,0.043,0.548,0.04,0.825,0.051
		c0.028,0.149,0.061,0.301,0.095,0.455c0.431,0.032,0.862,0.042,1.296,0.057c0.029,0.082,0.088,0.245,0.117,0.326
		c0.357,0.028,0.722,0.073,1.082,0.021c0.095-0.117,0.174-0.245,0.259-0.364c0.079,0.071,0.162,0.145,0.247,0.223
		c0.089-0.079,0.183-0.155,0.277-0.228c2.242,0.017,4.486-0.031,6.729,0.014c-0.672,0.794-1.479,1.462-2.167,2.243
		c1.471,0.087,2.946-0.037,4.417,0.05c0.029,0.16,0.061,0.322,0.097,0.487c0.199-0.018,0.448,0.001,0.516-0.24
		c-0.136-0.078-0.265-0.146-0.394-0.216c0.063-0.032,0.188-0.094,0.253-0.126c0.097-0.311,0.354-0.462,0.67-0.491
		c-0.086-0.083-0.167-0.162-0.244-0.238c0.256-0.114,0.535-0.102,0.812-0.075c-0.076,0.122-0.149,0.248-0.219,0.376
		c0.282,0.054,0.479-0.099,0.538-0.375c0.122-0.003,0.249-0.001,0.378,0.002c0.027,0.085,0.082,0.253,0.109,0.339
		c0.737,0.007,1.481,0.131,2.216-0.007c0.085-0.276,0.116-0.564,0.098-0.85c0.471-0.014,0.942-0.007,1.415-0.032
		c0.024-0.158,0.054-0.312,0.085-0.463c0.196-0.01,0.396-0.019,0.6-0.023c0.062-0.115,0.125-0.227,0.192-0.336
		c0.171-0.032,0.345-0.062,0.524-0.085c0.024-0.15,0.053-0.298,0.083-0.442c0.265-0.059,0.535-0.101,0.809-0.12
		c0.028-0.137,0.059-0.271,0.093-0.402c0.261-0.011,0.525-0.01,0.792,0.002c0.026,0.154,0.058,0.311,0.091,0.471
		c0.119-0.319,0.269-0.625,0.438-0.918c0.153-0.05,0.309-0.099,0.471-0.143c0.032-0.067,0.098-0.205,0.131-0.272
		c0.411-0.186,0.853-0.106,1.284-0.054c0.026-0.088,0.077-0.264,0.103-0.352c0.27,0.197,0.558,0.436,0.921,0.347
		c0.027-0.155,0.06-0.309,0.093-0.458c0.146-0.032,0.295-0.061,0.447-0.087c0.013-0.312,0.027-0.623,0.044-0.932
		c0.263-0.027,0.529-0.054,0.799-0.081c0.035-0.064,0.104-0.197,0.14-0.262c0.125-0.08,0.334-0.073,0.411-0.216
		c0.036-0.287,0.03-0.573,0.04-0.857c0.282-0.017,0.566-0.032,0.854-0.046c0.021-0.322,0.021-0.644-0.005-0.962
		c-0.129-0.1-0.252-0.197-0.372-0.292c0.112-0.069,0.23-0.134,0.352-0.195c-0.101-0.075-0.197-0.148-0.29-0.216
		c-0.024-0.361-0.032-0.723-0.028-1.082c0.436-0.156,0.9-0.177,1.361-0.186c0.011-0.226,0.023-0.448,0.04-0.669
		c0.101,0.001,0.205,0.007,0.314,0.014c0.024-0.188,0.054-0.371,0.085-0.551c0.193-0.031,0.391-0.058,0.593-0.082
		c-0.049-0.441-0.157-0.879-0.1-1.324c0.151-0.031,0.306-0.059,0.463-0.085c0.016-0.268,0.035-0.532,0.055-0.796
		c0.142-0.034,0.287-0.066,0.436-0.097c0.028-0.168,0.06-0.333,0.098-0.496c0.103-0.077,0.206-0.154,0.308-0.235
		c0.023-0.411,0.005-0.822,0.038-1.231c0.328-0.018,0.658-0.039,0.99-0.059c0.017-0.705,0.02-1.412-0.012-2.115
		c-0.163-0.181-0.523-0.222-0.5-0.519c0.117-0.143,0.331-0.131,0.494-0.209c0.126-0.242-0.229-0.302-0.343-0.449
		c-0.243-0.192-0.077-0.488,0.016-0.708c0.101,0.001,0.205,0.005,0.313,0.011c0.022-0.066,0.069-0.197,0.093-0.262
		c0.144,0.054,0.291,0.111,0.443,0.169c0.024-0.522,0.014-1.045,0.034-1.566c0.078-0.025,0.234-0.075,0.313-0.101
		C396.365,231.949,396.195,231.53,396.097,231.095z M360.172,226.818c0.027-0.169,0.063-0.337,0.109-0.505
		C360.236,226.481,360.2,226.649,360.172,226.818z M362.527,222.425c0.111-0.012,0.225-0.017,0.337-0.026
		C362.751,222.408,362.638,222.413,362.527,222.425z M365.315,237.249c0.012,0.312,0.012,0.625,0.015,0.937
		C365.326,237.873,365.325,237.561,365.315,237.249z M368.786,218.583c0.135,0.017,0.272,0.027,0.41,0.035
		C369.058,218.61,368.921,218.6,368.786,218.583z M369.594,239.476c0.061-0.122,0.138-0.233,0.228-0.334
		C369.732,239.242,369.655,239.354,369.594,239.476z M371.92,218.39c0.026,0.041,0.055,0.08,0.087,0.114
		C371.975,218.471,371.947,218.432,371.92,218.39z M375.078,219.118c0.219,0,0.438,0.012,0.656,0.038
		C375.516,219.129,375.297,219.118,375.078,219.118z M376.914,219.948c0.082,0.082,0.174,0.154,0.273,0.22
		C377.088,220.102,376.996,220.029,376.914,219.948z M377.187,220.505c0,0.338,0.001,0.676,0.015,1.016
		C377.188,221.182,377.187,220.843,377.187,220.505z"/>
	<path fill="#FA8969" stroke="#FA8969" stroke-width="0.5" d="M302.939,223.298c0.404,0.853,0.575,1.8,0.799,2.714
		c0.215,1.233,0.406,2.61-0.212,3.76c-0.438,0.794-1.377,1.121-2.241,1.098c-1.009-0.021-2.03-0.221-2.957-0.614
		c1.337-0.372,2.797-0.708,3.778-1.766c0.816-0.807,0.998-2.021,0.969-3.117C303.08,224.677,302.913,223.994,302.939,223.298z"/>
	<path fill="#C13511" stroke="#C13511" stroke-width="0.5" d="M252.456,242.615c0.035-0.01,0.105-0.028,0.142-0.038
		c10.417,4.788,21.441,8.305,32.765,10.152c10.088,1.663,20.39,1.994,30.568,1.044c8.332-0.764,16.567-2.416,24.612-4.701
		c-0.588,0.408-1.216,0.752-1.827,1.121c-5.939,3.496-12.162,6.54-18.673,8.819c-7.998,2.805-16.487,4.417-24.982,4.071
		c-5.146-0.199-10.263-1.116-15.152-2.728c-8.24-2.693-15.746-7.327-22.29-12.966C255.828,245.872,254.152,244.231,252.456,242.615z
		"/>
	<path fill="#969ECD" stroke="#969ECD" stroke-width="0.5" d="M316.511,282.169c4.678,0.486,9.337,1.159,14.001,1.765
		c1.982,12.157,3.604,24.385,4.392,36.683c0.53,8.393,0.69,16.82,0.121,25.216c-23.059,0.611-46.118,1.226-69.178,1.835
		c-0.787-6.229-1.171-12.504-1.294-18.78c-0.272-14.502,0.719-28.998,2.255-43.412c0.146-0.017,0.291-0.035,0.439-0.057
		c4.462-0.881,8.93-1.727,13.41-2.503c0.179,1.576,0.42,3.149,0.813,4.688c0.864,3.478,2.488,6.888,5.219,9.285
		c1.859,1.653,4.171,2.752,6.585,3.32c1.973,0.477,4.013,0.615,6.038,0.588c0.046,0.061,0.138,0.185,0.184,0.246
		c3.436-0.19,6.939-0.998,9.815-2.961c1.945-1.308,3.521-3.127,4.62-5.191C315.681,289.604,316.347,285.855,316.511,282.169z"/>
	<path fill="#B37D71" stroke="#B37D71" stroke-width="0.5" d="M330.513,283.934c5.007-0.508,10.006-1.125,15.015-1.607
		c0.164,0.914,0.197,1.861,0.498,2.748c-0.017,0.01-0.049,0.03-0.065,0.042c0.049,0.411,0.123,0.818,0.187,1.231
		c1.855,12.368,3.352,24.816,3.707,37.326c0.173,7.28,0.002,14.611-1.294,21.795c-0.367,1.819-0.738,3.652-1.343,5.41
		c-0.461,0.443-1.07,0.694-1.627,0.998c-2.173-1.351-5.146-1.208-7.176,0.354c-1.332-0.441-2.568-1.116-3.754-1.854
		c0.102-1.517,0.277-3.026,0.365-4.544c0.569-8.395,0.408-16.822-0.121-25.215C334.116,308.319,332.495,296.091,330.513,283.934z"/>
	<path fill="#B37D71" stroke="#B37D71" stroke-width="0.5" d="M251.324,288.802c0.127-1.36,0.264-2.718,0.399-4.077
		c3.853,0.197,7.703,0.4,11.555,0.599c1.012,0.037,2.023,0.145,3.038,0.112c0.163,0.014,0.323,0.022,0.491,0.041
		c-1.535,14.414-2.527,28.91-2.255,43.412c0.124,6.276,0.507,12.551,1.294,18.78c0.192,1.447,0.376,2.896,0.639,4.334
		c-1.112,0.881-2.359,1.59-3.669,2.131c-2.118-1.445-5.098-1.416-7.19,0.061c-0.575-0.302-1.271-0.485-1.712-0.973
		c-0.66-1.689-1.147-3.441-1.597-5.195c-1.555-6.387-2.17-12.961-2.474-19.514C249.3,315.261,250.113,301.996,251.324,288.802z"/>
	<path fill="#969ECD" stroke="#969ECD" stroke-width="0.5" d="M346.147,286.348c17.896,3.02,35.689,6.886,52.985,12.437
		c-0.725,1.921-1.442,3.846-2.162,5.77c-3.545,9.466-7.089,18.932-10.634,28.397c-0.078,0.197-0.153,0.397-0.227,0.603
		c-7.19-2.346-14.378-4.7-21.568-7.047c-1.244-0.387-2.466-0.931-3.793-0.939c-1.172-0.062-2.652-0.014-3.366,1.081
		c-0.641,1.167-0.181,2.563,0.26,3.721c0.338,0.646,0.271,1.386,0.336,2.089c0.279,4.247,0.563,8.495,0.839,12.742
		c-3.42,0.088-6.839,0.188-10.258,0.268c1.296-7.183,1.467-14.514,1.294-21.793C349.498,311.164,348.002,298.716,346.147,286.348z"
		/>
	<path fill="#969ECD" stroke="#969ECD" stroke-width="0.5" d="M199.139,304.244c16.951-6.52,34.49-11.41,52.186-15.442
		c-1.212,13.194-2.024,26.459-1.48,39.71c0.304,6.553,0.919,13.127,2.474,19.514c-2.996,0.105-5.997,0.119-8.991,0.272
		c-0.44-0.025-0.881-0.013-1.32-0.015c0.066-0.604,0.041-1.209,0.051-1.813c0.033-3.733,0.064-7.465,0.098-11.199
		c0.021-0.538-0.065-1.096,0.128-1.61c0.35-1.011,0.649-2.093,0.465-3.168c-0.113-0.68-0.591-1.28-1.238-1.517
		c-1.073-0.402-2.25-0.247-3.351-0.057c-0.704,0.106-1.347,0.426-2.007,0.676c-7.345,2.871-14.68,5.762-22.029,8.615
		c-0.085-0.2-0.169-0.391-0.255-0.585c-4.08-9.245-8.16-18.492-12.238-27.739C200.796,308.006,199.965,306.127,199.139,304.244z"/>
	<path fill="#F8BA8B" stroke="#F8BA8B" stroke-width="0.5" d="M386.336,332.952c3.545-9.466,7.089-18.933,10.634-28.397
		c1.69,0.348,3.365,0.772,5.032,1.224c5.354,1.46,10.656,3.108,15.957,4.752c4.991,1.538,9.959,3.157,14.984,4.583
		c2.493,0.671,5.039,1.402,7.649,1.25c2.326-0.106,4.609-0.822,6.615-1.999c3.837-2.257,6.764-5.806,10.754-7.831
		c1.739-0.869,3.771-1.514,5.71-0.971c1.228,0.34,2.283,1.221,2.858,2.356c0.615,1.202,0.778,2.577,0.797,3.911
		c0.021,1.734-0.29,3.447-0.538,5.157c-0.13,1.058-0.31,2.154-0.025,3.205c0.18,0.687,0.704,1.276,1.39,1.489
		c1.097,0.354,2.265,0.088,3.36-0.132c1.737-0.356,3.51-0.849,5.298-0.574c1.874,0.321,3.36,1.774,4.211,3.416
		c0.471,0.944,0.863,2.026,0.621,3.092c-0.243,0.977-1.111,1.627-1.978,2.038c-1.609,0.749-3.374,1.057-5.102,1.394
		c-2.236,0.432-4.503,0.704-6.716,1.245c-0.517,0.16-1.144,0.266-1.467,0.744c-0.158,0.451,0.323,0.779,0.62,1.041
		c1.179,0.869,2.467,1.583,3.662,2.432c1.968,1.38,3.917,2.864,5.379,4.795c1.092,1.467,1.883,3.302,1.618,5.163
		c-0.353,2.567-2.776,4.639-5.365,4.609c-2.146-0.035-4.133-0.974-6.039-1.868c-2.399-1.167-4.772-2.404-7.286-3.313
		c-0.674-0.225-1.362-0.479-2.08-0.463c-0.305-0.009-0.628,0.192-0.635,0.521c-0.029,0.527,0.203,1.021,0.401,1.498
		c0.683,1.512,1.504,2.955,2.188,4.467c0.948,2.066,1.654,4.346,1.372,6.645c-0.229,1.834-0.92,3.701-2.297,4.985
		c-0.853,0.789-2.045,1.169-3.197,1.081c-1.367-0.09-2.645-0.742-3.653-1.646c-1.317-1.176-2.321-2.65-3.245-4.141
		c-1.323-2.156-2.505-4.394-3.646-6.648c-0.301-0.553-0.531-1.162-0.968-1.621c-0.253-0.28-0.533,0.063-0.635,0.297
		c-0.393,0.801-0.642,1.661-0.975,2.488c-0.67,1.762-1.603,3.457-2.943,4.799c-0.757,0.76-1.699,1.399-2.779,1.559
		c-1.04,0.173-2.194-0.13-2.909-0.93c-0.666-0.742-0.928-1.743-1.071-2.705c-0.206-1.496-0.186-3.011-0.164-4.516
		c0.064-3.187,0.214-6.369,0.423-9.549c0.037-0.953,0.132-1.969-0.291-2.857c-0.315-0.665-1.01-1.032-1.683-1.237
		c-1.317-0.398-2.698-0.495-4.058-0.644c-4.447-0.392-8.847-1.176-13.278-1.701c-5.88-0.723-11.804-0.932-17.709-1.313
		c-2.006-0.125-3.993-0.428-5.998-0.556C388.179,333.525,387.223,333.336,386.336,332.952z"/>
	<path fill="#F8BA8B" stroke="#F8BA8B" stroke-width="0.5" d="M190.012,313.725c3.84-1.371,7.677-2.771,11.615-3.838
		c4.079,9.247,8.159,18.494,12.239,27.74c-1.526,0.814-3.295,0.785-4.954,1.107c-3.478,0.623-6.997,0.947-10.503,1.361
		c-4.028,0.465-8.05,1.004-12.035,1.753c-3.796,0.707-7.563,1.573-11.382,2.149c-1.452,0.239-2.924,0.42-4.332,0.867
		c-0.728,0.24-1.503,0.605-1.853,1.334c-0.396,0.836-0.288,1.796-0.205,2.688c0.453,3.764,0.868,7.536,1.099,11.319
		c0.059,1.564,0.158,3.183-0.344,4.691c-0.306,0.949-1.063,1.758-2.037,2.024c-1.313,0.406-2.743-0.055-3.79-0.885
		c-1.949-1.507-3.171-3.725-4.1-5.962c-0.287-0.598-0.474-1.266-0.925-1.764c-0.223-0.236-0.475,0.057-0.588,0.248
		c-0.387,0.637-0.64,1.343-0.949,2.018c-1.271,2.852-2.558,5.713-4.229,8.357c-1.119,1.716-2.584,3.421-4.644,3.967
		c-1.563,0.463-3.355,0.002-4.449-1.219c-1.852-2.021-2.529-4.954-2.083-7.623c0.455-2.87,1.907-5.43,2.938-8.109
		c0.168-0.508,0.4-1.051,0.269-1.588c-0.139-0.412-0.656-0.406-1.003-0.336c-0.933,0.183-1.8,0.596-2.66,0.986
		c-2.671,1.24-5.151,2.842-7.778,4.168c-1.692,0.813-3.565,1.59-5.48,1.255c-1.481-0.259-2.822-1.171-3.646-2.425
		c-0.824-1.212-1.031-2.771-0.69-4.184c0.448-1.938,1.654-3.592,3.015-5c1.472-1.518,3.139-2.829,4.842-4.072
		c0.773-0.585,1.611-1.096,2.298-1.784c0.245-0.233,0.505-0.679,0.17-0.95c-0.498-0.385-1.15-0.459-1.748-0.586
		c-3.198-0.52-6.453-0.646-9.632-1.302c-1.137-0.263-2.318-0.577-3.24-1.329c-0.601-0.482-0.956-1.244-0.934-2.015
		c0.031-1.136,0.46-2.229,1.042-3.19c0.809-1.314,2.062-2.444,3.606-2.764c1.685-0.336,3.399,0.01,5.069,0.258
		c1.084,0.158,2.215,0.365,3.289,0.055c0.667-0.184,1.244-0.685,1.461-1.348c0.331-0.972,0.14-2.018-0.022-3.002
		c-0.405-2.129-0.979-4.25-0.944-6.434c0.016-1.425,0.264-2.93,1.147-4.09c0.762-1.022,1.969-1.666,3.229-1.813
		c1.529-0.185,3.063,0.22,4.468,0.8c3.394,1.42,6.118,3.961,9.158,5.965c1.526,1.031,3.181,1.898,4.959,2.402
		c2.369,0.682,4.913,0.715,7.307,0.137c2.346-0.561,4.613-1.397,6.884-2.202C175.977,318.99,182.962,316.271,190.012,313.725z"/>
	<path fill="#357244" stroke="#182947" stroke-width="0.5" d="M348.56,345.469c3.418-0.08,6.838-0.18,10.258-0.268
		c1.535-0.041,3.072-0.084,4.608-0.121c1.779,48.975,3.563,97.948,5.343,146.922c0.126,2.935,0.172,5.873,0.36,8.805
		c-3.061,0.499-6.128,0.954-9.191,1.436c-1.893,0.277-3.775,0.613-5.672,0.855c-0.188-0.088-0.403-0.065-0.534,0.102
		c-0.087,0.009-0.259,0.026-0.344,0.035c-0.188-0.096-0.407-0.079-0.537,0.092c-0.061,0.005-0.18,0.013-0.239,0.017
		c-0.188-0.079-0.401-0.057-0.528,0.11c-0.088,0.008-0.264,0.024-0.352,0.033c-0.19-0.093-0.409-0.075-0.543,0.095
		c-0.058,0.005-0.171,0.016-0.228,0.022c-0.19-0.085-0.406-0.066-0.536,0.104c-0.373,0.064-0.75,0.114-1.125,0.154
		c-0.188-0.093-0.403-0.07-0.527,0.104c-0.089,0.007-0.268,0.019-0.356,0.025c-0.189-0.091-0.407-0.071-0.536,0.101
		c-0.061,0.005-0.184,0.016-0.245,0.02c-0.222-0.093-0.468-0.066-0.633,0.111c-0.628,0.122-1.26,0.225-1.896,0.283
		c-0.187-0.098-0.409-0.079-0.538,0.096c-0.924,0.157-1.847,0.318-2.777,0.415c-0.188-0.1-0.41-0.081-0.535,0.098
		c-0.087,0.009-0.258,0.025-0.345,0.033c-0.188-0.1-0.413-0.084-0.542,0.094c-0.058,0.004-0.174,0.013-0.232,0.017
		c-0.188-0.088-0.407-0.065-0.53,0.111c-0.089,0.009-0.266,0.025-0.354,0.034c-0.188-0.102-0.415-0.085-0.543,0.095
		c-0.366,0.08-0.739,0.128-1.109,0.164c-0.187-0.108-0.414-0.091-0.543,0.089c-0.057,0.005-0.17,0.016-0.228,0.021
		c-0.191-0.089-0.411-0.071-0.541,0.103c-0.371,0.074-0.745,0.125-1.118,0.162c-0.172-0.085-0.47-0.127-0.512,0.124
		c-0.093-0.003-0.279-0.008-0.372-0.011c-0.19-0.083-0.408-0.063-0.536,0.111c-0.061,0.006-0.185,0.019-0.245,0.025
		c-0.22-0.104-0.472-0.088-0.637,0.098c-0.061,0.009-0.179,0.028-0.237,0.037c-0.188-0.103-0.414-0.087-0.541,0.096
		c-0.059,0.002-0.175,0.009-0.233,0.012c-0.192-0.082-0.41-0.06-0.534,0.118c-0.086,0.007-0.258,0.019-0.344,0.025
		c-0.19-0.096-0.413-0.079-0.547,0.097c-0.059,0.006-0.176,0.018-0.234,0.023c-0.222-0.101-0.474-0.079-0.643,0.102
		c-0.058,0.009-0.174,0.026-0.23,0.035c-0.188-0.101-0.413-0.084-0.544,0.095c-0.06,0.005-0.181,0.018-0.24,0.024
		c-0.221-0.103-0.473-0.083-0.64,0.101c-0.059,0.009-0.174,0.026-0.232,0.034c-0.191-0.097-0.418-0.083-0.551,0.097
		c-0.365,0.078-0.737,0.129-1.107,0.163c-0.186-0.106-0.413-0.089-0.539,0.093c-0.06,0.005-0.181,0.016-0.241,0.021
		c-0.222-0.099-0.478-0.083-0.64,0.111c-0.336,0.071-0.676,0.115-1.015,0.154c-0.219-0.112-0.479-0.093-0.641,0.101
		c-0.336,0.068-0.678,0.114-1.016,0.154c-0.221-0.112-0.481-0.099-0.645,0.099c-0.334,0.07-0.673,0.116-1.009,0.156
		c-0.22-0.112-0.476-0.095-0.646,0.09c-0.06,0.008-0.177,0.023-0.236,0.032c-0.188-0.096-0.409-0.078-0.536,0.099
		c-0.37,0.071-0.744,0.124-1.117,0.161c-0.186-0.103-0.411-0.086-0.537,0.097c-0.059,0.001-0.176,0.004-0.234,0.005
		c-0.188-0.075-0.398-0.05-0.527,0.114c-0.731,0.113-1.462,0.217-2.191,0.333c-0.05-0.045-0.151-0.136-0.202-0.18
		c-3.392-13.176-6.725-26.367-10.138-39.537c-0.116,0.745-0.274,1.483-0.417,2.226c-2.44,12.48-4.887,24.957-7.321,37.438
		c-0.071,0.097-0.138,0.202-0.2,0.317c-3.825-0.357-7.648-0.72-11.473-1.084c-2.677-0.275-5.36-0.474-8.031-0.794
		c-0.223-0.187-0.516-0.191-0.764-0.064c-7.055-0.632-14.103-1.342-21.154-2.007c-4.62-0.453-9.244-0.873-13.861-1.348
		c-0.036-3.861-0.153-7.721-0.223-11.581c-1.006-48.073-2.015-96.148-3.021-144.223c1.294-0.035,2.587-0.07,3.88-0.104
		c0.67-0.019,1.347,0.096,2.011-0.021c2.994-0.154,5.995-0.168,8.991-0.273c0.449,1.756,0.936,3.508,1.597,5.195
		c0.44,0.488,1.136,0.671,1.712,0.973c-1.877,1.259-3.007,3.515-2.933,5.769c0.038,2.294,1.35,4.528,3.365,5.638
		c1.877,1.068,4.299,1.079,6.189,0.032c1.985-1.056,3.334-3.171,3.49-5.409c0.211-2.36-0.937-4.79-2.922-6.09
		c1.31-0.541,2.557-1.249,3.669-2.131c-0.263-1.438-0.446-2.887-0.639-4.334c23.06-0.608,46.12-1.224,69.179-1.835
		c-0.088,1.517-0.264,3.026-0.366,4.544c1.186,0.738,2.422,1.413,3.754,1.854c-1.827,1.356-2.837,3.702-2.602,5.962
		c0.194,2.285,1.636,4.426,3.706,5.428c1.95,0.99,4.408,0.875,6.255-0.301c1.99-1.223,3.191-3.574,3.078-5.9
		c-0.072-2.238-1.326-4.402-3.261-5.542c0.557-0.305,1.166-0.556,1.627-0.999C347.821,349.121,348.193,347.289,348.56,345.469z"/>
	<path fill="#FEFEFE" stroke="#FEFEFE" stroke-width="0.5" d="M338.413,352.231c2.03-1.563,5.003-1.705,7.177-0.354
		c1.935,1.141,3.188,3.305,3.261,5.543c0.113,2.326-1.088,4.678-3.078,5.9c-1.847,1.176-4.304,1.291-6.255,0.301
		c-2.07-1.002-3.513-3.143-3.706-5.428C335.576,355.934,336.586,353.588,338.413,352.231z"/>
	<path fill="#FEFEFE" stroke="#FEFEFE" stroke-width="0.5" d="M255.625,354.193c2.094-1.477,5.073-1.506,7.19-0.061
		c1.985,1.301,3.134,3.729,2.923,6.09c-0.157,2.237-1.505,4.354-3.49,5.409c-1.891,1.047-4.313,1.036-6.189-0.033
		c-2.016-1.108-3.327-3.344-3.365-5.637C252.619,357.708,253.748,355.452,255.625,354.193z"/>
	<path fill="#39779C" stroke="#39779C" stroke-width="0.5" d="M369.129,500.806c1.236-0.314,2.468-0.644,3.704-0.961
		c0.886,6.794,1.77,13.59,2.659,20.385c-4.774,0.78-9.551,1.552-14.326,2.331c-10.634,1.729-21.267,3.46-31.9,5.188
		c-4.058,0.66-8.114,1.32-12.172,1.979c-2.57-6.63-5.145-13.256-7.713-19.884c1.568-0.191,3.137-0.395,4.706-0.578l-0.05-0.185
		c0.051,0.045,0.153,0.136,0.203,0.18c0.729-0.115,1.46-0.219,2.191-0.332c0.181,0.069,0.4,0.051,0.526-0.115
		c0.06-0.001,0.176-0.004,0.234-0.005c0.183,0.055,0.392,0.038,0.538-0.097c0.373-0.037,0.747-0.089,1.116-0.161
		c0.183,0.06,0.394,0.044,0.536-0.099c0.06-0.009,0.178-0.024,0.237-0.032c0.216,0.07,0.454,0.045,0.646-0.09
		c0.336-0.04,0.675-0.086,1.009-0.155c0.218,0.06,0.453,0.033,0.644-0.1c0.339-0.04,0.68-0.085,1.017-0.154
		c0.216,0.06,0.453,0.037,0.641-0.101c0.339-0.038,0.679-0.083,1.015-0.154c0.216,0.059,0.458,0.039,0.639-0.111
		c0.062-0.005,0.183-0.015,0.242-0.021c0.181,0.054,0.389,0.037,0.539-0.093c0.37-0.034,0.742-0.085,1.107-0.163
		c0.186,0.054,0.397,0.04,0.55-0.097c0.059-0.008,0.175-0.025,0.233-0.034c0.215,0.068,0.457,0.05,0.639-0.101
		c0.061-0.007,0.182-0.02,0.241-0.024c0.183,0.058,0.394,0.041,0.544-0.095c0.057-0.009,0.173-0.026,0.229-0.035
		c0.217,0.069,0.462,0.051,0.644-0.102c0.059-0.005,0.176-0.018,0.234-0.022c0.185,0.059,0.397,0.042,0.546-0.098
		c0.087-0.006,0.259-0.019,0.344-0.025c0.185,0.056,0.398,0.035,0.535-0.118c0.059-0.003,0.174-0.009,0.233-0.012
		c0.182,0.054,0.391,0.039,0.541-0.096c0.059-0.009,0.177-0.028,0.236-0.037c0.214,0.069,0.455,0.051,0.637-0.098
		c0.062-0.007,0.185-0.02,0.246-0.025c0.184,0.06,0.4,0.043,0.536-0.111c0.093,0.003,0.278,0.008,0.372,0.011
		c0.178,0.025,0.361-0.021,0.512-0.124c0.373-0.037,0.747-0.088,1.117-0.161c0.184,0.06,0.397,0.042,0.542-0.104
		c0.057-0.005,0.17-0.016,0.228-0.021c0.183,0.055,0.39,0.04,0.542-0.089c0.371-0.036,0.744-0.084,1.109-0.164
		c0.184,0.054,0.393,0.039,0.544-0.095c0.088-0.009,0.265-0.025,0.353-0.034c0.183,0.059,0.396,0.04,0.531-0.11
		c0.059-0.004,0.175-0.013,0.231-0.018c0.183,0.057,0.394,0.044,0.543-0.094c0.086-0.008,0.258-0.024,0.345-0.033
		c0.181,0.058,0.391,0.042,0.534-0.098c0.932-0.098,1.854-0.258,2.777-0.415c0.182,0.061,0.393,0.046,0.539-0.096
		c0.637-0.059,1.268-0.16,1.896-0.282c0.214,0.067,0.462,0.055,0.633-0.112c0.063-0.004,0.185-0.014,0.246-0.02
		c0.181,0.064,0.395,0.049,0.536-0.101c0.089-0.006,0.268-0.019,0.356-0.025c0.18,0.063,0.39,0.043,0.527-0.104
		c0.374-0.039,0.751-0.089,1.124-0.154c0.183,0.066,0.397,0.047,0.536-0.104c0.058-0.006,0.171-0.018,0.229-0.022
		c0.182,0.064,0.397,0.051,0.542-0.095c0.088-0.009,0.264-0.025,0.352-0.033c0.18,0.069,0.399,0.052,0.528-0.11
		c0.06-0.004,0.18-0.012,0.239-0.017c0.18,0.066,0.393,0.053,0.538-0.092c0.085-0.009,0.257-0.026,0.344-0.035
		c0.181,0.067,0.396,0.052,0.534-0.101c1.896-0.243,3.779-0.578,5.672-0.855C363.001,501.761,366.069,501.305,369.129,500.806z"/>
	<path opacity="0.82" fill="#284662" stroke="#284662" stroke-width="0.5" enable-background="new    " d="M353.732,503.198
		c0.131-0.167,0.347-0.188,0.534-0.101C354.129,503.251,353.912,503.266,353.732,503.198z"/>
	<path opacity="0.82" fill="#253F5C" stroke="#253F5C" stroke-width="0.5" enable-background="new    " d="M352.851,503.326
		c0.13-0.171,0.349-0.188,0.537-0.092C353.242,503.378,353.03,503.392,352.851,503.326z"/>
	<path opacity="0.82" fill="#264561" stroke="#264561" stroke-width="0.5" enable-background="new    " d="M352.082,503.453
		c0.128-0.167,0.34-0.189,0.528-0.111C352.481,503.504,352.262,503.522,352.082,503.453z"/>
	<path fill="#39779C" stroke="#39779C" stroke-width="0.5" d="M236.906,503.475c1.258,0.247,2.516,0.503,3.773,0.753
		c4.617,0.475,9.241,0.896,13.861,1.349c7.052,0.664,14.101,1.375,21.154,2.006c0.233,0.132,0.507,0.137,0.764,0.064
		c2.67,0.32,5.354,0.52,8.031,0.794c3.824,0.364,7.647,0.728,11.473,1.084c0.063-0.115,0.129-0.221,0.2-0.317
		c0,0.079,0,0.235-0.002,0.314c1.557,0.092,3.109,0.201,4.664,0.304c-2.184,6.763-4.376,13.523-6.56,20.289
		c-4.09-0.423-8.179-0.854-12.268-1.277c-10.715-1.118-21.429-2.234-32.143-3.352c-4.812-0.503-9.624-1.003-14.436-1.506
		C235.913,517.144,236.411,510.309,236.906,503.475z"/>
	<path opacity="0.82" fill="#243F5B" stroke="#243F5B" stroke-width="0.5" enable-background="new    " d="M351.189,503.581
		c0.134-0.17,0.353-0.188,0.543-0.095C351.586,503.632,351.37,503.646,351.189,503.581z"/>
	<path opacity="0.82" fill="#254560" stroke="#254560" stroke-width="0.5" enable-background="new    " d="M350.425,503.708
		c0.13-0.171,0.346-0.189,0.536-0.104C350.822,503.755,350.607,503.774,350.425,503.708z"/>
	<path opacity="0.82" fill="#254560" stroke="#254560" stroke-width="0.5" enable-background="new    " d="M348.774,503.967
		c0.123-0.175,0.34-0.197,0.527-0.104C349.162,504.01,348.952,504.03,348.774,503.967z"/>
	<path opacity="0.81" fill="#233F5A" stroke="#233F5A" stroke-width="0.5" enable-background="new    " d="M347.88,504.092
		c0.129-0.172,0.347-0.19,0.536-0.101C348.276,504.141,348.062,504.156,347.88,504.092z"/>
	<path opacity="0.83" fill="#23405C" stroke="#23405C" stroke-width="0.5" enable-background="new    " d="M347.002,504.224
		c0.165-0.178,0.411-0.205,0.633-0.112C347.464,504.278,347.216,504.291,347.002,504.224z"/>
	<path opacity="0.81" fill="#223E59" stroke="#223E59" stroke-width="0.5" enable-background="new    " d="M344.568,504.602
		c0.13-0.174,0.352-0.192,0.538-0.096C344.959,504.647,344.748,504.663,344.568,504.602z"/>
	<path opacity="0.8" fill="#213D58" stroke="#213D58" stroke-width="0.5" enable-background="new    " d="M341.256,505.115
		c0.124-0.179,0.348-0.197,0.534-0.098C341.647,505.157,341.437,505.172,341.256,505.115z"/>
	<path opacity="0.8" fill="#1F3852" stroke="#1F3852" stroke-width="0.5" enable-background="new    " d="M340.368,505.242
		c0.13-0.178,0.354-0.193,0.542-0.094C340.761,505.286,340.55,505.298,340.368,505.242z"/>
	<path opacity="0.8" fill="#213E59" stroke="#213E59" stroke-width="0.5" enable-background="new    " d="M339.606,505.369
		c0.123-0.177,0.342-0.198,0.53-0.11C340,505.409,339.787,505.428,339.606,505.369z"/>
	<path opacity="0.8" fill="#1F3852" stroke="#1F3852" stroke-width="0.5" enable-background="new    " d="M338.709,505.498
		c0.128-0.18,0.354-0.196,0.543-0.094C339.101,505.537,338.893,505.552,338.709,505.498z"/>
	<path opacity="0.8" fill="#1E3852" stroke="#1E3852" stroke-width="0.5" enable-background="new    " d="M337.057,505.752
		c0.129-0.18,0.357-0.197,0.543-0.09C337.448,505.791,337.24,505.807,337.057,505.752z"/>
	<path opacity="0.8" fill="#203E58" stroke="#203E58" stroke-width="0.5" enable-background="new    " d="M336.288,505.875
		c0.13-0.174,0.35-0.192,0.541-0.103C336.686,505.917,336.472,505.935,336.288,505.875z"/>
	<path opacity="0.8" fill="#203D59" stroke="#203D59" stroke-width="0.5" enable-background="new    " d="M334.658,506.16
		c0.042-0.251,0.34-0.209,0.512-0.123C335.02,506.14,334.837,506.186,334.658,506.16z"/>
	<path opacity="0.8" fill="#1E3953" stroke="#1E3953" stroke-width="0.5" enable-background="new    " d="M333.75,506.261
		c0.128-0.174,0.346-0.193,0.536-0.11C334.151,506.305,333.934,506.32,333.75,506.261z"/>
	<path opacity="0.82" fill="#1F3B55" stroke="#1F3B55" stroke-width="0.5" enable-background="new    " d="M332.868,506.385
		c0.165-0.187,0.417-0.202,0.637-0.099C333.323,506.436,333.082,506.453,332.868,506.385z"/>
	<path opacity="0.79" fill="#1E3852" stroke="#1E3852" stroke-width="0.5" enable-background="new    " d="M332.09,506.517
		c0.127-0.182,0.354-0.197,0.541-0.095C332.481,506.557,332.272,506.57,332.09,506.517z"/>
	<path opacity="0.8" fill="#203F59" stroke="#203F59" stroke-width="0.5" enable-background="new    " d="M331.323,506.646
		c0.125-0.177,0.343-0.2,0.535-0.118C331.721,506.683,331.507,506.702,331.323,506.646z"/>
	<path opacity="0.79" fill="#1E3853" stroke="#1E3853" stroke-width="0.5" enable-background="new    " d="M330.432,506.769
		c0.134-0.176,0.356-0.191,0.547-0.097C330.829,506.812,330.616,506.827,330.432,506.769z"/>
	<path opacity="0.81" fill="#1F3B56" stroke="#1F3B56" stroke-width="0.5" enable-background="new    " d="M329.555,506.894
		c0.169-0.181,0.422-0.202,0.643-0.102C330.016,506.944,329.772,506.963,329.555,506.894z"/>
	<path opacity="0.8" fill="#1E3953" stroke="#1E3953" stroke-width="0.5" enable-background="new    " d="M328.781,507.023
		c0.131-0.178,0.355-0.194,0.544-0.094C329.174,507.064,328.964,507.081,328.781,507.023z"/>
	<path opacity="0.82" fill="#1F3B56" stroke="#1F3B56" stroke-width="0.5" enable-background="new    " d="M327.901,507.148
		c0.167-0.184,0.419-0.202,0.64-0.101C328.358,507.198,328.115,507.217,327.901,507.148z"/>
	<path opacity="0.8" fill="#1E3953" stroke="#1E3953" stroke-width="0.5" enable-background="new    " d="M327.117,507.279
		c0.133-0.179,0.359-0.193,0.551-0.097C327.515,507.319,327.304,507.333,327.117,507.279z"/>
	<path opacity="0.79" fill="#1E3953" stroke="#1E3953" stroke-width="0.5" enable-background="new    " d="M325.471,507.535
		c0.126-0.182,0.354-0.199,0.539-0.093C325.86,507.572,325.653,507.589,325.471,507.535z"/>
	<path opacity="0.79" fill="#1D3751" stroke="#1D3751" stroke-width="0.5" enable-background="new    " d="M275.695,507.583
		c0.249-0.128,0.541-0.122,0.765,0.063C276.201,507.719,275.928,507.714,275.695,507.583z"/>
	<path opacity="0.81" fill="#203C57" stroke="#203C57" stroke-width="0.5" enable-background="new    " d="M324.59,507.667
		c0.162-0.193,0.418-0.211,0.64-0.111C325.049,507.706,324.807,507.726,324.59,507.667z"/>
	<path opacity="0.82" fill="#203D58" stroke="#203D58" stroke-width="0.5" enable-background="new    " d="M322.935,507.921
		c0.162-0.193,0.422-0.212,0.641-0.101C323.388,507.958,323.152,507.981,322.935,507.921z"/>
	<path opacity="0.82" fill="#213D58" stroke="#213D58" stroke-width="0.5" enable-background="new    " d="M321.275,508.175
		c0.163-0.197,0.424-0.211,0.645-0.1C321.728,508.208,321.492,508.234,321.275,508.175z"/>
	<path opacity="0.82" fill="#213E59" stroke="#213E59" stroke-width="0.5" enable-background="new    " d="M319.62,508.421
		c0.169-0.185,0.425-0.203,0.646-0.091C320.075,508.465,319.837,508.49,319.62,508.421z"/>
	<path opacity="0.8" fill="#203C58" stroke="#203C58" stroke-width="0.5" enable-background="new    " d="M318.848,508.552
		c0.127-0.178,0.349-0.195,0.536-0.1C319.24,508.595,319.03,508.61,318.848,508.552z"/>
	<path opacity="0.81" fill="#223E59" stroke="#223E59" stroke-width="0.5" enable-background="new    " d="M317.194,508.809
		c0.126-0.182,0.352-0.198,0.537-0.097C317.584,508.847,317.375,508.863,317.194,508.809z"/>
	<path opacity="0.82" fill="#254661" stroke="#254661" stroke-width="0.5" enable-background="new    " d="M316.432,508.929
		c0.129-0.164,0.339-0.189,0.527-0.114C316.833,508.979,316.613,508.999,316.432,508.929z"/>
	<path fill="#F8BA8B" stroke="#F8BA8B" stroke-width="0.5" d="M329.266,527.748c10.634-1.728,21.267-3.459,31.9-5.188
		c0.903,7.699,1.854,15.394,3.023,23.057c0.411,2.552,0.793,5.117,1.459,7.621c0.279,0.937,0.549,1.937,1.228,2.678
		c0.512,0.557,1.312,0.647,2.027,0.688c2.17,0.095,4.387-0.23,6.517,0.331c1.135,0.302,2.295,0.884,2.89,1.945
		c0.576,1.031,0.384,2.332-0.217,3.312c-0.879,1.442-2.334,2.413-3.806,3.176c-2.375,1.19-4.955,1.894-7.52,2.546
		c-5.209,1.259-10.51,2.116-15.833,2.722c-3.153,0.335-6.336,0.577-9.506,0.345c-1.06-0.09-2.169-0.217-3.087-0.794
		c-0.919-0.587-1.515-1.551-1.954-2.523c-0.729-1.671-1.151-3.453-1.563-5.221c-0.699-3.12-1.244-6.27-1.783-9.419
		c-0.979-5.807-1.872-11.627-2.742-17.449C329.924,532.969,329.476,530.371,329.266,527.748z"/>
	<path fill="#F8BA8B" stroke="#F8BA8B" stroke-width="0.5" d="M249.855,525.485c10.714,1.117,21.428,2.233,32.143,3.352
		c-0.025,1.607-0.168,3.21-0.306,4.812c-0.835,9.092-1.634,18.191-2.819,27.246c-0.366,2.527-0.716,5.074-1.463,7.524
		c-0.395,1.219-0.945,2.478-1.995,3.272c-1.018,0.741-2.309,0.898-3.521,1.061c-3.982,0.449-8.002,0.238-11.988-0.044
		c-3.714-0.283-7.419-0.693-11.097-1.284c-2.418-0.398-4.828-0.867-7.179-1.566c-1.878-0.582-3.76-1.328-5.283-2.604
		c-0.91-0.773-1.693-1.822-1.79-3.048c-0.093-0.921,0.311-1.847,0.997-2.454c0.891-0.811,2.068-1.214,3.23-1.434
		c1.755-0.321,3.548-0.224,5.315-0.404c0.612-0.08,1.272-0.174,1.755-0.594c0.525-0.465,0.779-1.144,0.986-1.793
		c0.407-1.387,0.609-2.82,0.805-4.248c0.388-3.013,0.653-6.039,0.91-9.064C249.072,537.977,249.486,531.732,249.855,525.485z"/>
</g>
</svg>
