<?xml version="1.0" encoding="utf-8"?>
<!-- Generator: Adobe Illustrator 16.0.0, SVG Export Plug-In . SVG Version: 6.00 Build 0)  -->
<!DOCTYPE svg PUBLIC "-//W3C//DTD SVG 1.1//EN" "http://www.w3.org/Graphics/SVG/1.1/DTD/svg11.dtd">
<svg version="1.1" id="Calque_1" xmlns="http://www.w3.org/2000/svg" xmlns:xlink="http://www.w3.org/1999/xlink" x="0px" y="0px"
	 width="1920px" height="480px" viewBox="0 0 1920 480" enable-background="new 0 0 1920 480" xml:space="preserve">
<g transform="translate(-448.71 -161.09)">
	<g transform="matrix(.81748 0 0 .81748 302.53 155.29)">
		<path fill="#FFCC00" stroke="#FFCC00" stroke-width="7.2186" d="M1183.8,94.324c9.804,20.105,14.705,27.645,14.705,27.645"/>
		<path fill="#FFCC00" stroke="#FFCC00" stroke-width="7.2186" d="M1345.546,99.351l-22.547,24.293"/>
		<path fill="#FFCC00" d="M1261.672,85.812l-18.626,26.703l18.749,4.974l10.784-29.634L1261.672,85.812z"/>
		<path fill="#808080" stroke="#808080" stroke-width="2.1656" stroke-linecap="round" d="M1260.015,126.996v18.848"/>
		<ellipse fill="#FFFFFF" stroke="#D40000" stroke-width="10.385" cx="1258.025" cy="210.464" rx="88.403" ry="75.54"/>
		<path fill="#A0D6C6" stroke="#A0D6C6" stroke-width="0.7219" d="M1197.273,300.495c-37.453,10.9-36.935,30.767-50.16,47.387
			h223.211c-5.169-16.998-1.565-34.59-51.414-48.573"/>
		<path fill="#A6EF18" stroke="#FA68D8" stroke-width="15.122" stroke-linecap="round" stroke-linejoin="round" d="
			M1137.517,118.989c-5.564-9.453-1.712-22.054,10.106-33.056c11.818-11.002,29.806-18.733,47.189-20.283
			c17.381-1.548,31.517,3.32,37.083,12.773l-47.189,20.282L1137.517,118.989z"/>
		<path fill="#A6EF18" stroke="#FA68D8" stroke-width="15.122" stroke-linecap="round" stroke-linejoin="round" d="
			M1390.662,118.989c5.563-9.453,1.712-22.054-10.106-33.056c-11.817-11.002-29.807-18.733-47.19-20.283
			c-17.381-1.548-31.517,3.32-37.082,12.773l47.189,20.282L1390.662,118.989z"/>
		<path fill="#FFCC00" stroke="#FFCC00" stroke-width="10" stroke-linecap="round" stroke-linejoin="round" d="M1273.984,77.779
			c0,1.871-0.84,3.599-2.205,4.535c-1.365,0.935-3.047,0.935-4.412,0c-1.365-0.935-2.206-2.664-2.206-4.535h4.411H1273.984z"/>
		<ellipse cx="1260.119" cy="211.65" rx="13.6" ry="11.621"/>
		<path d="M1260.015,158.064c-4.106,0.055-6.313,3.298-6.248,6.807c2.331,13.228-1.472,26.457-1.472,39.686
			c-0.058,3.54,3.699,6.797,7.844,6.797c4.143,0,7.901-3.257,7.842-6.797c-2.19-13.229-3.615-26.457,0-39.686
			C1268.046,161.292,1264.203,158.009,1260.015,158.064L1260.015,158.064z"/>
		<path d="M1328.407,208.221c-4.591-2.717-39.884-0.136-65.263,0.733c-1.826,0.027-3.46,1.649-3.432,3.404
			c0.028,1.754,1.715,2.278,3.54,2.251c23.616,1.109,46.74,1.954,65.21,0.315c1.839,0.006,3.515-1.61,3.501-3.377
			C1331.949,209.777,1330.247,208.186,1328.407,208.221L1328.407,208.221z"/>
		<path fill="#808080" stroke="#808080" stroke-width="2.1656" stroke-linecap="round" d="M1260.015,297.478V278.63"/>
		<path fill="#808080" stroke="#808080" stroke-width="2.1656" stroke-linecap="round" d="M1359.751,212.231h-22.057"/>
		<path fill="#808080" stroke="#808080" stroke-width="2.1656" stroke-linecap="round" d="M1160.251,212.231h22.057"/>
		<path fill="#808080" stroke="#808080" stroke-width="2.1656" stroke-linecap="round" d="M1309.883,138.415l-11.028,16.324"/>
		<path fill="#808080" stroke="#808080" stroke-width="2.1656" stroke-linecap="round" d="M1210.147,286.06l11.029-16.323"/>
		<path fill="#808080" stroke="#808080" stroke-width="2.1656" stroke-linecap="round" d="M1346.389,254.842l-19.102-9.425"/>
		<path fill="#808080" stroke="#808080" stroke-width="2.1656" stroke-linecap="round" d="M1173.642,169.614l19.102,9.424"/>
		<path fill="#808080" stroke="#808080" stroke-width="2.1656" stroke-linecap="round" d="M1346.389,169.614l-19.102,9.424"/>
		<path fill="#808080" stroke="#808080" stroke-width="2.1656" stroke-linecap="round" d="M1173.642,254.842l19.102-9.425"/>
		<path fill="#808080" stroke="#808080" stroke-width="2.1656" stroke-linecap="round" d="M1309.883,286.06l-11.028-16.323"/>
		<path fill="#808080" stroke="#808080" stroke-width="2.1656" stroke-linecap="round" d="M1210.147,138.415l11.029,16.324"/>
		<path fill="#A0D6C6" d="M1256.647,104.932c-67.319,0-119.338,45.638-119.338,103.163c0,57.524,61.727,107.902,129.044,107.902
			c67.319,0,113.794-59.854,113.794-117.379c0-57.525-56.18-93.684-123.5-93.684V104.932z M1263.579,129.981
			c56.724,0,91.414,29.645,91.414,78.115c0,48.471-45.782,85.223-102.507,85.223c-56.724,0-85.871-36.753-85.871-85.223
			c0-48.472,40.238-78.115,96.961-78.115H1263.579z"/>
		<path fill="none" stroke="#000000" stroke-width="2.1656" stroke-linecap="round" stroke-linejoin="round" d="M1118.016,78.964
			c3.594-9.649,14.131-6.44,20.796-9.478"/>
		<path fill="none" stroke="#000000" stroke-width="2.1656" stroke-linecap="round" stroke-linejoin="round" d="M1101.365,73.04
			c7.255-17.286,20.362-16.71,40.207-17.77"/>
		<path fill="none" stroke="#000000" stroke-width="2.1656" stroke-linecap="round" stroke-linejoin="round" d="M1077.816,58.822
			c9.535-25.796,27.737-25.619,54.071-28.432"/>
		<path fill="none" stroke="#000000" stroke-width="2.1656" stroke-linecap="round" stroke-linejoin="round" d="M1389.737,65.931
			c6.096-7.384,6.869,11.737,11.093,18.955"/>
		<path fill="none" stroke="#000000" stroke-width="2.1656" stroke-linecap="round" stroke-linejoin="round" d="M1391.124,44.606
			c22.961,5.541,25.183,12.628,30.501,30.803"/>
		<path fill="none" stroke="#000000" stroke-width="2.1656" stroke-linecap="round" stroke-linejoin="round" d="M1395.279,11.435
			c30.802,8.958,46.284,24.665,55.464,49.757"/>
	</g>
</g>
</svg>
