<?xml version="1.0" encoding="utf-8"?>
<!-- Generator: Adobe Illustrator 16.0.0, SVG Export Plug-In . SVG Version: 6.00 Build 0)  -->
<!DOCTYPE svg PUBLIC "-//W3C//DTD SVG 1.1//EN" "http://www.w3.org/Graphics/SVG/1.1/DTD/svg11.dtd">
<svg version="1.1" id="Calque_1" xmlns="http://www.w3.org/2000/svg" xmlns:xlink="http://www.w3.org/1999/xlink" x="0px" y="0px"
	 width="104.67px" height="92.812px" viewBox="733.83 2.465 104.67 92.812" enable-background="new 733.83 2.465 104.67 92.812"
	 xml:space="preserve">
<g transform="translate(-448.71 -161.09)">
	<g transform="matrix(.81748 0 0 .81748 302.53 155.29)">
		<path fill="#FFCC00" stroke="#FFCC00" stroke-width="7.2186" d="M1113.451,38.971c3.297,6.679,4.944,9.184,4.944,9.184"/>
		<path fill="#FFCC00" stroke="#FFCC00" stroke-width="7.2186" d="M1167.836,40.641l-7.581,8.07"/>
		<path fill="#FFCC00" d="M1139.634,36.143l-6.263,8.87l6.305,1.653l3.626-9.845L1139.634,36.143z"/>
		<path fill="#808080" stroke="#808080" stroke-width="2.1656" stroke-linecap="round" d="M1139.078,49.824v6.261"/>
		<ellipse fill="#FFFFFF" stroke="#D40000" stroke-width="10.385" cx="1138.408" cy="77.552" rx="29.724" ry="25.094"/>
		<path fill="#A0D6C6" stroke="#A0D6C6" stroke-width="0.7219" d="M1117.981,107.46c-12.593,3.621-12.418,10.221-16.865,15.742
			h75.051c-1.738-5.647-0.526-11.491-17.287-16.135"/>
		<path fill="#A6EF18" stroke="#FA68D8" stroke-width="15.122" stroke-linecap="round" stroke-linejoin="round" d="M1097.89,47.165
			c-1.871-3.141-0.575-7.326,3.398-10.981c3.973-3.655,10.021-6.223,15.866-6.738c5.845-0.514,10.597,1.103,12.469,4.243
			l-15.867,6.738L1097.89,47.165z"/>
		<path fill="#A6EF18" stroke="#FA68D8" stroke-width="15.122" stroke-linecap="round" stroke-linejoin="round" d="M1183.005,47.165
			c1.871-3.141,0.576-7.326-3.398-10.981c-3.973-3.655-10.022-6.223-15.867-6.738c-5.844-0.514-10.597,1.103-12.468,4.243
			l15.866,6.738L1183.005,47.165z"/>
		<path fill="#FFCC00" stroke="#FFCC00" stroke-width="10" stroke-linecap="round" stroke-linejoin="round" d="M1143.774,33.474
			c0,0.622-0.282,1.196-0.741,1.507c-0.459,0.31-1.024,0.31-1.484,0c-0.459-0.311-0.741-0.885-0.741-1.507h1.483H1143.774z"/>
		<ellipse cx="1139.112" cy="77.946" rx="4.573" ry="3.86"/>
		<path d="M1139.078,60.145c-1.381,0.019-2.123,1.095-2.101,2.261c0.784,4.394-0.495,8.789-0.495,13.184
			c-0.02,1.175,1.244,2.258,2.638,2.258c1.393,0,2.656-1.082,2.636-2.258c-0.736-4.395-1.215-8.789,0-13.184
			C1141.777,61.217,1140.485,60.127,1139.078,60.145L1139.078,60.145z"/>
		<path d="M1162.073,76.807c-1.543-0.902-13.41-0.045-21.943,0.244c-0.614,0.009-1.163,0.548-1.154,1.131
			c0.01,0.583,0.576,0.757,1.19,0.748c7.94,0.368,15.716,0.649,21.926,0.104c0.618,0.002,1.182-0.535,1.177-1.122
			C1163.264,77.324,1162.691,76.795,1162.073,76.807L1162.073,76.807z"/>
		<path fill="#808080" stroke="#808080" stroke-width="2.1656" stroke-linecap="round" d="M1139.078,106.458v-6.261"/>
		<path fill="#808080" stroke="#808080" stroke-width="2.1656" stroke-linecap="round" d="M1172.611,78.139h-7.415"/>
		<path fill="#808080" stroke="#808080" stroke-width="2.1656" stroke-linecap="round" d="M1105.533,78.139h7.416"/>
		<path fill="#808080" stroke="#808080" stroke-width="2.1656" stroke-linecap="round" d="M1155.844,53.618l-3.707,5.422"/>
		<path fill="#808080" stroke="#808080" stroke-width="2.1656" stroke-linecap="round" d="M1122.31,102.665l3.708-5.423"/>
		<path fill="#808080" stroke="#808080" stroke-width="2.1656" stroke-linecap="round" d="M1168.119,92.295l-6.423-3.131"/>
		<path fill="#808080" stroke="#808080" stroke-width="2.1656" stroke-linecap="round" d="M1110.036,63.982l6.423,3.131"/>
		<path fill="#808080" stroke="#808080" stroke-width="2.1656" stroke-linecap="round" d="M1168.119,63.982l-6.423,3.131"/>
		<path fill="#808080" stroke="#808080" stroke-width="2.1656" stroke-linecap="round" d="M1110.036,92.295l6.423-3.131"/>
		<path fill="#808080" stroke="#808080" stroke-width="2.1656" stroke-linecap="round" d="M1155.844,102.665l-3.707-5.423"/>
		<path fill="#808080" stroke="#808080" stroke-width="2.1656" stroke-linecap="round" d="M1122.31,53.618l3.708,5.422"/>
		<path fill="#A0D6C6" d="M1137.944,42.495c-22.635,0-40.125,15.161-40.125,34.271c0,19.109,20.754,35.845,43.388,35.845
			c22.635,0,38.261-19.884,38.261-38.993C1179.469,54.507,1160.58,42.495,1137.944,42.495L1137.944,42.495z M1140.276,50.816
			c19.072,0,30.736,9.848,30.736,25.95c0,16.102-15.394,28.311-34.467,28.311c-19.072,0-28.873-12.209-28.873-28.311
			c0-16.102,13.53-25.95,32.602-25.95H1140.276L1140.276,50.816z"/>
		<path fill="none" stroke="#000000" stroke-width="2.1656" stroke-linecap="round" stroke-linejoin="round" d="M1091.332,33.868
			c1.208-3.205,4.751-2.14,6.993-3.148"/>
		<path fill="none" stroke="#000000" stroke-width="2.1656" stroke-linecap="round" stroke-linejoin="round" d="M1085.734,31.9
			c2.439-5.742,6.846-5.551,13.519-5.903"/>
		<path fill="none" stroke="#000000" stroke-width="2.1656" stroke-linecap="round" stroke-linejoin="round" d="M1077.816,27.177
			c3.206-8.569,9.326-8.51,18.181-9.445"/>
		<path fill="none" stroke="#000000" stroke-width="2.1656" stroke-linecap="round" stroke-linejoin="round" d="M1182.694,29.538
			c2.049-2.453,2.309,3.899,3.73,6.297"/>
		<path fill="none" stroke="#000000" stroke-width="2.1656" stroke-linecap="round" stroke-linejoin="round" d="M1183.16,22.454
			c7.721,1.841,8.468,4.195,10.256,10.233"/>
		<path fill="none" stroke="#000000" stroke-width="2.1656" stroke-linecap="round" stroke-linejoin="round" d="M1184.557,11.435
			c10.357,2.976,15.563,8.194,18.649,16.529"/>
	</g>
</g>
</svg>
