<?xml version="1.0" encoding="utf-8"?>
<!-- Generator: Adobe Illustrator 16.0.0, SVG Export Plug-In . SVG Version: 6.00 Build 0)  -->
<!DOCTYPE svg PUBLIC "-//W3C//DTD SVG 1.1//EN" "http://www.w3.org/Graphics/SVG/1.1/DTD/svg11.dtd">
<svg version="1.1" id="Calque_1" xmlns="http://www.w3.org/2000/svg" xmlns:xlink="http://www.w3.org/1999/xlink" x="0px" y="0px"
	 width="262.453px" height="189.465px" viewBox="706.376 49.035 262.453 189.465"
	 enable-background="new 706.376 49.035 262.453 189.465" xml:space="preserve">
<path fill-opacity="0.5" d="M824.476,171.542l20.248,66.958l13.717-67.989l35.272,14.937c8.491-6.18,16.33-12.876,24.821-17.512
	c11.104,2.575,39.845,8.241,44.417,9.786l-11.104-29.358l16.982-23.692l-16.982-22.663l7.838-32.964l-43.11,9.271l-34.618-18.027
	l-43.111,23.178L798.348,62.35l-30.7,21.632l-45.07-6.181l18.942,29.874l-22.208,27.813l22.208,18.027l-13.717,35.539l41.803-13.906
	l25.475,21.117L824.476,171.542L824.476,171.542z"/>
<path fill="#FFFFFF" stroke="#000000" stroke-width="10" stroke-linejoin="round" d="M816.539,165.288l20.249,66.958l13.717-67.989
	l35.272,14.937c8.491-6.181,16.33-12.876,24.82-17.512c11.104,2.575,39.845,8.241,44.417,9.786l-11.104-29.357l16.982-23.693
	L943.91,95.755l7.838-32.963l-43.11,9.271L874.02,54.035l-43.11,23.178l-40.498-21.117l-30.7,21.632l-45.069-6.181l18.942,29.873
	l-22.208,27.813l22.208,18.027l-13.717,35.54l41.804-13.907l25.475,21.118L816.539,165.288L816.539,165.288z"/>
</svg>
