<?xml version="1.0" standalone="no"?>
<!DOCTYPE svg PUBLIC "-//W3C//DTD SVG 20010904//EN"
 "http://www.w3.org/TR/2001/REC-SVG-20010904/DTD/svg10.dtd">
<svg version="1.0" xmlns="http://www.w3.org/2000/svg"
 width="269.000000pt" height="300.000000pt" viewBox="0 0 269.000000 300.000000"
 preserveAspectRatio="xMidYMid meet">
<metadata>
Created by potrace 1.15, written by Peter Selinger 2001-2017
</metadata>
<g transform="translate(0.000000,300.000000) scale(0.100000,-0.100000)"
fill="#000000" stroke="none">
<path d="M1400 2781 c-52 -51 -51 -114 2 -154 60 -45 158 15 158 97 0 57 -30
86 -89 86 -34 0 -49 -6 -71 -29z"/>
<path d="M1154 2691 c-52 -22 -79 -94 -54 -141 6 -11 41 -39 79 -64 38 -24 71
-49 75 -54 3 -6 -1 -56 -9 -111 -26 -175 -21 -182 84 -131 l67 32 51 -31 c54
-34 75 -38 91 -18 5 6 17 66 27 131 19 134 12 125 125 187 92 51 109 71 110
126 0 33 -5 46 -26 62 -15 12 -37 21 -50 21 -23 0 -153 -64 -231 -113 -24 -15
-46 -27 -49 -27 -4 0 -51 30 -106 66 -98 65 -144 82 -184 65z"/>
<path d="M800 2467 c-31 -16 -70 -73 -70 -103 0 -30 43 -80 75 -86 41 -8 99
25 119 67 42 88 -37 166 -124 122z"/>
<path d="M1936 2450 c-60 -53 -57 -133 6 -163 95 -46 198 94 123 168 -35 36
-85 34 -129 -5z"/>
<path d="M501 2334 c-34 -28 -49 -81 -32 -112 6 -12 45 -45 87 -74 l76 -53 -6
-65 c-4 -36 -11 -88 -18 -117 -19 -91 4 -103 101 -53 l59 31 48 -31 c49 -31
88 -38 100 -19 4 6 14 66 23 132 l16 121 90 53 c132 77 162 126 114 187 -16
21 -29 26 -62 26 -41 0 -59 -9 -217 -98 -30 -18 -60 -32 -66 -32 -6 0 -54 29
-107 65 -113 76 -153 84 -206 39z"/>
<path d="M1657 2336 c-31 -29 -43 -69 -31 -104 5 -15 40 -48 81 -77 40 -28 75
-54 78 -57 4 -3 -1 -59 -10 -123 -9 -65 -14 -124 -11 -131 8 -22 43 -16 101
16 l55 30 54 -31 c31 -17 65 -29 78 -27 25 3 26 10 48 173 l12 90 95 55 c53
30 102 65 110 77 21 32 21 88 -2 113 -38 42 -110 22 -269 -74 -33 -20 -66 -36
-73 -36 -7 0 -57 29 -111 65 -112 75 -158 84 -205 41z"/>
<path d="M1306 2106 c-49 -45 -53 -105 -10 -143 45 -40 113 -27 152 31 47 69
11 146 -69 146 -29 0 -46 -8 -73 -34z"/>
<path d="M1051 2013 c-39 -19 -65 -71 -56 -113 4 -20 27 -41 85 -81 56 -38 80
-60 80 -75 0 -11 -7 -69 -15 -128 -8 -59 -13 -112 -10 -117 11 -16 39 -10 101
23 l62 32 52 -32 c92 -57 101 -48 124 122 8 59 18 111 21 115 3 3 45 29 93 56
124 72 153 136 89 196 -34 32 -77 20 -210 -56 l-117 -67 -48 28 c-26 15 -75
47 -110 71 -69 47 -90 51 -141 26z"/>
<path d="M723 1803 c-12 -2 -36 -20 -53 -39 -75 -86 0 -189 107 -145 56 23 84
119 46 156 -16 17 -58 36 -71 34 -4 -1 -17 -4 -29 -6z"/>
<path d="M1849 1785 c-35 -19 -62 -77 -54 -115 4 -17 18 -39 32 -50 75 -58
193 33 163 126 -7 19 -20 39 -30 44 -26 14 -80 12 -111 -5z"/>
<path d="M443 1689 c-38 -11 -73 -63 -73 -108 0 -37 27 -65 113 -119 51 -31
58 -39 54 -61 -3 -15 -11 -72 -18 -129 -17 -135 -12 -140 83 -89 l71 39 26
-20 c44 -32 89 -52 105 -46 20 8 22 17 41 153 8 63 16 115 18 116 1 1 44 25
94 54 103 58 123 79 123 129 0 45 -14 68 -49 80 -34 12 -65 6 -101 -18 -14 -9
-66 -39 -117 -65 -107 -57 -90 -61 -274 66 -34 24 -59 28 -96 18z"/>
<path d="M1583 1680 c-25 -10 -63 -65 -63 -92 0 -43 39 -82 162 -159 7 -4 4
-51 -6 -133 -9 -70 -14 -132 -10 -137 10 -16 56 -3 109 30 l47 30 53 -35 c58
-37 77 -41 93 -21 5 6 19 68 30 136 11 68 25 127 31 130 150 84 181 106 196
138 39 82 -42 156 -122 110 -12 -6 -69 -38 -127 -70 l-106 -57 -105 70 c-106
70 -134 79 -182 60z"/>
<path d="M1250 1463 c-52 -19 -88 -91 -70 -138 21 -55 71 -70 135 -40 39 19
59 54 59 102 0 59 -63 98 -124 76z"/>
<path d="M946 1329 c-39 -34 -55 -84 -37 -118 7 -11 45 -43 86 -71 41 -28 75
-55 75 -60 0 -5 -7 -61 -15 -125 -9 -64 -13 -120 -10 -126 11 -17 46 -9 105
22 l57 30 46 -30 c43 -30 90 -40 101 -23 3 5 13 66 23 135 l17 127 84 46 c46
25 92 53 102 62 26 24 41 69 34 98 -7 28 -53 64 -81 64 -10 0 -76 -32 -148
-70 -71 -39 -135 -68 -142 -66 -7 3 -57 34 -113 71 -55 36 -112 65 -125 65
-13 0 -40 -14 -59 -31z"/>
<path d="M844 651 c-67 -31 -103 -96 -90 -166 9 -46 44 -69 105 -69 80 1 141
45 161 117 30 106 -64 169 -176 118z m106 -21 c62 -62 -35 -230 -110 -190 -41
22 -47 77 -13 143 33 66 84 86 123 47z"/>
<path d="M1159 661 c-72 -23 -113 -84 -107 -161 2 -33 9 -48 30 -63 46 -34
158 -24 158 13 0 5 -13 2 -29 -6 -35 -17 -77 -10 -91 16 -29 54 8 158 63 181
25 11 35 10 59 -4 25 -15 29 -15 35 -1 3 8 3 17 0 21 -10 10 -91 13 -118 4z"/>
<path d="M1945 658 c-66 -23 -114 -104 -101 -172 8 -39 21 -53 68 -67 109 -32
234 85 201 188 -17 51 -97 76 -168 51z m99 -30 c22 -31 20 -76 -6 -128 -29
-57 -70 -80 -107 -59 -47 26 -41 125 10 177 38 39 80 43 103 10z"/>
<path d="M2480 657 c-13 -7 -30 -24 -37 -37 -22 -42 -12 -72 35 -103 48 -32
50 -39 22 -67 -26 -26 -44 -25 -70 2 -11 12 -20 17 -20 11 0 -6 -3 -18 -6 -26
-13 -34 107 -27 136 8 6 8 14 32 17 54 5 37 3 41 -35 65 -52 33 -58 43 -36 67
21 23 47 25 65 3 11 -14 13 -14 22 2 18 32 -44 46 -93 21z"/>
<path d="M247 618 c-14 -24 -46 -78 -71 -120 -32 -56 -41 -78 -31 -78 9 0 23
16 32 35 16 34 19 36 63 33 43 -3 45 -5 48 -35 3 -29 7 -33 34 -33 26 0 30 3
25 21 -3 12 -14 66 -24 120 -20 115 -35 126 -76 57z"/>
<path d="M1378 617 c-84 -134 -117 -197 -103 -197 9 0 23 16 32 35 16 33 20
35 65 35 l48 0 0 -35 c0 -33 2 -35 31 -35 28 0 31 3 25 23 -3 12 -14 66 -23
120 -20 112 -33 121 -75 54z"/>
<path d="M2176 613 c-3 -26 -15 -81 -25 -120 -16 -66 -16 -73 -2 -73 13 0 19
18 29 77 6 42 14 78 16 81 7 7 53 -47 88 -105 48 -78 59 -71 86 50 13 56 26
110 28 120 3 10 0 17 -9 17 -10 0 -20 -26 -32 -81 -9 -44 -20 -78 -23 -74 -3
3 -29 38 -57 78 -31 43 -59 73 -72 75 -17 3 -21 -4 -27 -45z"/>
<path d="M146 315 c-4 -21 -35 -165 -43 -202 -4 -20 -1 -23 24 -23 28 0 30 3
39 58 l9 57 43 3 c54 4 55 22 1 22 -41 0 -41 0 -34 33 10 46 12 47 56 47 24 0
39 5 39 13 0 8 -20 12 -65 12 -58 0 -66 -2 -69 -20z"/>
<path d="M398 323 c-8 -10 -34 -52 -58 -93 -23 -41 -51 -90 -62 -107 -17 -29
-18 -33 -4 -33 9 0 24 16 33 35 29 61 113 57 113 -5 0 -27 3 -30 31 -30 24 0
29 4 25 18 -3 9 -12 57 -21 107 -20 108 -24 125 -34 125 -4 0 -15 -8 -23 -17z"/>
<path d="M1335 269 c-22 -40 -55 -94 -72 -121 -39 -58 -39 -58 -14 -58 13 0
24 11 32 34 14 38 41 51 84 40 21 -5 25 -12 25 -40 0 -31 3 -34 30 -34 17 0
30 3 29 8 0 4 -10 59 -23 122 -15 78 -27 116 -37 117 -8 2 -30 -26 -54 -68z"/>
<path d="M1714 325 c-5 -16 -44 -217 -44 -227 0 -15 133 -5 138 11 4 11 -4 13
-37 8 -39 -5 -41 -4 -41 21 0 15 3 38 7 50 5 21 11 23 44 20 25 -2 40 1 43 9
4 9 -6 13 -34 13 -42 0 -47 8 -34 57 5 17 15 23 48 25 22 2 39 7 36 11 -7 13
-122 14 -126 2z"/>
<path d="M1908 324 c-53 -28 -51 -97 5 -133 43 -28 47 -54 13 -76 -19 -13 -29
-14 -45 -5 -12 6 -21 15 -21 21 0 6 -4 7 -10 4 -5 -3 -10 -15 -10 -26 0 -16 7
-19 49 -19 56 0 95 25 105 66 10 39 0 58 -44 83 -41 23 -50 47 -28 69 18 18
56 15 67 -5 9 -17 10 -17 17 1 14 35 -47 48 -98 20z"/>
<path d="M543 210 c-37 -106 -40 -120 -24 -120 14 0 22 17 36 75 11 41 22 75
25 75 3 0 14 -32 24 -70 10 -39 22 -73 27 -75 4 -3 31 28 59 70 28 41 53 75
56 75 3 0 3 -34 -1 -75 l-7 -75 25 0 c25 0 25 2 32 98 3 53 8 107 11 120 3 16
0 22 -13 22 -11 0 -39 -32 -72 -83 l-54 -82 -13 30 c-7 17 -18 54 -25 83 -20
85 -37 71 -86 -68z"/>
</g>
</svg>
