<?xml version="1.0" encoding="utf-8"?>
<!-- Generator: Adobe Illustrator 16.0.0, SVG Export Plug-In . SVG Version: 6.00 Build 0)  -->
<!DOCTYPE svg PUBLIC "-//W3C//DTD SVG 1.1//EN" "http://www.w3.org/Graphics/SVG/1.1/DTD/svg11.dtd">
<svg version="1.1" id="Calque_1" xmlns="http://www.w3.org/2000/svg" xmlns:xlink="http://www.w3.org/1999/xlink" x="0px" y="0px"
	 width="45.266px" height="36.28px" viewBox="727.945 8.609 45.266 36.28" enable-background="new 727.945 8.609 45.266 36.28"
	 xml:space="preserve">
<linearGradient id="SVGID_1_" gradientUnits="userSpaceOnUse" x1="-4.3755" y1="-1.1902" x2="-4.3331" y2="-1.1555" gradientTransform="matrix(237.4251 0 0 146.0174 1796.5375 211.3596)">
	<stop  offset="0" style="stop-color:#000000;stop-opacity:0.7608"/>
	<stop  offset="1" style="stop-color:#000000;stop-opacity:0"/>
</linearGradient>
<path fill="url(#SVGID_1_)" d="M771.452,33.449c0.375,0-0.076,2.533,1.346,3.265c0.622,1.967-1.242,3.544-2.094,4.233
	c-2.587,1.398-6.59,3.241-7.48,3.265c-2.762,0.375-12.651,0.866-13.313,0.604C750.107,44.147,770.51,34.084,771.452,33.449
	L771.452,33.449z"/>
<path fill="#F953D2" d="M749.875,44.69c-1.865-0.782-22.431-7.808-21.92-13.953c-0.024-3.664,17.87-18.647,18.616-19.002
	c0.946-0.567,18.925,7.87,20.181,8.637c2.438,2.146,5.911,12.494,4.523,13.155C770.057,34.856,751.903,45.302,749.875,44.69
	L749.875,44.69L749.875,44.69z"/>
<path fill="#A0D6C6" d="M749.78,43.23c-1.723-0.722-20.732-7.21-20.26-12.885c-0.023-3.384,16.517-17.221,17.205-17.549
	c0.875-0.523,17.492,7.268,18.653,7.977c2.252,1.982,5.463,11.538,4.181,12.149C768.434,34.149,751.655,43.796,749.78,43.23
	L749.78,43.23z"/>
<path fill="#A0D6C6" d="M760.02,20.066c-0.738-2.947-9.144-6.381-12.939-7.008c-4.634,1.387-18.063,15.966-18.063,17.532
	c1.646,4.359,12.609,10.015,20.176,12.027C749.402,42.885,761.893,23.184,760.02,20.066L760.02,20.066L760.02,20.066z"/>
<path d="M752.002,19.063c4.069,2.354,4.538,7.38,1.046,11.225c-3.492,3.845-9.622,5.053-13.691,2.698s-4.538-7.38-1.046-11.225
	C741.803,17.917,747.932,16.709,752.002,19.063L752.002,19.063z"/>
<path fill="#FFFFBC" d="M751.724,19.315c3.812,2.11,4.251,6.615,0.98,10.061c-3.271,3.446-9.012,4.53-12.825,2.419
	c-3.813-2.11-4.25-6.615-0.98-10.062C742.17,18.287,747.912,17.204,751.724,19.315L751.724,19.315z"/>
<path fill="#F953D2" d="M772.444,21.258c-1.268-3.187-6.82-8.942-12.473-10.38c-10.59-2.839-14.819-2.687-20.525-1.324
	c-3.513,1.147-5.519,4.908-4.147,7.763c0.494,1.349,3.905,1.579,5.481,0.462c1.308-1.766,4.57-5.355,9.954-3.736
	c6.33,2.169,4.886,9.12,5.408,11.583c-0.063,5.085,7.388,5.797,11.8,5.673C773.09,31.145,774.18,24.53,772.444,21.258
	L772.444,21.258z"/>
<path fill="#A0D6C6" d="M771.1,21.568c-1.167-2.907-6.111-8.521-11.309-9.833c-9.737-2.59-14.586-2.572-19.833-1.329
	c-3.23,1.289-4.915,3.507-3.653,6.113c0.454,1.231,2.079,1.441,3.528,0.422c3.171-4.242,6.934-5.364,12.13-3.323
	c5.82,1.979,4.956,9.688,5.436,11.937c0.344,3.698,5.822,4.604,9.395,4.475C771.527,29.888,772.695,24.553,771.1,21.568
	L771.1,21.568z"/>
<path fill="#FFC600" d="M743.349,20.033v2.067h2.706l0.246-2.443L743.349,20.033L743.349,20.033z"/>
<path fill="#E49600" d="M739.173,22.16l-0.369,2.35l3.075-0.282V22.16H739.173L739.173,22.16z"/>
<path fill="#F953D2" d="M748.567,20.301v2.067h2.706l0.246-2.443L748.567,20.301L748.567,20.301z"/>
<path fill="#D28F00" d="M751.177,23.887l0.492,2.349l2.214-0.281v-2.067H751.177L751.177,23.887z"/>
<path fill="#F953D2" d="M737.954,25.881v2.067l2.091-0.188l0.615-1.879L737.954,25.881L737.954,25.881z"/>
<path fill="#FFA300" d="M739.868,28.804v2.067h2.706l-0.492-1.503L739.868,28.804L739.868,28.804z"/>
<path fill="#F953D2" d="M744.914,29.469v2.067h2.706v-1.691L744.914,29.469L744.914,29.469z"/>
<path fill="#FF7400" d="M748.915,27.475v2.067h2.706l-0.123-2.349L748.915,27.475L748.915,27.475z"/>
<path fill="#A6EF18" d="M767.446,26.751c-0.004,1.46-1.811,2.104-3.306,2.259c-2.327,0.128-3.905-0.651-4.175-1.86
	c-0.307-1.037-0.348-5.554-2.436-9.701c-0.802-2.172-6.439-5.14-8.818-5.267c-1.798,0.003-4.348,0.75-6.398,1.83
	c-2.05,1.081-3.6,2.496-4.791,1.709c-0.652-3.081,5.209-3.723,8.522-4.34c3.313-0.219,6.516-0.014,9.419,0.991
	C759.009,13.717,765.533,20.12,767.446,26.751L767.446,26.751z"/>
</svg>
