<?xml version="1.0" encoding="utf-8"?>
<!-- Generator: Adobe Illustrator 16.0.0, SVG Export Plug-In . SVG Version: 6.00 Build 0)  -->
<!DOCTYPE svg PUBLIC "-//W3C//DTD SVG 1.1//EN" "http://www.w3.org/Graphics/SVG/1.1/DTD/svg11.dtd">
<svg version="1.1" id="Calque_1" xmlns="http://www.w3.org/2000/svg" xmlns:xlink="http://www.w3.org/1999/xlink" x="0px" y="0px"
	 width="60.169px" height="48.257px" viewBox="694.104 9.866 60.169 48.257" enable-background="new 694.104 9.866 60.169 48.257"
	 xml:space="preserve">
<linearGradient id="SVGID_1_" gradientUnits="userSpaceOnUse" x1="-2.2944" y1="552.3088" x2="-2.2458" y2="552.2691" gradientTransform="matrix(272.0496 0 0 -167.3116 1357.4752 92456.0859)">
	<stop  offset="0" style="stop-color:#000000;stop-opacity:0.7608"/>
	<stop  offset="1" style="stop-color:#000000;stop-opacity:0"/>
</linearGradient>
<path fill="url(#SVGID_1_)" d="M751.935,42.906c0.498,0-0.102,3.37,1.79,4.343c0.826,2.616-1.651,4.713-2.784,5.629
	c-3.438,1.859-8.76,4.311-9.942,4.343c-3.671,0.5-16.816,1.152-17.695,0.804C723.563,57.135,750.683,43.751,751.935,42.906
	L751.935,42.906z"/>
<path fill="#EA8380" d="M723.254,57.857c-2.479-1.04-29.815-10.385-29.137-18.559c-0.032-4.874,23.754-24.803,24.745-25.275
	c1.257-0.754,25.156,10.468,26.825,11.488c3.239,2.855,7.856,16.618,6.012,17.499C750.08,44.777,725.949,58.673,723.254,57.857
	L723.254,57.857z"/>
<path fill="#EA8380" d="M723.128,55.916c-2.291-0.96-27.559-9.591-26.931-17.139c-0.03-4.5,21.955-22.906,22.871-23.342
	c1.162-0.696,23.25,9.667,24.793,10.61c2.994,2.636,7.262,15.346,5.558,16.159C747.922,43.836,725.62,56.669,723.128,55.916
	L723.128,55.916z"/>
<path fill="#F1FA63" d="M736.738,25.105c-0.981-3.92-12.153-8.488-17.199-9.322c-6.16,1.845-24.009,21.237-24.009,23.32
	c2.188,5.798,16.76,13.321,26.818,15.998c0.278,0.354,16.88-25.85,14.39-29.995V25.105z"/>
<path d="M726.081,23.771c5.41,3.132,6.032,9.816,1.391,14.93c-4.642,5.114-12.79,6.721-18.199,3.589s-6.032-9.816-1.391-14.93
	C712.523,22.246,720.672,20.639,726.081,23.771L726.081,23.771z"/>
<path fill="#FFFFBC" d="M725.712,24.106c5.067,2.808,5.65,8.799,1.303,13.383s-11.979,6.024-17.047,3.217
	c-5.067-2.808-5.65-8.799-1.302-13.383S720.645,21.299,725.712,24.106L725.712,24.106z"/>
<path fill="#D97F00" d="M753.253,26.69c-1.686-4.238-9.065-11.893-16.579-13.806c-14.077-3.776-19.699-3.573-27.283-1.76
	c-4.669,1.525-7.336,6.527-5.513,10.325c0.656,1.795,5.19,2.101,7.286,0.615c1.738-2.349,6.075-7.123,13.231-4.969
	c8.414,2.885,6.495,12.13,7.188,15.407c-0.084,6.764,9.821,7.71,15.685,7.546C754.112,39.841,755.561,31.042,753.253,26.69
	L753.253,26.69z"/>
<path fill="#EA8380" d="M751.467,27.103c-1.551-3.867-8.124-11.334-15.032-13.079c-12.943-3.445-19.389-3.421-26.363-1.768
	c-4.293,1.714-6.533,4.666-4.856,8.13c0.603,1.638,2.763,1.917,4.69,0.562c4.214-5.643,9.216-7.135,16.123-4.42
	c7.736,2.632,6.587,12.887,7.225,15.877c0.458,4.919,7.739,6.124,12.488,5.952C752.035,38.169,753.588,31.073,751.467,27.103
	L751.467,27.103z"/>
<path fill="#FFC600" d="M714.579,25.062v2.75h3.597l0.327-3.25L714.579,25.062L714.579,25.062z"/>
<path fill="#E49600" d="M709.028,27.89l-0.491,3.125l4.088-0.375v-2.75H709.028L709.028,27.89z"/>
<path fill="#FF8000" d="M721.516,25.416v2.75h3.598l0.327-3.25L721.516,25.416L721.516,25.416z"/>
<path fill="#D28F00" d="M724.984,30.188l0.654,3.125l2.943-0.375v-2.75H724.984L724.984,30.188z"/>
<path fill="#FF7C00" d="M707.408,32.839v2.75l2.78-0.25l0.817-2.5H707.408L707.408,32.839z"/>
<path fill="#FFA300" d="M709.953,36.728v2.75h3.597l-0.654-2L709.953,36.728L709.953,36.728z"/>
<path fill="#DF6900" d="M716.659,37.612v2.75h3.597v-2.25L716.659,37.612L716.659,37.612z"/>
<path fill="#FF7400" d="M721.978,34.96v2.75h3.598l-0.164-3.125L721.978,34.96L721.978,34.96z"/>
<path fill="#F1FA63" d="M746.61,33.996c-0.006,1.942-2.407,2.799-4.394,3.004c-3.093,0.171-5.192-0.866-5.55-2.474
	c-0.409-1.379-0.462-7.388-3.238-12.903c-1.066-2.89-8.559-6.837-11.721-7.005c-2.39,0.004-5.779,0.997-8.504,2.435
	s-4.785,3.319-6.369,2.273c-0.867-4.098,6.924-4.952,11.329-5.772c4.405-0.291,8.661-0.018,12.52,1.318
	C735.396,16.66,744.067,25.177,746.61,33.996L746.61,33.996z"/>
</svg>
