<?xml version="1.0" encoding="utf-8"?>
<!-- Generator: Adobe Illustrator 16.0.0, SVG Export Plug-In . SVG Version: 6.00 Build 0)  -->
<!DOCTYPE svg PUBLIC "-//W3C//DTD SVG 1.1//EN" "http://www.w3.org/Graphics/SVG/1.1/DTD/svg11.dtd">
<svg version="1.1" id="Calque_1" xmlns="http://www.w3.org/2000/svg" xmlns:xlink="http://www.w3.org/1999/xlink" x="0px" y="0px"
	 width="1920px" height="480px" viewBox="0 0 1920 480" enable-background="new 0 0 1920 480" xml:space="preserve">
<linearGradient id="SVGID_1_" gradientUnits="userSpaceOnUse" x1="-1.9937" y1="481.0569" x2="-1.7519" y2="480.8595" gradientTransform="matrix(237.4251 0 0 -146.0174 1375.5375 70429.8906)">
	<stop  offset="0" style="stop-color:#000000;stop-opacity:0.7608"/>
	<stop  offset="1" style="stop-color:#000000;stop-opacity:0"/>
</linearGradient>
<path fill="url(#SVGID_1_)" d="M982.389,160.914c2.191,0-0.446,15.534,7.873,20.018c3.635,12.061-7.264,21.727-12.247,25.951
	c-15.129,8.571-38.541,19.872-43.741,20.018c-16.154,2.303-73.991,5.309-77.858,3.708c1.14-4.105,120.462-65.803,125.972-69.693
	L982.389,160.914z"/>
<path fill="#F953D2" d="M856.198,229.832C845.292,225.037,725.015,181.959,728,144.28c-0.142-22.463,104.511-114.333,108.871-116.51
	c5.531-3.473,110.68,48.254,118.024,52.958c14.253,13.16,34.57,76.602,26.455,80.66c-7.122,8.148-113.292,72.202-125.151,68.438
	V229.832z"/>
<path fill="#A0D6C6" d="M855.645,220.883c-10.08-4.428-121.251-44.211-118.49-79.005c-0.131-20.746,96.595-105.59,100.625-107.598
	c5.112-3.207,102.298,44.563,109.088,48.908c13.173,12.154,31.95,70.741,24.451,74.489c-6.584,7.524-104.711,66.677-115.668,63.204
	L855.645,220.883z"/>
<path fill="#A0D6C6" d="M915.525,78.857c-4.317-18.071-53.471-39.128-75.669-42.97c-27.104,8.504-105.637,97.895-105.637,107.499
	c9.628,26.726,73.742,61.407,117.994,73.745c1.222,1.631,74.27-119.157,63.313-138.268V78.857z"/>
<path d="M868.636,72.707c23.801,14.436,26.54,45.248,6.118,68.823s-56.273,30.979-80.072,16.543
	c-23.799-14.436-26.541-45.248-6.119-68.823C808.986,65.677,844.837,58.27,868.636,72.707L868.636,72.707z"/>
<path fill="#FFFFBC" d="M867.013,74.25c22.294,12.941,24.859,40.562,5.73,61.692c-19.128,21.13-52.708,27.77-75.003,14.829
	c-22.296-12.94-24.859-40.561-5.73-61.691C811.139,67.949,844.717,61.31,867.013,74.25L867.013,74.25z"/>
<path fill="#F953D2" d="M988.19,86.162c-7.419-19.536-39.888-54.825-72.945-63.642c-61.935-17.408-86.67-16.471-120.04-8.116
	c-20.544,7.033-32.279,30.091-24.254,47.598c2.886,8.274,22.837,9.682,32.056,2.835c7.646-10.828,26.728-32.834,58.214-22.907
	c37.019,13.298,28.575,55.915,31.626,71.021c-0.369,31.178,43.21,35.541,69.009,34.784c30.113-0.951,36.484-41.513,26.334-61.576
	V86.162z"/>
<path fill="#A0D6C6" d="M980.33,88.065c-6.821-17.824-35.741-52.249-66.136-60.29c-56.949-15.882-85.308-15.771-115.991-8.147
	c-18.891,7.902-28.745,21.506-21.367,37.479c2.653,7.55,12.157,8.837,20.635,2.591c18.542-26.012,40.546-32.891,70.937-20.376
	c34.04,12.132,28.983,59.404,31.788,73.187c2.014,22.675,34.051,28.229,54.944,27.438
	C982.828,139.077,989.661,106.369,980.33,88.065L980.33,88.065z"/>
<path fill="#FFC600" d="M818.028,78.657v12.675h15.828l1.439-14.979L818.028,78.657L818.028,78.657z"/>
<path fill="#E49600" d="M793.608,91.696l-2.159,14.403l17.986-1.728V91.696H793.608L793.608,91.696z"/>
<path fill="#F953D2" d="M848.549,80.291v12.674h15.828l1.439-14.979L848.549,80.291L848.549,80.291z"/>
<path fill="#D28F00" d="M863.811,102.285l2.878,14.403l12.95-1.728v-12.674L863.811,102.285L863.811,102.285z"/>
<path fill="#F953D2" d="M786.481,114.507v12.675l12.231-1.152l3.597-11.522H786.481L786.481,114.507z"/>
<path fill="#FFA300" d="M797.675,132.433v12.674h15.828l-2.878-9.218L797.675,132.433L797.675,132.433z"/>
<path fill="#F953D2" d="M827.182,136.507v12.674h15.828v-10.37L827.182,136.507L827.182,136.507z"/>
<path fill="#FF7400" d="M850.583,124.284v12.675h15.828l-0.719-14.403L850.583,124.284L850.583,124.284z"/>
<path fill="#A6EF18" d="M958.962,119.841c-0.026,8.955-10.593,12.904-19.333,13.851c-13.607,0.787-22.842-3.993-24.419-11.407
	c-1.798-6.357-2.034-34.055-14.244-59.478c-4.69-13.322-37.658-31.517-51.57-32.293c-10.518,0.019-25.428,4.597-37.416,11.223
	c-11.989,6.626-21.055,15.301-28.022,10.479c-3.814-18.891,30.463-22.827,49.843-26.61c19.379-1.339,38.107-0.082,55.086,6.077
	c20.73,8.244,58.883,47.505,70.078,88.161L958.962,119.841z"/>
</svg>
