<?xml version="1.0" encoding="utf-8"?>
<!-- Generator: Adobe Illustrator 16.0.0, SVG Export Plug-In . SVG Version: 6.00 Build 0)  -->
<!DOCTYPE svg PUBLIC "-//W3C//DTD SVG 1.1//EN" "http://www.w3.org/Graphics/SVG/1.1/DTD/svg11.dtd">
<svg version="1.1" id="Calque_1" xmlns="http://www.w3.org/2000/svg" xmlns:xlink="http://www.w3.org/1999/xlink" x="0px" y="0px"
	 width="260.45px" height="205.593px" viewBox="701.005 2.982 260.45 205.593"
	 enable-background="new 701.005 2.982 260.45 205.593" xml:space="preserve">
<g transform="translate(-448.71 -161.09)">
	<g transform="matrix(.81748 0 0 .81748 302.53 155.29)">
		<path fill="#FFCC00" stroke="#FFCC00" stroke-width="7.2186" d="M1127.454,73.592c8.306,14.923,12.458,20.52,12.458,20.52"/>
		<path fill="#FFCC00" stroke="#FFCC00" stroke-width="7.2186" d="M1264.489,77.323l-19.103,18.032"/>
		<path fill="#FFCC00" d="M1193.429,67.274l-15.781,19.82l15.884,3.693l9.136-21.996L1193.429,67.274z"/>
		<path fill="#808080" stroke="#808080" stroke-width="2.1656" stroke-linecap="round" d="M1192.025,97.843v13.99"/>
		<ellipse fill="#FFFFFF" stroke="#D40000" stroke-width="10.385" cx="1190.339" cy="159.797" rx="74.896" ry="56.07"/>
		<path fill="#B4BDB3" stroke="#D40000" stroke-width="0.7219" d="M1138.868,226.623c-31.732,8.09-31.291,22.837-42.496,35.173
			h189.109c-4.379-12.617-1.326-25.674-43.559-36.054"/>
		<path fill="#F1FA63" stroke="#F1FA63" stroke-width="15.122" stroke-linecap="round" stroke-linejoin="round" d="M1088.241,91.899
			c-4.714-7.016-1.449-16.369,8.563-24.535c10.013-8.166,25.253-13.905,39.98-15.054c14.726-1.15,26.703,2.464,31.417,9.48
			l-39.98,15.055L1088.241,91.899z"/>
		<path fill="#F1FA63" stroke="#F1FA63" stroke-width="15.122" stroke-linecap="round" stroke-linejoin="round" d="M1302.712,91.899
			c4.713-7.016,1.449-16.369-8.563-24.535c-10.013-8.166-25.253-13.905-39.98-15.054c-14.726-1.15-26.703,2.464-31.418,9.48
			l39.98,15.055L1302.712,91.899z"/>
		<path fill="#FFCC00" stroke="#FFCC00" stroke-width="10" stroke-linecap="round" stroke-linejoin="round" d="M1203.86,61.311
			c0,1.389-0.712,2.671-1.868,3.365c-1.156,0.695-2.582,0.695-3.738,0c-1.156-0.694-1.869-1.976-1.869-3.365h3.738H1203.86z"/>
		<ellipse cx="1192.113" cy="160.677" rx="11.522" ry="8.626"/>
		<path d="M1192.025,120.903c-3.479,0.041-5.349,2.448-5.294,5.052c1.975,9.82-1.246,19.638-1.246,29.458
			c-0.05,2.628,3.134,5.045,6.644,5.045c3.511,0,6.694-2.418,6.644-5.045c-1.856-9.819-3.062-19.637,0-29.458
			C1198.829,123.299,1195.573,120.862,1192.025,120.903L1192.025,120.903z"/>
		<path d="M1249.969,158.132c-3.89-2.016-33.79-0.101-55.293,0.544c-1.547,0.02-2.932,1.224-2.908,2.526
			c0.024,1.302,1.453,1.692,3,1.671c20.008,0.822,39.599,1.451,55.247,0.233c1.558,0.005,2.978-1.195,2.965-2.507
			C1252.969,159.287,1251.527,158.106,1249.969,158.132L1249.969,158.132z"/>
		<path fill="#808080" stroke="#808080" stroke-width="2.1656" stroke-linecap="round" d="M1192.025,224.383v-13.99"/>
		<path fill="#808080" stroke="#808080" stroke-width="2.1656" stroke-linecap="round" d="M1276.524,161.109h-18.688"/>
		<path fill="#808080" stroke="#808080" stroke-width="2.1656" stroke-linecap="round" d="M1107.503,161.109h18.687"/>
		<path fill="#808080" stroke="#808080" stroke-width="2.1656" stroke-linecap="round" d="M1234.275,106.318l-9.344,12.116"/>
		<path fill="#808080" stroke="#808080" stroke-width="2.1656" stroke-linecap="round" d="M1149.775,215.907l9.344-12.116"/>
		<path fill="#808080" stroke="#808080" stroke-width="2.1656" stroke-linecap="round" d="M1265.202,192.736l-16.184-6.994"/>
		<path fill="#808080" stroke="#808080" stroke-width="2.1656" stroke-linecap="round" d="M1118.848,129.476l16.184,6.996"/>
		<path fill="#808080" stroke="#808080" stroke-width="2.1656" stroke-linecap="round" d="M1265.202,129.476l-16.184,6.996"/>
		<path fill="#808080" stroke="#808080" stroke-width="2.1656" stroke-linecap="round" d="M1118.848,192.736l16.184-6.994"/>
		<path fill="#808080" stroke="#808080" stroke-width="2.1656" stroke-linecap="round" d="M1234.275,215.907l-9.344-12.116"/>
		<path fill="#808080" stroke="#808080" stroke-width="2.1656" stroke-linecap="round" d="M1149.775,106.318l9.344,12.116"/>
		<path fill="#EA8380" d="M1189.171,81.466c-57.034,0-101.107,33.874-101.107,76.572c0,42.698,52.297,80.091,109.329,80.091
			c57.034,0,96.41-44.427,96.41-87.125c0-42.698-47.597-69.537-104.632-69.537V81.466z M1195.045,100.058
			c48.057,0,77.448,22.005,77.448,57.981c0,35.978-38.789,63.258-86.846,63.258s-72.752-27.28-72.752-63.258
			c0-35.978,34.09-57.981,82.147-57.981H1195.045z"/>
		<path fill="none" stroke="#000000" stroke-width="2.1656" stroke-linecap="round" stroke-linejoin="round" d="M1071.72,62.19
			c3.044-7.162,11.972-4.78,17.619-7.034"/>
		<path fill="none" stroke="#000000" stroke-width="2.1656" stroke-linecap="round" stroke-linejoin="round" d="M1057.614,57.794
			c6.146-12.83,17.251-12.404,34.064-13.19"/>
		<path fill="none" stroke="#000000" stroke-width="2.1656" stroke-linecap="round" stroke-linejoin="round" d="M1037.662,47.24
			c8.078-19.146,23.5-19.016,45.809-21.103"/>
		<path fill="none" stroke="#000000" stroke-width="2.1656" stroke-linecap="round" stroke-linejoin="round" d="M1301.929,52.517
			c5.164-5.481,5.818,8.712,9.397,14.07"/>
		<path fill="none" stroke="#000000" stroke-width="2.1656" stroke-linecap="round" stroke-linejoin="round" d="M1303.102,36.689
			c19.454,4.113,21.337,9.372,25.84,22.863"/>
		<path fill="none" stroke="#000000" stroke-width="2.1656" stroke-linecap="round" stroke-linejoin="round" d="M1306.624,12.067
			c26.095,6.65,39.212,18.308,46.99,36.932"/>
	</g>
</g>
</svg>
