<?xml version="1.0" encoding="utf-8"?>
<!-- Generator: Adobe Illustrator 16.0.0, SVG Export Plug-In . SVG Version: 6.00 Build 0)  -->
<!DOCTYPE svg PUBLIC "-//W3C//DTD SVG 1.1//EN" "http://www.w3.org/Graphics/SVG/1.1/DTD/svg11.dtd">
<svg version="1.1" id="Calque_1" xmlns="http://www.w3.org/2000/svg" xmlns:xlink="http://www.w3.org/1999/xlink" x="0px" y="0px"
	 width="1920px" height="480px" viewBox="0 0 1920 480" enable-background="new 0 0 1920 480" xml:space="preserve">
<g>
	<path fill="#A0D6C6" d="M917.868,54.823c0,14.81,15.236,26.83,34.009,26.83s34.01-12.021,34.01-26.83
		c0-14.811-15.236-26.83-34.01-26.83S917.868,40.012,917.868,54.823z"/>
	<g>
		<path fill="none" stroke="#F953D2" stroke-width="2.5" d="M1030.882,101.085c-21.95,33.984-69.952,14.547-93.13-15.237
			c-44.763-15.816-92.318-2.875-90.246,38.397"/>
		<path fill="none" stroke="#F953D2" stroke-width="2.5" d="M975.805,210.748c-3.943-14.841,0.438-38.549-1.006-47.161
			c-11.404,1.555-34.494,1.118-65.26,9.719c-20.789,21.681-46.935,41.733-75.009,41.526"/>
	</g>
	<g>
		<path fill="#A6EF18" d="M1023.52,91.272c0,6.804,7.16,12.326,15.982,12.326c8.824,0,15.984-5.521,15.984-12.326
			c0-6.804-7.16-12.324-15.984-12.324C1030.68,78.948,1023.52,84.469,1023.52,91.272z"/>
		<path fill="#A6EF18" d="M971.043,210.889c1.926,7.297,15.524,11.083,30.355,8.452c14.831-2.632,25.304-10.69,23.377-17.988
			c-1.924-7.297-15.523-11.083-30.355-8.451C979.591,195.533,969.116,203.592,971.043,210.889z"/>
		<path fill="#A6EF18" d="M837.319,207.561c-6.348-3.543-16.861,1.253-23.469,10.706c-6.608,9.452-6.82,19.999-0.473,23.541
			c6.347,3.544,16.861-1.252,23.468-10.705C843.454,221.65,843.666,211.103,837.319,207.561z"/>
		<path fill="#A6EF18" d="M834.327,127.793c0,7.115,7.638,12.886,17.049,12.886s17.049-5.771,17.049-12.886
			c0-7.111-7.638-12.884-17.049-12.884S834.327,120.682,834.327,127.793z"/>
		<path fill="#A0D6C6" d="M890.311,124.13c-5.749,24.454,3.121,46.282,19.799,48.72c16.678,2.439,34.879-15.429,40.628-39.885
			c5.748-24.454-3.122-46.282-19.799-48.72C914.26,81.806,896.059,99.675,890.311,124.13z"/>
	</g>
</g>
</svg>
