<?xml version="1.0" encoding="utf-8"?>
<!-- Generator: Adobe Illustrator 16.0.0, SVG Export Plug-In . SVG Version: 6.00 Build 0)  -->
<!DOCTYPE svg PUBLIC "-//W3C//DTD SVG 1.1//EN" "http://www.w3.org/Graphics/SVG/1.1/DTD/svg11.dtd">
<svg version="1.1" id="Calque_1" xmlns="http://www.w3.org/2000/svg" xmlns:xlink="http://www.w3.org/1999/xlink" x="0px" y="0px"
	 width="48.734px" height="39.982px" viewBox="808.752 27.993 48.734 39.982" enable-background="new 808.752 27.993 48.734 39.982"
	 xml:space="preserve">
<g>
	<path fill="#A0D6C6" d="M830.304,32.983c0,2.754,3.009,4.99,6.717,4.99s6.718-2.235,6.718-4.99s-3.01-4.99-6.718-4.99
		S830.304,30.229,830.304,32.983z"/>
	<g>
		<path fill="none" stroke="#F953D2" stroke-width="2.5" d="M852.626,41.587c-4.335,6.32-13.817,2.705-18.395-2.834
			c-8.841-2.941-18.234-0.535-17.825,7.141"/>
		<path fill="none" stroke="#F953D2" stroke-width="2.5" d="M841.748,61.982c-0.779-2.76,0.086-7.169-0.199-8.771
			c-2.253,0.289-6.813,0.208-12.89,1.807c-4.106,4.032-9.271,7.762-14.815,7.723"/>
	</g>
	<g>
		<path fill="#A6EF18" d="M851.172,39.762c0,1.266,1.414,2.292,3.157,2.292c1.743,0,3.157-1.027,3.157-2.292
			s-1.414-2.292-3.157-2.292C852.586,37.47,851.172,38.497,851.172,39.762z"/>
		<path fill="#A6EF18" d="M840.807,62.008c0.38,1.357,3.066,2.061,5.996,1.572c2.93-0.489,4.998-1.988,4.618-3.345
			c-0.38-1.357-3.066-2.062-5.996-1.572C842.496,59.152,840.427,60.651,840.807,62.008z"/>
		<path fill="#A6EF18" d="M814.395,61.389c-1.254-0.659-3.331,0.233-4.636,1.991s-1.347,3.719-0.093,4.378
			c1.253,0.659,3.331-0.232,4.635-1.991C815.606,64.01,815.648,62.048,814.395,61.389z"/>
		<path fill="#A6EF18" d="M813.804,46.554c0,1.323,1.508,2.396,3.367,2.396s3.368-1.073,3.368-2.396
			c0-1.322-1.509-2.396-3.368-2.396S813.804,45.232,813.804,46.554z"/>
		<path fill="#A0D6C6" d="M824.861,45.873c-1.136,4.548,0.616,8.607,3.911,9.061s6.889-2.87,8.025-7.418
			c1.135-4.548-0.617-8.607-3.911-9.061C829.592,38.001,825.997,41.324,824.861,45.873z"/>
	</g>
</g>
</svg>
