<?xml version="1.0" encoding="utf-8"?>
<!-- Generator: Adobe Illustrator 16.0.0, SVG Export Plug-In . SVG Version: 6.00 Build 0)  -->
<!DOCTYPE svg PUBLIC "-//W3C//DTD SVG 1.1//EN" "http://www.w3.org/Graphics/SVG/1.1/DTD/svg11.dtd">
<svg version="1.1" id="Calque_1" xmlns="http://www.w3.org/2000/svg" xmlns:xlink="http://www.w3.org/1999/xlink" x="0px" y="0px"
	 width="84.716px" height="69.627px" viewBox="707.632 32.076 84.716 69.627" enable-background="new 707.632 32.076 84.716 69.627"
	 xml:space="preserve">
<g>
	<path fill="#F1FA63" d="M745.097,40.766c0,4.796,5.231,8.689,11.677,8.689s11.677-3.893,11.677-8.689
		c0-4.797-5.231-8.689-11.677-8.689S745.097,35.969,745.097,40.766z"/>
	<g>
		<path fill="none" stroke="#EA8380" stroke-width="2.5" d="M783.901,55.749c-7.537,11.006-24.018,4.711-31.977-4.935
			c-15.369-5.123-31.697-0.931-30.986,12.436"/>
		<path fill="none" stroke="#EA8380" stroke-width="2.5" d="M764.99,91.266c-1.354-4.807,0.15-12.486-0.346-15.274
			c-3.916,0.504-11.843,0.362-22.406,3.147c-7.138,7.022-16.116,13.516-25.755,13.449"/>
	</g>
	<g>
		<path fill="#F1FA63" d="M781.373,52.571c0,2.204,2.458,3.992,5.488,3.992s5.488-1.788,5.488-3.992s-2.458-3.992-5.488-3.992
			S781.373,50.367,781.373,52.571z"/>
		<path fill="#F1FA63" d="M763.355,91.312c0.661,2.364,5.331,3.59,10.423,2.737c5.092-0.852,8.688-3.462,8.027-5.826
			s-5.331-3.589-10.423-2.737C766.29,86.339,762.694,88.948,763.355,91.312z"/>
		<path fill="#F1FA63" d="M717.441,90.234c-2.179-1.147-5.789,0.406-8.058,3.467s-2.342,6.478-0.163,7.625
			c2.179,1.147,5.79-0.406,8.058-3.467C719.547,94.797,719.62,91.382,717.441,90.234z"/>
		<path fill="#F1FA63" d="M716.414,64.4c0,2.304,2.623,4.173,5.854,4.173c3.231,0,5.854-1.87,5.854-4.173s-2.623-4.173-5.854-4.173
			C719.036,60.226,716.414,62.096,716.414,64.4z"/>
		<path fill="#F1FA63" d="M735.636,63.213c-1.974,7.92,1.071,14.99,6.798,15.779c5.726,0.79,11.976-4.997,13.949-12.917
			s-1.071-14.99-6.798-15.78C743.859,49.505,737.609,55.292,735.636,63.213L735.636,63.213z"/>
	</g>
</g>
</svg>
