<?xml version="1.0" standalone="no"?>
<!DOCTYPE svg PUBLIC "-//W3C//DTD SVG 20010904//EN"
 "http://www.w3.org/TR/2001/REC-SVG-20010904/DTD/svg10.dtd">
<svg version="1.0" xmlns="http://www.w3.org/2000/svg"
 width="650.000000pt" height="403.000000pt" viewBox="0 0 650.000000 403.000000"
 preserveAspectRatio="xMidYMid meet">

<g transform="translate(0.000000,403.000000) scale(0.100000,-0.100000)"
fill="#000000" stroke="none">
<path d="M1316 4001 c-22 -24 -33 -115 -16 -136 15 -18 7 -85 -14 -118 -17
-28 -46 -184 -40 -217 3 -14 -1 -56 -8 -95 -13 -65 -15 -70 -38 -68 -14 1 -59
-2 -100 -8 -280 -35 -475 -315 -405 -583 39 -148 126 -256 261 -322 77 -38 79
-39 193 -39 79 0 120 -4 129 -12 15 -15 61 -17 81 -4 8 5 12 18 8 30 -4 17 3
25 36 42 55 28 146 122 179 185 139 259 16 582 -259 680 -38 13 -52 23 -49 34
3 8 10 40 16 71 6 31 19 72 29 92 l18 35 296 -338 295 -338 -14 -41 c-12 -36
-12 -46 0 -75 18 -43 51 -66 97 -66 40 0 85 29 99 64 9 20 9 21 9 1 1 -11 17
-54 36 -94 39 -81 136 -186 193 -210 25 -11 31 -18 26 -33 -3 -10 0 -25 6 -33
16 -19 69 -19 90 0 14 13 19 13 44 0 32 -17 82 -20 91 -5 3 6 17 10 30 10 13
0 27 -4 30 -10 15 -24 95 -1 95 28 0 4 25 20 55 36 170 88 275 298 247 489
-53 354 -464 530 -753 322 l-52 -37 -43 44 -43 43 33 130 c24 96 37 129 47
126 8 -2 33 -4 57 -5 37 -1 48 4 73 31 49 55 52 127 5 139 -26 6 -309 -31
-343 -46 -24 -10 -31 -44 -12 -56 6 -3 43 -15 81 -25 38 -9 71 -19 74 -21 3
-3 -55 -237 -61 -246 -6 -7 -783 293 -779 300 3 5 7 48 8 95 2 74 6 88 24 102
13 10 26 36 33 69 9 45 8 57 -5 77 -20 30 -65 33 -90 6z m1054 -316 c0 -16
-43 -65 -57 -65 -19 1 -177 49 -163 50 8 1 51 7 95 15 111 18 125 18 125 0z
m-621 -235 c311 -116 361 -138 360 -155 0 -11 -15 -72 -32 -135 l-32 -115 -65
-7 c-36 -3 -77 -8 -91 -10 -23 -3 -49 23 -214 212 -103 118 -215 246 -249 284
-34 38 -56 67 -50 65 7 -2 174 -65 373 -139z m-599 -315 c0 -109 -3 -145 -12
-145 -12 0 -118 234 -118 259 0 10 61 28 103 30 l27 1 0 -145z m54 118 c-3
-16 -11 -59 -19 -98 l-13 -70 -1 98 c-1 90 0 97 19 97 16 0 19 -5 14 -27z
m986 -101 c-50 -77 -70 -133 -77 -214 l-6 -69 -22 21 -23 21 45 172 c24 95 46
179 49 187 4 11 14 5 39 -23 l33 -38 -38 -57z m390 -17 c0 -117 -3 -145 -14
-145 -11 0 -78 140 -122 254 -4 11 6 17 38 24 24 6 55 10 71 11 l27 1 0 -145z
m112 132 l36 -12 -52 -130 c-70 -175 -81 -174 -82 13 l-1 142 31 -1 c17 0 48
-6 68 -12z m-1397 -27 c-13 -40 -74 -184 -75 -175 0 10 29 171 35 192 2 6 13
9 25 6 14 -4 19 -11 15 -23z m-238 -127 c37 -87 50 -130 43 -137 -7 -7 -41 21
-110 89 -55 55 -100 103 -100 107 0 10 103 78 109 72 2 -2 28 -61 58 -131z
m358 75 c19 -18 18 -19 -82 -120 -131 -131 -141 -125 -72 42 28 69 53 128 56
133 5 9 67 -25 98 -55z m1069 -78 c33 -77 50 -129 44 -135 -12 -13 -213 189
-203 205 11 18 99 72 103 63 1 -4 27 -64 56 -133z m356 81 l25 -20 -100 -101
c-94 -95 -125 -116 -125 -87 0 6 23 69 52 139 l51 127 36 -19 c20 -11 47 -28
61 -39z m-1767 -246 c-3 -9 -41 2 -131 38 -70 27 -131 54 -136 58 -5 5 7 32
28 65 l38 57 103 -103 c57 -57 101 -109 98 -115z m424 148 c14 -24 24 -45 22
-47 -24 -18 -255 -106 -267 -101 -12 4 9 31 88 110 115 115 112 115 157 38z
m1422 8 c17 -24 29 -47 26 -51 -9 -14 -255 -111 -266 -105 -7 5 27 46 92 111
57 57 106 100 110 96 3 -4 20 -27 38 -51z m-527 -58 c54 -54 98 -101 98 -104
0 -5 -258 95 -266 104 -5 4 56 97 63 97 4 0 52 -44 105 -97z m-1334 -128 c2
-2 1 -8 -3 -14 -4 -7 -58 -11 -146 -11 l-139 0 0 33 c0 17 5 48 10 69 l10 36
132 -54 c73 -30 134 -57 136 -59z m489 59 c21 -91 31 -84 -132 -84 -136 0
-150 3 -143 28 3 9 240 111 253 108 6 -2 15 -25 22 -52z m1421 17 c7 -21 12
-52 12 -70 l0 -31 -146 0 c-188 0 -190 11 -14 86 69 29 128 53 131 54 3 0 11
-17 17 -39z m-612 -20 c169 -70 166 -81 -20 -81 -163 0 -153 -6 -135 80 6 28
16 50 23 50 8 0 67 -22 132 -49z m-330 -3 c-3 -13 -6 -29 -6 -37 0 -21 -9 -8
-20 28 -8 28 -6 31 12 31 16 0 19 -5 14 -22z m-76 -2 c0 -8 3 -23 7 -33 5 -14
1 -13 -20 6 -32 29 -34 41 -7 41 11 0 20 -6 20 -14z m-819 -40 c-29 -31 -24
-66 11 -85 24 -14 28 -14 47 3 23 21 27 47 10 78 -9 16 -8 19 3 16 22 -7 33
-54 20 -82 -22 -48 -101 -47 -121 2 -18 43 3 88 43 91 5 1 -1 -10 -13 -23z
m1508 -3 c23 -28 21 -54 -7 -85 -17 -20 -77 -24 -88 -7 -5 9 1 10 21 5 35 -9
75 16 75 48 0 33 -33 60 -65 52 -14 -4 -25 -2 -25 4 0 5 15 10 34 10 25 0 40
-7 55 -27z m-104 -33 c3 -5 1 -10 -4 -10 -6 0 -11 5 -11 10 0 6 2 10 4 10 3 0
8 -4 11 -10z m-1480 -28 c0 -10 -240 -122 -261 -122 -7 0 -24 77 -24 108 l0
33 143 -3 c108 -2 142 -6 142 -16z m505 10 c0 -31 -25 -122 -33 -122 -5 0 -67
23 -137 52 -169 68 -166 78 26 78 79 0 144 -4 144 -8z m835 -2 c-108 -11 -205
-11 -205 0 0 6 51 9 138 8 119 -1 128 -2 67 -8z m585 -24 c0 -36 -18 -96 -28
-96 -4 0 -64 23 -134 51 -172 69 -170 79 17 79 l145 0 0 -34z m-1907 -20 c3
-8 -37 -55 -98 -116 l-103 -103 -38 57 c-20 31 -35 58 -33 59 2 2 63 29 134
60 72 30 131 56 131 56 1 1 4 -5 7 -13z m317 -41 c63 -26 119 -50 123 -55 10
-9 -4 -40 -41 -89 l-25 -33 -102 102 c-64 64 -101 108 -98 117 3 8 11 12 17 9
6 -2 63 -26 126 -51z m1046 48 c-14 -15 -211 -91 -218 -84 -4 4 -10 21 -14 38
l-6 30 119 10 c65 6 120 11 122 11 2 1 1 -1 -3 -5z m394 -55 c41 -16 85 -34
98 -39 l23 -9 -20 -37 c-11 -21 -28 -48 -38 -61 l-18 -22 -104 104 c-106 107
-122 140 -53 110 20 -9 71 -29 112 -46z m-330 39 c0 -7 -45 -57 -99 -111 l-99
-99 -36 49 c-19 27 -36 54 -36 59 0 11 224 112 253 114 9 1 17 -5 17 -12z
m-506 -13 c3 -8 2 -12 -4 -9 -6 3 -10 10 -10 16 0 14 7 11 14 -7z m-884 -16
c-1 -7 -24 -70 -53 -139 l-52 -127 -35 19 c-19 10 -46 27 -60 38 l-25 20 100
101 c94 94 125 116 125 88z m222 -85 c54 -54 98 -101 98 -105 0 -11 -90 -70
-101 -66 -6 2 -35 60 -64 128 -75 175 -69 179 67 43z m1202 89 c2 -4 -17 -59
-43 -122 -26 -63 -50 -123 -54 -133 -6 -16 -9 -16 -34 -3 -16 8 -41 26 -58 40
l-30 25 100 100 c99 100 109 108 119 93z m230 -91 l99 -99 -29 -26 c-29 -25
-82 -52 -88 -45 -7 9 -106 252 -106 260 0 25 35 0 124 -90z m-1614 -66 c0
-120 -2 -145 -15 -145 -30 0 -116 22 -113 30 74 189 105 260 116 260 9 0 12
-36 12 -145z m103 14 l56 -130 -27 -10 c-14 -5 -45 -13 -69 -16 l-43 -6 0 147
c0 115 3 146 13 146 8 0 38 -57 70 -131z m1327 -14 c0 -140 -1 -145 -21 -145
-29 0 -109 21 -109 29 0 3 23 63 51 134 69 171 79 169 79 -18z m98 17 c29 -70
52 -130 52 -134 0 -7 -89 -28 -118 -28 -15 0 -17 16 -19 136 -2 75 0 140 3
145 15 25 34 -2 82 -119z"/>
<path d="M5347 2634 c-19 -19 23 -24 214 -24 179 0 209 2 209 15 0 13 -30 15
-208 15 -115 0 -212 -3 -215 -6z"/>
<path d="M5645 2549 c-16 -25 19 -29 216 -27 173 3 204 5 204 18 0 13 -31 15
-207 18 -143 2 -209 -1 -213 -9z"/>
<path d="M1428 2453 c-47 -11 -16 -66 35 -61 35 4 58 31 40 49 -12 12 -48 18
-75 12z"/>
<path d="M1553 2445 c-29 -22 -5 -50 42 -50 69 0 74 56 6 61 -17 1 -38 -4 -48
-11z"/>
<path d="M1695 2446 c-31 -23 -8 -51 40 -51 42 0 69 25 49 45 -19 19 -68 22
-89 6z"/>
<path d="M1832 2444 c-13 -10 -15 -17 -6 -31 18 -30 85 -30 97 0 13 36 -54 58
-91 31z"/>
<path d="M1972 2448 c-34 -34 6 -68 63 -54 29 7 35 50 9 60 -25 10 -59 7 -72
-6z"/>
<path d="M2113 2453 c-7 -2 -13 -15 -13 -29 0 -27 33 -40 75 -30 27 7 33 34
13 54 -12 12 -52 15 -75 5z"/>
<path d="M2246 2445 c-19 -20 -10 -44 19 -51 33 -8 56 -2 69 19 22 36 -55 64
-88 32z"/>
<path d="M2813 2449 c-32 -12 -30 -47 2 -55 42 -11 75 3 75 31 0 14 -6 25 -12
26 -7 0 -20 2 -28 3 -8 2 -25 0 -37 -5z"/>
<path d="M2948 2453 c-29 -7 -23 -51 7 -59 38 -9 75 3 75 26 0 31 -36 45 -82
33z"/>
<path d="M3076 2444 c-28 -28 10 -62 60 -52 25 5 41 35 27 49 -18 18 -70 20
-87 3z"/>
<path d="M3214 2446 c-30 -23 -7 -51 41 -51 48 0 71 28 41 51 -11 8 -29 14
-41 14 -12 0 -30 -6 -41 -14z"/>
<path d="M3363 2450 c-46 -19 -17 -64 38 -58 42 4 62 34 35 54 -22 16 -41 17
-73 4z"/>
<path d="M3494 2445 c-41 -30 27 -71 76 -45 11 6 20 14 20 18 -1 34 -64 51
-96 27z"/>
<path d="M3636 2448 c-25 -14 -20 -47 9 -54 42 -11 75 3 75 31 0 14 -3 26 -7
27 -28 5 -63 4 -77 -4z"/>
<path d="M3773 2453 c-7 -3 -13 -15 -13 -29 0 -27 33 -40 75 -30 26 7 35 39
14 52 -15 9 -60 13 -76 7z"/>
<path d="M3906 2445 c-19 -20 -10 -44 19 -51 33 -8 56 -2 69 19 22 36 -55 64
-88 32z"/>
<path d="M4044 2446 c-30 -23 -7 -51 41 -51 48 0 71 28 41 51 -11 8 -29 14
-41 14 -12 0 -30 -6 -41 -14z"/>
<path d="M4184 2446 c-30 -23 -7 -51 41 -51 48 0 71 28 41 51 -11 8 -29 14
-41 14 -12 0 -30 -6 -41 -14z"/>
<path d="M4324 2445 c-28 -20 -7 -49 39 -53 38 -3 63 21 47 47 -11 19 -64 23
-86 6z"/>
<path d="M4464 2445 c-15 -11 -17 -17 -8 -32 18 -30 85 -30 97 0 14 36 -53 59
-89 32z"/>
<path d="M4594 2435 c-10 -26 3 -42 38 -47 42 -7 58 -1 58 23 0 35 -84 56 -96
24z"/>
<path d="M4734 2415 c-25 -18 -11 -41 31 -55 31 -10 40 -10 51 2 21 21 8 43
-31 55 -25 8 -38 8 -51 -2z"/>
<path d="M4862 2368 c-7 -7 -12 -18 -12 -25 0 -18 64 -48 84 -40 26 10 19 45
-14 62 -35 18 -42 19 -58 3z"/>
<path d="M4982 2298 c-19 -19 -14 -32 18 -56 37 -28 57 -28 65 -1 5 16 0 27
-21 45 -33 27 -45 29 -62 12z"/>
<path d="M5087 2213 c-14 -14 -6 -50 16 -71 29 -27 43 -28 57 -3 17 32 -49 99
-73 74z"/>
<path d="M5166 2094 c-13 -12 -13 -19 -1 -47 18 -44 42 -57 60 -33 12 15 11
23 -2 52 -19 39 -37 48 -57 28z"/>
<path d="M5215 1966 c-26 -19 -9 -90 23 -94 27 -4 36 16 28 62 -7 39 -26 50
-51 32z"/>
<path d="M5224 1832 c-20 -13 -26 -78 -9 -92 23 -19 43 -5 51 35 8 46 -13 76
-42 57z"/>
<path d="M5170 1671 c-27 -66 20 -95 52 -32 20 40 14 61 -17 61 -16 0 -26 -9
-35 -29z"/>
<path d="M5105 1563 c-28 -31 -30 -66 -3 -71 18 -4 67 44 68 65 0 7 -9 17 -20
23 -15 8 -24 5 -45 -17z"/>
<path d="M5002 1463 c-37 -31 -36 -63 2 -63 33 0 73 46 60 67 -16 26 -27 25
-62 -4z"/>
<path d="M4895 1398 c-69 -37 -42 -89 29 -57 30 14 40 37 25 55 -14 17 -27 17
-54 2z"/>
<path d="M4739 1331 c-22 -18 -23 -21 -8 -36 30 -31 110 3 95 40 -8 21 -59 19
-87 -4z"/>
<path d="M4608 1309 c-41 -24 -10 -61 42 -50 29 6 35 11 35 31 0 21 -5 25 -30
27 -16 2 -38 -2 -47 -8z"/>
<path d="M1830 1295 c-22 -27 -4 -45 45 -45 32 0 47 5 51 15 9 24 -15 45 -51
45 -18 0 -38 -7 -45 -15z"/>
<path d="M1964 1295 c-12 -29 4 -45 44 -45 47 0 72 21 52 45 -7 9 -29 15 -52
15 -25 0 -41 -5 -44 -15z"/>
<path d="M2104 1296 c-13 -33 4 -47 48 -44 38 3 43 6 43 28 0 22 -5 25 -43 28
-31 2 -44 -1 -48 -12z"/>
<path d="M2244 1296 c-13 -33 4 -47 48 -44 38 3 43 6 43 28 0 22 -5 25 -43 28
-31 2 -44 -1 -48 -12z"/>
<path d="M2384 1296 c-13 -33 4 -47 48 -44 38 3 43 6 43 28 0 22 -5 25 -43 28
-31 2 -44 -1 -48 -12z"/>
<path d="M2520 1295 c-21 -25 5 -47 54 -43 36 3 41 6 41 28 0 22 -5 25 -41 28
-27 2 -45 -2 -54 -13z"/>
<path d="M2656 1295 c-11 -30 5 -45 49 -45 44 0 60 15 49 45 -4 10 -20 15 -49
15 -29 0 -45 -5 -49 -15z"/>
<path d="M2794 1295 c-12 -29 4 -45 44 -45 23 0 45 6 52 15 20 24 -5 45 -52
45 -25 0 -41 -5 -44 -15z"/>
<path d="M2934 1295 c-12 -29 4 -45 44 -45 46 0 65 15 51 42 -12 23 -87 26
-95 3z"/>
<path d="M3074 1296 c-13 -33 4 -47 48 -44 38 3 43 6 43 28 0 22 -5 25 -43 28
-31 2 -44 -1 -48 -12z"/>
<path d="M3214 1296 c-13 -33 4 -47 48 -44 38 3 43 6 43 28 0 22 -5 25 -43 28
-31 2 -44 -1 -48 -12z"/>
<path d="M3350 1295 c-21 -25 5 -47 54 -43 36 3 41 6 41 28 0 22 -5 25 -41 28
-27 2 -45 -2 -54 -13z"/>
<path d="M3487 1295 c-13 -32 3 -46 52 -43 42 3 46 5 46 28 0 23 -4 25 -46 28
-35 2 -48 -1 -52 -13z"/>
<path d="M3624 1295 c-12 -29 4 -45 44 -45 47 0 72 21 52 45 -7 9 -29 15 -52
15 -25 0 -41 -5 -44 -15z"/>
<path d="M3764 1295 c-12 -29 4 -45 44 -45 47 0 72 21 52 45 -7 9 -29 15 -52
15 -25 0 -41 -5 -44 -15z"/>
<path d="M3904 1296 c-13 -33 4 -47 48 -44 38 3 43 6 43 28 0 22 -5 25 -43 28
-31 2 -44 -1 -48 -12z"/>
<path d="M4044 1296 c-13 -33 4 -47 48 -44 38 3 43 6 43 28 0 22 -5 25 -43 28
-31 2 -44 -1 -48 -12z"/>
<path d="M4180 1295 c-21 -25 5 -47 54 -43 36 3 41 6 41 28 0 22 -5 25 -41 28
-27 2 -45 -2 -54 -13z"/>
<path d="M4316 1294 c-11 -28 13 -45 58 -42 36 3 41 6 41 28 0 23 -4 25 -46
28 -36 2 -48 -1 -53 -14z"/>
<path d="M4454 1295 c-12 -29 4 -45 44 -45 23 0 45 6 52 15 20 24 -5 45 -52
45 -25 0 -41 -5 -44 -15z"/>
<path d="M1696 1275 c-16 -17 -12 -44 8 -46 53 -5 94 17 83 45 -8 21 -70 21
-91 1z"/>
<path d="M1588 1249 c-32 -12 -44 -38 -25 -57 12 -11 19 -11 49 1 43 18 54 33
38 52 -14 17 -24 17 -62 4z"/>
<path d="M1457 1184 c-33 -18 -34 -57 -2 -62 28 -3 80 40 72 61 -8 21 -33 21
-70 1z"/>
<path d="M1351 1104 c-34 -29 -38 -45 -16 -64 30 -25 100 45 74 76 -16 19 -23
18 -58 -12z"/>
<path d="M1253 985 c-16 -33 -16 -36 1 -53 16 -16 19 -15 42 13 33 41 32 75
-1 75 -19 0 -29 -9 -42 -35z"/>
<path d="M1210 881 c-16 -30 -12 -78 6 -85 23 -9 41 9 47 47 8 51 -31 79 -53
38z"/>
<path d="M2130 785 c0 -13 30 -15 210 -15 180 0 210 2 210 15 0 13 -30 15
-210 15 -180 0 -210 -2 -210 -15z"/>
<path d="M1207 753 c-9 -8 -9 -56 -1 -77 3 -9 17 -16 30 -16 21 0 24 5 24 34
0 19 -3 41 -6 50 -6 16 -35 22 -47 9z"/>
<path d="M2426 705 c-3 -9 0 -18 7 -21 7 -2 102 -3 212 -2 170 3 200 5 200 18
0 23 -410 28 -419 5z"/>
<path d="M1247 623 c-24 -23 26 -102 56 -90 21 8 21 29 2 67 -14 28 -43 39
-58 23z"/>
<path d="M1324 505 c-9 -22 1 -41 30 -61 51 -32 78 12 33 54 -27 25 -55 28
-63 7z"/>
<path d="M1433 413 c-4 -10 3 -24 21 -40 31 -26 49 -29 65 -9 15 18 5 41 -25
55 -35 15 -54 14 -61 -6z"/>
<path d="M1557 363 c-18 -17 -4 -42 30 -56 45 -18 63 -13 63 18 0 17 -9 26
-31 34 -37 13 -53 14 -62 4z"/>
<path d="M1692 317 c-20 -24 -3 -45 40 -52 38 -7 57 2 58 26 0 27 -80 48 -98
26z"/>
<path d="M1832 302 c-23 -15 -9 -45 23 -54 49 -13 85 10 66 41 -10 15 -72 24
-89 13z"/>
<path d="M1967 294 c-16 -16 -6 -44 17 -50 45 -11 71 -1 71 26 0 22 -5 25 -40
28 -23 2 -44 0 -48 -4z"/>
<path d="M2102 273 c3 -30 29 -40 75 -28 18 4 23 11 21 28 -3 19 -10 22 -51
25 -48 3 -48 3 -45 -25z"/>
<path d="M2236 284 c-9 -25 12 -44 49 -44 36 0 60 21 51 45 -8 22 -92 21 -100
-1z"/>
<path d="M2374 285 c-9 -24 15 -45 51 -45 36 0 60 21 51 45 -4 10 -19 15 -51
15 -32 0 -47 -5 -51 -15z"/>
<path d="M2514 285 c-9 -24 15 -45 51 -45 37 0 58 19 49 44 -8 22 -92 23 -100
1z"/>
<path d="M2657 293 c-13 -12 -7 -41 9 -47 49 -19 100 5 87 42 -5 13 -84 17
-96 5z"/>
<path d="M2797 293 c-16 -15 -6 -43 17 -49 45 -11 71 -1 74 29 3 26 1 27 -41
27 -24 0 -47 -3 -50 -7z"/>
<path d="M2930 276 c0 -29 32 -43 76 -32 19 5 25 12 22 29 -3 19 -10 22 -50
25 -45 3 -48 2 -48 -22z"/>
<path d="M3066 284 c-9 -25 12 -44 49 -44 36 0 60 21 51 45 -8 22 -92 21 -100
-1z"/>
<path d="M3204 285 c-9 -24 15 -45 51 -45 36 0 60 21 51 45 -4 10 -19 15 -51
15 -32 0 -47 -5 -51 -15z"/>
<path d="M3344 285 c-9 -24 15 -45 51 -45 37 0 58 19 49 44 -8 22 -92 23 -100
1z"/>
<path d="M3487 293 c-13 -12 -7 -41 9 -47 49 -19 100 5 87 42 -5 13 -84 17
-96 5z"/>
<path d="M3627 293 c-16 -15 -6 -43 17 -49 45 -11 71 -1 74 29 3 26 1 27 -41
27 -24 0 -47 -3 -50 -7z"/>
<path d="M3764 286 c-11 -29 4 -46 38 -46 42 0 61 12 56 36 -4 25 -85 33 -94
10z"/>
<path d="M3896 284 c-9 -25 12 -44 49 -44 36 0 60 21 51 45 -8 22 -92 21 -100
-1z"/>
<path d="M4036 284 c-9 -25 12 -44 49 -44 36 0 60 21 51 45 -8 22 -92 21 -100
-1z"/>
<path d="M4174 285 c-9 -24 15 -45 51 -45 36 0 60 21 51 45 -4 10 -19 15 -51
15 -32 0 -47 -5 -51 -15z"/>
<path d="M4314 285 c-10 -24 15 -45 52 -45 34 0 56 22 47 48 -7 18 -92 16 -99
-3z"/>
<path d="M4457 293 c-16 -15 -6 -43 17 -49 45 -11 71 -1 74 29 3 26 1 27 -41
27 -24 0 -47 -3 -50 -7z"/>
<path d="M4592 273 c3 -30 29 -40 75 -28 18 4 23 11 21 28 -3 19 -10 22 -51
25 -48 3 -48 3 -45 -25z"/>
<path d="M4727 288 c-9 -25 13 -48 46 -48 41 0 60 13 55 36 -2 15 -13 20 -50
22 -31 2 -48 -1 -51 -10z"/>
<path d="M4864 285 c-9 -24 15 -45 51 -45 36 0 60 21 51 45 -4 10 -19 15 -51
15 -32 0 -47 -5 -51 -15z"/>
<path d="M5004 285 c-9 -24 15 -45 51 -45 36 0 60 21 51 45 -4 10 -19 15 -51
15 -32 0 -47 -5 -51 -15z"/>
<path d="M5144 285 c-9 -24 15 -45 51 -45 37 0 58 19 49 44 -8 22 -92 23 -100
1z"/>
<path d="M5287 293 c-16 -15 -6 -43 17 -49 45 -11 71 -1 74 29 3 26 1 27 -41
27 -24 0 -47 -3 -50 -7z"/>
<path d="M5422 273 c3 -30 29 -40 75 -28 18 4 23 11 21 28 -3 19 -10 22 -51
25 -48 3 -48 3 -45 -25z"/>
<path d="M5557 288 c-9 -25 13 -48 46 -48 41 0 60 13 55 36 -2 15 -13 20 -50
22 -31 2 -48 -1 -51 -10z"/>
<path d="M5694 285 c-9 -24 15 -45 51 -45 36 0 60 21 51 45 -4 10 -19 15 -51
15 -32 0 -47 -5 -51 -15z"/>
<path d="M5834 285 c-9 -24 15 -45 51 -45 36 0 60 21 51 45 -4 10 -19 15 -51
15 -32 0 -47 -5 -51 -15z"/>
<path d="M5974 285 c-9 -24 15 -45 51 -45 37 0 58 19 49 44 -8 22 -92 23 -100
1z"/>
<path d="M6117 293 c-16 -15 -6 -43 17 -49 45 -11 71 -1 74 29 3 26 1 27 -41
27 -24 0 -47 -3 -50 -7z"/>
<path d="M6254 286 c-13 -33 4 -47 48 -44 38 3 43 6 43 28 0 22 -5 25 -43 28
-31 2 -44 -1 -48 -12z"/>
<path d="M6387 288 c-13 -38 31 -58 91 -42 25 7 30 39 6 48 -28 11 -92 6 -97
-6z"/>
<path d="M2 113 c3 -16 21 -18 208 -18 187 0 205 2 208 18 3 16 -12 17 -208
17 -196 0 -211 -1 -208 -17z"/>
<path d="M307 44 c-4 -4 -7 -13 -7 -21 0 -10 42 -13 211 -13 195 0 210 1 207
18 -3 15 -22 17 -204 20 -110 1 -203 -1 -207 -4z"/>
</g>
</svg>
