<?xml version="1.0" encoding="utf-8"?>
<!-- Generator: Adobe Illustrator 16.0.0, SVG Export Plug-In . SVG Version: 6.00 Build 0)  -->
<!DOCTYPE svg PUBLIC "-//W3C//DTD SVG 1.1//EN" "http://www.w3.org/Graphics/SVG/1.1/DTD/svg11.dtd">
<svg version="1.1" id="Layer_1" xmlns="http://www.w3.org/2000/svg" xmlns:xlink="http://www.w3.org/1999/xlink" x="0px" y="0px"
	 width="594px" height="291px" viewBox="0 0 594 291" enable-background="new 0 0 594 291" xml:space="preserve">
<g display="none">
	<g display="inline">
		<polygon fill="#FFCE00" points="150.2,86.688 150.2,157.58 570.706,160.37 572.133,21.629 191.217,19.6 191.217,82.756 		"/>
	</g>
	<g display="inline">
		<ellipse fill="#2D2609" cx="196.567" cy="157.58" rx="17.833" ry="16.487"/>
	</g>
	<g display="inline">
		<ellipse fill="#FFFFFF" cx="196.567" cy="157.58" rx="4.279" ry="4.439"/>
	</g>
	<g display="inline">
		<ellipse fill="#2D2609" cx="527.016" cy="157.58" rx="17.833" ry="16.487"/>
	</g>
	<g display="inline">
		<ellipse fill="#FFFFFF" cx="527.016" cy="157.58" rx="4.278" ry="4.439"/>
	</g>
	<g display="inline">
		<polygon fill="#00C3F7" points="191.217,30.253 572.133,33.804 572.133,83.897 191.217,83.01 		"/>
	</g>
	<g display="inline">
		<polygon fill="#FFCE00" points="222.57,22.494 227.919,22.544 226.549,97.359 221.199,97.31 		"/>
	</g>
	<g display="inline">
		<rect x="417.162" y="22.517" fill="#FFCE00" width="5.35" height="74.824"/>
	</g>
	<g display="inline">
		<polygon fill="#FFCE00" points="524.302,22.494 529.653,22.544 528.281,97.359 522.932,97.31 		"/>
	</g>
	<g display="inline">
		<path fill="#D1A002" d="M558.936,161.639l-3.566-0.508c0-0.127,3.389-13.442-6.242-22.067c-5.35-4.692-13.731-7.229-24.787-7.482
			c-8.204-0.253-14.623,1.522-19.261,5.073c-10.878,8.117-8.917,23.462-8.917,23.716l-3.566,0.253
			c-0.178-0.634-2.139-16.613,9.809-25.617c5.35-4.059,12.84-6.088,22.113-5.834c12.306,0.254,21.578,3.17,27.464,8.497
			C562.682,147.181,558.936,161.004,558.936,161.639z"/>
	</g>
	<g display="inline">
		<path fill="#D1A002" d="M231.162,158.721l-3.566-0.507c0-0.127,3.209-11.287-5.35-19.023c-5.35-4.819-13.909-7.355-25.858-7.609
			c-8.56-0.253-15.158,1.522-19.974,5.073c-10.164,7.736-8.38,21.56-8.203,21.687l-3.566,0.254c0-0.634-1.961-15.092,9.273-23.588
			c5.528-4.186,13.018-6.214,22.648-5.961c13.018,0.254,22.469,3.17,28.533,8.624C234.729,146.42,231.342,158.214,231.162,158.721z"
			/>
	</g>
	<g display="inline">
		<polygon fill="#FFCE00" points="324.573,22.496 329.922,22.545 328.553,97.361 323.203,97.312 		"/>
	</g>
	<g display="inline">
		<polygon fill="#2D2609" points="150.2,108.374 570.706,108.754 570.706,119.661 150.2,118.393 		"/>
	</g>
	<g display="inline">
		<polygon fill="#2D2609" points="150.2,94.424 570.706,94.804 570.706,105.71 150.2,104.442 		"/>
	</g>
</g>
<g display="none">
	<path display="inline" fill="#FFFFFF" d="M428.6,118.2c0,0,10.5,9.6,1.4,12.8c-9.101,3.2-9.101-8.2-9.101-8.2s-17.8,11.8-18.7,0.5
		c-0.899-11.4,11.8-10.5,11.8-10.5s-17.8-13.7-4.6-18.7s12.3,13.2,12.3,13.2s10.101-17.2,18.101-5.2S436,119.7,428.6,118.2z"/>
</g>
<g display="none">
	<path display="inline" fill="#FFFFFF" d="M52-22.9c0,3-0.7,5.5-2,7.5c-1.4,2-3.101,3.6-5.2,4.8c-2.1,1.2-4.5,2.1-7,2.6
		s-5,0.8-7.4,0.8c-1.399,0-3,0-4.699-0.1c-1.7-0.1-3.4-0.2-5.2-0.4C18.7-7.8,17-8,15.2-8.4c-1.801-0.3-3.4-0.8-5-1.4l1.899-17
		c1.3,0.4,2.601,0.8,3.8,1.2c1.301,0.4,2.601,0.8,3.801,1.2c1.3,0.4,2.5,0.7,3.6,0.9s2,0.4,2.6,0.4c0.301,0,0.7,0,1.2,0
		s0.9-0.1,1.4-0.2c0.5-0.1,0.8-0.3,1.2-0.5c0.3-0.2,0.5-0.5,0.5-1c0-1-0.9-2-2.601-3C26.7-28.4,25.7-29,24.5-29.6s-2.4-1.3-3.601-2
		C19.7-32.3,18.4-33.1,17.2-34C16-34.9,14.9-36,13.9-37.2c-1-1.2-1.699-2.6-2.399-4.1c-0.601-1.5-0.9-3.3-0.9-5.4
		c0-3.3,0.601-6,1.9-8.2c1.3-2.2,3-4,5-5.4c2.1-1.4,4.5-2.3,7.1-2.9c2.7-0.6,5.4-0.9,8.2-0.9c3,0,6.2,0.3,9.4,0.9
		c3.199,0.6,6.399,1.6,9.5,3l-2.7,16c-2.7-1.2-5.101-2.1-7.4-2.8s-4.5-1.1-6.7-1.1c-0.399,0-0.899,0-1.399,0S32.4-48,31.9-47.9
		S31-47.6,30.6-47.3c-0.3,0.3-0.5,0.7-0.5,1.2c0,0.4,0.3,0.8,0.8,1.1C31.5-44.7,32.2-44.3,33-43.8c1.1,0.6,2.3,1.2,3.6,1.8
		s2.7,1.4,4,2.2c1.4,0.9,2.8,1.8,4.101,2.9c1.399,1.1,2.6,2.3,3.6,3.6c1.1,1.4,1.9,2.9,2.6,4.6C51.7-26.8,52-25,52-22.9z"/>
	<path display="inline" fill="#FFFFFF" d="M102.2-13c-1,0.7-2.2,1.4-3.4,2c-1.3,0.7-2.6,1.3-4,1.8s-2.8,1-4.2,1.3
		C89.2-7.6,87.9-7.4,86.7-7.4C82-7.4,77.9-8,74.2-9.3c-3.7-1.3-6.7-3.2-9.301-5.7c-2.5-2.5-4.5-5.6-5.8-9.3c-1.3-3.7-2-7.9-2-12.7
		c0-3.8,0.7-7.4,2.2-10.7c1.4-3.3,3.4-6.1,5.9-8.5c2.5-2.4,5.399-4.3,8.8-5.6c3.399-1.4,7-2,10.8-2c2.7,0,5.4,0.3,8.2,0.8
		c2.7,0.5,5.399,1.1,8.2,1.9c-0.101,1.1-0.301,2.4-0.5,4c-0.2,1.6-0.5,3.2-0.9,4.8c-0.3,1.7-0.7,3.2-1.2,4.7s-1,2.7-1.6,3.7
		c-0.601-0.2-1.2-0.5-2-0.9c-0.7-0.4-1.5-0.7-2.3-1.1C91.9-46.2,91-46.5,90.1-46.8c-0.899-0.2-1.8-0.4-2.7-0.4
		c-1.399,0-2.8,0.3-4.1,0.8c-1.3,0.6-2.4,1.3-3.4,2.2c-1,0.9-1.699,2-2.3,3.2C77-39.7,76.7-38.5,76.7-37.1c0,3.5,0.8,6.3,2.5,8.4
		c1.699,2.1,4,3.2,6.899,3.2c1.7,0,3.3-0.3,5-1c1.7-0.6,3.2-1.4,4.601-2.2L102.2-13z"/>
	<path display="inline" fill="#FFFFFF" d="M155-63.8v4.4c0,1.3,0,2.7,0,4.2s-0.101,3-0.2,4.4c-0.2,3.2-0.3,6.6-0.4,10.2
		c-0.1,3.6-0.1,7.2-0.199,11c0,3.7-0.101,7.5-0.2,11.2c-0.101,3.7-0.2,7.3-0.4,10.8c-2.7-0.1-5.1-0.1-7.399-0.2
		c-2-0.1-3.9-0.1-5.801-0.1c-1.899,0-3.199-0.1-4-0.1c0-1.6,0-3.1,0.101-4.5c0.1-1.2,0.1-2.4,0.1-3.6c0-1.2,0-2.1,0-2.8
		c0-0.5,0-1.2,0-2c0-0.8-0.1-1.6-0.1-2.4c0-0.8-0.101-1.6-0.101-2.3c0-0.7,0-1.3,0-1.6h-10.6c0,0.5,0,1.3,0,2.4c0,1.1,0,2.2,0,3.4
		c0,1.1,0,2.2,0,3.3c0,1,0,1.8,0,2.3v4.6v2.9c-2.7,0.1-5.2,0.1-7.5,0.2c-2,0.1-3.9,0.1-5.8,0.1c-1.9,0-3.2,0-3.9,0
		c0-3,0-5.9-0.1-8.6c-0.101-2.4-0.101-4.8-0.101-7.2c0-2.4-0.1-4.4-0.1-6c-0.1-2.7-0.2-5.5-0.2-8.4c-0.1-2.9-0.1-5.9-0.1-8.8
		s-0.101-5.8-0.101-8.5c-0.1-2.7-0.1-5.2-0.1-7.4c1.4-0.1,2.9-0.2,4.2-0.2c1.2-0.1,2.399-0.1,3.6-0.1s2.3-0.1,3.2-0.1
		c0.7,0,1.5,0,2.3,0s1.5,0,2.2,0c0.8,0.1,1.6,0.1,2.4,0.1c-0.101,2.3-0.101,4.4-0.101,6.3v7.5c0,0.3,0,0.7,0,1.2s0,1.1,0,1.6
		c0,0.6,0,1.1,0,1.7c0,0.5,0,1,0,1.4l11.2,0.2c0-0.6,0-1.4-0.1-2.5c-0.101-1.1-0.101-2.2-0.2-3.3c-0.101-1.1-0.101-2.2-0.101-3.2
		s0-1.8,0-2.4c0-0.6,0-1.4,0-2.4s0-1.9,0-2.8v-3.3L155-63.8z"/>
	<path display="inline" fill="#FFFFFF" d="M212.7-34.2c0,4.2-0.601,8-1.801,11.3c-1.199,3.3-2.899,6.2-5.199,8.5
		c-2.301,2.3-5.101,4.1-8.5,5.4c-3.4,1.3-7.301,1.9-11.7,1.9c-4.2,0-7.7-0.8-10.7-2.4s-5.4-3.6-7.3-6.2c-1.9-2.6-3.3-5.5-4.2-8.7
		c-0.9-3.2-1.3-6.5-1.3-9.7c0-4.5,0.7-8.6,2-12.3c1.3-3.7,3.1-6.9,5.399-9.5c2.301-2.6,5.101-4.7,8.4-6.1s6.9-2.2,10.8-2.2
		c4.5,0,8.3,0.8,11.4,2.4c3.1,1.6,5.6,3.8,7.5,6.5c1.899,2.7,3.3,5.9,4.1,9.6C212.2-42.1,212.7-38.3,212.7-34.2z M195.2-37
		c0-1.4-0.2-2.8-0.601-4c-0.399-1.2-1-2.3-1.7-3.2c-0.699-0.9-1.5-1.6-2.399-2.1c-0.9-0.5-1.8-0.8-2.8-0.8c-0.801,0-1.7,0.2-2.7,0.6
		s-1.9,0.9-2.8,1.7c-0.9,0.8-1.601,1.8-2.2,3c-0.601,1.2-0.9,2.6-0.9,4.3c0,2.1,0.2,3.8,0.7,5.3c0.5,1.4,1.1,2.6,1.8,3.5
		c0.7,0.9,1.601,1.6,2.601,2c1,0.4,2,0.6,3.1,0.6c1.2,0,2.3-0.3,3.2-0.9c1-0.6,1.8-1.4,2.6-2.4c0.7-1,1.3-2.1,1.601-3.4
		C195-34.1,195.2-35.5,195.2-37z"/>
	<path display="inline" fill="#FFFFFF" d="M267.2-34.2c0,4.2-0.601,8-1.801,11.3c-1.199,3.3-2.899,6.2-5.199,8.5
		c-2.301,2.3-5.101,4.1-8.5,5.4c-3.4,1.3-7.301,1.9-11.7,1.9c-4.2,0-7.7-0.8-10.7-2.4s-5.4-3.6-7.3-6.2c-1.9-2.6-3.3-5.5-4.2-8.7
		c-0.9-3.2-1.3-6.5-1.3-9.7c0-4.5,0.7-8.6,2-12.3c1.3-3.7,3.1-6.9,5.399-9.5c2.301-2.6,5.101-4.7,8.4-6.1s6.9-2.2,10.8-2.2
		c4.5,0,8.3,0.8,11.4,2.4c3.1,1.6,5.6,3.8,7.5,6.5c1.899,2.7,3.3,5.9,4.1,9.6C266.8-42.1,267.2-38.3,267.2-34.2z M249.8-37
		c0-1.4-0.2-2.8-0.6-4c-0.4-1.2-1-2.3-1.7-3.2c-0.7-0.9-1.5-1.6-2.4-2.1c-0.899-0.5-1.8-0.8-2.8-0.8c-0.8,0-1.7,0.2-2.7,0.6
		s-1.899,0.9-2.8,1.7c-0.9,0.8-1.6,1.8-2.2,3c-0.6,1.2-0.899,2.6-0.899,4.3c0,2.1,0.199,3.8,0.699,5.3c0.5,1.4,1.101,2.6,1.801,3.5
		c0.699,0.9,1.6,1.6,2.6,2c1,0.4,2,0.6,3.1,0.6c1.2,0,2.301-0.3,3.2-0.9c1-0.6,1.8-1.4,2.601-2.4c0.699-1,1.3-2.1,1.6-3.4
		C249.6-34.1,249.8-35.5,249.8-37z"/>
	<path display="inline" fill="#FFFFFF" d="M313.6-26.9c0,3.4-0.1,6.6-0.2,9.6c-0.1,3-0.3,6.2-0.399,9.7
		c-2.101-0.2-4.301-0.4-6.4-0.5s-4.1-0.2-6.1-0.2c-1,0-2.5,0-4.7,0s-4.5,0.1-7.1,0.2C286.1-8,283.5-7.9,280.9-7.9
		c-2.6,0.1-4.8,0.1-6.6,0.2c0-9.3-0.1-18.5-0.4-27.8c-0.3-9.2-0.399-18.5-0.399-27.8l18.8-0.3c-0.3,4.9-0.5,9.6-0.7,14
		c-0.2,4.5-0.399,9.1-0.6,14c0,0.5,0,1.2,0,2c0,0.8,0,1.7,0,2.6s0,1.7,0,2.6s0,1.6,0,2.2c1.1-0.1,2.6-0.1,4.5-0.2
		c1.899-0.1,3.999-0.2,6.199-0.2c2.2-0.1,4.4-0.2,6.5-0.2C310.199-26.8,312.1-26.8,313.6-26.9z"/>
	<path display="inline" fill="#FFFFFF" d="M357.3-8c0-4.1,0-7.8-0.101-11.3c0-1.5,0-3,0-4.5s-0.1-2.9-0.1-4.2s0-2.5,0-3.5
		s0-1.8,0-2.4l-0.2-12.8c-1.9,0-3.6,0-5.3,0s-3.2,0.1-4.5,0.1s-2.4,0.1-3.2,0.1c-0.9,0-1.4,0-1.6,0v-16.9l46.6,0.1v16.6h-4.3
		c-1.3,0-2.9,0-4.601,0c-1.699,0-3.5,0-5.399-0.1c-0.101,1.4-0.101,2.7-0.101,3.9c0,1.2,0,2.3,0,3.3c0,5.2,0,10.3,0,15.4
		c0,5.1,0,10.5,0.2,16.1H357.3V-8z"/>
	<path display="inline" fill="#FFFFFF" d="M411.199-51.7c-0.1,5.9-0.199,11.7-0.3,17.5c-0.1,5.8-0.2,11.7-0.2,17.5
		c0,0.5,0,1.3,0,2.2s0,1.9,0.101,2.8c0.1,1.1,0.1,2.3,0.2,3.6h-17c-0.101-4.1-0.101-7.8-0.2-11.3c0-1.5,0-3,0-4.5
		s-0.101-2.9-0.101-4.2c-0.1-1.3-0.1-2.5-0.1-3.5s0-1.8,0-2.4c-0.1-0.7-0.1-1.7-0.1-2.9c0-1.2-0.101-2.6-0.101-4
		c-0.1-1.5-0.1-3-0.2-4.5c-0.1-1.5-0.1-3-0.1-4.4c0-1.4-0.101-2.6-0.101-3.6c-0.1-1.1-0.1-1.8-0.1-2.3c-0.1-0.7-0.1-1.5-0.1-2.4
		s0-1.7,0-2.5v-2.7l18.199-0.1c0.101,1.2,0.2,2.9,0.301,5C411.3-56.2,411.3-54,411.199-51.7z"/>
	<path display="inline" fill="#FFFFFF" d="M484.1-7.6c-2.7-0.1-5.1-0.1-7.4-0.2c-2-0.1-3.899-0.1-5.8-0.1c-1.899,0-3.2-0.1-4-0.1
		c-0.1-3.5-0.1-6.7-0.1-9.6c-0.101-2.5-0.101-4.9-0.101-7.2c0-2.3,0-3.8,0-4.5c-0.1,0.2-0.399,0.7-1,1.8c-0.6,1-1.3,2.3-2.1,3.7
		c-0.8,1.5-1.7,3.1-2.6,4.8c-0.9,1.7-1.801,3.4-2.7,4.9c-0.9,1.5-1.601,2.8-2.2,4C455.5-9,455-8.3,454.8-8l-8.101,0.2
		C446.6-8,446.3-8.7,445.8-9.7c-0.5-1.1-1.101-2.4-1.8-3.9c-0.7-1.5-1.4-3.1-2.2-4.8c-0.8-1.7-1.5-3.3-2.2-4.8s-1.3-2.8-1.9-4
		c-0.6-1.2-0.899-1.8-1.2-2.2c0,0.3,0,0.8,0,1.6c0,0.8,0,1.7,0,2.7s-0.1,2.2-0.1,3.4c0,1.2,0,2.5,0,3.7c-0.1,2.9-0.1,6.2-0.2,9.7
		c-2.7,0.1-5.2,0.1-7.5,0.2c-2,0.1-3.899,0.1-5.8,0.1s-3.2,0-3.9,0c0.301-8.8,0.5-16.9,0.7-24.4c0.101-3.2,0.2-6.4,0.3-9.6
		c0.101-3.2,0.2-6.2,0.301-8.9c0.1-2.7,0.199-5.2,0.3-7.3c0.1-2.1,0.2-3.7,0.3-4.7c0.7-0.1,1.4-0.1,2.2-0.2
		c0.6-0.1,1.399-0.1,2.2-0.1c0.8,0,1.699-0.1,2.6-0.1c0.7,0,1.5,0,2.3,0s1.5,0,2.2,0c0.8,0.1,1.6,0.1,2.4,0.1
		c2.899,4.9,5.6,9.4,8,13.4c1,1.7,2,3.4,3,5.1c1,1.7,1.8,3.2,2.6,4.6s1.5,2.5,2,3.4c0.5,0.9,0.8,1.5,0.9,1.7l17.5-28.2l14.1,0.4
		c0.3,7.9,0.6,15.4,0.8,22.5c0.101,3,0.101,6.1,0.2,9.3c0.1,3.1,0.1,6.2,0.2,9.1c0.1,2.9,0.1,5.6,0,8.1
		C484.199-11.4,484.199-9.3,484.1-7.6z"/>
	<path display="inline" fill="#FFFFFF" d="M530.9-8.1h-8.7c-1.199,0-2.399,0-3.6,0s-2.4,0-3.5,0C514-8,513-8,512.1-8s-1.7,0-2.4,0
		c-1.2,0.1-2.8,0.1-4.7,0c-1.899,0-3.699,0-5.6,0c-2.1,0-4.3,0-6.6-0.1v-5c0-1.5,0-3.4,0-5.4s0-4.4-0.101-6.9
		c-0.1-2.5-0.1-5.3-0.2-8.2c-0.1-3-0.199-6.1-0.199-9.3c-0.101-3.2-0.101-6.5-0.2-10c-0.101-3.4-0.101-6.8-0.2-10.2
		c2.8,0,5.5,0,8.1-0.1c2.2-0.1,4.5-0.1,6.7-0.1s4-0.1,5.2-0.1c1.1-0.1,2.7-0.1,4.8,0c2.101,0,4.2,0,6.3,0c2.5,0.1,5,0.1,7.801,0.1
		v14.4c-4.101-0.5-8-0.7-11.7-0.5c-3.7,0.1-7.5,0.3-11.4,0.5l0.101,5.1c0.3-0.1,0.899-0.1,1.6-0.1s1.5,0,2.3,0s1.601,0,2.3,0
		c0.7,0,1.2,0,1.601,0c0.5,0,1.2,0,2.2,0s2,0,3,0c1.199,0,2.399,0,3.8-0.1c0.1,0.3,0.2,1.1,0.399,2.3c0.101,1.2,0.2,2.7,0.2,4.4
		c0,1.9,0,3.5-0.1,4.9s-0.1,2.1-0.2,2.1c-0.6,0-1.6,0-3.1,0s-3.101,0.1-4.8,0.1c-1.7,0-3.301,0.1-4.9,0.1s-2.7,0.1-3.4,0.1v4.9
		c1.2,0.1,2.601,0.2,4.301,0.2c1.699,0.1,3.6,0.1,5.6,0.1s4.1,0,6.2,0c2.1,0,4.2-0.1,6.1-0.3V-8.1L530.9-8.1z"/>
</g>
<g display="none">
	<polygon display="inline" fill="#FFFFFF" points="569.5,214.5 569,214.5 498,212.5 498,211.5 568.5,213.5 570.5,106.5 502.5,107.5 
		502.5,150.5 7.5,149.5 7.5,68 8.5,68 8.5,148.5 501.5,149.5 501.5,106.5 571.5,105.5 	"/>
</g>
<g display="none">
	<polygon display="inline" fill="#E54B1C" points="1,81.3 -10.3,70 -10.3,54 1,42.7 17,42.7 28.3,54 28.3,70 17,81.3 	"/>
</g>
<g display="none">
	<g display="inline">
		<polygon fill="#FFFFFF" points="0.3,68.6 -5.9,68.6 -5.9,67.6 -0.7,67.6 -0.7,62.4 -6.1,62 -6.5,55.2 -0.2,55.2 -0.2,56.2 
			-5.4,56.2 -5.2,61.1 0.3,61.4 		"/>
	</g>
	<g display="inline">
		<rect x="1.5" y="55.2" fill="#FFFFFF" width="6.8" height="1"/>
	</g>
	<g display="inline">
		<rect x="4.2" y="55.7" fill="#FFFFFF" width="1" height="13.4"/>
	</g>
	<g display="inline">
		<path fill="#FFFFFF" d="M15.1,68.9H10V55.2h4.8L15.1,68.9z M11,67.9h3.1l-0.3-11.7H11V67.9z"/>
	</g>
	<g display="inline">
		<path fill="#FFFFFF" d="M18.1,69.2h-1V55.6h6.4v9h-5.4V69.2z M18.1,63.6h4.4v-7h-4.4V63.6z"/>
	</g>
</g>
<g display="none">
	<g display="inline">
		<path fill="#231F20" d="M368.773,219.227c0,0,17.196,19.534,21.974-1.696c0,0,16.244,22.927-8.594,30.568
			c-24.847,7.646-50.637-20.38-50.637-20.38L368.773,219.227z"/>
	</g>
	<g display="inline">
		<path fill="#A6EF18" d="M264.635,37.497c73.347,0,132.801,52.847,132.801,118.039c0,65.191-59.454,118.039-132.801,118.039
			s-132.81-52.848-132.81-118.039C131.825,90.344,191.288,37.497,264.635,37.497z"/>
	</g>
	<g display="inline">
		<path fill="#FFFFFF" d="M257.581,222.594c-25.854,4.665-51.924-13.912-58.222-41.49c-6.298-27.579,9.564-53.714,35.418-58.379
			s51.915,13.911,58.213,41.49C299.288,191.789,283.436,217.929,257.581,222.594z"/>
	</g>
	<g display="inline">
		<path fill="#F953D2" d="M253.635,202.143c-14.49,2.567-29.242-8.782-32.956-25.343c-3.704-16.558,5.039-32.062,19.529-34.624
			s29.241,8.782,32.945,25.344C276.867,184.076,268.125,199.58,253.635,202.143z"/>
	</g>
	<g display="inline">
		<path fill="#FFFFFF" d="M372.598,107.134c5.729-0.851,10.506,0.846,15.283,2.546c4.777,10.192,7.642,20.38,8.603,32.268
			c1.913,20.384-1.912,39.065-9.554,56.899c-1.913,0-2.864,0.85-4.777,0.85c-20.07,1.696-38.218-17.834-41.082-43.311
			C338.197,130.91,352.529,108.83,372.598,107.134z"/>
	</g>
	<g display="inline">
		<path fill="#497F0A" d="M332.468,210.734c2.108,0,3.825,1.522,3.825,3.396c0,1.878-1.717,3.399-3.825,3.399
			c-2.109,0-3.826-1.521-3.826-3.399C328.642,212.257,330.359,210.734,332.468,210.734z"/>
	</g>
	<g display="inline">
		<path fill="#497F0A" d="M319.088,245.553c-6.681,0-15.283-1.7-24.838-8.492c-2.864-2.546-3.825-5.946-0.952-9.342
			c2.865-2.546,6.681-3.396,10.507-0.851c11.467,8.492,21.021,5.097,21.021,5.097c3.815-1.696,7.642-0.851,9.554,2.55
			c1.913,3.396,0.952,6.792-2.864,8.492C331.516,243.007,325.778,245.553,319.088,245.553z"/>
	</g>
	<g display="inline">
		<path fill="#F953D2" d="M370.648,179.383c-10.515,0.788-20.126-9.936-21.45-23.959c-1.335-14.02,6.111-26.023,16.627-26.815
			c10.516-0.788,20.116,9.939,21.45,23.959C388.61,166.587,381.163,178.595,370.648,179.383z"/>
	</g>
	<g display="inline">
		<path fill="#231F20" d="M219.728,42.593C338.197,12.021,386.93,90.995,386.93,90.995s-148.094-1.696-228.354,39.915
			c10.516,87.466,16.245,106.151,26.751,107.001c18.157,1.695,17.205-11.889,17.205-11.889s17.196,17.83-0.961,33.119
			c-25.799,21.229-70.697-27.177-73.571-92.563C125.135,105.434,143.292,62.123,219.728,42.593z"/>
	</g>
</g>
<g display="none">
	<g display="inline">
		<path fill="#A6EF18" d="M260.818,41.349c87.44,0,158.324,56.233,158.324,125.593c0,69.363-70.884,125.594-158.324,125.594
			c-87.435,0-158.309-56.23-158.309-125.594C102.509,97.582,173.383,41.349,260.818,41.349z"/>
	</g>
	<g display="inline">
		<path fill="#497F0A" d="M230.67,216.32c2.777,0,5.018,1.922,5.018,4.292c0,2.375-2.241,4.299-5.018,4.299
			c-2.785,0-5.028-1.924-5.028-4.299C225.642,218.242,227.885,216.32,230.67,216.32z"/>
	</g>
	<g display="inline">
		<path d="M365.107,72.479c0,0-172.13,42.938-232.449-35.421c0,0,40.209,11.803,56.542,12.877c0,0-18.85-18.245-28.898-30.054
			c0,0,47.744,20.394,70.369,21.467C231.923,41.349,314.847,29.541,365.107,72.479z"/>
	</g>
	<g display="inline">
		<path fill="#FFFFFF" d="M328.674,108.976c35.386,0,64.073,26.433,64.073,59.039c0,32.606-28.688,59.04-64.073,59.04
			c-35.399,0-64.089-26.434-64.089-59.04C264.585,135.409,293.275,108.976,328.674,108.976z"/>
	</g>
	<g display="inline">
		<path fill="#FFFFFF" d="M121.356,106.832c10.049-5.367,21.362-8.59,32.662-8.59c33.928,0,61.574,25.761,61.574,56.894
			c0,31.129-27.646,56.891-61.574,56.891c-20.097,0-38.944-9.66-50.257-23.617c-1.252-6.437-1.252-12.879-1.252-19.318
			C102.509,146.547,108.792,126.151,121.356,106.832z"/>
	</g>
	<g display="inline">
		<path fill="#497F0A" d="M238.206,263.551c-11.315,0-23.881-3.219-35.18-13.953c-3.767-3.221-2.516-8.587,1.251-11.81
			c3.768-3.218,10.048-2.145,13.83,1.075c13.815,13.952,31.41,7.514,31.41,6.443c5.02-2.151,10.051,0,12.564,3.219
			c2.503,4.29,1.252,8.59-3.78,10.731C253.286,262.482,245.739,263.551,238.206,263.551z"/>
	</g>
	<g display="inline">
		<path fill="#00C3F7" d="M326.16,136.886c16.649,0,30.157,13.456,30.157,30.055c0,16.598-13.508,30.057-30.157,30.057
			c-16.654,0-30.164-13.459-30.164-30.057C295.997,150.342,309.506,136.886,326.16,136.886z"/>
	</g>
	<g display="inline">
		<path fill="#00C3F7" d="M154.018,126.151c16.653,0,30.161,13.457,30.161,30.055s-13.508,30.059-30.161,30.059
			c-16.647,0-30.146-13.46-30.146-30.059S137.37,126.151,154.018,126.151z"/>
	</g>
	<g display="inline">
		<path fill="#A6EF18" d="M415.364,172.309c0,0,33.926-13.954,36.44,15.031c2.518,28.98-18.843,46.156-52.771,26.837
			C363.854,195.923,415.364,172.309,415.364,172.309z"/>
	</g>
</g>
<g>
	<g>
		<path d="M182.933,234.062c0,0,0,30.366-26.306,15.186c0,0,4.872,28.343,32.146,26.321c27.273-3.039,33.119-32.401,33.119-32.401
			L182.933,234.062z"/>
	</g>
	<g>
		<path d="M368.989,226.975c0,0,0,30.366,26.305,15.183c0,0-4.871,28.348-32.146,26.322c-27.283-3.034-33.123-32.396-33.123-32.396
			L368.989,226.975z"/>
	</g>
	<g>
		<path fill="#FFFFFF" d="M400.164,100.433c-18.514-48.589-67.223-84.021-123.717-84.021c-73.06,0-131.51,56.69-131.51,127.555
			c0,35.429,14.611,66.807,38.962,90.094l-6.816-105.278L400.164,100.433z"/>
	</g>
	<g>
		<path fill="#A6EF18" d="M176.109,128.784l6.824,105.278c23.377,23.279,56.498,37.451,93.515,37.451
			c73.057,0,131.508-56.687,131.508-127.545c0-15.184-2.924-30.372-7.791-43.535L176.109,128.784z"/>
	</g>
	<g>
		<path fill="#FFFFFF" d="M428.406,205.711c-3.891-45.554-28.242-105.278-28.242-105.278l-223.081,28.351l6.816,105.278
			L428.406,205.711z"/>
	</g>
	<g>
		<path d="M428.406,205.711c-3.891-45.554-28.242-105.278-28.242-105.278l-223.081,28.351l6.816,105.278L428.406,205.711z"/>
	</g>
	<g>
		<path fill="#00C3F7" d="M226.77,26.535c10.707,14.171,33.115,44.543,51.623,90.096l84.754-11.139
			c-12.676-30.368-28.256-60.738-50.658-83.004c-11.688-3.041-24.351-5.062-37.016-5.062
			C258.913,16.413,242.35,20.461,226.77,26.535z"/>
	</g>
	<g>
		<path fill="#ABA8A3" d="M394.315,211.787l37.021-4.045c-3.896-46.569-29.223-108.32-29.223-108.32l-38,5.06
			C379.698,141.939,388.471,180.404,394.315,211.787z"/>
	</g>
	<g>
		<path fill="#FFFFFF" d="M356.323,149.026c4.307,0,7.791,4.528,7.791,10.125c0,5.59-3.484,10.122-7.791,10.122
			c-4.303,0-7.791-4.532-7.791-10.122C348.531,153.555,352.02,149.026,356.323,149.026z"/>
	</g>
	<g>
		<path fill="#FFFFFF" d="M240.405,162.185c4.306,0,7.783,4.533,7.783,10.124c0,5.59-3.477,10.125-7.783,10.125
			c-4.306,0-7.799-4.535-7.799-10.125C232.606,166.718,236.098,162.185,240.405,162.185z"/>
	</g>
	<g>
		<path fill="#497F0A" d="M259.885,259.368c-12.665,0-22.408-8.101-27.279-13.163c-1.948-3.038-1.948-8.097,0.974-10.121
			c2.931-2.022,7.804-2.022,9.746,1.012c0.974,1.013,9.733,12.151,24.35,5.062c3.902-2.02,7.797,0,9.738,4.048
			c1.954,4.052,0,8.101-3.888,10.125C269.62,258.356,264.757,259.368,259.885,259.368z"/>
	</g>
</g>
</svg>
