<?xml version="1.0" encoding="utf-8"?>
<!-- Generator: Adobe Illustrator 16.0.0, SVG Export Plug-In . SVG Version: 6.00 Build 0)  -->
<!DOCTYPE svg PUBLIC "-//W3C//DTD SVG 1.1//EN" "http://www.w3.org/Graphics/SVG/1.1/DTD/svg11.dtd">
<svg version="1.1" id="Calque_1" xmlns="http://www.w3.org/2000/svg" xmlns:xlink="http://www.w3.org/1999/xlink" x="0px" y="0px"
	 width="1920px" height="1280px" viewBox="0 0 1920 1280" enable-background="new 0 0 1920 1280" xml:space="preserve">
<g>
	<path d="M46,84c0,0,0.073-0.095,0.215-0.279c0.142-0.165,0.352-0.41,0.627-0.729c0.549-0.615,1.355-1.415,2.38-2.252
		c2.051-1.684,4.98-3.425,8.496-4.246c0.879-0.214,1.794-0.354,2.742-0.446c0.947-0.102,1.927-0.094,2.934,0.16
		c1.007,0.236,2.042,0.695,3.099,1.336c1.058,0.652,2.138,1.401,3.236,2.136c1.099,0.735,2.216,1.39,3.346,1.794
		c1.131,0.417,2.275,0.567,3.429,0.514c1.154-0.055,2.316-0.279,3.483-0.713c1.167-0.43,2.339-1.057,3.511-1.75
		c1.172-0.692,2.344-1.42,3.511-2.018c1.167-0.603,2.33-1.063,3.483-1.379c2.307-0.555,4.578-1.149,6.775-1.564
		c2.197-0.399,4.321-0.426,6.335-0.079c2.014,0.334,3.918,0.913,5.676,1.587c3.516,1.379,6.445,3.228,8.496,4.894
		c1.025,0.814,1.831,1.599,2.38,2.13C120.707,83.657,121,84,121,84v2c0,0-0.293,0.343-0.842,0.904
		c-0.549,0.531-1.355,1.316-2.38,2.13c-2.051,1.666-4.98,3.514-8.496,4.894c-1.758,0.674-3.662,1.252-5.676,1.587
		c-2.014,0.348-4.138,0.321-6.335-0.079c-2.197-0.416-4.468-1.01-6.775-1.564c-1.154-0.316-2.316-0.777-3.483-1.379
		c-1.167-0.597-2.339-1.326-3.511-2.018c-1.172-0.693-2.344-1.319-3.511-1.75c-1.167-0.435-2.33-0.658-3.483-0.713
		c-1.154-0.053-2.298,0.097-3.429,0.514c-1.13,0.404-2.248,1.059-3.346,1.794c-1.099,0.735-2.179,1.483-3.236,2.136
		c-1.058,0.641-2.092,1.1-3.099,1.336c-1.007,0.254-1.987,0.262-2.934,0.16c-0.948-0.092-1.863-0.232-2.742-0.446
		c-3.516-0.821-6.445-2.562-8.496-4.246c-1.025-0.837-1.831-1.637-2.38-2.252c-0.275-0.319-0.485-0.564-0.627-0.729
		C46.073,86.095,46,86,46,86V84z"/>
</g>
<g>
	<path d="M103,35c0,0,0.684-0.41,1.965-1.012c1.282-0.607,3.162-1.413,5.554-2.248c4.785-1.684,11.621-3.425,19.824-4.246
		c2.051-0.214,4.187-0.354,6.398-0.446c2.211-0.102,4.497-0.094,6.847,0.16c2.35,0.229,4.764,0.708,7.231,1.336
		c2.468,0.652,4.988,1.401,7.552,2.136c2.563,0.735,5.17,1.39,7.808,1.794c2.638,0.417,5.308,0.567,8,0.514
		c2.692-0.055,5.405-0.279,8.128-0.714c2.724-0.428,5.458-1.056,8.192-1.749c5.469-1.42,10.938-2.818,16.321-3.387
		c5.383-0.575,10.681-1.155,15.808-1.575c5.127-0.399,10.083-0.426,14.783-0.079c2.35,0.17,4.636,0.385,6.847,0.676
		c2.211,0.261,4.347,0.585,6.398,0.914c8.203,1.374,15.039,3.226,19.824,4.891C275.266,33.603,278,35,278,35v2
		c0,0-2.734,1.397-7.52,3.035c-4.785,1.665-11.621,3.517-19.824,4.891c-2.051,0.328-4.187,0.653-6.398,0.914
		c-2.211,0.291-4.497,0.505-6.847,0.676c-4.7,0.348-9.656,0.321-14.783-0.079c-5.127-0.42-10.425-1-15.808-1.575
		c-5.383-0.568-10.852-1.967-16.321-3.387c-2.734-0.692-5.469-1.32-8.192-1.749c-2.724-0.436-5.437-0.659-8.128-0.714
		c-2.692-0.053-5.362,0.097-8,0.514c-2.638,0.404-5.245,1.059-7.808,1.794c-2.563,0.735-5.084,1.483-7.552,2.136
		c-2.467,0.628-4.881,1.107-7.231,1.336c-2.35,0.254-4.636,0.262-6.847,0.16c-2.211-0.092-4.347-0.232-6.398-0.446
		c-8.203-0.821-15.039-2.562-19.824-4.246c-2.393-0.835-4.272-1.641-5.554-2.248C103.684,37.41,103,37,103,37V35z"/>
</g>
</svg>
