<?xml version="1.0" encoding="utf-8"?>
<!-- Generator: Adobe Illustrator 16.0.0, SVG Export Plug-In . SVG Version: 6.00 Build 0)  -->
<!DOCTYPE svg PUBLIC "-//W3C//DTD SVG 1.1//EN" "http://www.w3.org/Graphics/SVG/1.1/DTD/svg11.dtd">
<svg version="1.1" id="Calque_1" xmlns="http://www.w3.org/2000/svg" xmlns:xlink="http://www.w3.org/1999/xlink" x="0px" y="0px"
	 width="1920px" height="480px" viewBox="0 0 1920 480" enable-background="new 0 0 1920 480" xml:space="preserve">
<line fill="none" x1="-13.333" y1="20" x2="-11.667" y2="27.673"/>
<g>
	<g>
		<g>
			<g>
				<g>
					<path fill="#202020" d="M49.334,76c0.086,0.011,0.281,0.004,0.243-0.024l-0.331-0.021L49.334,76z"/>
					<path fill="#202020" d="M49.948,75.805c-0.161-0.034-0.442-0.073-0.747-0.051c0.318,0.034,0.186,0.042,0.564,0.079
						c0.039,0.029-0.106,0.05-0.228,0.045c0.085,0.01-0.073,0.045,0.135,0.061c0.256-0.038,0.267-0.086,0.055-0.136
						C49.8,75.792,49.887,75.802,49.948,75.805z"/>
					<path fill="#202020" d="M50.464,72.969l-0.04,0.018C50.446,72.982,50.458,72.976,50.464,72.969z"/>
					<path fill="#202020" d="M50.646,71.211c0.008,0.013,0.041,0.019,0.071,0.02C50.694,71.218,50.674,71.208,50.646,71.211z"/>
					<path fill="#202020" d="M51.01,70.911c-0.01,0.008-0.015,0.012-0.022,0.018C51.018,70.922,51.035,70.916,51.01,70.911z"/>
					<path fill="#202020" d="M50.464,72.969l0.104-0.047C50.46,72.918,50.488,72.946,50.464,72.969z"/>
					<path fill="#202020" d="M49.149,75.414c0.016,0.01,0.047,0.018,0.087,0.026c-0.014-0.008-0.026-0.016-0.035-0.024
						L49.149,75.414z"/>
					<path fill="#202020" d="M50.732,73.743l0,0.014c0.038,0.003,0.083,0.007,0.135,0.012L50.732,73.743z"/>
					<path fill="#202020" d="M50.783,74.338c0.012-0.014-0.269-0.018-0.392-0.023c0.116,0.008,0.171,0.018,0.193,0.029
						C50.637,74.342,50.701,74.34,50.783,74.338z"/>
					<path fill="#202020" d="M50.288,75.28l0.039,0.017C50.315,75.292,50.303,75.287,50.288,75.28z"/>
					<path fill="#202020" d="M50.793,73.318c0.042-0.002,0.078-0.004,0.1-0.005L50.793,73.318z"/>
					<path fill="#202020" d="M48.681,56.689c0.02,0,0.033,0,0.05,0C48.702,56.686,48.682,56.685,48.681,56.689z"/>
					<polygon fill="#202020" points="50.073,56 50.088,56.01 50.245,56.012 					"/>
					<path fill="#202020" d="M51.37,70.362l-0.005,0.002C51.397,70.379,51.391,70.371,51.37,70.362z"/>
					<path fill="#202020" d="M51.163,65.321c-0.251,0.057-0.323-0.093-0.602-0.007C50.671,65.306,51,65.393,51.163,65.321z"/>
					<path fill="#202020" d="M49.186,75.398c-0.003-0.008-0.005-0.016-0.003-0.024C49.174,75.385,49.175,75.393,49.186,75.398z"/>
					<path fill="#202020" d="M50.561,65.314h-0.002l-0.026,0.009C50.544,65.32,50.552,65.317,50.561,65.314z"/>
					<path fill="#202020" d="M51.201,69.097c-0.049,0.005-0.087,0.009-0.123,0.013C51.107,69.109,51.142,69.106,51.201,69.097z"/>
					<path fill="#202020" d="M50.801,70.04l0.038-0.023C50.813,70.025,50.805,70.033,50.801,70.04z"/>
					<path fill="#202020" d="M50.805,68.607c0.021-0.013,0.06-0.017,0.022-0.034c-0.014,0.002-0.024,0.004-0.034,0.005
						C50.831,68.585,50.849,68.593,50.805,68.607z"/>
					<path fill="#202020" d="M50.803,68.098c-0.021,0.003-0.038,0.006-0.057,0.009l0.015,0.016L50.803,68.098z"/>
					<path fill="#202020" d="M48.816,58.237c0.08-0.007,0.167-0.016,0.252-0.023C48.869,58.222,48.797,58.146,48.816,58.237z"/>
					<path fill="#202020" d="M49.307,75.414c-0.071-0.003-0.106-0.007-0.121-0.015c0.003,0.006,0.009,0.011,0.015,0.017
						C49.243,75.417,49.283,75.417,49.307,75.414z"/>
					<path fill="#202020" d="M48.587,68.587l0.042-0.081C48.601,68.528,48.587,68.558,48.587,68.587z"/>
					<path fill="#202020" d="M48.856,61.892l-0.034-0.019C48.816,61.88,48.824,61.887,48.856,61.892z"/>
					<path fill="#202020" d="M48.587,68.266c0.099-0.014,0.157-0.03,0.194-0.045c-0.022-0.003-0.04-0.005-0.072-0.009L48.587,68.266
						z"/>
					<path fill="#202020" d="M49.071,58.213l-0.003,0L49.071,58.213z"/>
					<path fill="#202020" d="M48.404,57.68c-0.008,0.077,0.361,0.037,0.573,0.053c0.105,0.092-0.272,0.042-0.461,0.074
						c0.098,0.057,0.437,0.102,0.423,0.144c-0.061,0.003-0.083,0.012-0.159,0.002c0.293,0.061,0.014,0.18,0.383,0.251
						c-0.033,0.003-0.064,0.006-0.092,0.009c0.185-0.011,0.373-0.013,0.507-0.011c0.006,0.035,0.233,0.064-0.008,0.077
						c0.007-0.021-0.09-0.023-0.166-0.033l0.105,0.036c-0.347,0.033-0.12-0.049-0.377-0.049c0.113,0.07,0.4,0.153,0.302,0.207
						c-0.34,0.011-0.114-0.127-0.417-0.055l0.13-0.083c-0.536,0.064,0.037-0.051-0.536,0.008c-0.099,0.11,0.173,0.123,0.074,0.233
						c0.189,0.024,0.279-0.008,0.468,0.017c0.339,0.156-0.854,0.123-0.402,0.238c0.227,0.03,0.656,0.041,0.429,0.123l-0.384-0.028
						c-0.038,0.106,0.552,0.061,0.293,0.172c-0.151-0.02-0.127-0.083-0.173-0.067c-0.303,0.072,0.218,0.051,0.218,0.106l-0.34,0.012
						c0.053,0.114,0.299,0.239,0.361,0.365c-0.101-0.007-0.208-0.029-0.312,0.001c0.17,0.159-0.042,0.338-0.243,0.492l0.293,0.058
						c-0.003,0.014-0.132,0.025-0.189,0.011c-0.111,0.06,0.186,0.003,0.302,0.032c0.021,0.034-0.169,0.045-0.257,0.023
						c0.249,0.105,0.536,0.3,0.222,0.411l-0.087-0.021c-0.119,0.086,0.602,0.097,0.328,0.177l-0.052-0.015
						c-0.127,0.188,0.142,0.395-0.301,0.538c0.423,0.027-0.188,0.186,0.401,0.198c-0.292,0.107-0.397,0.076-0.594,0.227
						c-0.027,0.04,0.368,0.06,0.43,0.109l-0.309,0.001l0.324,0.067l-0.369,0.036l0.079,0.047c0.018-0.019,0.138-0.04,0.227-0.037
						c0.14,0.073-0.215,0.178-0.373,0.18l0.261,0.172c-0.124-0.003-0.167-0.033-0.246-0.055c0.314,0.092-0.325,0.017-0.037,0.101
						c0.07-0.011,0.184,0.006,0.246,0.008c-0.187,0.042-0.188,0.138-0.109,0.209l-0.213-0.014c-0.054,0.128,0.102,0.27,0.098,0.413
						c0.099-0.051,0.467-0.04,0.503,0.002l-0.325,0.017c0.201,0.027,0.122-0.044,0.369,0.012c-0.038,0.054-0.37,0.036-0.477,0.005
						l0.113,0.065c-0.097,0.004-0.148-0.011-0.272-0.015c0.202,0.027-0.327,0.112,0.024,0.151l-0.097,0.004
						c-0.002,0.144,0.109,0.208,0.126,0.326c0.281,0.002,0.219,0.048,0.446,0.083c-0.09,0.086-0.311,0.182-0.287,0.285
						c0.14,0.073,0.238,0.021,0.405,0.054c-0.256,0.005-0.232,0.109-0.416,0.055c0.042,0.125,0.051,0.159,0.259,0.316
						c0.105-0.017,0.15-0.036,0.238-0.026c0.042,0.029-0.107,0.065-0.23,0.061l-0.026-0.008c0.384,0.177-0.747,0.407-0.213,0.548
						l-0.026-0.008l0.278,0.146c-0.044,0.067-0.192-0.04-0.351,0.01c0.427,0.157-0.062,0.248,0.223,0.377
						c-0.755,0.1,0.053,0.355-0.429,0.491l0.178-0.008c0.174,0.035-0.102,0.042-0.143,0.068c0.138-0.004,0.16-0.038,0.256-0.017
						c0.214,0.296-0.26,0.611-0.42,0.915c-0.048,0.111,0.92,0.063,0.496,0.203l-0.33-0.04c0.396,0.224-0.014,0.458,0.322,0.677
						c-0.076-0.013-0.175-0.014-0.174-0.035c-0.24,0.046-0.012,0.171,0.184,0.172c-0.022,0.034-0.177,0.008-0.277,0.029
						c-0.142,0.046,0.307,0.117,0.068,0.142c-0.039,0.004-0.078-0.013-0.097-0.022c0.116,0.03-0.029,0.141,0.248,0.112
						c-0.132,0.083,0.123,0.157-0.041,0.223c0.31,0.043-0.149,0.141,0.289,0.154c-0.453-0.006-0.365,0.145-0.152,0.196
						c-0.137-0.017-0.142,0.045-0.331,0.025c0.006,0.06,0.09,0.114,0.323,0.104c-0.541,0.109,0.436,0.22-0.258,0.282
						c0.243,0.176,0.407,0.34,0.513,0.499c-0.451-0.006-0.045-0.176-0.518-0.169c0.186,0.151,0.573,0.237,0.464,0.387
						c-0.062,0.039-0.196-0.022-0.272-0.035c0.186,0.15-0.041,0.291,0.205,0.425c-0.042,0-0.088-0.015-0.123-0.028
						c0.015,0.026-0.065,0.062,0.139,0.058l-0.055-0.025c0.297-0.042,0.622,0.104,0.779,0.109c-0.588-0.045-0.148,0.132-0.891,0.061
						c0.039,0.018,0.136,0.039,0.273,0.035c-0.04,0.026-0.12,0.034-0.276,0.008c0.112,0.095,0.33,0.061,0.325,0.146
						c-0.1,0-0.138-0.018-0.254-0.026c0.193,0.043,0.387,0.087,0.303,0.159c-0.06-0.004-0.138,0.004-0.136-0.018
						c0.03,0.125,0.515,0.212,0.328,0.348c-0.431-0.04-0.142,0.046-0.515,0.054l0.111,0.073l0.181-0.029
						c-0.006,0.064,0.266,0.121,0.144,0.176l-0.154-0.047l0.071,0.12l0.142-0.068c0.192,0.065,0.472-0.007,0.368,0.079
						c-0.038-0.017-0.004,0.064-0.225,0.098h-0.001c0.119,0.032,0.244,0.064,0.151,0.112c-0.119,0.012-0.413-0.01-0.492-0.002
						c0.312,0.031,0.086,0.15,0.419,0.19c-0.078-0.013-0.274-0.014-0.314-0.009l0.253,0.026c-0.081,0.029-0.12,0.034-0.276,0.029
						c-0.046,0.09,0.474-0.028,0.27,0.078c-0.021-0.008-0.059-0.004-0.097-0.022c-0.106,0.107,0.161,0.206,0.036,0.304
						c-0.375,0.029-0.092-0.086-0.409-0.053c0.068,0.142,0.45,0.292,0.362,0.429l0.042-0.025c0.53,0.019-0.262,0.102-0.012,0.171
						c-0.039-0.017-0.294-0.022-0.235-0.018c-0.085,0.094,0.13,0.191,0.297,0.333l-0.136-0.018c-0.122,0.055-0.07,0.145-0.132,0.205
						c0.136,0.018,0.114,0.052,0.312,0.031c-0.776,0.184,0.416,0.351-0.23,0.514c-0.001-0.02-0.119-0.046-0.119-0.031l0.125,0.139
						c0.231-0.011,0.14-0.019,0.32-0.047c0.137,0.018,0.243,0.057,0.243,0.091c-0.153-0.062-0.371,0.001-0.5,0.028
						c0.071,0,0.149,0.001,0.221,0.002c-0.411,0.072,0.465,0.012,0.188,0.111l-0.122-0.005c0.062,0.037,0.223,0.071,0.188,0.111
						c-0.268,0.017-0.125-0.04-0.345-0.042c0.015,0.056,0.506,0.11,0.24,0.162c-0.074-0.024-0.076-0.059-0.149-0.082
						c-0.314,0.055-0.234,0.062-0.284,0.103l0.007-0.004l-0.142,0.095l0.085-0.024c0.697,0.07,0.127,0.143,0.584,0.238
						c-0.432-0.092-0.25-0.015-0.553-0.022c-0.084,0.024-0.178,0.061-0.263,0.051c0.244,0.044-0.193,0.075,0.165,0.138
						c-0.097,0.003-0.009,0.048-0.254,0.038c0.077,0.058,0.17-0.014,0.292-0.009c0.333,0.09-0.404,0.211,0.053,0.34
						c0.188,0.111,0.517,0.132,0.681,0.235c-0.156,0.035-0.355-0.028-0.355-0.028c-0.144,0.056-0.117,0.098-0.006,0.151
						c-0.085-0.011-0.157,0-0.266,0.016c0.025,0.042,0.355,0.029,0.211,0.084c-0.109-0.009-0.283-0.022-0.392-0.042
						c0.09,0.05,0.272,0.099,0.36,0.151c-0.17,0.014-0.258-0.031-0.369-0.049c0.077,0.058,0.154,0.151,0.423,0.169l0.096-0.038
						c0.013,0.021-0.231,0.011-0.28-0.004c-0.211-0.05,0.093-0.072,0.191-0.075l0.063,0.037c0.572-0.038-0.092-0.148-0.059-0.223
						l0.416,0.031l-0.345-0.076c0.108-0.017,0.341-0.027,0.403,0.009c0.206-0.053-0.148-0.047,0.082-0.093
						c0.036-0.005,0.056-0.002,0.072,0.002l-0.124-0.052c0.087,0.01,0.293-0.009,0.233,0.023c0.24-0.094-0.312-0.151,0.003-0.186
						l0.025,0.008c-0.141-0.13-0.306-0.013-0.664-0.11l0.753-0.065l-0.305-0.013c0.011-0.013,0.034-0.04,0.156-0.035
						c-0.209-0.049-0.133,0.009-0.33-0.02c0.278-0.064-0.13-0.178,0.356-0.192c-0.232-0.023-0.179,0.062-0.34-0.007
						c0.523-0.02-0.089-0.08,0.15-0.138c0.27,0.018,0.127,0.074,0.368,0.015c-0.457-0.035,0.1-0.114,0.013-0.164
						c-0.363-0.002-0.152-0.108-0.273-0.191c0.122,0.005,0.2-0.157,0.331-0.234l0.061,0.002c-0.367-0.015-0.298-0.095-0.374-0.153
						c0.22,0.002,0.307,0.013,0.405,0.044l-0.002-0.055c-0.118-0.013-0.18-0.03-0.222-0.065l0.274,0.014
						c-0.015-0.073-0.323-0.147-0.14-0.24c-0.256-0.005-0.713,0.074-0.884-0.025c0.139-0.003,0.375-0.007,0.432,0.019
						c-0.018-0.009-0.115-0.03-0.056-0.048l0.233,0.04c0.103-0.043-0.194-0.022-0.173-0.057c0.198,0,0.141-0.025,0.298-0.021
						c0.019,0.009-0.082,0.03-0.004,0.043c0.036-0.039,0.152-0.085,0.302-0.1c-0.112,0.003-0.266,0-0.292-0.028
						c-0.015-0.073,0.237-0.025,0.339-0.067c-0.137-0.018,0.005-0.064-0.29-0.065c0.001-0.021,0.139-0.025,0.219-0.033
						c-0.13-0.038-0.037-0.176-0.351-0.133L50.397,73c-0.006-0.002-0.007-0.003-0.013-0.006l0,0l0,0
						c-0.293-0.124,0.167-0.256,0.041-0.379h0.099c-0.113-0.073-0.066-0.163-0.279-0.215c0-0.021,0.18-0.051,0.298-0.042
						c-0.074-0.056-0.185-0.062-0.022-0.143c0.172,0.056,0.153-0.02,0.126,0.058c0.085-0.073,0.243-0.089-0.027-0.167
						c0.253,0.026,0.319-0.055,0.243-0.089l-0.181,0.051c-0.037-0.039-0.014-0.073,0.007-0.107l0.333,0.019
						c0.405-0.149-0.688-0.268-0.011-0.381c-0.232-0.039-0.164,0.081-0.436,0.046c0.045-0.068,0.522-0.14,0.523-0.161
						c0.185-0.094-0.486-0.087-0.36-0.186c-0.119,0.013-0.436,0.024-0.547-0.049c0.044-0.068,0.498-0.084,0.593-0.041
						c0.01,0.017-0.028,0.024-0.068,0.024c0.043,0.022,0.094,0.051,0.223,0.024l-0.119-0.009c0.121-0.034,0.108-0.128,0.303-0.106
						c-0.113-0.052-0.194-0.022-0.256,0.016c0.172-0.088,0.005-0.137,0.121-0.228c-0.065,0.015-0.205,0.028-0.204,0.014
						c0.147-0.133-0.225-0.059-0.277-0.148c0.181-0.051,0.432,0.019,0.28-0.072c0.123-0.055,0.315-0.012,0.412,0.01
						c-0.229-0.083,0.15-0.154,0.192-0.201l0.096,0.043c-0.057-0.026-0.055-0.047-0.055-0.069l-0.237,0.025
						c0.042-0.025,0.042-0.047,0.141-0.046c-0.155-0.026-0.395,0.02-0.607-0.032c0.121-0.034-0.129-0.103,0.186-0.115
						c-0.107,0.106,0.316-0.012,0.367,0.078c-0.038-0.017-0.036-0.039,0.006-0.064c0.035-0.004,0.065,0.003,0.083,0.011
						c0.282-0.103-0.356-0.047-0.349-0.153c0.177,0.013,0.336-0.025,0.299-0.042c-0.004,0.042-0.296,0.021-0.432-0.019
						c0.138-0.068-0.103-0.074-0.087-0.109l-0.065,0.041c-0.177-0.014-0.154-0.048-0.21-0.095c0.138-0.004,0.095,0.043,0.156,0.026
						c-0.312-0.053,0.323-0.119,0.113-0.192c0.12-0.034,0.333-0.003,0.415-0.033c-0.23-0.082,0.243-0.089,0.053-0.175
						c-0.239,0.025-0.18,0.029-0.413-0.032l0.168,0.142l-0.347-0.091c-0.003,0.042,0.15,0.09,0.109,0.116
						c-0.195-0.043-0.135-0.039-0.333-0.019c0.358-0.059-0.208-0.116,0.033-0.184l0.591,0.002c0.263-0.102-0.303-0.181-0.154-0.313
						l-0.103,0.042c-0.235-0.018-0.033-0.082-0.128-0.125c0.198,0.004,0.269-0.023,0.392-0.041
						c-0.146,0.002,0.014-0.097-0.381-0.109l0.26-0.059c0.106-0.106-0.563-0.122-0.496-0.224c0.215,0.031,0.354-0.016,0.508,0.053
						c0.002-0.034,0.038-0.065-0.099-0.065c0.124-0.02-0.266-0.095-0.078-0.126c-0.087-0.015-0.293-0.019-0.277-0.058
						c0.04-0.004,0.098,0,0.098,0c-0.098,0-0.133-0.06-0.351-0.026c0.616-0.106-0.045-0.295,0.484-0.387
						c-0.066-0.075-0.129-0.165-0.144-0.232c0.059,0.004,0.099,0,0.078,0.013c0.184-0.093-0.567-0.057-0.362-0.164
						c0.319-0.054,0.172,0.057,0.293,0.023c0.649-0.015-0.089-0.129,0.291-0.2l0.038,0.017c0.221-0.055-0.246-0.134-0.2-0.223
						c0,0,0.058,0.004,0.098,0c-0.331-0.062-0.441-0.177-0.533-0.263c0.254,0.027,0.134,0.039,0.393,0.022
						c-0.037-0.039-0.415,0.011-0.487-0.065c0.139-0.025,0.261-0.081,0.536-0.088l0.015,0.073c0.356-0.037-0.012-0.094,0.05-0.132
						l0.156,0.005c-0.051-0.111-0.443-0.113-0.416-0.233l-0.118,0.013c-0.389-0.065,0.219-0.055-0.07-0.12l0.395-0.02
						c-0.095-0.043-0.382-0.151-0.456-0.229c0.293,0.044,0.442,0.134,0.616,0.19c0.003-0.043-0.029-0.146-0.224-0.167
						c0.038,0.017,0.135,0.039,0.074,0.056c-0.31-0.052-0.463-0.122-0.456-0.207c0.765,0.015,0.193-0.223,0.787-0.284
						c-0.283-0.151,0.121-0.3,0.076-0.476c-0.596,0.063-0.017-0.051-0.628-0.041c-0.039-0.041-0.029-0.056,0.011-0.06l0.365-0.124
						c0.178-0.029,0.135,0.039,0.272,0.035c0.047-0.09,0.259-0.038,0.421-0.097c-0.219,0.012-0.313-0.031-0.229-0.083l-0.282,0.072
						c-0.325-0.125,0.513-0.108,0.191-0.234l0.192,0.04c-0.113-0.065,0.004-0.239-0.487-0.303c0.071-0.011,0.238-0.026,0.282,0.002
						c0.074-0.155-0.523-0.345-0.22-0.465l0.149,0.012c-0.043-0.029-0.281-0.05-0.13-0.087c0.062,0.002,0.149,0.012,0.158-0.001
						c-0.051-0.015-0.262-0.077-0.175-0.115l0.168,0.033c0.196-0.151-0.41-0.231-0.512-0.358c0.44,0,0.583-0.119,0.654-0.178
						l0.063,0.002c0.054-0.176-0.365-0.299-0.538-0.461c0.478-0.102,0.2-0.343,0.468-0.505c-0.08,0.025-0.343-0.004-0.387-0.033
						c0.089-0.038-0.305-0.105,0.098-0.1l-0.007,0.014c0.396-0.029,0.291-0.107,0.301-0.168l-0.528-0.01
						c0.768-0.16-0.282-0.419,0.406-0.507c-0.132-0.039-0.131-0.086-0.263-0.125l0.283,0.002c0.072-0.107,0.108-0.161,0.041-0.293
						l0.202,0.027c0.019-0.074-0.816-0.094-0.833-0.163l0.423-0.021c-0.007-0.13,0.364-0.262-0.019-0.391
						c0.062,0.002,0.184,0.006,0.201,0.027c0.011-0.061,0.286-0.237-0.294-0.214c0.378-0.002,0.037-0.134-0.129-0.205l0.278,0.011
						c-0.356-0.06-0.453-0.061-0.552-0.144c0.036-0.02,0.223-0.017,0.152,0.009c0.146-0.065-0.264-0.051-0.116-0.13l0.178,0.03
						c0.021-0.067-0.074-0.062-0.282-0.099c-0.112-0.042,0.07-0.128,0.322-0.138c-0.153-0.009-0.359-0.046-0.286-0.085
						c0.095-0.005,0.154,0.009,0.183,0.016c0.189-0.113-0.324-0.167-0.05-0.245c0.092-0.002,0.138-0.007,0.166-0.013
						c-0.007,0.089-0.022,0.162-0.042,0.155c0.257,0,0.302-0.072,0.657-0.015c-0.194-0.058-0.615-0.157-0.494-0.228
						c0.025-0.002,0.049-0.005,0.089-0.009l0.029,0.007c0.025-0.016,0.001-0.031-0.042-0.044c0.042-0.022,0.073-0.037,0.077-0.058
						c0.212-0.008,0.115-0.083,0.125-0.119c-0.281,0.003-0.236-0.044-0.468,0c0.02-0.006,0.034,0.007,0.045,0.031
						c0.008,0.005,0.013,0.012,0.029,0.016l-0.025-0.002c0.008,0.023,0.015,0.054,0.019,0.089c-0.143-0.028-0.263-0.058-0.107-0.098
						c-0.181-0.02-0.366-0.041-0.454-0.05c0.392-0.049,0.604-0.144,0.846-0.157c-0.158-0.11-0.104-0.259-0.632-0.329
						c-0.068-0.031,0.151-0.036,0.234-0.047c0.053,0.018,0.045,0.04,0.121,0.049c-0.136-0.063-0.053-0.186-0.422-0.2
						c0.167-0.079,0.34,0.044,0.279-0.064l0.113,0.015c0.59-0.213-0.941-0.347-0.185-0.583c-0.046,0.016-0.068,0.024-0.13,0.028
						c0.334-0.27-0.313-0.555,0.216-0.821c0.106-0.076-0.129-0.083-0.308-0.13l0.302-0.016l-0.348-0.079
						c-0.255-0.112,0.741-0.193,0.258-0.335l-0.203,0.019c0.038-0.051-0.12-0.161,0.114-0.153c-0.037-0.005-0.211-0.017-0.105-0.036
						l0.158-0.002l-0.271-0.125c0.114-0.097,0.627,0.015,0.658-0.126c-0.061-0.053-0.46-0.15-0.566-0.13
						c-0.008,0.021-0.099,0.054-0.257,0.056l-0.082-0.048c-0.466-0.009-0.942-0.046-1.268,0.072l0.285,0.082l-0.226,0.026
						l-0.014-0.069c-0.212,0.04-0.024,0.064,0.104,0.092c-0.12,0.007-0.204,0.019-0.249,0.035l0.444,0.081
						c-0.182,0.01-0.361-0.036-0.462,0.018c0.207,0.038,0.409-0.036,0.544,0.026c-0.211,0.039-0.384,0.028-0.203,0.074
						c-0.12,0.006-0.196-0.003-0.249-0.021c0.144,0.041,0.061,0.108,0.309,0.13c-0.261,0.041,0.068,0.139-0.373,0.134
						c0.105,0.013,0.346,0.072,0.364,0.11c-0.527-0.069-0.031,0.141-0.597,0.123c0.475,0.051,0.211,0.184,0.474,0.274
						c-0.038-0.005-0.114-0.015-0.09-0.023c-0.04,0.051-0.183,0.066-0.272,0.098c0.392,0.007,0.481,0.086,0.723,0.128
						c-0.378,0.063-0.46-0.038-0.823-0.018c0.317-0.003,0.317,0.108,0.582,0.087c-0.234,0.048-0.114,0.041-0.438,0.065
						c0.49,0.009,0.083,0.044,0.384,0.084c-0.241,0.069-0.459,0.018-0.31,0.094C48.577,57.748,48.404,57.68,48.404,57.68z
						 M49.251,59.481h-0.006c-0.006-0.015-0.012-0.029-0.016-0.037C49.234,59.452,49.24,59.462,49.251,59.481z M49.255,59.633
						c0.011-0.019,0.013-0.042,0.011-0.065c0.097-0.005,0.197,0,0.192,0.016C49.393,59.575,49.337,59.61,49.255,59.633z
						 M51.203,59.313c0.04,0.024-0.015,0.032-0.073,0.036c-0.005-0.012-0.015-0.025-0.034-0.042l-0.035-0.003
						C51.116,59.307,51.166,59.31,51.203,59.313z"/>
					<path fill="#202020" d="M50.834,59.27c-0.006-0.003-0.018-0.005-0.021-0.01c-0.024,0.005-0.045,0.01-0.063,0.014l0.088,0.009
						L50.834,59.27z"/>
					<path fill="#202020" d="M50.418,72.99l0.006-0.003c-0.011,0.002-0.022,0.004-0.04,0.007
						C50.398,72.992,50.407,72.991,50.418,72.99z"/>
					<polygon fill="#202020" points="48.717,61.723 48.788,61.723 48.726,61.709 					"/>
					<path fill="#202020" d="M49.453,73.824c-0.024,0.001-0.05,0.004-0.072,0.011C49.4,73.834,49.425,73.83,49.453,73.824z"/>
					<path fill="#202020" d="M49.39,74.184l-0.1,0.051C49.347,74.212,49.374,74.197,49.39,74.184z"/>
					<path fill="#202020" d="M49.251,74.46c0.049,0.002,0.086,0.004,0.12,0.005l0.002,0L49.251,74.46z"/>
					<path fill="#202020" d="M48.92,70.059c-0.001-0.004-0.005-0.007-0.013-0.011C48.854,70.023,48.875,70.04,48.92,70.059z"/>
					<path fill="#202020" d="M49.577,71.369c-0.051-0.014-0.101-0.028-0.133-0.042C49.423,71.35,49.417,71.368,49.577,71.369z"/>
					<polygon fill="#202020" points="48.582,68.596 48.587,68.596 48.587,68.587 					"/>
					<path fill="#202020" d="M49.449,71.266c-0.056,0.023-0.044,0.042-0.005,0.061C49.463,71.307,49.492,71.285,49.449,71.266z"/>
					<path fill="#202020" d="M49.123,75.661l-0.011,0.013c0.019,0,0.034,0.001,0.045,0.001L49.123,75.661z"/>
					<path fill="#202020" d="M49.157,75.675l0.033,0.015C49.19,75.684,49.188,75.678,49.157,75.675z"/>
					<path fill="#202020" d="M49.261,75.722L49.19,75.69C49.189,75.701,49.181,75.714,49.261,75.722z"/>
					<path fill="#202020" d="M49.253,75.294l-0.102-0.004C49.172,75.291,49.205,75.292,49.253,75.294z"/>
					<path fill="#202020" d="M49.224,75.183c-0.023,0.027-0.217,0.067-0.153,0.104l0.081,0.003
						C49,75.272,49.396,75.208,49.224,75.183z"/>
					<path fill="#202020" d="M50.484,74.718l-0.082,0.093c0.108-0.016,0.254-0.038,0.281,0.005
						C51.007,74.698,50.44,74.84,50.484,74.718z"/>
					<path fill="#202020" d="M50.641,74.428c0.051,0.05,0.158,0,0.219,0.002C50.761,74.398,50.736,74.391,50.641,74.428z"/>
					<path fill="#202020" d="M50.642,72.337l0.256,0.005C50.861,72.303,50.799,72.342,50.642,72.337z"/>
					<polygon fill="#202020" points="49.32,71.938 49.161,71.975 49.396,71.993 					"/>
					<polygon fill="#202020" points="51.142,71.701 51.179,71.718 51.086,71.653 					"/>
					<path fill="#202020" d="M51.051,68.189l-0.315,0.012C50.793,68.227,51.147,68.232,51.051,68.189z"/>
					<path fill="#202020" d="M50.73,66.672c0.158-0.017,0.259-0.059,0.104-0.085C50.813,66.621,50.69,66.655,50.73,66.672z"/>
					<polygon fill="#202020" points="51.244,62.125 51.349,62.155 51.261,62.098 					"/>
				</g>
			</g>
		</g>
	</g>
</g>
<g>
	<g>
		<g>
			<g>
				<g>
					<path fill="#202020" d="M49.334,101c0.086,0.011,0.281,0.004,0.243-0.024l-0.331-0.021L49.334,101z"/>
					<path fill="#202020" d="M49.948,100.805c-0.161-0.034-0.442-0.073-0.747-0.051c0.318,0.034,0.186,0.042,0.564,0.079
						c0.039,0.029-0.106,0.05-0.228,0.045c0.085,0.01-0.073,0.045,0.135,0.061c0.256-0.038,0.267-0.086,0.055-0.136
						C49.8,100.792,49.887,100.802,49.948,100.805z"/>
					<path fill="#202020" d="M50.464,97.969l-0.04,0.018C50.446,97.982,50.458,97.976,50.464,97.969z"/>
					<path fill="#202020" d="M50.646,96.211c0.008,0.013,0.041,0.019,0.071,0.02C50.694,96.218,50.674,96.208,50.646,96.211z"/>
					<path fill="#202020" d="M51.01,95.911c-0.01,0.008-0.015,0.012-0.022,0.018C51.018,95.922,51.035,95.916,51.01,95.911z"/>
					<path fill="#202020" d="M50.464,97.969l0.104-0.047C50.46,97.918,50.488,97.946,50.464,97.969z"/>
					<path fill="#202020" d="M49.149,100.414c0.016,0.01,0.047,0.018,0.087,0.026c-0.014-0.008-0.026-0.016-0.035-0.024
						L49.149,100.414z"/>
					<path fill="#202020" d="M50.732,98.743l0,0.014c0.038,0.003,0.083,0.007,0.135,0.012L50.732,98.743z"/>
					<path fill="#202020" d="M50.783,99.338c0.012-0.014-0.269-0.018-0.392-0.023c0.116,0.008,0.171,0.018,0.193,0.029
						C50.637,99.342,50.701,99.34,50.783,99.338z"/>
					<path fill="#202020" d="M50.288,100.28l0.039,0.017C50.315,100.292,50.303,100.287,50.288,100.28z"/>
					<path fill="#202020" d="M50.793,98.318c0.042-0.002,0.078-0.004,0.1-0.005L50.793,98.318z"/>
					<path fill="#202020" d="M48.681,81.689c0.02,0,0.033,0,0.05,0C48.702,81.686,48.682,81.685,48.681,81.689z"/>
					<polygon fill="#202020" points="50.073,81 50.088,81.01 50.245,81.012 					"/>
					<path fill="#202020" d="M51.37,95.362l-0.005,0.002C51.397,95.379,51.391,95.371,51.37,95.362z"/>
					<path fill="#202020" d="M51.163,90.321c-0.251,0.057-0.323-0.093-0.602-0.007C50.671,90.306,51,90.393,51.163,90.321z"/>
					<path fill="#202020" d="M49.186,100.398c-0.003-0.008-0.005-0.016-0.003-0.024C49.174,100.385,49.175,100.393,49.186,100.398z"
						/>
					<path fill="#202020" d="M50.561,90.314h-0.002l-0.026,0.009C50.544,90.32,50.552,90.317,50.561,90.314z"/>
					<path fill="#202020" d="M51.201,94.097c-0.049,0.005-0.087,0.009-0.123,0.013C51.107,94.109,51.142,94.106,51.201,94.097z"/>
					<path fill="#202020" d="M50.801,95.04l0.038-0.023C50.813,95.025,50.805,95.033,50.801,95.04z"/>
					<path fill="#202020" d="M50.805,93.607c0.021-0.013,0.06-0.017,0.022-0.034c-0.014,0.002-0.024,0.004-0.034,0.005
						C50.831,93.585,50.849,93.593,50.805,93.607z"/>
					<path fill="#202020" d="M50.803,93.098c-0.021,0.003-0.038,0.006-0.057,0.009l0.015,0.016L50.803,93.098z"/>
					<path fill="#202020" d="M48.816,83.237c0.08-0.007,0.167-0.016,0.252-0.023C48.869,83.222,48.797,83.146,48.816,83.237z"/>
					<path fill="#202020" d="M49.307,100.414c-0.071-0.003-0.106-0.007-0.121-0.015c0.003,0.006,0.009,0.011,0.015,0.017
						C49.243,100.417,49.283,100.417,49.307,100.414z"/>
					<path fill="#202020" d="M48.587,93.587l0.042-0.081C48.601,93.528,48.587,93.558,48.587,93.587z"/>
					<path fill="#202020" d="M48.856,86.892l-0.034-0.019C48.816,86.88,48.824,86.887,48.856,86.892z"/>
					<path fill="#202020" d="M48.587,93.266c0.099-0.014,0.157-0.03,0.194-0.045c-0.022-0.003-0.04-0.005-0.072-0.009L48.587,93.266
						z"/>
					<path fill="#202020" d="M49.071,83.213l-0.003,0L49.071,83.213z"/>
					<path fill="#202020" d="M48.404,82.68c-0.008,0.077,0.361,0.037,0.573,0.053c0.105,0.092-0.272,0.042-0.461,0.074
						c0.098,0.057,0.437,0.102,0.423,0.144c-0.061,0.003-0.083,0.012-0.159,0.002c0.293,0.061,0.014,0.18,0.383,0.251
						c-0.033,0.003-0.064,0.006-0.092,0.009c0.185-0.011,0.373-0.013,0.507-0.011c0.006,0.035,0.233,0.064-0.008,0.077
						c0.007-0.021-0.09-0.023-0.166-0.033l0.105,0.036c-0.347,0.033-0.12-0.049-0.377-0.049c0.113,0.07,0.4,0.153,0.302,0.207
						c-0.34,0.011-0.114-0.127-0.417-0.055l0.13-0.083c-0.536,0.064,0.037-0.051-0.536,0.008c-0.099,0.11,0.173,0.123,0.074,0.233
						c0.189,0.024,0.279-0.008,0.468,0.017c0.339,0.156-0.854,0.123-0.402,0.238c0.227,0.03,0.656,0.041,0.429,0.123l-0.384-0.028
						c-0.038,0.106,0.552,0.061,0.293,0.172c-0.151-0.02-0.127-0.083-0.173-0.067c-0.303,0.072,0.218,0.051,0.218,0.106l-0.34,0.012
						c0.053,0.114,0.299,0.239,0.361,0.365c-0.101-0.007-0.208-0.029-0.312,0.001c0.17,0.159-0.042,0.338-0.243,0.492l0.293,0.058
						c-0.003,0.014-0.132,0.025-0.189,0.011c-0.111,0.06,0.186,0.003,0.302,0.032c0.021,0.034-0.169,0.045-0.257,0.023
						c0.249,0.105,0.536,0.3,0.222,0.411l-0.087-0.021c-0.119,0.086,0.602,0.097,0.328,0.177l-0.052-0.015
						c-0.127,0.188,0.142,0.395-0.301,0.538c0.423,0.027-0.188,0.186,0.401,0.198c-0.292,0.107-0.397,0.076-0.594,0.227
						c-0.027,0.04,0.368,0.06,0.43,0.109l-0.309,0.001l0.324,0.067l-0.369,0.036l0.079,0.047c0.018-0.019,0.138-0.04,0.227-0.037
						c0.14,0.073-0.215,0.178-0.373,0.18l0.261,0.172c-0.124-0.003-0.167-0.033-0.246-0.055c0.314,0.092-0.325,0.017-0.037,0.101
						c0.07-0.011,0.184,0.006,0.246,0.008c-0.187,0.042-0.188,0.138-0.109,0.209l-0.213-0.014c-0.054,0.128,0.102,0.27,0.098,0.413
						c0.099-0.051,0.467-0.04,0.503,0.002l-0.325,0.017c0.201,0.027,0.122-0.044,0.369,0.012c-0.038,0.054-0.37,0.036-0.477,0.005
						l0.113,0.065c-0.097,0.004-0.148-0.011-0.272-0.015c0.202,0.027-0.327,0.112,0.024,0.151l-0.097,0.004
						c-0.002,0.144,0.109,0.208,0.126,0.326c0.281,0.002,0.219,0.048,0.446,0.083c-0.09,0.086-0.311,0.182-0.287,0.285
						c0.14,0.073,0.238,0.021,0.405,0.054c-0.256,0.005-0.232,0.109-0.416,0.055c0.042,0.125,0.051,0.159,0.259,0.316
						c0.105-0.017,0.15-0.036,0.238-0.026c0.042,0.029-0.107,0.065-0.23,0.061l-0.026-0.008c0.384,0.177-0.747,0.407-0.213,0.548
						l-0.026-0.008l0.278,0.146c-0.044,0.067-0.192-0.04-0.351,0.01c0.427,0.157-0.062,0.248,0.223,0.377
						c-0.755,0.1,0.053,0.355-0.429,0.491l0.178-0.008c0.174,0.035-0.102,0.042-0.143,0.068c0.138-0.004,0.16-0.038,0.256-0.017
						c0.214,0.296-0.26,0.611-0.42,0.915c-0.048,0.111,0.92,0.063,0.496,0.203l-0.33-0.04c0.396,0.224-0.014,0.458,0.322,0.677
						c-0.076-0.013-0.175-0.014-0.174-0.035c-0.24,0.046-0.012,0.171,0.184,0.172c-0.022,0.034-0.177,0.008-0.277,0.029
						c-0.142,0.046,0.307,0.117,0.068,0.142c-0.039,0.004-0.078-0.013-0.097-0.022c0.116,0.03-0.029,0.141,0.248,0.112
						c-0.132,0.083,0.123,0.157-0.041,0.223c0.31,0.043-0.149,0.141,0.289,0.154c-0.453-0.006-0.365,0.145-0.152,0.196
						c-0.137-0.017-0.142,0.045-0.331,0.025c0.006,0.06,0.09,0.114,0.323,0.104c-0.541,0.109,0.436,0.22-0.258,0.282
						c0.243,0.176,0.407,0.34,0.513,0.499c-0.451-0.006-0.045-0.176-0.518-0.169c0.186,0.151,0.573,0.237,0.464,0.387
						c-0.062,0.039-0.196-0.022-0.272-0.035c0.186,0.15-0.041,0.291,0.205,0.425c-0.042,0-0.088-0.015-0.123-0.028
						c0.015,0.026-0.065,0.062,0.139,0.058l-0.055-0.025c0.297-0.042,0.622,0.104,0.779,0.109c-0.588-0.045-0.148,0.132-0.891,0.061
						c0.039,0.018,0.136,0.039,0.273,0.035c-0.04,0.026-0.12,0.034-0.276,0.008c0.112,0.095,0.33,0.061,0.325,0.146
						c-0.1,0-0.138-0.018-0.254-0.026c0.193,0.043,0.387,0.087,0.303,0.159c-0.06-0.004-0.138,0.004-0.136-0.018
						c0.03,0.125,0.515,0.212,0.328,0.348c-0.431-0.04-0.142,0.046-0.515,0.054l0.111,0.073l0.181-0.029
						c-0.006,0.064,0.266,0.121,0.144,0.176l-0.154-0.047l0.071,0.12l0.142-0.068c0.192,0.065,0.472-0.007,0.368,0.079
						c-0.038-0.017-0.004,0.064-0.225,0.098h-0.001c0.119,0.032,0.244,0.064,0.151,0.112c-0.119,0.012-0.413-0.01-0.492-0.002
						c0.312,0.031,0.086,0.15,0.419,0.19c-0.078-0.013-0.274-0.014-0.314-0.009l0.253,0.026c-0.081,0.029-0.12,0.034-0.276,0.029
						c-0.046,0.09,0.474-0.028,0.27,0.078c-0.021-0.008-0.059-0.004-0.097-0.022c-0.106,0.107,0.161,0.206,0.036,0.304
						c-0.375,0.029-0.092-0.086-0.409-0.053c0.068,0.142,0.45,0.292,0.362,0.429l0.042-0.025c0.53,0.019-0.262,0.102-0.012,0.171
						c-0.039-0.017-0.294-0.022-0.235-0.018c-0.085,0.094,0.13,0.191,0.297,0.333l-0.136-0.018c-0.122,0.055-0.07,0.145-0.132,0.205
						c0.136,0.018,0.114,0.052,0.312,0.031c-0.776,0.184,0.416,0.351-0.23,0.514c-0.001-0.02-0.119-0.046-0.119-0.031l0.125,0.139
						c0.231-0.011,0.14-0.019,0.32-0.047c0.137,0.018,0.243,0.057,0.243,0.091c-0.153-0.062-0.371,0.001-0.5,0.028
						c0.071,0,0.149,0.001,0.221,0.002c-0.411,0.072,0.465,0.012,0.188,0.111l-0.122-0.005c0.062,0.037,0.223,0.071,0.188,0.111
						c-0.268,0.017-0.125-0.04-0.345-0.042c0.015,0.056,0.506,0.11,0.24,0.162c-0.074-0.024-0.076-0.059-0.149-0.082
						c-0.314,0.055-0.234,0.062-0.284,0.103l0.007-0.004l-0.142,0.095l0.085-0.024c0.697,0.07,0.127,0.143,0.584,0.238
						c-0.432-0.092-0.25-0.015-0.553-0.022c-0.084,0.024-0.178,0.061-0.263,0.051c0.244,0.044-0.193,0.075,0.165,0.138
						c-0.097,0.003-0.009,0.048-0.254,0.038c0.077,0.058,0.17-0.014,0.292-0.009c0.333,0.09-0.404,0.211,0.053,0.34
						c0.188,0.111,0.517,0.132,0.681,0.235c-0.156,0.035-0.355-0.028-0.355-0.028c-0.144,0.056-0.117,0.098-0.006,0.151
						c-0.085-0.011-0.157,0-0.266,0.016c0.025,0.042,0.355,0.029,0.211,0.084c-0.109-0.009-0.283-0.022-0.392-0.042
						c0.09,0.05,0.272,0.099,0.36,0.151c-0.17,0.014-0.258-0.031-0.369-0.049c0.077,0.058,0.154,0.151,0.423,0.169l0.096-0.038
						c0.013,0.021-0.231,0.011-0.28-0.004c-0.211-0.05,0.093-0.072,0.191-0.075l0.063,0.037c0.572-0.038-0.092-0.148-0.059-0.223
						l0.416,0.031l-0.345-0.076c0.108-0.017,0.341-0.027,0.403,0.009c0.206-0.053-0.148-0.047,0.082-0.093
						c0.036-0.005,0.056-0.002,0.072,0.002l-0.124-0.052c0.087,0.01,0.293-0.009,0.233,0.023c0.24-0.094-0.312-0.151,0.003-0.186
						l0.025,0.008c-0.141-0.13-0.306-0.013-0.664-0.11l0.753-0.065l-0.305-0.013c0.011-0.013,0.034-0.04,0.156-0.035
						c-0.209-0.049-0.133,0.009-0.33-0.02c0.278-0.064-0.13-0.178,0.356-0.192c-0.232-0.023-0.179,0.062-0.34-0.007
						c0.523-0.02-0.089-0.08,0.15-0.138c0.27,0.018,0.127,0.074,0.368,0.015c-0.457-0.035,0.1-0.114,0.013-0.164
						c-0.363-0.002-0.152-0.108-0.273-0.191c0.122,0.005,0.2-0.157,0.331-0.234l0.061,0.002c-0.367-0.015-0.298-0.095-0.374-0.153
						c0.22,0.002,0.307,0.013,0.405,0.044l-0.002-0.055c-0.118-0.013-0.18-0.03-0.222-0.065l0.274,0.014
						c-0.015-0.073-0.323-0.147-0.14-0.24c-0.256-0.005-0.713,0.074-0.884-0.025c0.139-0.003,0.375-0.007,0.432,0.019
						c-0.018-0.009-0.115-0.03-0.056-0.048l0.233,0.04c0.103-0.043-0.194-0.022-0.173-0.057c0.198,0,0.141-0.025,0.298-0.021
						c0.019,0.009-0.082,0.03-0.004,0.043c0.036-0.039,0.152-0.085,0.302-0.1c-0.112,0.003-0.266,0-0.292-0.028
						c-0.015-0.073,0.237-0.025,0.339-0.067c-0.137-0.018,0.005-0.064-0.29-0.065c0.001-0.021,0.139-0.025,0.219-0.033
						c-0.13-0.038-0.037-0.176-0.351-0.133L50.397,98c-0.006-0.002-0.007-0.003-0.013-0.006l0,0l0,0
						c-0.293-0.124,0.167-0.256,0.041-0.379h0.099c-0.113-0.073-0.066-0.163-0.279-0.215c0-0.021,0.18-0.051,0.298-0.042
						c-0.074-0.056-0.185-0.062-0.022-0.143c0.172,0.056,0.153-0.02,0.126,0.058c0.085-0.073,0.243-0.089-0.027-0.167
						c0.253,0.026,0.319-0.055,0.243-0.089l-0.181,0.051c-0.037-0.039-0.014-0.073,0.007-0.107l0.333,0.019
						c0.405-0.149-0.688-0.268-0.011-0.381c-0.232-0.039-0.164,0.081-0.436,0.046c0.045-0.068,0.522-0.14,0.523-0.161
						c0.185-0.094-0.486-0.087-0.36-0.186c-0.119,0.013-0.436,0.024-0.547-0.049c0.044-0.068,0.498-0.084,0.593-0.041
						c0.01,0.017-0.028,0.024-0.068,0.024c0.043,0.022,0.094,0.051,0.223,0.024l-0.119-0.009c0.121-0.034,0.108-0.128,0.303-0.106
						c-0.113-0.052-0.194-0.022-0.256,0.016c0.172-0.088,0.005-0.137,0.121-0.228c-0.065,0.015-0.205,0.028-0.204,0.014
						c0.147-0.133-0.225-0.059-0.277-0.148c0.181-0.051,0.432,0.019,0.28-0.072c0.123-0.055,0.315-0.012,0.412,0.01
						c-0.229-0.083,0.15-0.154,0.192-0.201l0.096,0.043c-0.057-0.026-0.055-0.047-0.055-0.069l-0.237,0.025
						c0.042-0.025,0.042-0.047,0.141-0.046c-0.155-0.026-0.395,0.02-0.607-0.032c0.121-0.034-0.129-0.103,0.186-0.115
						c-0.107,0.106,0.316-0.012,0.367,0.078c-0.038-0.017-0.036-0.039,0.006-0.064c0.035-0.004,0.065,0.003,0.083,0.011
						c0.282-0.103-0.356-0.047-0.349-0.153c0.177,0.013,0.336-0.025,0.299-0.042c-0.004,0.042-0.296,0.021-0.432-0.019
						c0.138-0.068-0.103-0.074-0.087-0.109l-0.065,0.041c-0.177-0.014-0.154-0.048-0.21-0.095c0.138-0.004,0.095,0.043,0.156,0.026
						c-0.312-0.053,0.323-0.119,0.113-0.192c0.12-0.034,0.333-0.003,0.415-0.033c-0.23-0.082,0.243-0.089,0.053-0.175
						c-0.239,0.025-0.18,0.029-0.413-0.032l0.168,0.142l-0.347-0.091c-0.003,0.042,0.15,0.09,0.109,0.116
						c-0.195-0.043-0.135-0.039-0.333-0.019c0.358-0.059-0.208-0.116,0.033-0.184l0.591,0.002c0.263-0.102-0.303-0.181-0.154-0.313
						l-0.103,0.042c-0.235-0.018-0.033-0.082-0.128-0.125c0.198,0.004,0.269-0.023,0.392-0.041
						c-0.146,0.002,0.014-0.097-0.381-0.109l0.26-0.059c0.106-0.106-0.563-0.122-0.496-0.224c0.215,0.031,0.354-0.016,0.508,0.053
						c0.002-0.034,0.038-0.065-0.099-0.065c0.124-0.02-0.266-0.095-0.078-0.126c-0.087-0.015-0.293-0.019-0.277-0.058
						c0.04-0.004,0.098,0,0.098,0c-0.098,0-0.133-0.06-0.351-0.026c0.616-0.106-0.045-0.295,0.484-0.387
						c-0.066-0.075-0.129-0.165-0.144-0.232c0.059,0.004,0.099,0,0.078,0.013c0.184-0.093-0.567-0.057-0.362-0.164
						c0.319-0.054,0.172,0.057,0.293,0.023c0.649-0.015-0.089-0.129,0.291-0.2l0.038,0.017c0.221-0.055-0.246-0.134-0.2-0.223
						c0,0,0.058,0.004,0.098,0c-0.331-0.062-0.441-0.177-0.533-0.263c0.254,0.027,0.134,0.039,0.393,0.022
						c-0.037-0.039-0.415,0.011-0.487-0.065c0.139-0.025,0.261-0.081,0.536-0.088l0.015,0.073c0.356-0.037-0.012-0.094,0.05-0.132
						l0.156,0.005c-0.051-0.111-0.443-0.113-0.416-0.233l-0.118,0.013c-0.389-0.065,0.219-0.055-0.07-0.12l0.395-0.02
						c-0.095-0.043-0.382-0.151-0.456-0.229c0.293,0.044,0.442,0.134,0.616,0.19c0.003-0.043-0.029-0.146-0.224-0.167
						c0.038,0.017,0.135,0.039,0.074,0.056c-0.31-0.052-0.463-0.122-0.456-0.207c0.765,0.015,0.193-0.223,0.787-0.284
						c-0.283-0.151,0.121-0.3,0.076-0.476c-0.596,0.063-0.017-0.051-0.628-0.041c-0.039-0.041-0.029-0.056,0.011-0.06l0.365-0.124
						c0.178-0.029,0.135,0.039,0.272,0.035c0.047-0.09,0.259-0.038,0.421-0.097c-0.219,0.012-0.313-0.031-0.229-0.083l-0.282,0.072
						c-0.325-0.125,0.513-0.108,0.191-0.234l0.192,0.04c-0.113-0.065,0.004-0.239-0.487-0.303c0.071-0.011,0.238-0.026,0.282,0.002
						c0.074-0.155-0.523-0.345-0.22-0.465l0.149,0.012c-0.043-0.029-0.281-0.05-0.13-0.087c0.062,0.002,0.149,0.012,0.158-0.001
						c-0.051-0.015-0.262-0.077-0.175-0.115l0.168,0.033c0.196-0.151-0.41-0.231-0.512-0.358c0.44,0,0.583-0.119,0.654-0.178
						l0.063,0.002c0.054-0.176-0.365-0.299-0.538-0.461c0.478-0.102,0.2-0.343,0.468-0.505c-0.08,0.025-0.343-0.004-0.387-0.033
						c0.089-0.038-0.305-0.105,0.098-0.1l-0.007,0.014c0.396-0.029,0.291-0.107,0.301-0.168l-0.528-0.01
						c0.768-0.16-0.282-0.419,0.406-0.507c-0.132-0.039-0.131-0.086-0.263-0.125l0.283,0.002c0.072-0.107,0.108-0.161,0.041-0.293
						l0.202,0.027c0.019-0.074-0.816-0.094-0.833-0.163l0.423-0.021c-0.007-0.13,0.364-0.262-0.019-0.391
						c0.062,0.002,0.184,0.006,0.201,0.027c0.011-0.061,0.286-0.237-0.294-0.214c0.378-0.002,0.037-0.134-0.129-0.205l0.278,0.011
						c-0.356-0.06-0.453-0.061-0.552-0.144c0.036-0.02,0.223-0.017,0.152,0.009c0.146-0.065-0.264-0.051-0.116-0.13l0.178,0.03
						c0.021-0.067-0.074-0.062-0.282-0.099c-0.112-0.042,0.07-0.128,0.322-0.138c-0.153-0.009-0.359-0.046-0.286-0.085
						c0.095-0.005,0.154,0.009,0.183,0.016c0.189-0.113-0.324-0.167-0.05-0.245c0.092-0.002,0.138-0.007,0.166-0.013
						c-0.007,0.089-0.022,0.162-0.042,0.155c0.257,0,0.302-0.072,0.657-0.015c-0.194-0.058-0.615-0.157-0.494-0.228
						c0.025-0.002,0.049-0.005,0.089-0.009l0.029,0.007c0.025-0.016,0.001-0.031-0.042-0.044c0.042-0.022,0.073-0.037,0.077-0.058
						c0.212-0.008,0.115-0.083,0.125-0.119c-0.281,0.003-0.236-0.044-0.468,0c0.02-0.006,0.034,0.007,0.045,0.031
						c0.008,0.005,0.013,0.012,0.029,0.016l-0.025-0.002c0.008,0.023,0.015,0.054,0.019,0.089c-0.143-0.028-0.263-0.058-0.107-0.098
						c-0.181-0.02-0.366-0.041-0.454-0.05c0.392-0.049,0.604-0.144,0.846-0.157c-0.158-0.11-0.104-0.259-0.632-0.329
						c-0.068-0.031,0.151-0.036,0.234-0.047c0.053,0.018,0.045,0.04,0.121,0.049c-0.136-0.063-0.053-0.186-0.422-0.2
						c0.167-0.079,0.34,0.044,0.279-0.064l0.113,0.015c0.59-0.213-0.941-0.347-0.185-0.583c-0.046,0.016-0.068,0.024-0.13,0.028
						c0.334-0.27-0.313-0.555,0.216-0.821c0.106-0.076-0.129-0.083-0.308-0.13l0.302-0.016l-0.348-0.079
						c-0.255-0.112,0.741-0.193,0.258-0.335l-0.203,0.019c0.038-0.051-0.12-0.161,0.114-0.153c-0.037-0.005-0.211-0.017-0.105-0.036
						l0.158-0.002l-0.271-0.125c0.114-0.097,0.627,0.015,0.658-0.126c-0.061-0.053-0.46-0.15-0.566-0.13
						c-0.008,0.021-0.099,0.054-0.257,0.056l-0.082-0.048c-0.466-0.009-0.942-0.046-1.268,0.072l0.285,0.082l-0.226,0.026
						l-0.014-0.069c-0.212,0.04-0.024,0.064,0.104,0.092c-0.12,0.007-0.204,0.019-0.249,0.035l0.444,0.081
						c-0.182,0.01-0.361-0.036-0.462,0.018c0.207,0.038,0.409-0.036,0.544,0.026c-0.211,0.039-0.384,0.028-0.203,0.074
						c-0.12,0.006-0.196-0.003-0.249-0.021c0.144,0.041,0.061,0.108,0.309,0.13c-0.261,0.041,0.068,0.139-0.373,0.134
						c0.105,0.013,0.346,0.072,0.364,0.11c-0.527-0.069-0.031,0.141-0.597,0.123c0.475,0.051,0.211,0.184,0.474,0.274
						c-0.038-0.005-0.114-0.015-0.09-0.023c-0.04,0.051-0.183,0.066-0.272,0.098c0.392,0.007,0.481,0.086,0.723,0.128
						c-0.378,0.063-0.46-0.038-0.823-0.018c0.317-0.003,0.317,0.108,0.582,0.087c-0.234,0.048-0.114,0.041-0.438,0.065
						c0.49,0.009,0.083,0.044,0.384,0.084c-0.241,0.069-0.459,0.018-0.31,0.094C48.577,82.748,48.404,82.68,48.404,82.68z
						 M49.251,84.481h-0.006c-0.006-0.015-0.012-0.029-0.016-0.037C49.234,84.452,49.24,84.462,49.251,84.481z M49.255,84.633
						c0.011-0.019,0.013-0.042,0.011-0.065c0.097-0.005,0.197,0,0.192,0.016C49.393,84.575,49.337,84.61,49.255,84.633z
						 M51.203,84.313c0.04,0.024-0.015,0.032-0.073,0.036c-0.005-0.012-0.015-0.025-0.034-0.042l-0.035-0.003
						C51.116,84.307,51.166,84.31,51.203,84.313z"/>
					<path fill="#202020" d="M50.834,84.27c-0.006-0.003-0.018-0.005-0.021-0.01c-0.024,0.005-0.045,0.01-0.063,0.014l0.088,0.009
						L50.834,84.27z"/>
					<path fill="#202020" d="M50.418,97.99l0.006-0.003c-0.011,0.002-0.022,0.004-0.04,0.007
						C50.398,97.992,50.407,97.991,50.418,97.99z"/>
					<polygon fill="#202020" points="48.717,86.723 48.788,86.723 48.726,86.709 					"/>
					<path fill="#202020" d="M49.453,98.824c-0.024,0.001-0.05,0.004-0.072,0.011C49.4,98.834,49.425,98.83,49.453,98.824z"/>
					<path fill="#202020" d="M49.39,99.184l-0.1,0.051C49.347,99.212,49.374,99.197,49.39,99.184z"/>
					<path fill="#202020" d="M49.251,99.46c0.049,0.002,0.086,0.004,0.12,0.005l0.002,0L49.251,99.46z"/>
					<path fill="#202020" d="M48.92,95.059c-0.001-0.004-0.005-0.007-0.013-0.011C48.854,95.023,48.875,95.04,48.92,95.059z"/>
					<path fill="#202020" d="M49.577,96.369c-0.051-0.014-0.101-0.028-0.133-0.042C49.423,96.35,49.417,96.368,49.577,96.369z"/>
					<polygon fill="#202020" points="48.582,93.596 48.587,93.596 48.587,93.587 					"/>
					<path fill="#202020" d="M49.449,96.266c-0.056,0.023-0.044,0.042-0.005,0.061C49.463,96.307,49.492,96.285,49.449,96.266z"/>
					<path fill="#202020" d="M49.123,100.661l-0.011,0.013c0.019,0,0.034,0.001,0.045,0.001L49.123,100.661z"/>
					<path fill="#202020" d="M49.157,100.675l0.033,0.015C49.19,100.684,49.188,100.678,49.157,100.675z"/>
					<path fill="#202020" d="M49.261,100.722l-0.071-0.031C49.189,100.701,49.181,100.714,49.261,100.722z"/>
					<path fill="#202020" d="M49.253,100.294l-0.102-0.004C49.172,100.291,49.205,100.292,49.253,100.294z"/>
					<path fill="#202020" d="M49.224,100.183c-0.023,0.027-0.217,0.067-0.153,0.104l0.081,0.003
						C49,100.272,49.396,100.208,49.224,100.183z"/>
					<path fill="#202020" d="M50.484,99.718l-0.082,0.093c0.108-0.016,0.254-0.038,0.281,0.005
						C51.007,99.698,50.44,99.84,50.484,99.718z"/>
					<path fill="#202020" d="M50.641,99.428c0.051,0.05,0.158,0,0.219,0.002C50.761,99.398,50.736,99.391,50.641,99.428z"/>
					<path fill="#202020" d="M50.642,97.337l0.256,0.005C50.861,97.303,50.799,97.342,50.642,97.337z"/>
					<polygon fill="#202020" points="49.32,96.938 49.161,96.975 49.396,96.993 					"/>
					<polygon fill="#202020" points="51.142,96.701 51.179,96.718 51.086,96.653 					"/>
					<path fill="#202020" d="M51.051,93.189l-0.315,0.012C50.793,93.227,51.147,93.232,51.051,93.189z"/>
					<path fill="#202020" d="M50.73,91.672c0.158-0.017,0.259-0.059,0.104-0.085C50.813,91.621,50.69,91.655,50.73,91.672z"/>
					<polygon fill="#202020" points="51.244,87.125 51.349,87.155 51.261,87.098 					"/>
				</g>
			</g>
		</g>
	</g>
</g>
<line fill="none" stroke="#000000" stroke-width="40" stroke-miterlimit="10" x1="39" y1="40.34" x2="117.333" y2="44.34"/>
<line fill="none" stroke="#000000" stroke-width="40" stroke-miterlimit="10" x1="117.333" y1="44.34" x2="179.333" y2="52.673"/>
<line fill="none" stroke="#000000" stroke-width="40" stroke-miterlimit="10" x1="192.333" y1="70.34" x2="228" y2="120.34"/>
<line fill="none" stroke="#000000" stroke-width="40" stroke-miterlimit="10" x1="289.335" y1="75.673" x2="329.669" y2="75.339"/>
<line fill="none" stroke="#000000" stroke-width="40" stroke-miterlimit="10" x1="386.669" y1="80.006" x2="424.002" y2="79.673"/>
</svg>
