<?xml version="1.0" encoding="utf-8"?>
<!-- Generator: Adobe Illustrator 16.0.0, SVG Export Plug-In . SVG Version: 6.00 Build 0)  -->
<!DOCTYPE svg PUBLIC "-//W3C//DTD SVG 1.1//EN" "http://www.w3.org/Graphics/SVG/1.1/DTD/svg11.dtd">
<svg version="1.1" id="Calque_1" xmlns="http://www.w3.org/2000/svg" xmlns:xlink="http://www.w3.org/1999/xlink" x="0px" y="0px"
	 width="155.173px" height="145.019px" viewBox="777.213 13.657 155.173 145.019"
	 enable-background="new 777.213 13.657 155.173 145.019" xml:space="preserve">
<g transform="translate(0 1747.6)">
	<rect x="772.002" y="-1747.6" display="none" fill="#006680" width="163.006" height="173.504"/>
	<path display="none" fill="#0088AA" d="M850.402-1729.595c-28.852,0-55.748,9.143-78.4,24.92v130.581h163.006v-126.007
		C911.139-1718.673,881.936-1729.595,850.402-1729.595L850.402-1729.595z"/>
	<path display="none" fill="#00AAD4" d="M861.12-1696.58c-33.55,0-64.456,12.364-89.118,33.146v89.336h163.006v-100.57
		c-21.675-13.922-46.928-21.907-73.888-21.907V-1696.58z"/>
	<path display="none" fill="#00CCFF" d="M887.625-1655.751c-47.05,0-88.904,24.315-115.624,62.077v19.576h163.006v-73.063
		c-14.859-5.565-30.797-8.586-47.381-8.586L887.625-1655.751z"/>
	
		<linearGradient id="SVGID_1_" gradientUnits="userSpaceOnUse" x1="-805.5239" y1="-2005.8004" x2="-799.4039" y2="-2395.5242" gradientTransform="matrix(-0.1964 0 0 -0.1964 695.4457 -2004.8445)">
		<stop  offset="0" style="stop-color:#00D400"/>
		<stop  offset="1" style="stop-color:#669900"/>
	</linearGradient>
	<path display="none" fill="url(#SVGID_1_)" d="M772.002-1574.096h163.006v-45.485c-20.358-5.093-49.664-7.79-78.97,5.579
		c-42.348,19.317-62.582-4.65-84.036-12.083V-1574.096z"/>
	
		<linearGradient id="SVGID_2_" gradientUnits="userSpaceOnUse" x1="-803.6143" y1="-292.2921" x2="-809.7286" y2="-673.9918" gradientTransform="matrix(-0.1964 0 0 -0.1964 695.4457 -1661.5652)">
		<stop  offset="0" style="stop-color:#00AA00"/>
		<stop  offset="1" style="stop-color:#669900"/>
	</linearGradient>
	<path display="none" fill="url(#SVGID_2_)" d="M897.807-1616.843c-10.418,0.003-22.313,1.768-35.563,6.421
		c-49.121,17.25-54.781,19.64-90.242,9.442v26.881h163.006v-34.329C926.407-1612.67,913.861-1616.848,897.807-1616.843
		L897.807-1616.843z"/>
	
		<linearGradient id="SVGID_3_" gradientUnits="userSpaceOnUse" x1="-805.0649" y1="-2140.3857" x2="-803.5248" y2="-2248.5112" gradientTransform="matrix(-0.1964 0 0 -0.1964 695.4457 -2004.8445)">
		<stop  offset="0" style="stop-color:#008000"/>
		<stop  offset="1" style="stop-color:#669900"/>
	</linearGradient>
	<path display="none" fill="url(#SVGID_3_)" d="M834.229-1589.017c-6.108,0.011-12.434,1.266-21.06,4.116
		c-20.225,6.68-27.42,8.873-41.17,1.537v9.27h163.005v-9.345c-10.292,4.692-31.324,11.6-56.124,4.843
		C856.021-1584.826,845.496-1589.037,834.229-1589.017L834.229-1589.017z"/>
	<ellipse display="none" fill="#FFFF00" cx="866.66" cy="-1719.047" rx="15.512" ry="16.511"/>
	<g display="none">
		<path display="inline" fill="#FFFFFF" d="M887.79-1724.86c-9.611,0-17.798,7.265-20.91,17.441
			c-1.477-0.572-3.068-0.885-4.725-0.885c-5.7,0-10.606,3.686-12.814,8.985c-0.773-0.318-1.616-0.494-2.494-0.494
			c-2.731,0-5.09,1.688-6.224,4.14h84.431c-0.604-3.444-3.429-6.051-6.822-6.051c-0.093,0-0.186,0.001-0.279,0.006
			c-0.722-1.217-1.599-2.314-2.599-3.261h17.033c-0.656-1.494-2.024-2.521-3.605-2.521c-0.509,0-0.995,0.106-1.443,0.3
			c-1.279-3.228-4.121-5.472-7.422-5.472c-0.96,0-1.881,0.19-2.736,0.539c-1.802-6.199-6.545-10.625-12.111-10.625
			c-2.078,0-4.042,0.616-5.78,1.712C895.933-1723.467,891.997-1724.86,887.79-1724.86L887.79-1724.86z"/>
		<path display="inline" fill="#FFFFFF" d="M802.083-1733.943c-7.982,0-14.504,6.479-14.935,14.638
			c-0.864-0.403-1.815-0.628-2.814-0.628c-3.653,0-6.668,2.984-7.121,6.846h56.709c-0.855-1.565-2.53-2.629-4.457-2.629
			c-0.998,0-1.928,0.286-2.712,0.778c-1.137-2.697-3.631-4.57-6.524-4.57c-1.147,0-2.232,0.296-3.194,0.819
			C816.91-1727.135,810.265-1733.943,802.083-1733.943L802.083-1733.943z"/>
		<path display="inline" fill="#FFFFFF" d="M807.584-1670.528c-5.566,0-10.307,4.425-12.109,10.625
			c-0.855-0.349-1.776-0.539-2.736-0.539c-3.301,0-6.144,2.245-7.422,5.474c-0.448-0.194-0.935-0.301-1.444-0.301
			c-1.581,0-2.948,1.028-3.604,2.522h48.896c-0.35-2.098-1.986-3.686-3.951-3.686c-0.053,0-0.107,0.001-0.161,0.003
			c-1.23-2.181-3.235-3.735-5.57-4.156C817.539-1666.425,812.943-1670.528,807.584-1670.528L807.584-1670.528z"/>
	</g>
	<g transform="translate(95.916)">
		<path fill="#008E09" d="M823.92-1596.608c10.576,8.705-17.627,9.005-26.934,5.854c-9.307-3.152-8.601,0.75-21.575,1.501
			s-16.499-6.004-12.41-9.606c4.089-3.602,16.075,3.903,22.139,1.501c6.064-2.401,11.563,0.3,15.793,1.351
			c4.231,1.051,6.627,0.601,13.96-1.651C822.227-1599.91,823.919-1596.608,823.92-1596.608L823.92-1596.608z"/>
		<path fill="#FFFFFF" d="M776.248-1669.182c-6.793-0.015-11.429,1.554-15.991,4.423c-8.159-6.293-14.555-2.227-13.788,1.047
			c1.563,6.68,10.754,4.396,10.754,4.396s-14.49,23.422,16.246,29.526c-1.425,5.549,0.464,17.084,0.901,19.721
			c0.724,4.379,1.464,6.92,1.803,8.801c0.317,1.763-1.357,7.407,1.248,7.535c6.744,0.332,7.764,0.451,7.835-3.077
			c0.072-3.548-0.051-3.608,0.06-5.942c8.309,4.458,17.052,2.977,21.547-0.851c0.153,1.35,0.467,3.316,0.695,4.975
			c0.267,1.937-2.352,5.276,1.081,5.415c5.263,0.213,6.692,1.475,6.76-5.039c0.034-3.259,1.346-4.695,2.339-13.841
			c0.369-3.393,0.225-8.166-0.646-12.085c1.042,0.417,2.714,0.956,4.799,1.154c3.066,0.292,3.591-2.149,3.591-2.149
			s0.198,0.08,0.597-0.186c1.496-1.327,1.82-4.35-1.57-6.367c0.897,1.751-1.421,4.324,0.573,6.446
			c-1.239,3.663-6.337,0.772-8.437-0.612c-0.702-2.31-1.715-4.132-3.098-4.879c-3.405-1.839-8.16-2.637-14.272-2.918
			c7.312-7.073,4.521-19.115,4.521-19.115c3.439,1.701,9.536,1.132,10.533-1.524c0.999-2.655-1.995-9.736-12.141-6.019
			c-4.298-5.136-12.88-7.731-20.292-8.508C779.85-1669.071,777.979-1669.178,776.248-1669.182L776.248-1669.182z"/>
		<path fill="#FFD5D5" d="M762.844-1652.778c-2.602-0.001-4.99,0.074-7.12,0.19c-2.228,7.099-2.292,19.277,21.523,22.411
			c21.842,2.874,25.759-8.372,26.063-15.729C788.464-1651.398,773.78-1652.772,762.844-1652.778L762.844-1652.778z"/>
		<g transform="translate(-322 548.09)">
			<ellipse cx="1111.047" cy="-2204.632" rx="1.83" ry="2.567"/>
			<ellipse fill="#FFFFFF" cx="1111.542" cy="-2205.514" rx="0.499" ry="0.974"/>
			<ellipse fill="#FFFFFF" cx="1110.591" cy="-2203.592" rx="0.323" ry="0.571"/>
		</g>
		<g transform="rotate(2.3065 -11725 -866.22)">
			<path d="M730.812-2160.972c0.111,1.414-0.616,2.627-1.623,2.711c-1.007,0.084-1.914-0.994-2.024-2.407
				c-0.111-1.413,0.617-2.627,1.623-2.711C729.795-2163.464,730.701-2162.385,730.812-2160.972z"/>
			
				<ellipse transform="matrix(-0.9966 0.0827 -0.0827 -0.9966 1277.4552 -4376.4229)" fill="#FFFFFF" cx="729.413" cy="-2161.741" rx="0.499" ry="0.974"/>
			
				<ellipse transform="matrix(-0.9965 0.0833 -0.0833 -0.9965 1274.8263 -4372.668)" fill="#FFFFFF" cx="728.615" cy="-2159.745" rx="0.323" ry="0.57"/>
		</g>
		<path d="M768.515-1641.375c-0.065-0.003-0.13-0.002-0.194,0.003c-1.119,0.099-2.108,1.472-1.59,2.684
			c0.002,0.004,0.004,0.008,0.005,0.013c0.07,0.154,0.244,0.218,0.389,0.144c0.145-0.075,0.206-0.26,0.135-0.414
			c-0.149-0.349-0.08-0.733,0.105-1.058c4.208,4.852,9.018,5.739,12.748,5.387c3.748-0.353,6.444-1.942,6.444-1.942
			c0.028-0.016,0.053-0.038,0.075-0.064c0.154,0.405,0.153,0.864-0.107,1.201c0,0-0.001,0.001-0.001,0.002
			c-0.102,0.132-0.084,0.327,0.041,0.436c0.125,0.108,0.309,0.089,0.41-0.043c0.918-1.186-0.052-3.131-1.399-3.124
			c-0.09,0-0.18,0.008-0.272,0.027c-0.001,0-0.002,0-0.003,0c-0.159,0.033-0.262,0.195-0.231,0.363
			c0.03,0.169,0.183,0.279,0.341,0.247c0.344-0.069,0.676,0.105,0.922,0.389c-0.02,0.005-0.039,0.014-0.056,0.023
			c0,0-2.593,1.526-6.213,1.867c-3.613,0.34-8.212-0.487-12.304-5.23c0.327-0.262,0.737-0.375,1.088-0.195
			c0.001,0,0.001,0.001,0.002,0.001c0.146,0.074,0.319,0.008,0.389-0.147c0.069-0.155,0.007-0.34-0.138-0.414
			C768.908-1641.317,768.711-1641.366,768.515-1641.375L768.515-1641.375z"/>
		<path fill="#4D4D4D" d="M790.242-1667.237c1.163,4.354,3.074,9.709,5.896,12.388c2.757,2.618,5.83,4.396,8.114,5.491
			c-0.14-2.082-0.456-3.449-0.456-3.449c0.741,0.367,1.607,0.626,2.518,0.785c-0.441-0.69-0.55-1.679,0.542-2.979
			c1.621-1.928,1.952-4.542,0.733-6.403c-1.514-0.021-3.305,0.287-5.401,1.055C799.464-1663.604,795.02-1665.838,790.242-1667.237
			L790.242-1667.237z M771.222-1648.197c-0.241-0.015-0.438,0.108-0.561,0.424c-0.713,1.838,2.068,5.478,3.921,2.89
			C774.582-1644.884,772.383-1648.127,771.222-1648.197L771.222-1648.197z M785.054-1646.306c-1.219-0.008-3.846,2.417-3.846,2.417
			c1.246,2.971,4.736,0.106,4.437-1.857C785.584-1646.145,785.364-1646.304,785.054-1646.306L785.054-1646.306z M799.276-1633.693
			c-1.818,1.758-4.26,3.21-7.525,4.093c0.734,0.843,1.676,1.639,2.836,2.068c3.244,1.201,3.102-3.901,7.756-4.202
			c1.912-0.124,2.443-0.781,2.405-1.51C803.064-1633.459,801.24-1633.604,799.276-1633.693L799.276-1633.693z M824.507-1631.728
			c0.897,1.751-1.419,4.324,0.576,6.446c0.212-0.532,0.548-0.448,0.398,0.106c0,0,0.2,0.079,0.599-0.186
			C827.575-1626.688,827.898-1629.712,824.507-1631.728L824.507-1631.728z M814.243-1630.28c0.177,0.817-0.142,1.415-1.606,1.247
			c-3.948-0.45-2.678,5.705-0.14,4.354c2.538-1.351,4.511,1.501,2.396,2.101c-1.894,0.538,0.508,6.847,2.955,4.07
			C817.561-1623.308,816.465-1628.317,814.243-1630.28L814.243-1630.28z M775.588-1629.408c0.342,0.697,2.965,2.136,2.049,3.613
			c-1.53,2.466,2.225,4.11,6.536,3.186c4.312-0.925-2.225-3.289,0-4.624c0.911-0.547,0.495-1.042-0.315-1.435
			c-2.026-0.006-4.247-0.164-6.684-0.5C776.634-1629.243,776.105-1629.324,775.588-1629.408L775.588-1629.408z M796.322-1617.071
			c-5.359-1.5-4.512,2.702-1.55,6.154c2.96,3.452,3.242-3.002,5.357-1.201c2.115,1.802,2.539-2.7,1.27-6.002
			c-0.337-0.877-0.854-1.215-1.43-1.237c-0.025-0.001-0.05-0.002-0.075-0.002C798.313-1619.347,796.322-1617.071,796.322-1617.071z
			 M814.68-1609.728c-1.153-0.041-1.992,2.146-1.663,4.272c0.246,1.586,1.949,1.824,3.366,1.737
			c0.275-1.204,0.583-2.696,0.884-4.696c-0.508,0.102-0.997,0.014-1.464-0.584C815.415-1609.495,815.033-1609.716,814.68-1609.728
			L814.68-1609.728z"/>
		<path fill="#FFD5D5" d="M767.508-1672.522c-1.239-0.049-2.941,2.934-3.417,6.455c0,0,3.304,0.029,5.167-1.036
			c-0.265-1.958-0.228-3.948-1.121-5.062C767.951-1672.399,767.737-1672.513,767.508-1672.522L767.508-1672.522z M796.959-1669.077
			c-0.183-0.002-0.368,0.063-0.554,0.209c-1.106,0.87-1.491,2.817-2.165,4.661c1.588,1.485,4.812,2.253,4.812,2.253
			C799.348-1665.628,798.234-1669.058,796.959-1669.077L796.959-1669.077z M752.265-1665.944c-0.062,0-0.122,0-0.182,0
			c-1.799,0.011-3.029,0.605-3.473,1.005c-0.917,0.826-0.212,3.228,2.256,4.429c2.467,1.201,6.84,0.261,6.84,0.261l1.797-2.813
			C756.65-1665.237,754.159-1665.915,752.265-1665.944L752.265-1665.944z M802.9-1657.133l0.846,3.377
			c8.249,2.102,9.73-0.826,9.378-2.252c-0.826-2.023-2.568-2.638-4.383-2.635C805.911-1658.64,802.9-1657.133,802.9-1657.133z
			 M787.719-1607.997c-0.167-0.003-0.343,0.013-0.533,0.052c-3.042,0.625-2.145,3.096-1.874,5.285
			c0.001-0.032,0.002-0.06,0.003-0.093c8.309,4.458,17.052,2.978,21.547-0.85c-0.029-1.436-0.681-2.86-0.992-3.214
			c-4.069-2.37-3.147,2.571-8.814,2.55C790.375-1603.532,790.219-1607.956,787.719-1607.997L787.719-1607.997z"/>
		<path fill="#4D4D4D" d="M775.954-1597.252c-0.098,1.795,0.066,3.454,1.465,3.522c6.744,0.332,7.763,0.451,7.835-3.077
			c0.001-0.063,0.003-0.119,0.004-0.18C783.31-1596.359,780.104-1595.89,775.954-1597.252L775.954-1597.252z M807.205-1596.437
			c-0.448,1.589-0.878,3.133,1.432,3.226c4.447,0.18,6.157,1.108,6.622-2.537C813.516-1595.232,810.914-1595.05,807.205-1596.437
			L807.205-1596.437z"/>
	</g>
</g>
</svg>
